<svg width="64" height="64" viewBox="0 0 64 64" fill="none" xmlns="http://www.w3.org/2000/svg">
<path d="M51.8138 36.519H49.125V34.7077C49.125 34.294 48.7887 33.9577 48.375 33.9577H32.5312V30.9602L34.885 28.6265C35.1413 28.6365 35.395 28.644 35.6437 28.644C38.925 28.644 41.5037 27.7402 43.315 25.9527C45.3475 23.9477 46.2975 20.9702 46.1413 17.104C46.125 16.714 45.8138 16.4015 45.4238 16.3852C41.575 16.219 38.6063 17.1615 36.6 19.184C34.6925 21.1077 33.7863 23.904 33.895 27.4952L32.53 28.849V20.6165C34.48 19.9515 35.8062 18.8877 36.4713 17.4515C37.1663 15.949 37.08 14.0777 36.2213 12.0415C36.07 11.6815 35.6688 11.499 35.2975 11.6202C35.0588 11.6977 34.8313 11.7815 34.61 11.8702C34.67 10.279 33.9025 8.66772 32.3563 7.20522C32.0725 6.93647 31.6313 6.93147 31.34 7.19147C29.5525 8.79397 28.9812 10.3315 28.9425 11.6027C28.7762 11.5302 28.6063 11.459 28.43 11.3927C28.065 11.2552 27.6562 11.4202 27.4875 11.7715C26.5375 13.7665 26.3663 15.6315 26.9925 17.164C27.6163 18.6915 28.975 19.8465 31.0287 20.599V28.839L30.1225 27.9327C30.2463 24.3065 29.3412 21.4852 27.42 19.5502C25.4137 17.5277 22.445 16.5852 18.5962 16.7515C18.2062 16.7677 17.895 17.0802 17.8787 17.4702C17.7225 21.3365 18.6737 24.314 20.7063 26.319C22.5175 28.1065 25.095 29.0102 28.3775 29.0102C28.6025 29.0102 28.8325 29.004 29.0637 28.9965L31.0275 30.9602V33.959H15.365C14.9512 33.959 14.615 34.2952 14.615 34.709V36.5202H11.75C11.3363 36.5202 11 36.8565 11 37.2702V52.1515C11 52.5652 11.3363 52.9015 11.75 52.9015H27.85C28.2025 54.7515 29.8312 56.154 31.7812 56.154C33.7313 56.154 35.3612 54.7515 35.7125 52.9015H51.8125C52.2262 52.9015 52.5625 52.5652 52.5625 52.1515V37.269C52.5638 36.854 52.2275 36.519 51.8138 36.519ZM37.6663 20.239C39.2437 18.6477 41.5937 17.8502 44.6587 17.8652C44.6662 20.9465 43.8613 23.3065 42.2625 24.884C40.8787 26.2502 38.9113 27.0002 36.4013 27.124L40.455 23.104C40.7488 22.8127 40.7512 22.3377 40.4587 22.0427C40.1675 21.749 39.6925 21.7465 39.3988 22.039L35.415 25.9902C35.5613 23.5302 36.3162 21.6002 37.6663 20.239ZM21.7638 25.2502C20.1637 23.6715 19.36 21.3127 19.3663 18.2315C22.4263 18.214 24.78 19.014 26.3587 20.6052C27.7212 21.979 28.4775 23.9315 28.6162 26.4227L24.235 22.0415C23.9425 21.749 23.4675 21.749 23.1737 22.0415C22.8813 22.334 22.8813 22.809 23.1737 23.1015L27.56 27.4877C25.0825 27.354 23.1362 26.604 21.7638 25.2502ZM35.1112 16.8202C34.6725 17.7677 33.7913 18.5115 32.485 19.0352C32.4813 19.024 32.4788 19.014 32.475 19.0027C32.935 17.6327 32.985 16.369 32.6187 15.2315C33.1012 14.424 33.93 13.7727 35.095 13.2915C35.555 14.664 35.5613 15.849 35.1112 16.8202ZM31.8288 8.80647C33.0212 10.1352 33.3888 11.4665 32.9263 12.7715C32.5088 13.0665 32.1475 13.394 31.84 13.7527C31.49 13.2915 31.0525 12.8702 30.5325 12.4952C30.2387 11.2615 30.6737 10.024 31.8288 8.80647ZM28.3838 16.5952C27.9788 15.6052 28.0388 14.4227 28.5613 13.0715C29.865 13.6815 30.7225 14.489 31.115 15.4802C31.5012 16.4552 31.4312 17.6127 30.9075 18.9277C29.6262 18.344 28.78 17.5615 28.3838 16.5952ZM16.115 35.4565H31.0325V38.889C31.0325 39.3027 31.3687 39.639 31.7825 39.639C32.1962 39.639 32.5325 39.3027 32.5325 38.889V35.4565H47.625V48.0452H36.3612C34.905 48.0452 33.61 48.589 32.6 49.6165L32.5325 43.1077C32.5287 42.694 32.1938 42.3652 31.775 42.3652C31.3612 42.3702 31.0287 42.709 31.0325 43.1227L31.1 49.5727C30.0963 48.5715 28.8162 48.044 27.3787 48.044H16.115V35.4565ZM51.0638 51.399H35.0338C34.62 51.399 34.2838 51.7352 34.2838 52.149C34.2838 53.529 33.1612 54.6515 31.7812 54.6515C30.4013 54.6515 29.2787 53.529 29.2787 52.149C29.2787 51.7352 28.9425 51.399 28.5287 51.399H12.5V38.019H14.615V48.7952C14.615 49.209 14.9512 49.5452 15.365 49.5452H27.3787C28.49 49.5452 29.4338 49.9615 30.1812 50.784L31.315 52.0302C31.46 52.189 31.6625 52.2752 31.87 52.2752C31.9625 52.2752 32.055 52.2577 32.1437 52.2227C32.2537 52.1802 32.3475 52.1127 32.4237 52.029L33.5575 50.784C34.3063 49.9615 35.2488 49.5452 36.36 49.5452H48.375C48.7887 49.5452 49.125 49.209 49.125 48.7952V38.019H51.0638V51.399Z" fill="#25B567"/>
</svg>
