<svg width="56" height="64" viewBox="0 0 56 64" fill="none" xmlns="http://www.w3.org/2000/svg">
<path d="M18.9295 49.6286C18.2767 49.1952 17.9622 48.4017 18.141 47.6387L21.367 33.8749H13.9416C13.1295 33.8749 12.4097 33.3521 12.1585 32.5798C11.9072 31.8076 12.182 30.9613 12.8387 30.4836L34.9305 14.4169C35.564 13.9562 36.4175 13.9378 37.0704 14.3713C37.7232 14.8047 38.0376 15.5982 37.8589 16.3612L34.6327 30.1249H42.0581C42.8702 30.1249 43.5901 30.6478 43.8412 31.4201C44.0924 32.1923 43.8177 33.0386 43.161 33.5163L21.0694 49.5829C19.9979 50.3621 18.9542 49.6449 18.9295 49.6286Z" fill="#BEF636"/>
<path d="M32.212 4.33122L33.3425 3.20072C34.0747 2.46859 34.0747 1.28134 33.3425 0.549094C32.6104 -0.183031 31.4231 -0.183031 30.6909 0.549094L26.6741 4.56584C26.3225 4.91734 26.125 5.39434 26.125 5.89159C26.125 6.38884 26.3226 6.86584 26.6742 7.21734L30.691 11.234C31.4231 11.966 32.6101 11.9665 33.3426 11.234C34.0749 10.5017 34.0749 9.31459 33.3426 8.58234L33.0592 8.29897C44.0009 10.6315 52.2332 20.371 52.2332 32C52.2332 33.0355 53.0728 33.874 54.1082 33.874C55.1437 33.874 55.9832 33.0335 55.9832 31.998C55.9832 17.9553 45.6699 6.35847 32.212 4.33122Z" fill="#0A4519"/>
<path d="M42.0584 30.1249H34.633L37.859 16.3611C38.0379 15.5981 37.7234 14.8046 37.0705 14.3713C36.4176 13.9378 35.5641 13.9563 34.9306 14.4169L28 19.4571V44.5424L43.1611 33.5161C43.818 33.0385 44.0925 32.1923 43.8414 31.4199C43.5902 30.6475 42.8705 30.1249 42.0584 30.1249Z" fill="#97DB4F"/>
<path d="M29.3257 56.7825L25.309 52.7659C24.5769 52.0339 23.3899 52.0334 22.6574 52.7659C21.9251 53.4981 21.9251 54.6852 22.6574 55.4175L22.9407 55.7009C11.999 53.3684 3.7666 43.6289 3.7666 32C3.7666 30.9645 2.9271 30.126 1.8916 30.126C0.856102 30.126 0.0166016 30.9665 0.0166016 32.002C0.0166016 46.0446 10.33 57.6415 23.7879 59.6686L22.6574 60.7991C21.9251 61.5312 21.9251 62.7185 22.6574 63.4507C23.3895 64.1828 24.5767 64.1828 25.309 63.4507L29.3257 59.434C29.6774 59.0823 29.875 58.6055 29.875 58.1082C29.875 57.611 29.6774 57.134 29.3257 56.7825Z" fill="#0A4519"/>
</svg>
