<svg width="64" height="64" viewBox="0 0 64 64" fill="none" xmlns="http://www.w3.org/2000/svg">
<path d="M61.375 55.2311H44.4437V49.8099C44.9187 49.9236 45.3537 49.9774 45.75 49.9774C47.3913 49.9774 48.3925 49.0949 48.9963 48.1249C51.745 47.7274 53.5387 45.5011 54.06 43.5149C54.5775 41.5449 54.305 38.7961 52.5988 36.8774C53.0063 35.4236 52.6112 34.0424 51.48 33.0311C50.36 32.0299 48.7675 31.6661 47.5163 32.0611C45.7775 29.9611 42.8575 28.9161 40.61 29.6636C38.3563 30.4136 36.6425 32.8874 36.6037 35.2861C34.4512 35.8886 32.95 37.1886 32.625 38.7711C32.24 40.6486 32.7788 42.2974 34.2713 43.8024C34.47 45.3774 35.0475 46.5274 35.99 47.2236C36.9113 47.9036 38.1662 48.1349 39.7262 47.9124C40.2825 49.0886 41.0387 49.5799 41.61 49.7836C42.0363 49.9349 42.4888 49.9711 42.9425 49.8949V55.2311H22.3925V38.6036C22.845 38.8999 23.35 39.1161 23.8862 39.2349C26.305 39.7674 28.705 38.2349 29.2388 35.8161C29.39 35.1324 29.3738 34.4186 29.205 33.7424C29.5613 33.7274 29.9013 33.6761 30.1838 33.6036C32.58 32.9811 34.0238 30.5249 33.4 28.1286C33.0875 26.9274 32.1763 25.5711 31.0025 24.8299C31.7938 23.8061 32.0637 22.4136 31.6875 21.0111C31.2862 19.5149 29.8363 18.0999 28.195 17.7886C28.475 17.0736 28.5687 16.2911 28.4387 15.5799C28.1437 13.9699 26.9025 12.7511 25.3675 12.4286C25.5888 11.4711 25.47 10.4524 25.01 9.55738C23.95 7.49363 21.4087 6.67613 19.345 7.73613C18.2837 8.28113 17.435 9.41113 17.1325 10.6836C16.9662 11.3811 16.9812 12.0574 17.1675 12.6611C15.9712 13.1686 15.0787 14.2524 14.835 15.5786C14.705 16.2899 14.7987 17.0724 15.0787 17.7874C13.4375 18.0999 11.9862 19.5149 11.5863 21.0099C11.21 22.4124 11.48 23.8049 12.2712 24.8286C11.0975 25.5699 10.1862 26.9261 9.87375 28.1274C9.25125 30.5236 10.6938 32.9799 13.09 33.6024C13.3713 33.6749 13.7125 33.7274 14.0675 33.7411C13.8988 34.4174 13.8837 35.1311 14.0337 35.8149C14.495 37.9086 16.3575 39.3386 18.4188 39.3386C18.7375 39.3386 19.0625 39.3049 19.3862 39.2324C19.9275 39.1136 20.4375 38.8936 20.8925 38.5936V55.2299H2.625C2.21125 55.2299 1.875 55.5661 1.875 55.9799C1.875 56.3936 2.21125 56.7299 2.625 56.7299H61.375C61.7887 56.7299 62.125 56.3936 62.125 55.9799C62.125 55.5661 61.7887 55.2311 61.375 55.2311ZM42.1138 48.3699C41.6175 48.1936 41.1862 47.6436 40.9012 46.8236C40.7775 46.4686 40.41 46.2586 40.0412 46.3361C38.6275 46.6286 37.5638 46.5211 36.8825 46.0174C36.2425 45.5449 35.8563 44.6586 35.735 43.3824C35.7175 43.2024 35.6362 43.0336 35.505 42.9086C34.2337 41.7036 33.8 40.5199 34.0962 39.0711C34.27 38.2224 35.275 37.0674 37.535 36.6024C37.9175 36.5236 38.175 36.1649 38.1287 35.7786C37.9038 33.9124 39.3137 31.6761 41.085 31.0861C42.8725 30.4911 45.3725 31.5324 46.6575 33.4086C46.8825 33.7361 47.3237 33.8324 47.665 33.6261C48.4 33.1824 49.6637 33.4161 50.4825 34.1486C51.0262 34.6349 51.565 35.4874 51.0488 36.7924C50.9363 37.0761 51.0075 37.3986 51.2275 37.6099C53.015 39.3236 52.9387 41.8874 52.6125 43.1324C52.1825 44.7674 50.625 46.5099 48.48 46.6724C48.2212 46.6924 47.9925 46.8436 47.8725 47.0736C47.3975 47.9824 46.5788 48.9124 44.4463 48.2561V42.3599L47.2887 39.4461C47.5775 39.1499 47.5725 38.6749 47.2762 38.3861C46.98 38.0974 46.505 38.1024 46.2163 38.3986L44.4475 40.2124V37.5774C44.4475 37.1636 44.1112 36.8274 43.6975 36.8274C43.2837 36.8274 42.9475 37.1636 42.9475 37.5774V43.0974L40.56 40.9024C40.255 40.6224 39.7812 40.6424 39.5 40.9474C39.22 41.2524 39.24 41.7261 39.545 42.0074L42.9475 45.1361V48.3524C42.695 48.4386 42.4062 48.4736 42.1138 48.3699ZM19.0625 37.7686C17.4513 38.1236 15.8525 37.1024 15.4987 35.4924C15.33 34.7299 15.4712 33.9099 15.8862 33.2436C16.0562 32.9711 16.0325 32.6211 15.83 32.3724C15.685 32.1949 15.47 32.0974 15.25 32.0974C15.1625 32.0974 15.0725 32.1124 14.9875 32.1449C14.64 32.2749 13.9575 32.2774 13.4675 32.1499C11.8713 31.7349 10.91 30.0999 11.325 28.5036C11.6462 27.2686 12.7863 26.0049 13.7638 25.7999C14.0588 25.7386 14.2887 25.5061 14.3462 25.2099C14.4037 24.9136 14.2788 24.6124 14.0288 24.4436C13.0825 23.8074 12.7013 22.6399 13.035 21.3974C13.4025 20.0274 15.0063 18.9599 16.2138 19.2836C16.5338 19.3699 16.8713 19.2349 17.045 18.9549C17.2188 18.6736 17.1887 18.3111 16.97 18.0636C16.45 17.4749 16.18 16.5636 16.3113 15.8486C16.5 14.8199 17.3162 14.0274 18.3412 13.8761C18.6012 13.8374 18.8212 13.6661 18.9237 13.4249C19.025 13.1824 18.9925 12.9049 18.8388 12.6936C18.4175 12.1161 18.5037 11.4036 18.5925 11.0299C18.79 10.1974 19.3688 9.40863 20.03 9.06863C21.3588 8.38613 22.9937 8.91238 23.6763 10.2411C24.0813 11.0299 24.075 11.9674 23.66 12.7486C23.5325 12.9899 23.545 13.2811 23.6938 13.5099C23.8425 13.7386 24.1025 13.8686 24.375 13.8499C25.625 13.7624 26.7388 14.6211 26.9638 15.8499C27.095 16.5649 26.8237 17.4749 26.305 18.0649C26.0863 18.3124 26.0562 18.6749 26.23 18.9561C26.4037 19.2374 26.7425 19.3711 27.0613 19.2849C28.2688 18.9611 29.8725 20.0286 30.24 21.3986C30.5737 22.6424 30.1925 23.8099 29.2463 24.4449C28.9963 24.6136 28.8712 24.9149 28.9287 25.2111C28.9862 25.5074 29.2162 25.7399 29.5112 25.8011C30.49 26.0061 31.63 27.2686 31.95 28.5049C32.365 30.1011 31.4038 31.7361 29.8075 32.1511C29.3175 32.2786 28.6362 32.2761 28.2875 32.1461C27.9862 32.0336 27.6475 32.1249 27.4438 32.3736C27.24 32.6224 27.2175 32.9724 27.3875 33.2449C27.8013 33.9111 27.9425 34.7311 27.775 35.4936C27.42 37.1036 25.8213 38.1249 24.2113 37.7699C23.4625 37.6049 22.8237 37.1736 22.3937 36.5474V29.3349L26.2675 25.3649C26.5562 25.0686 26.5512 24.5936 26.255 24.3049C25.9587 24.0161 25.4837 24.0211 25.195 24.3174L22.395 27.1874V22.4474C22.395 22.0336 22.0588 21.6974 21.645 21.6974C21.2313 21.6974 20.895 22.0336 20.895 22.4474V32.4236L18.0537 29.8111C17.7487 29.5311 17.275 29.5511 16.9937 29.8561C16.7137 30.1611 16.7337 30.6349 17.0387 30.9161L20.8962 34.4624V36.5311C20.4625 37.1649 19.82 37.6024 19.0625 37.7686Z" fill="#25B567"/>
</svg>
