<svg width="64" height="64" viewBox="0 0 64 64" fill="none" xmlns="http://www.w3.org/2000/svg">
<path d="M22.9295 49.6286C22.2767 49.1952 21.9622 48.4017 22.141 47.6387L25.367 33.8749H17.9416C17.1295 33.8749 16.4097 33.3521 16.1585 32.5798C15.9072 31.8076 16.182 30.9613 16.8387 30.4836L38.9305 14.4169C39.564 13.9562 40.4175 13.9378 41.0704 14.3713C41.7232 14.8047 42.0376 15.5982 41.8589 16.3612L38.6327 30.1249H46.0581C46.8702 30.1249 47.5901 30.6478 47.8412 31.4201C48.0924 32.1923 47.8177 33.0386 47.161 33.5163L25.0694 49.5829C23.9979 50.3621 22.9542 49.6449 22.9295 49.6286Z" fill="#BEF636"/>
<path d="M36.212 4.33122L37.3425 3.20072C38.0747 2.46859 38.0747 1.28134 37.3425 0.549094C36.6104 -0.183031 35.4231 -0.183031 34.6909 0.549094L30.6741 4.56584C30.3225 4.91734 30.125 5.39434 30.125 5.89159C30.125 6.38884 30.3226 6.86584 30.6742 7.21734L34.691 11.234C35.4231 11.966 36.6101 11.9665 37.3426 11.234C38.0749 10.5017 38.0749 9.31459 37.3426 8.58234L37.0592 8.29897C48.0009 10.6315 56.2332 20.371 56.2332 32C56.2332 33.0355 57.0728 33.874 58.1082 33.874C59.1437 33.874 59.9832 33.0335 59.9832 31.998C59.9832 17.9553 49.6699 6.35847 36.212 4.33122Z" fill="#0A4519"/>
<path d="M46.0584 30.1249H38.633L41.859 16.3611C42.0379 15.5981 41.7234 14.8046 41.0705 14.3713C40.4176 13.9378 39.5641 13.9563 38.9306 14.4169L32 19.4571V44.5424L47.1611 33.5161C47.818 33.0385 48.0925 32.1923 47.8414 31.4199C47.5902 30.6475 46.8705 30.1249 46.0584 30.1249Z" fill="#97DB4F"/>
<path d="M33.3257 56.7825L29.309 52.7659C28.5769 52.0339 27.3899 52.0334 26.6574 52.7659C25.9251 53.4981 25.9251 54.6852 26.6574 55.4175L26.9407 55.7009C15.999 53.3684 7.7666 43.6289 7.7666 32C7.7666 30.9645 6.9271 30.126 5.8916 30.126C4.8561 30.126 4.0166 30.9665 4.0166 32.002C4.0166 46.0446 14.33 57.6415 27.7879 59.6686L26.6574 60.7991C25.9251 61.5312 25.9251 62.7185 26.6574 63.4507C27.3895 64.1828 28.5767 64.1828 29.309 63.4507L33.3257 59.434C33.6774 59.0823 33.875 58.6055 33.875 58.1082C33.875 57.611 33.6774 57.134 33.3257 56.7825Z" fill="#0A4519"/>
</svg>
