<svg width="64" height="64" viewBox="0 0 64 64" fill="none" xmlns="http://www.w3.org/2000/svg">
<g clip-path="url(#clip0_178_16825)">
<path d="M32 39.9C30.9645 39.9 30.125 39.0605 30.125 38.025V23.9666C30.125 22.9311 30.9645 22.0916 32 22.0916C33.0355 22.0916 33.875 22.9311 33.875 23.9666V38.025C33.875 39.0605 33.0355 39.9 32 39.9Z" fill="#66A182"/>
<path d="M54.0895 0C44.1683 0 35.6363 6.06012 31.9998 14.673C28.3632 6.06012 19.8308 0 9.9082 0C8.8727 0 8.0332 0.8395 8.0332 1.875C8.0332 15.0902 18.7846 25.8416 31.9998 25.8416C45.2151 25.8416 55.9664 15.0902 55.9664 1.875C55.9664 0.8395 55.125 0 54.0895 0Z" fill="#BEF636"/>
<path d="M26.9561 44.3878L20.8803 38.3119C19.1911 36.6228 16.3941 36.5905 14.7376 38.3116C13.1322 39.9796 13.1516 42.6331 14.7957 44.2773L19.2675 48.749C19.9996 49.4813 19.9996 50.6684 19.2675 51.4006C18.5354 52.1329 17.3481 52.1328 16.6159 51.4006L8.5825 43.3675C8.23088 43.0159 8.03325 42.5389 8.03325 42.0416V26.2624C8.03325 22.9345 5.37112 20.0833 1.877 20.0833H1.875C0.8395 20.0833 0 20.9228 0 21.9583V46.0583C0 46.5555 0.1975 47.0324 0.549125 47.384L12.05 58.885V62.125C12.05 63.1605 12.8895 64 13.925 64H27.9834C29.0189 64 29.8584 63.1605 29.8584 62.125V51.3945C29.8584 48.7665 28.8144 46.246 26.9561 44.3878Z" fill="#0A4519"/>
<path d="M37.044 44.3878L43.1199 38.3119C44.809 36.6228 47.606 36.5905 49.2625 38.3116C50.8679 39.9796 50.8485 42.6331 49.2042 44.2773L44.7325 48.749C44.0003 49.4813 44.0003 50.6684 44.7325 51.4006C45.4646 52.1329 46.6519 52.1328 47.3841 51.4006L55.4175 43.3673C55.7691 43.0156 55.9667 42.5386 55.9667 42.0414V26.2624C55.9667 22.9345 58.6289 20.0833 62.123 20.0833H62.125C63.1605 20.0833 64 20.9228 64 21.9583V46.0583C64 46.5555 63.8025 47.0324 63.4509 47.384L51.95 58.885V62.125C51.95 63.1605 51.1105 64 50.075 64H36.0166C34.9811 64 34.1416 63.1605 34.1416 62.125V51.3945C34.1416 48.7665 35.1856 46.246 37.044 44.3878Z" fill="#0A4519"/>
<path d="M54.0896 0C44.1685 0 35.6365 6.06013 32 14.673V25.8417C45.2152 25.8417 55.9666 15.0904 55.9666 1.87513C55.9666 0.8395 55.1251 0 54.0896 0Z" fill="#97DB4F"/>
</g>
<defs>
<clipPath id="clip0_178_16825">
<rect width="64" height="64" fill="white"/>
</clipPath>
</defs>
</svg>
