<svg width="20" height="15" viewBox="0 0 20 15" fill="none" xmlns="http://www.w3.org/2000/svg">
<path d="M18.75 6.125H17.9062L15.7359 1.24219C15.6377 1.02127 15.4775 0.833578 15.2748 0.701847C15.0721 0.570117 14.8355 0.500003 14.5938 0.5H5.40625C5.16448 0.500003 4.92791 0.570117 4.72518 0.701847C4.52245 0.833578 4.36228 1.02127 4.26406 1.24219L2.09375 6.125H1.25C1.08424 6.125 0.925268 6.19085 0.808058 6.30806C0.690848 6.42527 0.625 6.58424 0.625 6.75C0.625 6.91576 0.690848 7.07473 0.808058 7.19194C0.925268 7.30915 1.08424 7.375 1.25 7.375H1.875V13.625C1.875 13.9565 2.0067 14.2745 2.24112 14.5089C2.47554 14.7433 2.79348 14.875 3.125 14.875H5C5.33152 14.875 5.64946 14.7433 5.88388 14.5089C6.1183 14.2745 6.25 13.9565 6.25 13.625V12.375H13.75V13.625C13.75 13.9565 13.8817 14.2745 14.1161 14.5089C14.3505 14.7433 14.6685 14.875 15 14.875H16.875C17.2065 14.875 17.5245 14.7433 17.7589 14.5089C17.9933 14.2745 18.125 13.9565 18.125 13.625V7.375H18.75C18.9158 7.375 19.0747 7.30915 19.1919 7.19194C19.3092 7.07473 19.375 6.91576 19.375 6.75C19.375 6.58424 19.3092 6.42527 19.1919 6.30806C19.0747 6.19085 18.9158 6.125 18.75 6.125ZM5.40625 1.75H14.5938L16.5383 6.125H3.46172L5.40625 1.75ZM5 13.625H3.125V12.375H5V13.625ZM15 13.625V12.375H16.875V13.625H15ZM16.875 11.125H3.125V7.375H16.875V11.125ZM4.375 9.25C4.375 9.08424 4.44085 8.92527 4.55806 8.80806C4.67527 8.69085 4.83424 8.625 5 8.625H6.25C6.41576 8.625 6.57473 8.69085 6.69194 8.80806C6.80915 8.92527 6.875 9.08424 6.875 9.25C6.875 9.41576 6.80915 9.57473 6.69194 9.69194C6.57473 9.80915 6.41576 9.875 6.25 9.875H5C4.83424 9.875 4.67527 9.80915 4.55806 9.69194C4.44085 9.57473 4.375 9.41576 4.375 9.25ZM13.125 9.25C13.125 9.08424 13.1908 8.92527 13.3081 8.80806C13.4253 8.69085 13.5842 8.625 13.75 8.625H15C15.1658 8.625 15.3247 8.69085 15.4419 8.80806C15.5592 8.92527 15.625 9.08424 15.625 9.25C15.625 9.41576 15.5592 9.57473 15.4419 9.69194C15.3247 9.80915 15.1658 9.875 15 9.875H13.75C13.5842 9.875 13.4253 9.80915 13.3081 9.69194C13.1908 9.57473 13.125 9.41576 13.125 9.25Z" fill="#0A4519"/>
</svg>
