<svg width="64" height="64" viewBox="0 0 64 64" fill="none" xmlns="http://www.w3.org/2000/svg">
<path d="M31.9433 50.822C45.9774 50.822 57.3543 39.4451 57.3543 25.411C57.3543 11.3769 45.9774 0 31.9433 0C17.9091 0 6.53223 11.3769 6.53223 25.411C6.53223 39.4451 17.9091 50.822 31.9433 50.822Z" fill="#97DB4F"/>
<path d="M11.3576 40.2773L2.61426 55.4332L12.819 54.8915L17.4552 64.0002L25.5434 49.9781C19.7481 48.4789 14.7717 44.9892 11.3576 40.2773Z" fill="#0A4519"/>
<path d="M52.5797 40.2017C49.1907 44.9261 44.2143 48.4284 38.4316 49.9528L46.545 64.0001L51.1812 54.8914L61.386 55.4332L52.5797 40.2017Z" fill="#0A4519"/>
<path d="M31.9433 43.83C42.1158 43.83 50.3622 35.5836 50.3622 25.4111C50.3622 15.2386 42.1158 6.99219 31.9433 6.99219C21.7708 6.99219 13.5244 15.2386 13.5244 25.4111C13.5244 35.5836 21.7708 43.83 31.9433 43.83Z" fill="white"/>
<path d="M45.8252 19C39.6159 19 34.276 22.7522 32 28.0849C29.7239 22.7522 24.3838 19 18.1735 19C17.5254 19 17 19.5198 17 20.1609C17 28.3432 23.729 35 32 35C40.271 35 47 28.3432 47 20.1609C47 19.5198 46.4733 19 45.8252 19Z" fill="#BEF636"/>
<path d="M45.8252 19C39.6159 19 34.276 22.7521 32 28.0848V35C40.271 35 47 28.3433 47 20.161C47 19.5198 46.4733 19 45.8252 19Z" fill="#97DB4F"/>
</svg>
