<svg width="64" height="64" viewBox="0 0 64 64" fill="none" xmlns="http://www.w3.org/2000/svg">
<path d="M31.9288 18.1213C24.2663 18.1213 18.0325 24.355 18.0325 32.0175C18.0325 39.68 24.2663 45.9137 31.9288 45.9137C39.5913 45.9137 45.825 39.68 45.825 32.0175C45.825 24.355 39.5913 18.1213 31.9288 18.1213ZM36.1788 20.3713C36.2238 20.7213 36.2213 21.0125 36.1725 21.2412C36.1125 21.5175 35.9988 21.6 35.3613 21.8237C34.6138 22.0875 34.0538 22.6338 33.7875 23.3638C33.5588 23.9888 33.555 24.7 33.7625 25.37C32.4488 25.9163 31.0763 25.7812 29.6038 24.965C30.1713 24.2575 30.4413 23.5025 30.405 22.7113C30.3638 21.7838 29.885 20.8512 29.01 19.9688C29.9463 19.7412 30.9238 19.6213 31.9288 19.6213C33.4213 19.6213 34.8525 19.8862 36.1788 20.3713ZM27.3538 20.4963C28.3263 21.2738 28.875 22.075 28.9063 22.7775C28.9325 23.3612 28.6025 23.9562 27.9275 24.545C27.9063 24.5625 27.8875 24.5825 27.8688 24.6025C27.4788 25.0263 26.6563 25.3512 26.3475 25.4737C26.2125 25.5275 26.1375 25.5562 26.0638 25.6L25.9575 25.6625C25.0038 26.2238 24.7075 26.4537 24.815 27.55C24.8238 27.6337 24.8325 27.7288 24.8413 27.8375C24.9275 28.9075 26.0825 29.0775 26.6363 29.16C26.7713 29.18 26.955 29.2075 27.0163 29.23C27.6675 29.4712 28.0238 29.5075 28.2388 29.5275C28.3463 29.6488 28.5513 29.9225 28.6813 30.0975C29.5863 31.3075 30.3588 31.5962 31.3475 31.095C31.3763 31.08 31.41 31.0625 31.44 31.0487C31.4713 31.0737 31.5163 31.1162 31.5775 31.185C31.79 31.6925 30.8725 33.8263 30.3563 34.25C29.4288 35.0088 29.0263 35.5062 29.2538 36.2612C29.2525 36.2637 29.2513 36.2663 29.25 36.2687C29.1788 36.3687 28.8813 36.615 28.6838 36.7788C27.8763 37.4487 26.655 38.4613 27.2613 39.6575C27.2725 39.6788 27.275 39.69 27.275 39.69C27.2738 39.7325 27.2113 39.87 27.17 39.96C27.125 40.0575 27.0738 40.17 27.0288 40.2988C26.9425 40.3675 26.8763 40.4087 26.8313 40.4325C26.725 40.2487 26.5175 39.66 26.5038 37.8563C26.4875 35.7563 25.5538 35.005 24.9963 34.555C24.9 34.4775 24.77 34.3725 24.7288 34.32C24.7113 34.2212 24.675 34.13 24.6238 34.0475C24.6438 33.9588 24.68 33.8287 24.7425 33.6712C24.7638 33.6175 24.7813 33.555 24.79 33.4975C25.2025 30.715 23.9038 29.5075 23.045 28.7087C22.7338 28.42 22.4413 28.1462 22.4475 27.98C22.5138 26.4362 22.0975 25.8687 21.4 25.4837C22.7913 23.2475 24.8775 21.4837 27.3538 20.4963ZM19.5325 32.0175C19.5325 30.1563 19.9463 28.3887 20.6838 26.8037C20.85 26.8962 20.985 27.0312 20.9463 27.9175C20.91 28.775 21.5 29.3237 22.02 29.8088C22.785 30.52 23.5763 31.2563 23.3138 33.2C22.96 34.1413 23.1413 34.535 23.2013 34.6662C23.235 34.7387 23.275 34.805 23.3238 34.865C23.4775 35.2625 23.7913 35.515 24.0525 35.725C24.5138 36.0962 24.99 36.48 25.0013 37.8688C25.015 39.6663 25.1763 41.3937 26.2475 41.8575C26.4163 41.93 26.59 41.9675 26.7675 41.9675C27.215 41.9675 27.6913 41.7375 28.1875 41.2775C28.2963 41.1775 28.3725 41.0475 28.4075 40.9038C28.4313 40.8063 28.4788 40.7012 28.5338 40.5812C28.6875 40.2437 28.9425 39.6812 28.6063 38.9987C28.6638 38.7425 29.345 38.1775 29.6388 37.9338C30.0613 37.5838 30.395 37.3063 30.5675 36.9813C30.8 36.5438 30.7875 36.2125 30.7213 35.945C30.7988 35.8563 30.9625 35.69 31.305 35.41C31.9938 34.8462 32.9688 32.9487 33.0838 31.6213C33.135 31.0263 33.0138 30.5538 32.7238 30.2175C31.82 29.1713 31.0125 29.5813 30.6675 29.7563C30.6175 29.7812 30.545 29.8187 30.5063 29.8312C30.4563 29.81 30.2563 29.6987 29.8813 29.1975C29.2488 28.3525 29.0588 28.0975 28.3863 28.0338C28.2288 28.0188 28.0125 27.9988 27.5375 27.8225C27.3288 27.745 27.0988 27.7112 26.8538 27.675C26.7088 27.6537 26.4625 27.6175 26.3225 27.5725C26.3175 27.5112 26.3113 27.455 26.3063 27.4025C26.3 27.3388 26.2938 27.27 26.2888 27.2138C26.39 27.1463 26.555 27.0487 26.7175 26.9538L26.795 26.9075C26.82 26.8975 26.855 26.8838 26.8963 26.8675C27.2288 26.7362 27.9038 26.4688 28.4813 26.0462C29.7313 26.8175 30.9563 27.2038 32.1488 27.2038C33.16 27.2038 34.1475 26.9263 35.1063 26.3713C35.2788 26.2712 35.405 26.1062 35.455 25.9137C35.5063 25.7213 35.4775 25.515 35.3775 25.3438C35.1075 24.8838 35.0363 24.3088 35.1938 23.8787C35.3075 23.5688 35.5313 23.3525 35.8575 23.2375C36.5038 23.01 37.3888 22.6987 37.6363 21.5588C37.6713 21.3988 37.6925 21.2287 37.7025 21.05C40.8763 22.7275 43.2375 25.7425 44.0325 29.34C43.0663 29.2675 42.6463 28.96 42.2088 28.6362C41.805 28.3375 41.3463 27.9988 40.5888 27.8675C38.7688 27.5525 37.2413 27.9225 36.3988 28.8825C35.7138 29.6637 35.5425 30.7562 35.9175 31.9562C36.6438 34.2837 38.0488 34.3237 38.8888 34.3475C39.5413 34.3662 39.5813 34.3675 39.68 34.9987C39.8113 35.8262 39.6513 36.0513 39.4288 36.3625C39.0475 36.9 38.7413 37.485 39.185 38.7262C39.4838 39.56 39.9563 40.2587 40.6213 40.8425C38.3825 43.0487 35.3113 44.4113 31.9275 44.4113C25.0938 44.4137 19.5325 38.8525 19.5325 32.0175ZM41.6275 39.7287C41.1488 39.3088 40.81 38.8125 40.6 38.2225C40.3825 37.615 40.4463 37.5275 40.6538 37.2337C40.9475 36.8213 41.39 36.1975 41.1638 34.7663C40.8688 32.9062 39.6575 32.8712 38.9338 32.85C38.2013 32.8287 37.7588 32.8162 37.3513 31.5112C37.2 31.0275 37.1088 30.3512 37.5288 29.8725C38.0113 29.3225 39.06 29.125 40.335 29.3463C40.7425 29.4163 40.9838 29.5963 41.32 29.8438C41.9113 30.28 42.63 30.8112 44.2725 30.855C44.3088 31.2375 44.3275 31.625 44.3275 32.0175C44.325 34.93 43.315 37.61 41.6275 39.7287ZM31.5538 15.0763C31.67 15.1438 31.8 15.1775 31.9288 15.1775C32.0575 15.1775 32.1888 15.1438 32.3038 15.0763C34.6363 13.7275 36.085 11.2175 36.085 8.52625C36.085 5.835 34.6363 3.325 32.3038 1.97625C32.0713 1.84125 31.785 1.84125 31.5525 1.97625C29.22 3.325 27.7713 5.835 27.7713 8.52625C27.7725 11.2175 29.2213 13.7262 31.5538 15.0763ZM31.9288 3.51C33.5775 4.63375 34.585 6.51625 34.585 8.525C34.585 10.2075 33.8763 11.8 32.6788 12.9325V10.1875C32.6788 9.77375 32.3425 9.4375 31.9288 9.4375C31.515 9.4375 31.1788 9.77375 31.1788 10.1875V12.9338C29.9813 11.8 29.2725 10.2075 29.2725 8.52625C29.2725 6.51625 30.28 4.63375 31.9288 3.51ZM44.0463 20.1338C44.6613 20.29 45.285 20.3662 45.905 20.3662C47.92 20.3662 49.89 19.5613 51.3275 18.09C53.2075 16.165 53.925 13.3575 53.2001 10.7625C53.1275 10.5037 52.9225 10.3038 52.6625 10.2375C50.0513 9.5725 47.2613 10.3562 45.3813 12.2812C43.5013 14.2063 42.7838 17.0137 43.5088 19.6087C43.5813 19.8675 43.785 20.0675 44.0463 20.1338ZM46.4538 13.33C47.8575 11.8925 49.8938 11.2487 51.8588 11.5975C52.2538 13.5525 51.6588 15.6038 50.2551 17.0413C49.08 18.245 47.46 18.8888 45.8113 18.8625L47.73 16.8975C48.02 16.6012 48.0138 16.1262 47.7175 15.8375C47.4213 15.5475 46.9463 15.5538 46.6575 15.85L44.7388 17.8137C44.6725 16.1675 45.2775 14.5325 46.4538 13.33ZM61.9901 30.8962C60.5863 28.5963 58.0438 27.205 55.3526 27.2712C52.6625 27.335 50.1875 28.8425 48.8938 31.205C48.765 31.44 48.7713 31.7262 48.9113 31.9562C50.2838 34.205 52.7476 35.5838 55.3726 35.5838C55.4313 35.5838 55.4901 35.5837 55.5488 35.5812C58.2388 35.5175 60.7138 34.01 62.0075 31.6475C62.1363 31.4112 62.1301 31.125 61.9901 30.8962ZM55.5126 34.0812C53.8288 34.1213 52.2213 33.45 51.0601 32.2788L53.805 32.2137C54.2188 32.2037 54.5475 31.86 54.5375 31.4463C54.5275 31.0325 54.1813 30.705 53.7701 30.7138L51.0251 30.7787C52.1301 29.555 53.705 28.8088 55.3876 28.7687C57.3951 28.7188 59.3025 29.6838 60.4638 31.3062C59.38 32.9825 57.5213 34.0337 55.5126 34.0812ZM52.0126 44.9625C50.0438 43.1275 47.2201 42.4762 44.6425 43.2637C44.3863 43.3425 44.19 43.5513 44.13 43.8138C43.5275 46.44 44.3763 49.21 46.345 51.045C47.7613 52.365 49.62 53.0725 51.5113 53.0725C52.2488 53.0725 52.9913 52.965 53.7138 52.7438C53.97 52.665 54.1663 52.4562 54.2263 52.1937C54.8313 49.5675 53.9813 46.7963 52.0126 44.9625ZM52.85 51.4225C50.905 51.8638 48.84 51.3162 47.37 49.9475C46.1388 48.8 45.4575 47.1963 45.4438 45.5475L47.4525 47.4188C47.5975 47.5537 47.78 47.62 47.9638 47.62C48.165 47.62 48.365 47.54 48.5125 47.3812C48.795 47.0787 48.7775 46.6038 48.475 46.3213L46.4663 44.45C48.1125 44.3463 49.76 44.9137 50.9913 46.06C52.46 47.4288 53.1513 49.45 52.85 51.4225ZM33.1775 48.92C32.9388 48.7962 32.6525 48.81 32.4275 48.955C30.1613 50.4125 28.8325 52.9875 28.96 55.6763C29.0863 58.3638 30.6525 60.8025 33.045 62.0412C33.1538 62.0975 33.2713 62.125 33.39 62.125C33.5313 62.125 33.6725 62.085 33.7963 62.0062C36.0625 60.5487 37.3913 57.9738 37.2638 55.285C37.1363 52.5962 35.57 50.1575 33.1775 48.92ZM33.3475 60.4912C31.6475 59.4475 30.5525 57.6138 30.4575 55.6063C30.3788 53.9263 31.0113 52.3025 32.1538 51.1138L32.2825 53.8563C32.3013 54.2575 32.6325 54.5713 33.0313 54.5713C33.0438 54.5713 33.055 54.5713 33.0675 54.57C33.4813 54.55 33.8013 54.1987 33.7813 53.785L33.6525 51.0425C34.9025 52.1187 35.685 53.675 35.7638 55.3563C35.8588 57.3625 34.9413 59.2912 33.3475 60.4912ZM20.4613 44.4562C17.8213 43.915 15.0713 44.83 13.285 46.8413C11.4975 48.8525 10.9138 51.6912 11.76 54.2487C11.845 54.5037 12.0588 54.6938 12.3213 54.7475C12.8238 54.85 13.33 54.9 13.8325 54.9C15.9725 54.9 18.0513 53.9912 19.4988 52.3625C21.2863 50.3512 21.87 47.5125 21.0238 44.955C20.9375 44.7013 20.7238 44.51 20.4613 44.4562ZM18.3763 51.3662C17.0413 52.8687 15.0375 53.6063 13.0588 53.3512C12.5725 51.4162 13.07 49.34 14.405 47.8375C15.5225 46.58 17.11 45.86 18.7575 45.8088L16.9338 47.8613C16.6588 48.1713 16.6863 48.645 16.9963 48.92C17.1388 49.0475 17.3175 49.1087 17.4938 49.1087C17.7 49.1087 17.9063 49.0237 18.055 48.8575L19.8788 46.805C20.0213 48.4487 19.4938 50.1087 18.3763 51.3662ZM15.0963 33.6263C15.2138 33.385 15.1938 33.0987 15.0438 32.8775C13.5338 30.6462 10.9288 29.38 8.24254 29.5688C5.55754 29.7588 3.15754 31.3813 1.97629 33.8025C1.85879 34.0438 1.87879 34.33 2.02879 34.5513C3.44004 36.635 5.80629 37.8787 8.30004 37.8787C8.47629 37.8787 8.65254 37.8725 8.83004 37.86C11.515 37.67 13.9163 36.0475 15.0963 33.6263ZM8.72379 36.3638C6.72004 36.5063 4.77004 35.6337 3.53254 34.0687C4.53629 32.345 6.34379 31.2063 8.34754 31.065C10.025 30.945 11.6638 31.54 12.8788 32.655L10.14 32.8488C9.72629 32.8775 9.41504 33.2363 9.44504 33.65C9.47254 34.045 9.80254 34.3475 10.1925 34.3475C10.21 34.3475 10.2288 34.3475 10.2463 34.3462L12.985 34.1525C11.94 35.4263 10.4025 36.245 8.72379 36.3638ZM11.3325 20.0312C12.7163 21.2038 14.4625 21.8213 16.2313 21.8213C17.0863 21.8213 17.9475 21.6775 18.7738 21.3813C19.0263 21.2913 19.2113 21.0725 19.2588 20.8088C19.7363 18.1575 18.7588 15.43 16.705 13.69C14.6513 11.95 11.8 11.4325 9.26379 12.34C9.01129 12.43 8.82629 12.6488 8.77879 12.9125C8.30004 15.5638 9.27879 18.2913 11.3325 20.0312ZM10.1925 13.6187C12.115 13.0875 14.2038 13.535 15.7363 14.8337C17.02 15.9212 17.7763 17.4913 17.8675 19.1375L15.7725 17.3625C15.4563 17.095 14.9838 17.1338 14.715 17.45C14.4475 17.7663 14.4863 18.2388 14.8025 18.5075L16.8975 20.2825C15.2588 20.4637 13.5863 19.975 12.3025 18.8875C10.7688 17.5888 9.98379 15.6025 10.1925 13.6187Z" fill="#25B567"/>
</svg>
