<svg width="27" height="28" viewBox="0 0 27 28" fill="none" xmlns="http://www.w3.org/2000/svg">
<path d="M26.4688 13.5781C26.4688 11.5976 24.8633 9.99219 22.8828 9.99219C22.6639 9.99219 22.4505 10.0149 22.2424 10.0525C22.1624 7.79287 20.3103 5.98438 18.0312 5.98438C17.3225 5.98438 16.6557 6.16114 16.0693 6.46995C15.3477 5.41307 14.1341 4.71875 12.7578 4.71875C10.5444 4.71875 8.75 6.51311 8.75 8.72656C8.75 8.87949 8.76042 9.02985 8.77713 9.17835C6.32435 9.89621 4.53125 12.1589 4.53125 14.8438C4.53125 17.9994 7.00799 20.5694 10.1226 20.7341C11.1429 22.2687 12.8861 23.2812 14.8672 23.2812C17.1925 23.2812 19.189 21.8859 20.0737 19.8883C21.7638 19.7472 23.1676 18.6109 23.7023 17.0663C25.2872 16.6951 26.4688 15.2761 26.4688 13.5781Z" fill="#0A4519"/>
<path d="M11.3206 16.6038C9.8848 16.6038 8.7168 15.4358 8.7168 14C8.7168 12.5642 9.8848 11.3962 11.3206 11.3962C11.6906 11.3962 12.0461 11.4716 12.3777 11.62C12.5372 11.6912 12.6087 11.8787 12.5372 12.0381C12.4653 12.1975 12.2782 12.2693 12.119 12.1975C11.8693 12.0859 11.6007 12.0291 11.3206 12.0291C10.2337 12.0291 9.34961 12.9132 9.34961 14C9.34961 15.0868 10.2337 15.971 11.3206 15.971C11.6007 15.971 11.8693 15.9141 12.119 15.8025C12.2778 15.73 12.4653 15.8025 12.5372 15.9619C12.6086 16.1213 12.5372 16.3088 12.3777 16.3801C12.0461 16.5284 11.6906 16.6038 11.3206 16.6038Z" fill="#CFD8DC"/>
<path d="M15.5682 16.6038C14.1326 16.6038 12.9646 15.4358 12.9646 14C12.9646 12.5642 14.1326 11.3962 15.5682 11.3962C17.0037 11.3962 18.1719 12.5642 18.1719 14C18.1719 15.4358 17.0039 16.6038 15.5682 16.6038ZM15.5682 12.0291C14.4815 12.0291 13.5974 12.9132 13.5974 14C13.5974 15.0868 14.4815 15.971 15.5682 15.971C16.6548 15.971 17.5391 15.0868 17.5391 14C17.5391 12.9132 16.655 12.0291 15.5682 12.0291Z" fill="#CFD8DC"/>
<path d="M21.1231 16.2771H19.4014C19.269 16.2771 19.1505 16.1947 19.1046 16.0703C19.0587 15.9459 19.0951 15.8062 19.1959 15.7201L20.1362 14.9163C20.4683 14.6324 20.6368 14.3745 20.6368 14.15C20.6368 13.9214 20.4633 13.6787 20.142 13.6787C19.8921 13.6787 19.6543 13.8167 19.4902 14.0577C19.3919 14.2027 19.195 14.2398 19.0506 14.1413C18.9062 14.0429 18.8689 13.8459 18.9674 13.7017C19.2512 13.2848 19.6793 13.0458 20.142 13.0458C20.7743 13.0458 21.2696 13.5307 21.2696 14.15C21.2696 14.5739 21.0333 14.9822 20.5474 15.3975L20.2586 15.6443H21.1231C21.2978 15.6443 21.4395 15.786 21.4395 15.9607C21.4395 16.1354 21.2978 16.2771 21.1231 16.2771Z" fill="#CFD8DC"/>
</svg>
