<svg width="52" height="62" viewBox="0 0 52 62" fill="none" xmlns="http://www.w3.org/2000/svg">
<path d="M12.1413 39.8136C11.5201 39.1436 10.6863 38.7736 9.79508 38.7736C8.90383 38.7736 8.07008 39.1424 7.44883 39.8136C7.18633 40.0974 6.97883 40.4174 6.82633 40.7599C6.79883 40.5524 6.78508 40.3374 6.78508 40.1161V28.4624C6.78508 26.5374 5.30883 24.9711 3.49508 24.9711C1.68133 24.9711 0.205078 26.5374 0.205078 28.4624V44.8274C0.205078 46.3261 0.705078 47.6261 1.69258 48.6911L7.88383 55.3711V60.3749C7.88383 60.7886 8.22008 61.1249 8.63383 61.1249H18.3388C18.7526 61.1249 19.0888 60.7886 19.0888 60.3749V48.6849C19.1201 47.8186 18.8338 47.0336 18.2601 46.4149L12.1413 39.8136ZM17.5888 48.6711V59.6249H9.38383V55.0761C9.38383 54.8874 9.31258 54.7049 9.18383 54.5661L2.79258 47.6699C2.06008 46.8799 1.70508 45.9499 1.70508 44.8249V28.4599C1.70508 27.3624 2.50758 26.4686 3.49508 26.4686C4.48258 26.4686 5.28508 27.3611 5.28508 28.4599V40.1136C5.28508 41.6124 5.78508 42.9124 6.77258 43.9774L7.44133 44.6986C7.44383 44.7011 7.44633 44.7049 7.44883 44.7074L7.45258 44.7111L11.9938 49.6111C12.2751 49.9149 12.7501 49.9336 13.0538 49.6511C13.3576 49.3699 13.3751 48.8949 13.0938 48.5911L8.54258 43.6799C7.83133 42.9049 7.83258 41.6024 8.54883 40.8299C8.88258 40.4699 9.32508 40.2711 9.79508 40.2711C10.2638 40.2711 10.7063 40.4699 11.0413 40.8299L17.1601 47.4311C17.4688 47.7649 17.6088 48.1586 17.5901 48.6374C17.5888 48.6511 17.5888 48.6611 17.5888 48.6711ZM48.5063 24.9699C46.6926 24.9699 45.2163 26.5361 45.2163 28.4611V40.1149C45.2163 40.3374 45.2026 40.5511 45.1751 40.7586C45.0226 40.4161 44.8151 40.0961 44.5526 39.8124C43.9313 39.1424 43.0976 38.7724 42.2063 38.7724C41.3151 38.7724 40.4813 39.1411 39.8601 39.8124L33.7413 46.4136C33.1676 47.0324 32.8813 47.8174 32.9126 48.6836V60.3749C32.9126 60.7886 33.2488 61.1249 33.6626 61.1249H43.3676C43.7813 61.1249 44.1176 60.7886 44.1176 60.3749V55.3699L50.3088 48.6899C51.2963 47.6249 51.7963 46.3249 51.7963 44.8261V28.4611C51.7963 26.5361 50.3201 24.9699 48.5063 24.9699ZM50.2963 44.8249C50.2963 45.9486 49.9401 46.8799 49.2088 47.6699L42.8176 54.5661C42.6888 54.7049 42.6176 54.8874 42.6176 55.0761V59.6249H34.4126V48.6711C34.4126 48.6611 34.4126 48.6511 34.4126 48.6411C34.3938 48.1624 34.5338 47.7686 34.8426 47.4349L40.9613 40.8336C41.2951 40.4736 41.7376 40.2749 42.2076 40.2749C42.6763 40.2749 43.1188 40.4736 43.4538 40.8336C44.1713 41.6074 44.1713 42.9161 43.4538 43.6899L43.4501 43.6936L38.9088 48.5936C38.6276 48.8974 38.6451 49.3724 38.9488 49.6536C39.2526 49.9349 39.7276 49.9174 40.0088 49.6136L45.2301 43.9786C46.2176 42.9136 46.7176 41.6136 46.7176 40.1149V28.4611C46.7176 27.3636 47.5201 26.4699 48.5076 26.4699C49.4951 26.4699 50.2976 27.3624 50.2976 28.4611V44.8249H50.2963ZM39.7776 30.0199C39.7776 22.7886 34.1776 16.8411 27.0876 16.2849C26.6563 15.8036 26.0688 14.4374 26.1101 13.1811C26.5588 13.2624 27.0276 13.3011 27.5113 13.3011C30.6638 13.3011 34.3801 11.6836 36.1876 9.75363C38.0901 7.72363 39.0913 4.81738 38.8026 2.16738C38.7738 1.90113 38.6038 1.66988 38.3588 1.56238C35.9938 0.524884 32.9163 0.677384 30.1288 1.97113C28.3051 2.81738 26.7251 4.18863 25.6738 5.78738C25.0738 4.58488 24.2401 3.55738 23.2788 2.86363C20.5563 0.897384 16.8776 0.422383 13.6776 1.62113C13.4126 1.71988 13.2263 1.96113 13.1951 2.24238C12.9063 4.89238 13.9088 7.79988 15.8101 9.82863C17.5826 11.7199 20.6138 13.3124 23.5126 13.3124C23.8813 13.3124 24.2476 13.2861 24.6088 13.2324C24.5951 14.3036 24.8938 15.4061 25.3126 16.2599C18.0326 16.6186 12.2201 22.6536 12.2201 30.0211C12.2201 37.6186 18.4013 43.7986 25.9976 43.7986C33.5938 43.7986 39.7776 37.6174 39.7776 30.0199ZM35.6113 37.6511C35.1401 37.2374 34.8076 36.7474 34.6001 36.1661C34.3863 35.5674 34.4476 35.4811 34.6526 35.1924C35.0226 34.6711 35.3663 34.0536 35.1588 32.7411C34.8663 30.8924 33.6613 30.8574 32.9426 30.8374C32.2188 30.8161 31.7826 30.8036 31.3801 29.5161C31.2313 29.0386 31.1401 28.3711 31.5551 27.8986C32.0313 27.3549 33.0688 27.1611 34.3288 27.3799C34.7313 27.4499 34.9701 27.6261 35.3013 27.8711C35.8863 28.3036 36.6001 28.8299 38.2251 28.8736C38.2601 29.2511 38.2788 29.6324 38.2788 30.0186C38.2776 32.9011 37.2788 35.5549 35.6113 37.6511ZM30.1976 19.3386C30.1388 19.6099 30.0263 19.6899 29.3976 19.9111C28.6551 20.1724 28.0988 20.7161 27.8338 21.4411C27.6076 22.0599 27.6026 22.7636 27.8076 23.4286C26.5113 23.9649 25.1576 23.8311 23.7051 23.0286C24.2651 22.3274 24.5313 21.5799 24.4963 20.7974C24.4551 19.8799 23.9838 18.9574 23.1201 18.0836C24.0438 17.8611 25.0076 17.7411 26.0001 17.7411C27.4763 17.7411 28.8926 18.0036 30.2051 18.4824C30.2488 18.8274 30.2463 19.1149 30.1976 19.3386ZM26.7451 11.7624C27.5088 10.7449 28.4313 9.78363 29.4613 8.87363L32.3776 10.6111C30.6051 11.4624 28.4838 11.9724 26.7451 11.7624ZM33.8688 9.75488L30.6813 7.85613C31.4951 7.21363 32.3551 6.59863 33.2401 6.00988L35.9663 7.60363C35.7063 8.00613 35.4151 8.38488 35.0938 8.72863C34.7588 9.08363 34.3426 9.42988 33.8688 9.75488ZM34.6551 5.09863C35.5426 4.54613 36.4426 4.01738 37.3363 3.51113C37.2788 4.43863 37.0488 5.38613 36.6713 6.27613L34.6551 5.09863ZM36.1351 2.46988C35.4588 2.85863 34.7813 3.25863 34.1076 3.67363L34.1151 2.41238C34.8101 2.34988 35.4901 2.36863 36.1351 2.46988ZM32.6138 2.67238L32.6013 4.63363C31.7788 5.17738 30.9726 5.74238 30.2001 6.33238L30.2313 3.59988C30.4051 3.50488 30.5813 3.41363 30.7601 3.32988C31.3688 3.04738 31.9913 2.82988 32.6138 2.67238ZM28.7201 4.62988L28.6863 7.56113C27.9626 8.18738 27.2826 8.83863 26.6613 9.51738C26.6326 8.89613 26.5351 8.25988 26.3663 7.62113C26.8688 6.52363 27.7001 5.47863 28.7201 4.62988ZM25.1413 10.4349C24.5088 9.59863 23.7976 8.78363 23.0063 7.98863L22.9913 4.57613C24.4601 6.00738 25.3038 8.37988 25.1413 10.4349ZM19.6126 5.06113L19.5988 2.76238C20.2551 2.93613 20.8901 3.18488 21.4876 3.50738L21.5001 6.58363C20.9076 6.06738 20.2788 5.56113 19.6126 5.06113ZM18.0963 2.50113L18.1051 3.98738C17.4038 3.51113 16.6651 3.04238 15.8913 2.57863C16.6226 2.46113 17.3651 2.43613 18.0963 2.50113ZM17.4776 5.37488L15.4276 6.57238C14.9938 5.62238 14.7263 4.59863 14.6638 3.59613C15.6638 4.17988 16.6013 4.77238 17.4776 5.37488ZM16.9063 8.80238C16.6376 8.51613 16.3913 8.20613 16.1663 7.87863L18.8101 6.33363C19.6001 6.92988 20.3326 7.53613 21.0101 8.15488L18.0951 9.85488C17.6551 9.52738 17.2526 9.17238 16.9063 8.80238ZM19.5351 10.7524L22.1313 9.23738C22.9301 10.0586 23.6376 10.8999 24.2576 11.7649C22.7213 11.9561 21.0213 11.5211 19.5351 10.7524ZM21.4638 18.6099C22.4238 19.3786 22.9663 20.1699 22.9976 20.8636C23.0238 21.4399 22.6976 22.0274 22.0288 22.6099C22.0076 22.6274 21.9888 22.6474 21.9701 22.6674C21.5838 23.0861 20.7713 23.4074 20.4651 23.5286C20.3313 23.5811 20.2576 23.6111 20.1838 23.6549L20.0788 23.7174C19.1313 24.2761 18.8363 24.5049 18.9438 25.5949C18.9526 25.6786 18.9613 25.7724 18.9701 25.8799C19.0563 26.9461 20.2038 27.1149 20.7551 27.1961C20.8888 27.2161 21.0701 27.2424 21.1301 27.2649C21.7738 27.5036 22.1276 27.5399 22.3401 27.5599C22.4463 27.6811 22.6476 27.9499 22.7763 28.1224C23.6763 29.3249 24.4438 29.6124 25.4263 29.1124C25.4538 29.0986 25.4851 29.0824 25.5138 29.0686C25.5438 29.0936 25.5876 29.1336 25.6451 29.1986C25.8501 29.7024 24.9451 31.8111 24.4363 32.2274C23.5163 32.9811 23.1151 33.4749 23.3413 34.2249L23.3388 34.2286C23.2676 34.3274 22.9738 34.5711 22.7788 34.7324C21.9763 35.3974 20.7638 36.4036 21.3676 37.5936C21.3776 37.6124 21.3801 37.6236 21.3801 37.6236C21.3776 37.6661 21.3176 37.7999 21.2776 37.8886C21.2338 37.9849 21.1826 38.0961 21.1376 38.2224C21.0563 38.2874 20.9938 38.3261 20.9501 38.3499C20.8438 38.1624 20.6426 37.5749 20.6288 35.8061C20.6126 33.7224 19.6863 32.9761 19.1326 32.5299C19.0376 32.4536 18.9113 32.3511 18.8688 32.2986C18.8513 32.2024 18.8163 32.1111 18.7651 32.0311C18.7851 31.9436 18.8213 31.8161 18.8826 31.6611C18.9038 31.6086 18.9213 31.5449 18.9301 31.4886C19.3388 28.7286 18.0513 27.5299 17.1988 26.7361C16.8926 26.4511 16.6026 26.1811 16.6101 26.0186C16.6751 24.4899 16.2638 23.9261 15.5751 23.5424C16.9526 21.3311 19.0151 19.5874 21.4638 18.6099ZM13.7226 30.0199C13.7226 28.1786 14.1313 26.4311 14.8601 24.8624C15.0201 24.9536 15.1476 25.0936 15.1113 25.9561C15.0751 26.8099 15.6613 27.3549 16.1776 27.8361C16.9338 28.5399 17.7163 29.2674 17.4576 31.1899C17.1063 32.1249 17.2863 32.5161 17.3476 32.6474C17.3801 32.7186 17.4213 32.7849 17.4688 32.8449C17.6226 33.2399 17.9326 33.4899 18.1926 33.6999C18.6488 34.0661 19.1188 34.4461 19.1301 35.8199C19.1438 37.6036 19.3038 39.3174 20.3688 39.7786C20.5363 39.8511 20.7101 39.8874 20.8876 39.8874C21.3326 39.8874 21.8051 39.6586 22.3001 39.2024C22.4088 39.1024 22.4851 38.9724 22.5201 38.8286C22.5438 38.7324 22.5901 38.6299 22.6451 38.5099C22.7976 38.1749 23.0513 37.6174 22.7176 36.9386C22.7788 36.6836 23.4488 36.1286 23.7388 35.8886C24.1576 35.5411 24.4888 35.2661 24.6613 34.9436C24.8926 34.5099 24.8801 34.1811 24.8151 33.9149C24.8926 33.8261 25.0551 33.6636 25.3901 33.3886C26.0726 32.8286 27.0413 30.9474 27.1551 29.6299C27.2063 29.0374 27.0863 28.5686 26.7976 28.2336C25.8988 27.1924 25.0951 27.6011 24.7513 27.7749C24.7026 27.7999 24.6326 27.8349 24.5951 27.8486C24.5438 27.8261 24.3463 27.7124 23.9813 27.2236C23.3701 26.4061 23.1638 26.1311 22.4951 26.0674C22.3388 26.0524 22.1251 26.0324 21.6563 25.8586C21.4488 25.7811 21.2201 25.7474 20.9776 25.7124C20.8351 25.6911 20.5951 25.6561 20.4563 25.6124C20.4513 25.5536 20.4451 25.4999 20.4401 25.4486C20.4338 25.3861 20.4276 25.3199 20.4226 25.2649C20.5226 25.1986 20.6851 25.1036 20.8438 25.0099L20.9201 24.9649C20.9451 24.9549 20.9788 24.9411 21.0201 24.9249C21.3488 24.7949 22.0163 24.5299 22.5888 24.1124C23.8276 24.8761 25.0413 25.2586 26.2226 25.2586C27.2251 25.2586 28.2063 24.9836 29.1576 24.4324C29.3301 24.3324 29.4563 24.1674 29.5063 23.9749C29.5576 23.7824 29.5288 23.5761 29.4288 23.4049C29.1626 22.9511 29.0913 22.3824 29.2463 21.9586C29.3576 21.6536 29.5776 21.4411 29.9001 21.3274C30.5413 21.1011 31.4213 20.7911 31.6676 19.6586C31.7013 19.5024 31.7226 19.3374 31.7326 19.1636C34.8688 20.8249 37.2026 23.8061 37.9913 27.3611C37.0426 27.2886 36.6276 26.9849 36.1963 26.6661C35.7951 26.3699 35.3401 26.0336 34.5888 25.9036C32.7826 25.5911 31.2676 25.9586 30.4301 26.9124C29.7488 27.6886 29.5788 28.7736 29.9513 29.9661C30.6726 32.2761 32.0688 32.3161 32.9026 32.3399C33.5438 32.3586 33.5826 32.3599 33.6813 32.9799C33.8113 33.7961 33.6526 34.0186 33.4338 34.3261C33.0538 34.8599 32.7501 35.4411 33.1913 36.6736C33.4863 37.4986 33.9538 38.1911 34.6101 38.7686C32.3926 40.9499 29.3538 42.2986 26.0038 42.2986C19.2301 42.2974 13.7226 36.7899 13.7226 30.0199Z" fill="#25B567"/>
</svg>
