<svg width="17" height="19" viewBox="0 0 17 19" fill="none" xmlns="http://www.w3.org/2000/svg">
<path d="M11.625 13.875V16.6875C11.625 17.205 11.205 17.625 10.6875 17.625H2.5625C2.31386 17.625 2.0754 17.5262 1.89959 17.3504C1.72377 17.1746 1.625 16.9361 1.625 16.6875V6.0625C1.625 5.545 2.045 5.125 2.5625 5.125H4.125C4.54381 5.12472 4.96192 5.15928 5.375 5.22834M11.625 13.875H14.4375C14.955 13.875 15.375 13.455 15.375 12.9375V8.875C15.375 5.15834 12.6725 2.07417 9.125 1.47834C8.71192 1.40928 8.29381 1.37472 7.875 1.375H6.3125C5.795 1.375 5.375 1.795 5.375 2.3125V5.22834M11.625 13.875H6.3125C6.06386 13.875 5.8254 13.7762 5.64959 13.6004C5.47377 13.4246 5.375 13.1861 5.375 12.9375V5.22834M15.375 10.75V9.1875C15.375 8.44158 15.0787 7.72621 14.5512 7.19876C14.0238 6.67132 13.3084 6.375 12.5625 6.375H11.3125C11.0639 6.375 10.8254 6.27623 10.6496 6.10041C10.4738 5.9246 10.375 5.68614 10.375 5.4375V4.1875C10.375 3.81816 10.3023 3.45243 10.1609 3.1112C10.0196 2.76998 9.8124 2.45993 9.55124 2.19876C9.29007 1.9376 8.98003 1.73043 8.6388 1.58909C8.29757 1.44775 7.93184 1.375 7.5625 1.375H6.625" stroke="#009444" stroke-width="1.5" stroke-linecap="round" stroke-linejoin="round"/>
</svg>
