<svg width="64" height="64" viewBox="0 0 64 64" fill="none" xmlns="http://www.w3.org/2000/svg">
<path d="M49.5937 27.7075C49.5899 18.01 41.6987 10.1213 31.9999 10.1213C22.3012 10.1213 14.4099 18.0087 14.4062 27.7062C14.2412 34.8612 17.5387 38.7088 20.4474 42.1025C22.4499 44.44 24.1812 46.46 24.5899 49.2287V57.475H24.5912C24.5912 57.6712 24.6674 57.865 24.8124 58.0088L27.6124 60.7738C28.6224 61.7713 30.6024 62.1237 32.1624 62.1237H32.2749C34.1549 62.1025 35.7024 61.6075 36.5199 60.7625L39.1999 57.9975C39.3387 57.855 39.4099 57.6662 39.4099 57.475H39.4112V49.2287C39.8199 46.46 41.5499 44.44 43.5537 42.1025C46.4624 38.71 49.7587 34.8625 49.5937 27.7075ZM26.0887 54.0737H37.9099V56.7262H26.0887V54.0737ZM37.9112 52.5737H26.0899V49.9212H37.9112V52.5737ZM35.4424 59.7188C34.9162 60.2612 33.6962 60.6087 32.2574 60.6237C30.7062 60.6413 29.2299 60.2637 28.6662 59.7062L27.1662 58.225H36.8899L35.4424 59.7188ZM38.0312 48.4212H25.9687C25.3587 45.5287 23.5224 43.3862 21.5862 41.1275C18.7174 37.78 15.7512 34.32 15.9049 27.7337C15.9049 27.7275 15.9049 27.7225 15.9049 27.7162C15.9049 18.8412 23.1249 11.6225 31.9987 11.6225C40.8724 11.6225 48.0924 18.8425 48.0924 27.7162V27.7337C48.2462 34.32 45.2799 37.7812 42.4112 41.1275C40.4774 43.3862 38.6412 45.5287 38.0312 48.4212ZM31.2499 7.125V2.625C31.2499 2.21125 31.5862 1.875 31.9999 1.875C32.4137 1.875 32.7499 2.21125 32.7499 2.625V7.125C32.7499 7.53875 32.4137 7.875 31.9999 7.875C31.5862 7.875 31.2499 7.54 31.2499 7.125ZM18.8049 6.36125C18.5974 6.0025 18.7212 5.54375 19.0799 5.33625C19.4387 5.13 19.8974 5.2525 20.1049 5.61125L22.3549 9.50875C22.5624 9.8675 22.4387 10.3262 22.0799 10.5337C21.9612 10.6012 21.8324 10.6337 21.7062 10.6337C21.4474 10.6337 21.1949 10.4987 21.0562 10.2587L18.8049 6.36125ZM9.62116 14.795C9.82866 14.4362 10.2874 14.3138 10.6462 14.52L14.5437 16.77C14.9024 16.9775 15.0249 17.4362 14.8187 17.795C14.6799 18.035 14.4274 18.17 14.1687 18.17C14.0412 18.17 13.9124 18.1375 13.7949 18.07L9.89741 15.82C9.53616 15.6125 9.41366 15.1538 9.62116 14.795ZM11.4099 28.4662H6.90991C6.49616 28.4662 6.15991 28.13 6.15991 27.7162C6.15991 27.3025 6.49616 26.9662 6.90991 26.9662H11.4099C11.8237 26.9662 12.1599 27.3025 12.1599 27.7162C12.1599 28.13 11.8237 28.4662 11.4099 28.4662ZM14.8174 37.6362C15.0249 37.995 14.9012 38.4538 14.5424 38.6613L10.6449 40.9113C10.5262 40.9788 10.3974 41.0112 10.2712 41.0112C10.0124 41.0112 9.75991 40.8763 9.62116 40.6362C9.41366 40.2775 9.53741 39.8188 9.89616 39.6113L13.7937 37.3613C14.1524 37.155 14.6099 37.2775 14.8174 37.6362ZM41.6462 9.50875L43.8962 5.61125C44.1037 5.2525 44.5624 5.13 44.9212 5.33625C45.2799 5.54375 45.4024 6.0025 45.1962 6.36125L42.9462 10.2587C42.8074 10.4987 42.5549 10.6337 42.2962 10.6337C42.1687 10.6337 42.0399 10.6012 41.9224 10.5337C41.5612 10.3262 41.4387 9.8675 41.6462 9.50875ZM49.1824 17.7962C48.9749 17.4375 49.0987 16.9788 49.4574 16.7712L53.3549 14.5212C53.7137 14.315 54.1724 14.4375 54.3799 14.7963C54.5874 15.155 54.4637 15.6137 54.1049 15.8212L50.2074 18.0713C50.0899 18.1388 49.9599 18.1712 49.8337 18.1712C49.5737 18.1712 49.3212 18.0362 49.1824 17.7962ZM57.8412 27.7162C57.8412 28.13 57.5049 28.4662 57.0912 28.4662H52.5912C52.1774 28.4662 51.8412 28.13 51.8412 27.7162C51.8412 27.3025 52.1774 26.9662 52.5912 26.9662H57.0912C57.5049 26.9662 57.8412 27.3012 57.8412 27.7162ZM54.3787 40.6362C54.2399 40.8763 53.9874 41.0112 53.7287 41.0112C53.6012 41.0112 53.4724 40.9788 53.3549 40.9113L49.4574 38.6613C49.0987 38.4538 48.9762 37.995 49.1824 37.6362C49.3899 37.2775 49.8474 37.155 50.2074 37.3613L54.1049 39.6113C54.4637 39.8188 54.5862 40.2775 54.3787 40.6362ZM40.8537 26.2812C40.1924 26.4688 39.4962 26.6537 38.7574 26.85C37.6024 27.1562 36.3662 27.485 35.1312 27.8675C35.0874 25.4325 34.6112 22.7838 34.1487 20.2113C33.9699 19.2175 33.8012 18.28 33.6637 17.385C33.6224 17.1175 33.4412 16.8938 33.1887 16.7975C32.9362 16.7013 32.6512 16.7488 32.4437 16.9225C28.8787 19.885 22.2412 25.3988 22.1937 30.3113C22.1774 31.95 22.8724 33.3887 24.2612 34.5887C24.7174 34.9825 25.2124 35.3125 25.7399 35.575C25.6362 36.33 25.6499 37.1538 25.8049 38.055C25.9487 38.8925 26.2887 39.6575 26.7924 40.3138L25.1399 42.025C24.8524 42.3225 24.8599 42.7975 25.1587 43.085C25.3049 43.225 25.4924 43.295 25.6799 43.295C25.8762 43.295 26.0724 43.2188 26.2199 43.0662L27.8662 41.3625C28.0499 41.4987 28.2424 41.6263 28.4474 41.7438C29.4224 42.3025 30.5587 42.59 31.6837 42.59C32.4287 42.59 33.1687 42.4637 33.8499 42.2075C37.7862 40.7288 39.4649 35.0175 40.9449 29.9788C41.2299 29.01 41.4987 28.0962 41.7762 27.2337C41.8612 26.97 41.7937 26.6812 41.6012 26.4825C41.4062 26.2812 41.1199 26.205 40.8537 26.2812ZM23.6912 30.325C23.7287 26.5188 29.0499 21.73 32.3937 18.915C32.4812 19.4225 32.5749 19.9412 32.6712 20.4762C33.1549 23.16 33.6524 25.93 33.6337 28.3625C30.9737 29.3062 28.4812 30.5725 27.0149 32.5075C27.3362 29.3725 28.7762 26.3813 31.3137 23.59C31.5924 23.2838 31.5699 22.8088 31.2624 22.53C30.9562 22.2513 30.4812 22.2737 30.2024 22.5812C27.1024 25.9925 25.5074 29.7025 25.4462 33.625C25.3762 33.57 25.3062 33.5125 25.2374 33.4538C24.1862 32.5413 23.6799 31.5188 23.6912 30.325ZM39.5024 29.5537C38.1199 34.2562 36.5537 39.585 33.3187 40.8013C32.0149 41.2913 30.4324 41.1538 29.1899 40.4412C29.0962 40.3875 29.0049 40.33 28.9174 40.27L31.2074 37.8988L33.5874 38.1562C33.6149 38.1587 33.6424 38.1613 33.6687 38.1613C34.0462 38.1613 34.3712 37.8763 34.4137 37.4925C34.4587 37.0812 34.1612 36.7112 33.7487 36.6662L32.5262 36.5337L33.0549 35.9863L35.4349 36.2438C35.4624 36.2463 35.4899 36.2487 35.5162 36.2487C35.8937 36.2487 36.2187 35.9638 36.2612 35.58C36.3062 35.1688 36.0087 34.7987 35.5962 34.7537L34.3737 34.6213L35.1762 33.79C35.4637 33.4925 35.4562 33.0175 35.1574 32.73C34.8599 32.4425 34.3849 32.45 34.0974 32.7487L33.2787 33.5962L33.0862 32.3587C33.0224 31.9487 32.6387 31.6688 32.2299 31.7325C31.8212 31.7962 31.5399 32.1787 31.6037 32.5887L31.9699 34.95L31.4299 35.5088L31.2374 34.2713C31.1737 33.8613 30.7887 33.5813 30.3812 33.645C29.9724 33.7087 29.6912 34.0913 29.7549 34.5013L30.1212 36.8625L27.8474 39.2163C27.5612 38.7925 27.3662 38.315 27.2774 37.8C27.1249 36.9125 27.1337 36.1175 27.2849 35.4C27.3099 35.3338 27.3249 35.2663 27.3312 35.1987C28.2662 31.505 33.0874 29.905 39.1374 28.3C39.4074 28.2287 39.6724 28.1575 39.9324 28.0888C39.7937 28.5638 39.6499 29.0512 39.5024 29.5537Z" fill="#25B567"/>
</svg>
