<svg width="65" height="64" viewBox="0 0 65 64" fill="none" xmlns="http://www.w3.org/2000/svg">
<path d="M15 18H24.95C25.6775 17.9575 38.355 17.065 50.4275 6.94001C51.0105 6.45039 51.7211 6.13731 52.4758 6.03755C53.2306 5.93778 53.9981 6.05548 54.6883 6.37681C55.3785 6.69814 55.9626 7.20975 56.3721 7.85156C56.7816 8.49336 56.9994 9.2387 57 10V50C56.9999 50.7615 56.7824 51.5072 56.3731 52.1494C55.9638 52.7916 55.3797 53.3036 54.6894 53.6252C53.9992 53.9468 53.2314 54.0647 52.4764 53.9651C51.7215 53.8654 51.0106 53.5523 50.4275 53.0625C40.985 45.1425 31.1775 42.8725 27 42.2375V50.1675C27.0008 50.8266 26.8388 51.4758 26.5282 52.0572C26.2177 52.6386 25.7683 53.1342 25.22 53.5L22.47 55.3325C21.9385 55.6873 21.3297 55.9095 20.6946 55.9807C20.0595 56.0518 19.4166 55.9697 18.8197 55.7413C18.2229 55.5129 17.6895 55.1448 17.2641 54.6679C16.8388 54.1909 16.5339 53.619 16.375 53L13.4325 41.91C10.3907 41.5363 7.60707 40.0129 5.65261 37.6523C3.69816 35.2917 2.72097 32.2727 2.92146 29.2145C3.12195 26.1564 4.48491 23.2908 6.73083 21.2056C8.97675 19.1203 11.9354 17.9734 15 18ZM20.25 51.9725V52L23 50.1675V42H17.6L20.25 51.9725ZM15 38H23V22H15C12.8783 22 10.8434 22.8429 9.34315 24.3432C7.84286 25.8434 7 27.8783 7 30C7 32.1217 7.84286 34.1566 9.34315 35.6569C10.8434 37.1572 12.8783 38 15 38Z" fill="#97DB4F"/>
<path fill-rule="evenodd" clip-rule="evenodd" d="M2.9375 31H7.06273C7.28357 32.753 8.08055 34.3941 9.34315 35.6567C10.8434 37.157 12.8783 37.9999 15 37.9999H23V31H57V49.9999C56.9999 50.7614 56.7824 51.5071 56.3731 52.1493C55.9638 52.7914 55.3797 53.3034 54.6894 53.6251C53.9992 53.9467 53.2314 54.0646 52.4764 53.9649C51.7215 53.8653 51.0106 53.5521 50.4275 53.0624C40.985 45.1424 31.1775 42.8724 27 42.2374V50.1674C27.0008 50.8265 26.8388 51.4756 26.5282 52.057C26.2177 52.6384 25.7683 53.1341 25.22 53.4999L22.47 55.3324C21.9385 55.6872 21.3297 55.9094 20.6946 55.9805C20.0595 56.0517 19.4166 55.9696 18.8197 55.7412C18.2229 55.5128 17.6895 55.1447 17.2641 54.6677C16.8388 54.1908 16.5339 53.6189 16.375 52.9999L13.4325 41.9099C10.3907 41.5362 7.60707 40.0128 5.65261 37.6522C4.08049 35.7533 3.14069 33.4285 2.9375 31ZM20.25 51.9999V51.9724L17.6 41.9999H23V50.1674L20.25 51.9999Z" fill="#AAEE61"/>
<path d="M27 50.1674V42.2374L23 41.9999H17.6L13.4325 41.9099L16.375 52.9999C16.5339 53.6189 16.8388 54.1908 17.2641 54.6678C17.6895 55.1447 18.2229 55.5128 18.8197 55.7412C19.4166 55.9696 20.0595 56.0517 20.6946 55.9806C21.3297 55.9094 21.9385 55.6872 22.47 55.3324L25.22 53.4999C25.7683 53.1341 26.2177 52.6385 26.5282 52.0571C26.8388 51.4757 27.0008 50.8265 27 50.1674Z" fill="#0A4519"/>
<path d="M0 30C0 33.1826 1.2116 36.2348 3.36827 38.4853C5.52494 40.7357 8.45001 42 11.5 42H23V18H11.5C8.45001 18 5.52494 19.2643 3.36827 21.5147C1.2116 23.7652 0 26.8174 0 30Z" fill="#BEF636"/>
</svg>
