<svg width="581" height="284" viewBox="0 0 581 284" fill="none" xmlns="http://www.w3.org/2000/svg">
<circle cx="28.2207" cy="28.2207" r="1.5" fill="#2B2B2B" fill-opacity="0.19"/>
<circle cx="70.3108" cy="28.2207" r="1.5" fill="#2B2B2B" fill-opacity="0.19"/>
<circle cx="112.401" cy="28.2207" r="1.5" fill="#08E04A" fill-opacity="0.5"/>
<circle cx="154.491" cy="28.2207" r="1.5" fill="#2B2B2B" fill-opacity="0.19"/>
<circle cx="196.581" cy="28.2207" r="1.5" fill="#2B2B2B" fill-opacity="0.19"/>
<circle cx="238.671" cy="28.2207" r="1.5" fill="#2B2B2B" fill-opacity="0.19"/>
<circle cx="280.761" cy="28.2207" r="1.5" fill="#2B2B2B" fill-opacity="0.19"/>
<circle cx="322.851" cy="28.2207" r="1.5" fill="#2B2B2B" fill-opacity="0.19"/>
<circle cx="364.941" cy="28.2207" r="1.5" fill="#2B2B2B" fill-opacity="0.19"/>
<circle cx="407.031" cy="28.2207" r="1.5" fill="#2B2B2B" fill-opacity="0.19"/>
<circle cx="449.122" cy="28.2207" r="1.5" fill="#2B2B2B" fill-opacity="0.19"/>
<circle cx="491.212" cy="28.2207" r="1.5" fill="#2B2B2B" fill-opacity="0.19"/>
<circle cx="533.302" cy="28.2207" r="1.5" fill="#2B2B2B" fill-opacity="0.19"/>
<circle cx="575.392" cy="28.2207" r="1.5" fill="#2B2B2B" fill-opacity="0.19"/>
<circle cx="28.2207" cy="70.3105" r="1.5" fill="#2B2B2B" fill-opacity="0.19"/>
<circle cx="70.3108" cy="70.3105" r="1.5" fill="#2B2B2B" fill-opacity="0.19"/>
<circle cx="112.401" cy="70.3105" r="1.5" fill="#2B2B2B" fill-opacity="0.19"/>
<circle cx="154.491" cy="70.3105" r="1.5" fill="#2B2B2B" fill-opacity="0.19"/>
<circle cx="196.581" cy="70.3105" r="1.5" fill="#2B2B2B" fill-opacity="0.19"/>
<circle cx="238.671" cy="70.3105" r="1.5" fill="#2B2B2B" fill-opacity="0.19"/>
<circle cx="280.761" cy="70.3105" r="1.5" fill="#2B2B2B" fill-opacity="0.19"/>
<circle cx="322.851" cy="70.3105" r="1.5" fill="#2B2B2B" fill-opacity="0.19"/>
<circle cx="364.941" cy="70.3105" r="1.5" fill="#2B2B2B" fill-opacity="0.19"/>
<circle cx="407.031" cy="70.3105" r="1.5" fill="#2B2B2B" fill-opacity="0.19"/>
<circle cx="449.122" cy="70.3105" r="1.5" fill="#2B2B2B" fill-opacity="0.19"/>
<circle cx="491.212" cy="70.3105" r="1.5" fill="#2B2B2B" fill-opacity="0.19"/>
<circle cx="533.302" cy="70.3105" r="1.5" fill="#2B2B2B" fill-opacity="0.19"/>
<circle cx="575.392" cy="70.3105" r="1.5" fill="#2B2B2B" fill-opacity="0.19"/>
<circle cx="28.2207" cy="112.401" r="1.5" fill="#2B2B2B" fill-opacity="0.19"/>
<circle cx="70.3108" cy="112.401" r="1.5" fill="#2B2B2B" fill-opacity="0.19"/>
<circle cx="112.401" cy="112.401" r="1.5" fill="#2B2B2B" fill-opacity="0.19"/>
<circle cx="154.491" cy="112.401" r="1.5" fill="#2B2B2B" fill-opacity="0.19"/>
<circle cx="196.581" cy="112.401" r="1.5" fill="#2B2B2B" fill-opacity="0.19"/>
<circle cx="238.671" cy="112.401" r="1.5" fill="#2B2B2B" fill-opacity="0.19"/>
<circle cx="280.761" cy="112.401" r="1.5" fill="#2B2B2B" fill-opacity="0.19"/>
<circle cx="322.851" cy="112.401" r="1.5" fill="#2B2B2B" fill-opacity="0.19"/>
<circle cx="364.941" cy="112.401" r="1.5" fill="#2B2B2B" fill-opacity="0.19"/>
<circle cx="407.031" cy="112.401" r="1.5" fill="#2B2B2B" fill-opacity="0.19"/>
<circle cx="449.122" cy="112.401" r="1.5" fill="#2B2B2B" fill-opacity="0.19"/>
<circle cx="491.212" cy="112.401" r="1.5" fill="#2B2B2B" fill-opacity="0.19"/>
<circle cx="533.302" cy="112.401" r="1.5" fill="#2B2B2B" fill-opacity="0.19"/>
<circle cx="575.392" cy="112.401" r="1.5" fill="#2B2B2B" fill-opacity="0.19"/>
<circle cx="28.2207" cy="154.491" r="1.5" fill="#2B2B2B" fill-opacity="0.19"/>
<circle cx="70.3108" cy="154.491" r="1.5" fill="#2B2B2B" fill-opacity="0.19"/>
<circle cx="112.401" cy="154.491" r="1.5" fill="#2B2B2B" fill-opacity="0.19"/>
<circle cx="154.491" cy="154.491" r="1.5" fill="#2B2B2B" fill-opacity="0.19"/>
<circle cx="196.581" cy="154.491" r="1.5" fill="#2B2B2B" fill-opacity="0.19"/>
<circle cx="238.671" cy="154.491" r="1.5" fill="#2B2B2B" fill-opacity="0.19"/>
<circle cx="280.761" cy="154.491" r="1.5" fill="#2B2B2B" fill-opacity="0.19"/>
<circle cx="322.851" cy="154.491" r="1.5" fill="#2B2B2B" fill-opacity="0.19"/>
<circle cx="364.941" cy="154.491" r="1.5" fill="#2B2B2B" fill-opacity="0.19"/>
<circle cx="407.031" cy="154.491" r="1.5" fill="#2B2B2B" fill-opacity="0.19"/>
<circle cx="449.122" cy="154.491" r="1.5" fill="#2B2B2B" fill-opacity="0.19"/>
<circle cx="491.212" cy="154.491" r="1.5" fill="#2B2B2B" fill-opacity="0.19"/>
<circle cx="533.302" cy="154.491" r="1.5" fill="#2B2B2B" fill-opacity="0.19"/>
<circle cx="575.392" cy="154.491" r="1.5" fill="#2B2B2B" fill-opacity="0.19"/>
<circle cx="28.2207" cy="196.581" r="1.5" fill="#2B2B2B" fill-opacity="0.19"/>
<circle cx="70.3108" cy="196.581" r="1.5" fill="#2B2B2B" fill-opacity="0.19"/>
<circle cx="112.401" cy="196.581" r="1.5" fill="#2B2B2B" fill-opacity="0.19"/>
<circle cx="154.491" cy="196.581" r="1.5" fill="#2B2B2B" fill-opacity="0.19"/>
<circle cx="196.581" cy="196.581" r="1.5" fill="#2B2B2B" fill-opacity="0.19"/>
<circle cx="238.671" cy="196.581" r="1.5" fill="#2B2B2B" fill-opacity="0.19"/>
<circle cx="280.761" cy="196.581" r="1.5" fill="#2B2B2B" fill-opacity="0.19"/>
<circle cx="322.851" cy="196.581" r="1.5" fill="#2B2B2B" fill-opacity="0.19"/>
<circle cx="364.941" cy="196.581" r="1.5" fill="#2B2B2B" fill-opacity="0.19"/>
<circle cx="407.031" cy="196.581" r="1.5" fill="#08E04A" fill-opacity="0.5"/>
<circle cx="449.122" cy="196.581" r="1.5" fill="#2B2B2B" fill-opacity="0.19"/>
<circle cx="491.212" cy="196.581" r="1.5" fill="#2B2B2B" fill-opacity="0.19"/>
<circle cx="533.302" cy="196.581" r="1.5" fill="#2B2B2B" fill-opacity="0.19"/>
<circle cx="575.392" cy="196.581" r="1.5" fill="#2B2B2B" fill-opacity="0.19"/>
<circle cx="28.2207" cy="238.671" r="1.5" fill="#2B2B2B" fill-opacity="0.19"/>
<circle cx="70.3108" cy="238.671" r="1.5" fill="#08E04A" fill-opacity="0.5"/>
<circle cx="112.401" cy="238.671" r="1.5" fill="#2B2B2B" fill-opacity="0.19"/>
<circle cx="154.491" cy="238.671" r="1.5" fill="#2B2B2B" fill-opacity="0.19"/>
<circle cx="196.581" cy="238.671" r="1.5" fill="#2B2B2B" fill-opacity="0.19"/>
<circle cx="238.671" cy="238.671" r="1.5" fill="#2B2B2B" fill-opacity="0.19"/>
<circle cx="280.761" cy="238.671" r="1.5" fill="#2B2B2B" fill-opacity="0.19"/>
<circle cx="322.851" cy="238.671" r="1.5" fill="#2B2B2B" fill-opacity="0.19"/>
<circle cx="364.941" cy="238.671" r="1.5" fill="#2B2B2B" fill-opacity="0.19"/>
<circle cx="407.031" cy="238.671" r="1.5" fill="#2B2B2B" fill-opacity="0.19"/>
<circle cx="449.122" cy="238.671" r="1.5" fill="#2B2B2B" fill-opacity="0.19"/>
<circle cx="491.212" cy="238.671" r="1.5" fill="#2B2B2B" fill-opacity="0.19"/>
<circle cx="533.302" cy="238.671" r="1.5" fill="#2B2B2B" fill-opacity="0.19"/>
<circle cx="575.392" cy="238.671" r="1.5" fill="#2B2B2B" fill-opacity="0.19"/>
<circle cx="28.2207" cy="280.761" r="1.5" fill="#2B2B2B" fill-opacity="0.19"/>
<circle cx="70.3108" cy="280.761" r="1.5" fill="#2B2B2B" fill-opacity="0.19"/>
<circle cx="112.401" cy="280.761" r="1.5" fill="#2B2B2B" fill-opacity="0.19"/>
<circle cx="154.491" cy="280.761" r="1.5" fill="#2B2B2B" fill-opacity="0.19"/>
<circle cx="196.581" cy="280.761" r="1.5" fill="#2B2B2B" fill-opacity="0.19"/>
<circle cx="238.671" cy="280.761" r="1.5" fill="#2B2B2B" fill-opacity="0.19"/>
<circle cx="280.761" cy="280.761" r="1.5" fill="#2B2B2B" fill-opacity="0.19"/>
<circle cx="322.851" cy="280.761" r="1.5" fill="#2B2B2B" fill-opacity="0.19"/>
<circle cx="364.941" cy="280.761" r="1.5" fill="#2B2B2B" fill-opacity="0.19"/>
<circle cx="407.031" cy="280.761" r="1.5" fill="#2B2B2B" fill-opacity="0.19"/>
<circle cx="449.122" cy="280.761" r="1.5" fill="#2B2B2B" fill-opacity="0.19"/>
<circle cx="491.212" cy="280.761" r="1.5" fill="#2B2B2B" fill-opacity="0.19"/>
<circle cx="533.302" cy="280.761" r="1.5" fill="#2B2B2B" fill-opacity="0.19"/>
<circle cx="575.392" cy="280.761" r="1.5" fill="#2B2B2B" fill-opacity="0.19"/>
</svg>
