<svg width="22" height="19" viewBox="0 0 22 19" fill="none" xmlns="http://www.w3.org/2000/svg">
<path d="M19.75 5.11219V2.25C19.75 1.85218 19.592 1.47064 19.3107 1.18934C19.0294 0.908035 18.6478 0.75 18.25 0.75H1.75C1.35218 0.75 0.970644 0.908035 0.68934 1.18934C0.408035 1.47064 0.25 1.85218 0.25 2.25V14.25C0.25 14.6478 0.408035 15.0294 0.68934 15.3107C0.970644 15.592 1.35218 15.75 1.75 15.75H13V18C12.9988 18.1322 13.0326 18.2624 13.0979 18.3774C13.1633 18.4923 13.2579 18.588 13.3721 18.6546C13.4863 18.7212 13.6161 18.7565 13.7483 18.7567C13.8805 18.757 14.0105 18.7224 14.125 18.6562L16.375 17.3681L18.625 18.6562C18.7395 18.7224 18.8695 18.757 19.0017 18.7567C19.1339 18.7565 19.2637 18.7212 19.3779 18.6546C19.4921 18.588 19.5867 18.4923 19.6521 18.3774C19.7174 18.2624 19.7512 18.1322 19.75 18V12.1378C20.2241 11.6838 20.6014 11.1385 20.8592 10.5348C21.1169 9.93108 21.2498 9.28144 21.2498 8.625C21.2498 7.96856 21.1169 7.31892 20.8592 6.71521C20.6014 6.11149 20.2241 5.5662 19.75 5.11219ZM10 10.5H4.75C4.55109 10.5 4.36032 10.421 4.21967 10.2803C4.07902 10.1397 4 9.94891 4 9.75C4 9.55109 4.07902 9.36032 4.21967 9.21967C4.36032 9.07902 4.55109 9 4.75 9H10C10.1989 9 10.3897 9.07902 10.5303 9.21967C10.671 9.36032 10.75 9.55109 10.75 9.75C10.75 9.94891 10.671 10.1397 10.5303 10.2803C10.3897 10.421 10.1989 10.5 10 10.5ZM10 7.5H4.75C4.55109 7.5 4.36032 7.42098 4.21967 7.28033C4.07902 7.13968 4 6.94891 4 6.75C4 6.55109 4.07902 6.36032 4.21967 6.21967C4.36032 6.07902 4.55109 6 4.75 6H10C10.1989 6 10.3897 6.07902 10.5303 6.21967C10.671 6.36032 10.75 6.55109 10.75 6.75C10.75 6.94891 10.671 7.13968 10.5303 7.28033C10.3897 7.42098 10.1989 7.5 10 7.5ZM18.25 16.7072L16.75 15.8484C16.6367 15.7837 16.5084 15.7496 16.3778 15.7496C16.2473 15.7496 16.119 15.7837 16.0056 15.8484L14.5056 16.7072V13.125C15.0996 13.3732 15.7369 13.5009 16.3806 13.5009C17.0243 13.5009 17.6617 13.3732 18.2556 13.125L18.25 16.7072ZM16.375 12C15.7075 12 15.055 11.8021 14.5 11.4312C13.9449 11.0604 13.5124 10.5333 13.2569 9.91656C13.0015 9.29986 12.9346 8.62126 13.0648 7.96657C13.1951 7.31188 13.5165 6.71052 13.9885 6.23851C14.4605 5.76651 15.0619 5.44507 15.7166 5.31485C16.3713 5.18462 17.0499 5.25146 17.6666 5.50691C18.2833 5.76235 18.8104 6.19493 19.1812 6.74995C19.5521 7.30497 19.75 7.95749 19.75 8.625C19.75 9.06821 19.6627 9.50708 19.4931 9.91656C19.3235 10.326 19.0749 10.6981 18.7615 11.0115C18.4481 11.3249 18.076 11.5735 17.6666 11.7431C17.2571 11.9127 16.8182 12 16.375 12Z" fill="#25B567"/>
</svg>
