<svg width="18" height="18" viewBox="0 0 18 18" fill="none" xmlns="http://www.w3.org/2000/svg">
<path d="M17.125 9.00004C17.1225 10.9858 16.3939 12.9022 15.0765 14.388C13.7591 15.8739 11.9439 16.8268 9.97268 17.0672C9.92879 17.0722 9.88434 17.0678 9.84227 17.0543C9.8002 17.0409 9.76146 17.0187 9.72861 16.9891C9.69576 16.9596 9.66954 16.9234 9.65169 16.883C9.63383 16.8426 9.62475 16.7989 9.62503 16.7547V10.875H11.5C11.5857 10.8752 11.6705 10.8578 11.7492 10.8238C11.8278 10.7899 11.8987 10.7401 11.9573 10.6776C12.0159 10.6151 12.061 10.5412 12.0899 10.4605C12.1187 10.3799 12.1307 10.2941 12.125 10.2086C12.1112 10.0479 12.0371 9.89839 11.9175 9.79012C11.7979 9.68185 11.6418 9.62287 11.4805 9.62504H9.62503V7.75004C9.62503 7.41852 9.75672 7.10058 9.99114 6.86616C10.2256 6.63174 10.5435 6.50004 10.875 6.50004H12.125C12.2107 6.50023 12.2955 6.4828 12.3742 6.44883C12.4528 6.41487 12.5237 6.36509 12.5823 6.3026C12.6409 6.2401 12.686 6.16622 12.7149 6.08555C12.7437 6.00487 12.7557 5.91913 12.75 5.83364C12.7362 5.67265 12.6618 5.52289 12.5419 5.41458C12.422 5.30627 12.2655 5.24747 12.1039 5.25004H10.875C10.212 5.25004 9.5761 5.51343 9.10726 5.98227C8.63842 6.45112 8.37503 7.087 8.37503 7.75004V9.62504H6.50003C6.41435 9.62485 6.32954 9.64228 6.25088 9.67625C6.17222 9.71022 6.10139 9.75999 6.04278 9.82249C5.98416 9.88498 5.93903 9.95886 5.91017 10.0395C5.88131 10.1202 5.86935 10.206 5.87503 10.2914C5.88885 10.4524 5.96322 10.6022 6.08313 10.7105C6.20303 10.8188 6.35956 10.8776 6.52112 10.875H8.37503V16.7563C8.37529 16.8004 8.36623 16.844 8.34842 16.8844C8.33061 16.9247 8.30446 16.9608 8.2717 16.9904C8.23894 17.0199 8.2003 17.0421 8.15832 17.0556C8.11634 17.0692 8.07198 17.0736 8.02815 17.0688C6.00421 16.8223 4.14656 15.825 2.8229 14.2742C1.49923 12.7233 0.806029 10.7321 0.880494 8.69457C1.03674 4.47582 4.45393 1.04613 8.67581 0.882072C9.76885 0.839733 10.8592 1.01828 11.8816 1.40704C12.9041 1.79581 13.8376 2.38679 14.6264 3.14465C15.4152 3.90251 16.043 4.81167 16.4723 5.81776C16.9016 6.82384 17.1236 7.90618 17.125 9.00004Z" fill="white"/>
</svg>
