<svg width="18" height="18" viewBox="0 0 18 18" fill="none" xmlns="http://www.w3.org/2000/svg">
<path d="M17.125 9.00004C17.1224 10.9858 16.3938 12.9022 15.0764 14.388C13.7591 15.8739 11.9438 16.8268 9.97262 17.0672C9.92873 17.0722 9.88428 17.0678 9.84221 17.0543C9.80014 17.0409 9.7614 17.0187 9.72855 16.9891C9.6957 16.9596 9.66948 16.9234 9.65163 16.883C9.63377 16.8426 9.62468 16.7989 9.62496 16.7547V10.875H11.5C11.5856 10.8752 11.6704 10.8578 11.7491 10.8238C11.8278 10.7899 11.8986 10.7401 11.9572 10.6776C12.0158 10.6151 12.061 10.5412 12.0898 10.4605C12.1187 10.3799 12.1306 10.2941 12.125 10.2086C12.1112 10.0479 12.037 9.89839 11.9174 9.79012C11.7979 9.68185 11.6417 9.62287 11.4804 9.62504H9.62496V7.75004C9.62496 7.41852 9.75666 7.10058 9.99108 6.86616C10.2255 6.63174 10.5434 6.50004 10.875 6.50004H12.125C12.2106 6.50023 12.2954 6.4828 12.3741 6.44883C12.4528 6.41487 12.5236 6.36509 12.5822 6.3026C12.6408 6.2401 12.686 6.16622 12.7148 6.08555C12.7437 6.00487 12.7556 5.91913 12.75 5.83364C12.7361 5.67265 12.6618 5.52289 12.5419 5.41458C12.422 5.30627 12.2654 5.24747 12.1039 5.25004H10.875C10.2119 5.25004 9.57604 5.51343 9.1072 5.98227C8.63836 6.45112 8.37496 7.087 8.37496 7.75004V9.62504H6.49996C6.41429 9.62485 6.32948 9.64228 6.25082 9.67625C6.17216 9.71022 6.10133 9.75999 6.04271 9.82249C5.9841 9.88498 5.93897 9.95886 5.91011 10.0395C5.88125 10.1202 5.86929 10.206 5.87497 10.2914C5.88879 10.4524 5.96316 10.6022 6.08306 10.7105C6.20297 10.8188 6.3595 10.8776 6.52106 10.875H8.37496V16.7563C8.37523 16.8004 8.36616 16.844 8.34836 16.8844C8.33055 16.9247 8.3044 16.9608 8.27164 16.9904C8.23887 17.0199 8.20023 17.0421 8.15826 17.0556C8.11628 17.0692 8.07192 17.0736 8.02809 17.0688C6.00415 16.8223 4.1465 15.825 2.82283 14.2742C1.49917 12.7233 0.805968 10.7321 0.880433 8.69457C1.03668 4.47582 4.45387 1.04613 8.67575 0.882072C9.76878 0.839733 10.8591 1.01828 11.8816 1.40704C12.904 1.79581 13.8376 2.38679 14.6263 3.14465C15.4151 3.90251 16.0429 4.81167 16.4723 5.81776C16.9016 6.82384 17.1236 7.90618 17.125 9.00004Z" fill="#0A4519"/>
</svg>
