<svg width="100" height="6" viewBox="0 0 100 6" fill="none" xmlns="http://www.w3.org/2000/svg">
<path d="M0.333333 3C0.333333 4.47276 1.52724 5.66667 3 5.66667C4.47276 5.66667 5.66667 4.47276 5.66667 3C5.66667 1.52724 4.47276 0.333333 3 0.333333C1.52724 0.333333 0.333333 1.52724 0.333333 3ZM94.3333 3C94.3333 4.47276 95.5272 5.66667 97 5.66667C98.4728 5.66667 99.6667 4.47276 99.6667 3C99.6667 1.52724 98.4728 0.333333 97 0.333333C95.5272 0.333333 94.3333 1.52724 94.3333 3ZM3 3.5H4.95833V2.5H3V3.5ZM8.875 3.5H12.7917V2.5H8.875V3.5ZM16.7083 3.5H20.625V2.5H16.7083V3.5ZM24.5417 3.5H28.4583V2.5H24.5417V3.5ZM32.375 3.5H36.2917V2.5H32.375V3.5ZM40.2083 3.5H44.125V2.5H40.2083V3.5ZM48.0417 3.5H51.9583V2.5H48.0417V3.5ZM55.875 3.5H59.7917V2.5H55.875V3.5ZM63.7083 3.5H67.625V2.5H63.7083V3.5ZM71.5417 3.5H75.4583V2.5H71.5417V3.5ZM79.375 3.5H83.2917V2.5H79.375V3.5ZM87.2083 3.5H91.125V2.5H87.2083V3.5ZM95.0417 3.5H97V2.5H95.0417V3.5Z" fill="#0A4519"/>
</svg>
