<svg width="18" height="17" viewBox="0 0 18 17" fill="none" xmlns="http://www.w3.org/2000/svg">
<path d="M16.5 7.12501H15.8461C15.6891 5.41788 14.8999 3.83101 13.6334 2.67565C12.3668 1.52029 10.7143 0.879791 9 0.879791C7.28566 0.879791 5.63318 1.52029 4.36665 2.67565C3.10012 3.83101 2.31095 5.41788 2.15391 7.12501H1.5C1.33424 7.12501 1.17527 7.19086 1.05806 7.30807C0.940848 7.42528 0.875 7.58425 0.875 7.75001C0.877746 9.23635 1.28679 10.6937 2.0579 11.9643C2.82901 13.235 3.93283 14.2707 5.25 14.9594V15.25C5.25 15.5815 5.3817 15.8995 5.61612 16.1339C5.85054 16.3683 6.16848 16.5 6.5 16.5H11.5C11.8315 16.5 12.1495 16.3683 12.3839 16.1339C12.6183 15.8995 12.75 15.5815 12.75 15.25V14.9594C14.0672 14.2707 15.171 13.235 15.9421 11.9643C16.7132 10.6937 17.1223 9.23635 17.125 7.75001C17.125 7.58425 17.0592 7.42528 16.9419 7.30807C16.8247 7.19086 16.6658 7.12501 16.5 7.12501ZM14.5891 7.12501H10.5719C11.3296 5.9882 12.476 5.16682 13.7961 4.81485C14.2277 5.51693 14.4985 6.30586 14.5891 7.12501ZM12.5531 3.39298C12.6964 3.51017 12.8336 3.63386 12.9648 3.76407C11.3011 4.34935 9.92618 5.5522 9.125 7.12345H6.82031C7.21094 6.02847 7.93011 5.08079 8.87956 4.40989C9.829 3.73898 10.9624 3.37756 12.125 3.37501C12.268 3.37501 12.4109 3.38204 12.5531 3.39298ZM9 2.12501C9.50154 2.12534 10.0008 2.19287 10.4844 2.32579C9.30659 2.61796 8.22663 3.21543 7.35334 4.05799C6.48005 4.90056 5.8443 5.95844 5.51016 7.12501H3.41094C3.56597 5.75068 4.22135 4.48147 5.25212 3.55934C6.28288 2.63721 7.61696 2.12665 9 2.12501ZM11.8641 14C11.755 14.0501 11.6627 14.1305 11.5982 14.2316C11.5336 14.3328 11.4995 14.4503 11.5 14.5703V15.25H6.5V14.5703C6.50046 14.4503 6.46637 14.3328 6.40182 14.2316C6.33726 14.1305 6.24496 14.0501 6.13594 14C5.03681 13.4942 4.09006 12.7082 3.39071 11.7209C2.69136 10.7336 2.26401 9.57969 2.15156 8.37501H15.8461C15.7339 9.57944 15.3069 10.7332 14.6079 11.7205C13.909 12.7078 12.9628 13.4939 11.8641 14Z" fill="#0A4519"/>
</svg>
