<svg width="18" height="17" viewBox="0 0 18 17" fill="none" xmlns="http://www.w3.org/2000/svg">
<path d="M16.5 7.12498H15.8461C15.6891 5.41785 14.8999 3.83098 13.6334 2.67562C12.3668 1.52025 10.7143 0.879761 9 0.879761C7.28566 0.879761 5.63318 1.52025 4.36665 2.67562C3.10012 3.83098 2.31095 5.41785 2.15391 7.12498H1.5C1.33424 7.12498 1.17527 7.19083 1.05806 7.30804C0.940848 7.42525 0.875 7.58422 0.875 7.74998C0.877746 9.23632 1.28679 10.6936 2.0579 11.9643C2.82901 13.235 3.93283 14.2707 5.25 14.9594V15.25C5.25 15.5815 5.3817 15.8994 5.61612 16.1339C5.85054 16.3683 6.16848 16.5 6.5 16.5H11.5C11.8315 16.5 12.1495 16.3683 12.3839 16.1339C12.6183 15.8994 12.75 15.5815 12.75 15.25V14.9594C14.0672 14.2707 15.171 13.235 15.9421 11.9643C16.7132 10.6936 17.1223 9.23632 17.125 7.74998C17.125 7.58422 17.0592 7.42525 16.9419 7.30804C16.8247 7.19083 16.6658 7.12498 16.5 7.12498ZM14.5891 7.12498H10.5719C11.3296 5.98817 12.476 5.16679 13.7961 4.81482C14.2277 5.5169 14.4985 6.30583 14.5891 7.12498ZM12.5531 3.39295C12.6964 3.51014 12.8336 3.63383 12.9648 3.76404C11.3011 4.34932 9.92618 5.55217 9.125 7.12342H6.82031C7.21094 6.02844 7.93011 5.08076 8.87956 4.40986C9.829 3.73895 10.9624 3.37753 12.125 3.37498C12.268 3.37498 12.4109 3.38201 12.5531 3.39295ZM9 2.12498C9.50154 2.12531 10.0008 2.19284 10.4844 2.32576C9.30659 2.61793 8.22663 3.2154 7.35334 4.05796C6.48005 4.90053 5.8443 5.95841 5.51016 7.12498H3.41094C3.56597 5.75065 4.22135 4.48144 5.25212 3.55931C6.28288 2.63718 7.61696 2.12662 9 2.12498ZM11.8641 14C11.755 14.0501 11.6627 14.1305 11.5982 14.2316C11.5336 14.3327 11.4995 14.4503 11.5 14.5703V15.25H6.5V14.5703C6.50046 14.4503 6.46637 14.3327 6.40182 14.2316C6.33726 14.1305 6.24496 14.0501 6.13594 14C5.03681 13.4942 4.09006 12.7082 3.39071 11.7209C2.69136 10.7336 2.26401 9.57966 2.15156 8.37498H15.8461C15.7339 9.57941 15.3069 10.7332 14.6079 11.7204C13.909 12.7077 12.9628 13.4939 11.8641 14Z" fill="white"/>
</svg>
