<svg width="64" height="64" viewBox="0 0 64 64" fill="none" xmlns="http://www.w3.org/2000/svg">
<g clip-path="url(#clip0_178_17185)">
<path d="M47.0629 31.8666H34.0088C32.9733 31.8666 32.1338 31.0271 32.1338 29.9916V16.9375C32.1338 7.59813 39.7319 0 49.0713 0H62.1254C63.1609 0 64.0004 0.8395 64.0004 1.875V14.9291C64.0004 24.2685 56.4023 31.8666 47.0629 31.8666Z" fill="#BEF636"/>
<path d="M34.0085 31.8666H47.0626C56.402 31.8666 64.0001 24.2684 64.0001 14.9291V1.87495C64.0001 1.3572 63.7902 0.888447 63.451 0.549072L32.6826 31.3174C33.022 31.6567 33.4907 31.8666 34.0085 31.8666Z" fill="#97DB4F"/>
<path d="M5.8916 15.8C4.8561 15.8 4.0166 14.9605 4.0166 13.925V1.875C4.0166 0.8395 4.8561 0 5.8916 0C6.9271 0 7.7666 0.8395 7.7666 1.875V13.925C7.7666 14.9605 6.9271 15.8 5.8916 15.8Z" fill="#0A4519"/>
<path d="M17.9414 15.8C16.9059 15.8 16.0664 14.9605 16.0664 13.925V1.875C16.0664 0.8395 16.9059 0 17.9414 0C18.9769 0 19.8164 0.8395 19.8164 1.875V13.925C19.8164 14.9605 18.9769 15.8 17.9414 15.8Z" fill="#0A4519"/>
<path d="M55.0961 64H21.9586C15.377 64 10.042 58.6748 10.042 52.0834V29.9917C10.042 28.9562 10.8815 28.1167 11.917 28.1167C12.9525 28.1167 13.792 28.9562 13.792 29.9917V52.0833C13.792 56.5938 17.4415 60.2499 21.9586 60.2499H55.0961C57.9381 60.25 60.2502 57.9379 60.2502 55.0959C60.2502 52.2475 57.9467 49.9418 55.0961 49.9418H41.4946C36.4361 49.9418 31.9166 46.9219 29.9807 42.2482C28.0449 37.5745 29.1055 32.2432 32.6829 28.6659L46.7411 14.6075C47.4732 13.8753 48.6605 13.8753 49.3927 14.6075C50.125 15.3398 50.125 16.5269 49.3927 17.2592L35.3344 31.3175C32.8334 33.8185 32.0919 37.5458 33.4452 40.813C34.7986 44.0804 37.9582 46.1917 41.4946 46.1917H55.0961C60.0146 46.1917 64.0002 50.1698 64.0002 55.0958C64.0002 60.0057 60.0059 64 55.0961 64Z" fill="#0A4519"/>
<path d="M11.9166 31.8667C5.33512 31.8667 0 26.5414 0 19.95V13.925C0 12.8895 0.8395 12.05 1.875 12.05H21.9584C22.9939 12.05 23.8334 12.8895 23.8334 13.925V19.95C23.8334 26.5308 18.509 31.8667 11.9166 31.8667Z" fill="#136528"/>
<path d="M21.9587 12.05H11.917V31.8667C18.5094 31.8667 23.8336 26.5308 23.8336 19.95V13.925C23.8337 12.8895 22.9942 12.05 21.9587 12.05Z" fill="#136528"/>
</g>
<defs>
<clipPath id="clip0_178_17185">
<rect width="64" height="64" fill="white"/>
</clipPath>
</defs>
</svg>
