<svg width="34" height="33" viewBox="0 0 34 33" fill="none" xmlns="http://www.w3.org/2000/svg">
<path d="M19.2718 0.318054C19.2718 0.318054 16.9171 0.956332 17.4852 3.17562C19.7523 2.67923 19.2718 0.318054 19.2718 0.318054Z" fill="#009444"/>
<path d="M22.1209 1.06482C22.1209 1.06482 19.6861 0.878793 19.458 3.15673C21.762 3.44655 22.1209 1.06482 22.1209 1.06482Z" fill="#009444"/>
<path d="M24.3349 2.23126C24.3349 2.23126 23.1159 2.48219 23.3334 3.62966C24.5032 3.44796 24.3349 2.23126 24.3349 2.23126Z" fill="#009444"/>
<path d="M30.6193 20.4237C30.5419 20.2775 30.4147 20.0757 30.2186 19.866C30.1194 19.7624 30.0046 19.6562 29.8725 19.5564C29.7395 19.4581 29.5916 19.3619 29.4285 19.2818C29.2733 19.2011 29.0753 19.124 28.9052 19.0743C28.8173 19.049 28.7289 19.0233 28.6399 18.9976C28.5571 18.972 28.4728 18.954 28.3913 18.9221C27.7302 18.7015 27.1249 18.3291 26.699 18.024C26.6158 17.9644 26.5413 17.9085 26.4718 17.8551C26.8688 17.6333 27.327 17.5205 27.7807 17.4483C28.6372 17.3117 29.5133 17.295 30.3747 17.3987C30.5014 17.4139 30.6851 17.3824 30.6734 17.257C30.6213 17.2431 30.5692 17.2301 30.5169 17.2174C29.3447 16.9348 28.1087 16.9111 26.9265 17.1499C26.3973 17.257 25.8618 17.4248 25.4556 17.7759C25.036 18.1386 24.791 18.6645 24.3766 19.0327C23.7955 19.5486 22.9468 19.6852 22.1734 19.5721C21.3999 19.4591 20.6798 19.1262 19.9729 18.7973C20.2904 17.7599 20.1082 16.5335 20.7943 15.6872C21.113 15.2938 21.5765 15.0466 22.0269 14.8097C22.4612 14.5813 22.9039 14.35 23.3875 14.2578C24.185 14.1055 24.9975 14.3457 25.7978 14.4832C26.7904 14.6537 27.8677 14.6517 28.7387 14.1528C28.6617 13.9884 28.416 14.0416 28.2423 14.1005C26.6825 14.6293 25.0522 13.3854 23.4047 13.4623C22.7113 13.4945 22.0542 13.7608 21.4142 14.0257C20.6236 14.3531 19.7645 14.7506 19.421 15.5251C19.2903 14.8235 19.7018 14.1212 20.2371 13.6408C20.7722 13.1606 21.4303 12.8355 22.008 12.4054C22.5856 11.9752 23.107 11.3843 23.174 10.6739C23.216 10.2311 23.0769 9.79446 22.9921 9.35807C22.8371 8.5612 22.8624 7.73092 23.0656 6.94471C23.1052 6.79117 23.0825 6.55111 22.9228 6.56974C22.5932 7.60545 22.5122 8.71738 22.6892 9.78913C22.735 10.0684 22.7988 10.3511 22.7602 10.6314C22.6941 11.1137 22.3381 11.5083 21.9509 11.8098C20.9282 12.606 19.5297 13.0375 18.9172 14.1717C18.6526 14.6615 18.5732 15.2459 18.6976 15.7872C18.747 16.0028 18.8275 16.2111 18.8634 16.4293C18.9666 17.0593 18.7035 17.8767 18.4165 18.4379C18.3725 18.5239 18.3435 18.6193 18.2917 18.6946C18.2421 18.7702 18.1932 18.845 18.1448 18.9186C17.933 19.1918 17.7129 19.4132 17.4554 19.5439C17.3014 19.6304 17.1465 19.6963 16.9928 19.746C16.9619 19.3292 16.9161 18.7506 16.851 18.0588C16.7827 17.3412 16.6955 16.5042 16.5688 15.6024C16.5078 15.1524 16.4292 14.6833 16.3359 14.2035C16.2428 13.6843 16.0606 13.193 16.0106 12.8729C15.9541 12.5035 15.9958 12.0893 16.0859 11.6568C16.1736 11.2243 16.3076 10.7725 16.3832 10.2952C16.4587 9.81536 16.4676 9.31542 16.2824 8.83388C16.2411 8.70117 16.1884 8.63243 16.141 8.54108L16.1051 8.47618L16.0769 8.42358L16.0598 8.39507L15.9918 8.28169C15.9432 8.20812 15.905 8.13106 15.8711 8.05329C15.8329 7.97723 15.7996 7.90053 15.7755 7.82191C15.5525 7.19977 15.5993 6.60542 15.6817 6.21495C15.7223 6.01733 15.7701 5.86421 15.8069 5.76178C15.8444 5.65913 15.8685 5.60752 15.8685 5.60752L15.7793 5.55933C15.7793 5.55933 15.6367 5.761 15.4872 6.1605C15.3404 6.55531 15.1815 7.17851 15.3243 7.93849C15.3387 8.03389 15.3631 8.12886 15.3933 8.22447C15.4194 8.32186 15.4506 8.41974 15.4933 8.51514L15.5535 8.66193L15.5689 8.69896C15.5788 8.71887 15.5575 8.67721 15.5618 8.68738L15.5651 8.69584L15.5713 8.71325L15.597 8.78285C15.6278 8.8727 15.6783 8.97968 15.6769 9.04799C15.6866 9.12455 15.7061 9.19329 15.7017 9.28585C15.7058 9.37207 15.7067 9.45923 15.6911 9.55057C15.6853 9.6395 15.6665 9.73205 15.6433 9.82574C15.6269 9.9178 15.5926 10.015 15.5639 10.1111C15.4403 10.499 15.2484 10.9082 15.0759 11.3697C14.9048 11.8289 14.7512 12.355 14.7433 12.9324L14.7424 13.149C14.7473 13.2211 14.757 13.2935 14.7648 13.3662L14.8088 13.7397C14.8466 13.987 14.8462 14.1737 14.8611 14.3869C14.8777 14.8315 14.8835 15.275 14.8751 15.7101C14.8626 16.5776 14.8218 17.3956 14.7802 18.0957C14.7482 18.6287 14.7148 19.0937 14.6862 19.4658C14.4827 19.3326 14.3001 19.1451 14.1245 18.9187C14.0762 18.8451 14.0272 18.7702 13.9775 18.6947C13.9257 18.6194 13.8967 18.524 13.8527 18.438C13.7589 18.2684 13.7086 18.0632 13.6455 17.8593C13.5748 17.6329 13.5201 17.3747 13.4553 17.1289C13.403 16.9576 13.3545 16.7806 13.2987 16.6035C13.3856 16.43 13.4731 16.2022 13.5445 15.9264C13.6074 15.6708 13.6431 15.3686 13.621 15.0345C13.5844 14.7012 13.4801 14.3421 13.2785 14.0156C13.0666 13.7026 12.7964 13.4053 12.468 13.193C12.3888 13.1385 12.3048 13.0763 12.2276 13.0278C12.1499 12.9803 12.0715 12.9326 11.9927 12.8845C11.8364 12.7881 11.6783 12.6907 11.5188 12.5922C11.2038 12.3929 10.8832 12.1901 10.5822 11.9721C10.2827 11.7539 9.99538 11.5221 9.77858 11.261C9.56164 10.9997 9.44974 10.7049 9.46736 10.3959C9.48051 10.3184 9.47777 10.2411 9.50146 10.1641C9.52212 10.0817 9.54257 9.9999 9.56272 9.91901C9.6073 9.76177 9.63908 9.56998 9.65736 9.40214C9.69442 9.06427 9.68684 8.74816 9.66878 8.45941C9.63251 7.88112 9.54134 7.41047 9.47553 7.08226C9.40625 6.75463 9.35423 6.56853 9.35423 6.56853L9.16814 6.61388C9.16814 6.61388 9.20866 6.79579 9.25902 7.1203C9.30597 7.44487 9.37005 7.91205 9.3741 8.46978C9.37663 8.74787 9.36688 9.04991 9.31566 9.358C9.28907 9.51197 9.26162 9.65045 9.20455 9.81998C9.17876 9.90415 9.15275 9.98888 9.12638 10.0743C9.09459 10.1638 9.08788 10.2653 9.06851 10.3622C9.01607 10.7639 9.16286 11.2096 9.41138 11.5339C9.65729 11.8644 9.95861 12.1299 10.2625 12.3782C10.5681 12.6254 10.8834 12.8488 11.1934 13.0692C11.3489 13.177 11.5034 13.2841 11.6558 13.3896C11.7319 13.4419 11.8075 13.4938 11.8826 13.5451C11.9569 13.5977 12.0144 13.648 12.0804 13.6984C12.3477 13.8897 12.5314 14.1314 12.6752 14.3623C12.8043 14.6028 12.8587 14.8499 12.8741 15.0816C12.8743 15.2353 12.8549 15.378 12.828 15.5144C12.8233 15.5067 12.8202 15.4991 12.8152 15.4913L12.6923 15.2874L12.5415 15.0884C12.4474 14.9546 12.312 14.8345 12.1895 14.7175C11.9232 14.4878 11.6119 14.3341 11.3324 14.2268C11.0488 14.1178 10.7959 14.0491 10.5665 13.9643C10.4477 13.925 10.3423 13.8773 10.2323 13.8325C10.1779 13.8095 10.1285 13.7811 10.0762 13.7559L9.89388 13.6632L9.80633 13.6202C9.7723 13.6045 9.72209 13.585 9.68055 13.5687C9.58974 13.5307 9.51324 13.5135 9.43493 13.4931C9.27795 13.4556 9.12429 13.4402 8.97597 13.4338C8.38394 13.4232 7.8875 13.5576 7.43092 13.6769C6.97551 13.8019 6.56055 13.9294 6.17528 14.0265C5.79102 14.1222 5.4371 14.1924 5.12242 14.2171C4.8078 14.2438 4.53335 14.2305 4.31164 14.1938C4.08856 14.1608 3.92131 14.1003 3.8076 14.0592C3.69642 14.0111 3.63718 13.9853 3.63718 13.9853L3.54284 14.1498C3.54284 14.1498 3.60381 14.1844 3.71795 14.2498C3.83542 14.3079 4.0114 14.3939 4.25139 14.4574C4.48993 14.5242 4.78967 14.572 5.13282 14.5804C5.4764 14.5908 5.85987 14.5574 6.27013 14.502C6.67953 14.445 7.11566 14.3622 7.56623 14.2902C8.01363 14.221 8.48949 14.1605 8.91124 14.2186C9.01469 14.2353 9.11432 14.2574 9.20426 14.2907C9.24854 14.3083 9.29658 14.3251 9.32273 14.3425C9.34015 14.3525 9.35098 14.3552 9.37439 14.3688L9.45638 14.4208L9.62543 14.532C9.69868 14.5799 9.82157 14.654 9.89815 14.6967C9.9917 14.7487 10.086 14.8003 10.1799 14.8437C10.4364 14.9708 10.6916 15.0726 10.8983 15.1813C11.108 15.291 11.272 15.4033 11.3988 15.5419C11.6485 15.8217 11.8131 16.2429 11.9251 16.7026C11.9901 16.9295 12.0172 17.1601 12.0625 17.3904C12.1002 17.6476 12.1229 17.8915 12.1713 18.1502C12.2118 18.3745 12.2473 18.5964 12.3114 18.8148C12.1028 18.9102 11.871 19.0107 11.6139 19.1107C11.0615 19.3209 10.3941 19.5433 9.69912 19.6046C9.35423 19.6351 9.00306 19.6184 8.7073 19.5133C8.6313 19.4895 8.56506 19.4534 8.49549 19.4203L8.24661 19.263C8.16151 19.2079 8.10155 19.157 8.02627 19.1038C7.95454 19.0509 7.88605 18.9849 7.81475 18.9259C7.53647 18.6764 7.33542 18.3656 7.03995 18.0131C6.88968 17.8436 6.71262 17.6723 6.51019 17.5554C6.41397 17.4868 6.30784 17.4478 6.20808 17.3953C6.10614 17.3519 6.0037 17.3177 5.90307 17.2799C5.50118 17.155 5.10248 17.1009 4.75073 17.0547C4.37854 17.0126 4.03416 16.9922 3.71326 16.9885C3.07203 16.9845 2.54112 17.0494 2.17521 17.1199C1.99208 17.1558 1.84962 17.1911 1.7526 17.2182C1.65456 17.2484 1.60219 17.2648 1.60219 17.2648L1.66099 17.4447C1.66099 17.4447 1.70954 17.434 1.80049 17.4146C1.89412 17.3969 2.03319 17.3752 2.21126 17.3561C2.56764 17.319 3.08272 17.3012 3.69404 17.3585C3.99897 17.3883 4.33028 17.4377 4.66751 17.5053C5.02178 17.583 5.37107 17.6646 5.70751 17.8017C5.74182 17.816 5.77245 17.8335 5.80532 17.8487C5.7338 17.9039 5.65658 17.9618 5.57018 18.0238C5.14445 18.3289 4.53884 18.7013 3.87797 18.9219C3.79641 18.9538 3.7121 18.9718 3.62931 18.9974C3.54038 19.0231 3.45174 19.0488 3.36382 19.0741C3.1939 19.1238 2.99574 19.2008 2.84057 19.2815C2.67744 19.3617 2.52956 19.4578 2.39671 19.5562C2.26443 19.656 2.14971 19.7622 2.0506 19.8658C1.85453 20.0756 1.72731 20.2772 1.64972 20.4235C1.61042 20.4966 1.58442 20.557 1.56708 20.5984C1.55039 20.6427 1.5415 20.6662 1.5415 20.6662L1.72168 20.7304C1.72168 20.7304 1.73049 20.7124 1.74718 20.6787C1.76596 20.644 1.79414 20.5924 1.83596 20.5297C1.91846 20.4041 2.05211 20.2315 2.24529 20.0602C2.34311 19.9757 2.454 19.891 2.57941 19.8137C2.7054 19.7379 2.84273 19.6654 2.99264 19.6088C3.06763 19.5805 3.14348 19.5495 3.22035 19.5311C3.29699 19.5097 3.37061 19.4858 3.4633 19.4707C3.55006 19.4542 3.63747 19.4375 3.72518 19.4205C3.81844 19.4014 3.91503 19.389 4.0067 19.3629C4.75499 19.1874 5.43978 18.848 5.92806 18.5632C6.11076 18.4566 6.26695 18.3573 6.39164 18.274C6.43419 18.3218 6.47667 18.3695 6.51474 18.4239C6.71991 18.7129 6.94047 19.1232 7.25364 19.4606C7.3347 19.5424 7.40954 19.6269 7.49753 19.7061C7.58487 19.7821 7.6798 19.8699 7.76324 19.9348L8.02273 20.1319C8.13211 20.2015 8.24278 20.2707 8.35902 20.3208C8.82368 20.5325 9.30099 20.5841 9.73473 20.5863C10.6093 20.5829 11.3633 20.3933 11.996 20.2162C12.2995 20.1277 12.5722 20.0367 12.8149 19.95C12.9983 19.8841 13.7901 21.5763 13.8494 21.7477C14.3418 23.1696 13.8747 24.5736 13.3804 25.9265C13.3804 25.9265 13.378 25.9367 13.3728 25.9517C13.2886 26.1784 13.2043 26.3949 13.1199 26.5964C13.1175 26.6039 13.1124 26.6115 13.1098 26.6216C12.8211 27.2031 12.2873 27.9738 11.4034 28.1702C11.3421 28.1853 11.2757 28.1979 11.2093 28.2056C11.0535 28.2281 10.8976 28.2508 10.7444 28.2733C10.42 28.3087 10.0931 28.3438 9.76349 28.3792C9.43644 28.417 9.07892 28.485 8.75961 28.5732C8.43516 28.6662 8.12098 28.7847 7.83743 28.9283C7.55128 29.0641 7.2933 29.2228 7.04811 29.3562C6.80292 29.4924 6.56784 29.6057 6.33797 29.6711C6.11062 29.7466 5.89093 29.7769 5.69429 29.792C5.49757 29.8147 5.32137 29.7943 5.17826 29.7994C4.89218 29.7718 4.72862 29.7565 4.72862 29.7565L4.71851 29.8171C4.71851 29.8171 4.88207 29.8474 5.1706 29.8977C5.31624 29.9052 5.49251 29.9379 5.69942 29.9304C5.90372 29.9329 6.13872 29.9178 6.38919 29.8572C6.64204 29.8068 6.90261 29.7038 7.16572 29.5853C7.34192 29.5049 7.51819 29.4191 7.70212 29.3385C7.69699 29.3916 7.69194 29.4469 7.68168 29.5049C7.6561 29.656 7.61521 29.8321 7.53864 30.006C7.46459 30.1773 7.35218 30.3457 7.19635 30.4694C7.1197 30.5348 7.0354 30.5776 6.93837 30.6256C6.84121 30.6658 6.74166 30.7162 6.64709 30.7691C6.55773 30.822 6.47089 30.88 6.39424 30.9378C6.3176 31.0009 6.25113 31.0611 6.19247 31.1241C5.95739 31.3709 5.90639 31.6051 5.90639 31.6051L5.97033 31.6177C5.97033 31.6177 5.98297 31.57 6.02899 31.4918C6.0724 31.4112 6.15158 31.3055 6.26912 31.1973C6.32785 31.1442 6.39684 31.0939 6.47089 31.0411C6.54747 30.9933 6.63178 30.9453 6.72114 30.9025C6.80805 30.8622 6.90261 30.8245 7.00729 30.7891C7.10684 30.7489 7.22438 30.7009 7.31888 30.6331C7.51812 30.4996 7.66889 30.3084 7.77111 30.1168C7.87579 29.923 7.93713 29.7314 7.97801 29.5652C8.0137 29.4192 8.03415 29.2933 8.04448 29.1976C8.30246 29.0968 8.57575 29.0213 8.85677 28.9634C9.17095 28.9055 9.46982 28.8678 9.80199 28.8578C10.134 28.8477 10.4661 28.8375 10.7956 28.8276C10.9566 28.8174 11.2196 28.7974 11.3831 28.7871C11.5133 28.772 11.6411 28.7595 11.7688 28.7469C11.7844 28.745 11.799 28.7423 11.8145 28.7403C12.2423 28.7958 12.9153 28.8421 13.3729 28.6747C13.3729 28.6747 13.0942 29.1633 12.2031 29.4016C12.1317 29.3839 12.0499 29.3613 11.9605 29.3412C11.6411 29.2657 11.2069 29.1877 10.77 29.1625C10.6602 29.1524 10.5504 29.1547 10.4431 29.1547C10.3333 29.1499 10.2286 29.1649 10.1238 29.1701C9.91953 29.1901 9.73047 29.2303 9.57204 29.2783C9.49287 29.3011 9.42387 29.3362 9.36254 29.3589C9.29868 29.3815 9.25013 29.4168 9.20939 29.4393C9.12754 29.4897 9.07906 29.52 9.07906 29.52L9.11742 29.5703C9.11742 29.5703 9.16337 29.5478 9.24515 29.5074C9.28604 29.4872 9.33451 29.457 9.39577 29.4419C9.45711 29.4243 9.5235 29.3967 9.60015 29.3813C9.75597 29.3487 9.9373 29.3259 10.134 29.3259C10.231 29.3285 10.3333 29.3235 10.438 29.336C10.5402 29.3435 10.6449 29.351 10.7497 29.3687C11.0229 29.4092 11.2912 29.4694 11.5287 29.5348C10.4942 29.7489 9.49539 30.0311 8.76481 30.3508C8.35866 30.5272 8.04188 30.7184 7.83758 30.8746C7.73803 30.9553 7.6613 31.0232 7.61536 31.0735C7.56681 31.1239 7.54131 31.1517 7.54131 31.1517L7.58986 31.1919C7.58986 31.1919 7.61536 31.1691 7.6639 31.1239C7.71245 31.0786 7.79163 31.0207 7.89378 30.9527C8.10328 30.8141 8.42259 30.6555 8.83134 30.5146C9.2502 30.3685 9.75857 30.2401 10.3103 30.1343C10.3027 30.1847 10.2898 30.2401 10.2771 30.3005C10.2439 30.4365 10.2006 30.5925 10.1341 30.7538C10.0702 30.9125 9.98332 31.0762 9.86845 31.2172C9.81471 31.2853 9.74579 31.3456 9.67419 31.4136C9.60528 31.4791 9.53628 31.5495 9.47502 31.6176C9.3499 31.7561 9.24515 31.892 9.16337 32.0131C8.99736 32.2548 8.91565 32.4336 8.91565 32.4336L8.97185 32.4612C8.97185 32.4612 9.06627 32.295 9.24515 32.0735C9.33711 31.9627 9.44685 31.8392 9.57717 31.7159C9.64364 31.6554 9.71003 31.5949 9.78415 31.5369C9.85567 31.4791 9.93997 31.4161 10.0114 31.3382C10.1545 31.1896 10.2643 31.0157 10.3487 30.8469C10.4329 30.6784 10.4943 30.5146 10.5402 30.3737C10.5786 30.2576 10.6041 30.1572 10.6245 30.0765C11.023 30.0033 11.4394 29.9454 11.8583 29.895C11.8225 29.9807 11.7842 30.0788 11.7561 30.1871C11.7382 30.2477 11.723 30.313 11.7102 30.3786C11.6999 30.4441 11.6897 30.5195 11.6872 30.5751L11.6744 30.6731L11.6487 30.7463C11.6259 30.7966 11.5976 30.8468 11.5594 30.8872C11.4852 30.9676 11.3882 31.0258 11.3014 31.0635C11.2145 31.1014 11.1353 31.1214 11.0817 31.1314C11.0255 31.144 10.9948 31.1466 10.9948 31.1466L10.9999 31.2096C10.9999 31.2096 11.1379 31.212 11.3345 31.1491C11.4342 31.1188 11.5466 31.0661 11.6487 30.9754C11.6998 30.9301 11.7431 30.8723 11.7789 30.8092C11.7969 30.7739 11.8096 30.7386 11.8249 30.7007L11.848 30.6051C11.8608 30.5322 11.8709 30.4792 11.8889 30.4187C11.9067 30.3582 11.9246 30.3004 11.9451 30.2476C11.9859 30.1366 12.037 30.041 12.083 29.958C12.1034 29.9229 12.1213 29.8926 12.1391 29.8649C12.6424 29.8068 13.1431 29.7642 13.6182 29.7312C13.6591 29.7288 13.7024 29.7263 13.7511 29.7185C13.631 29.9554 13.4778 30.2199 13.2988 30.4716C13.2402 30.5574 13.1762 30.638 13.1098 30.7184C13.0485 30.8014 12.977 30.8721 12.9106 30.9451C12.7752 31.086 12.6348 31.1994 12.5044 31.2875C12.4405 31.3328 12.3767 31.3631 12.3204 31.3933C12.2668 31.4284 12.2132 31.4437 12.1698 31.4587C12.0829 31.489 12.0344 31.5067 12.0344 31.5067L12.0471 31.5698C12.0471 31.5698 12.1008 31.5544 12.1928 31.5319C12.2413 31.5193 12.2975 31.5067 12.3589 31.4764C12.4176 31.4486 12.4917 31.4237 12.5632 31.3808C12.7061 31.3001 12.8646 31.1919 13.0204 31.056C13.0944 30.9852 13.1788 30.9198 13.2503 30.8392C13.3244 30.7612 13.3985 30.6832 13.4674 30.5975C13.7407 30.2751 13.9733 29.92 14.1392 29.6406L14.2925 29.5878C14.364 29.5575 14.4305 29.5198 14.4968 29.4847C14.7242 29.3509 14.9056 29.1797 15.0461 29.0036C15.0384 29.0211 15.0333 29.0363 15.0282 29.0514C14.9618 29.2151 14.8775 29.3813 14.7982 29.5804C14.7216 29.769 14.6526 29.978 14.6142 30.1972C14.5733 30.4113 14.5709 30.6555 14.5632 30.8318C14.5632 30.9727 14.3971 31.0887 14.226 31.2045C14.0524 31.3179 13.8735 31.4313 13.71 31.5596C13.5491 31.6856 13.4009 31.8191 13.2783 31.9627C13.1506 32.1036 13.0536 32.247 12.9514 32.3654C12.7521 32.5997 12.5376 32.7634 12.369 32.7984C12.1952 32.8389 12.1084 32.7634 12.1161 32.7685L12.0726 32.8162C12.0752 32.8162 12.0981 32.8389 12.1493 32.8615C12.2003 32.8818 12.2846 32.8968 12.3843 32.8792C12.5886 32.8489 12.8261 32.6879 13.0536 32.4512C13.166 32.3328 13.2758 32.1993 13.4009 32.0758C13.526 31.9501 13.6717 31.8316 13.8327 31.7234C13.9936 31.6124 14.1698 31.5143 14.3563 31.411C14.4023 31.3833 14.4483 31.3581 14.4944 31.3278C14.4968 31.3506 14.4968 31.3707 14.5019 31.3959C14.5173 31.4966 14.5403 31.615 14.5786 31.736C14.599 31.7989 14.6195 31.8619 14.645 31.9221C14.6705 31.9828 14.7063 32.0532 14.7319 32.101L14.7728 32.1918L14.7932 32.2673C14.8009 32.3226 14.8009 32.3781 14.7906 32.4308C14.7728 32.5418 14.7217 32.64 14.6706 32.7154C14.6169 32.7936 14.5607 32.8516 14.5224 32.8917C14.4815 32.9295 14.456 32.9496 14.456 32.9496L14.4944 32.9999C14.4944 32.9999 14.6119 32.9294 14.7447 32.7735C14.8111 32.6928 14.8801 32.5896 14.9157 32.4586C14.9337 32.393 14.9388 32.3225 14.9363 32.2496C14.9311 32.2117 14.9234 32.1741 14.9157 32.1362L14.8852 32.043C14.8546 31.9725 14.8366 31.9248 14.8162 31.8618C14.8009 31.8037 14.7856 31.7458 14.7728 31.6879C14.7497 31.5745 14.7371 31.4639 14.7319 31.3733C14.7268 31.2801 14.7293 31.202 14.7319 31.1491C14.7343 31.1364 14.7343 31.1314 14.7343 31.1214C14.7473 31.1062 14.76 31.0936 14.7728 31.0761C14.7932 31.051 14.8085 31.0055 14.8239 30.9676C14.8443 30.9223 14.8392 30.9124 14.8468 30.8822C14.875 30.6455 14.8876 30.4691 14.9337 30.2829C15.0486 30.4589 15.2096 30.6656 15.4037 30.8443C15.4445 30.8797 15.5109 30.9427 15.5365 30.9805C15.5722 31.0232 15.6004 31.0786 15.6208 31.1314C15.6642 31.2399 15.6744 31.3529 15.6642 31.4513C15.6565 31.5494 15.6335 31.63 15.6156 31.6879C15.5951 31.7434 15.5825 31.7709 15.5825 31.7709L15.6361 31.8036C15.6361 31.8036 15.7255 31.6854 15.7817 31.4713C15.8097 31.363 15.8225 31.2269 15.7919 31.0836C15.7765 31.0105 15.7535 30.94 15.7101 30.8671C15.6668 30.7865 15.6335 30.7486 15.5825 30.6806C15.414 30.4716 15.2913 30.2348 15.2148 30.051C15.1763 29.9605 15.1508 29.8822 15.133 29.8294C15.1279 29.8066 15.1228 29.7892 15.1177 29.774C15.1253 29.7589 15.133 29.7413 15.1407 29.7236C15.2198 29.5575 15.3194 29.3862 15.4012 29.215C15.4165 29.1848 15.4287 29.156 15.443 29.1261C15.6311 28.9281 15.8262 28.7064 15.824 28.6398C15.822 28.582 15.936 28.6822 16.0616 28.8094C16.0781 28.8472 16.0942 28.8846 16.1113 28.923C16.1113 28.9329 16.1088 28.938 16.1088 28.9506C16.1037 29.006 16.0934 29.0867 16.0756 29.1848C16.0424 29.3788 15.9708 29.6355 15.8508 29.8749C15.8151 29.9503 15.7894 29.9956 15.7639 30.0839C15.7384 30.1644 15.7307 30.2373 15.7307 30.3106C15.7307 30.459 15.7717 30.5877 15.8227 30.6882C15.9224 30.8872 16.0348 30.9854 16.0348 30.9854L16.0833 30.9428C16.0833 30.9428 16.0628 30.9149 16.0322 30.8645C16.0016 30.8141 15.9607 30.7386 15.9326 30.6457C15.9045 30.5523 15.8892 30.4365 15.9071 30.3232C15.9173 30.2678 15.9326 30.2072 15.9581 30.1595C15.9735 30.1166 16.0271 30.0411 16.0578 29.9957C16.188 29.8169 16.2902 29.6206 16.3643 29.4467C16.4128 29.5399 16.464 29.6332 16.5074 29.7237C16.589 29.8976 16.6632 30.0765 16.7092 30.2626C16.7579 30.4591 16.7706 30.6381 16.7986 30.8823C16.8086 30.9125 16.8037 30.9225 16.8215 30.9677C16.837 31.0056 16.8549 31.0511 16.8752 31.0763C16.8852 31.0938 16.8981 31.1064 16.9108 31.1216C16.9135 31.1315 16.9135 31.1366 16.9135 31.1492C16.9186 31.2022 16.9186 31.2803 16.9159 31.3734C16.9108 31.4641 16.898 31.5747 16.8751 31.6881C16.8623 31.7459 16.8469 31.8039 16.8292 31.8619C16.8113 31.925 16.7934 31.9727 16.7626 32.0431L16.7321 32.1363C16.7243 32.1742 16.7141 32.2119 16.7115 32.2497C16.7066 32.3226 16.7115 32.3932 16.7321 32.4588C16.7678 32.5898 16.8368 32.693 16.9007 32.7736C17.0361 32.9296 17.1535 33.0001 17.1535 33.0001L17.1918 32.9497C17.1918 32.9497 17.1663 32.9296 17.1255 32.8919C17.0871 32.8517 17.0309 32.7938 16.9773 32.7155C16.9236 32.6401 16.8724 32.5419 16.8548 32.431C16.8445 32.3782 16.8469 32.3227 16.8548 32.2675L16.8751 32.192L16.9159 32.1011C16.9415 32.0534 16.9774 31.9829 17.0002 31.9223C17.0258 31.862 17.0488 31.799 17.0693 31.7361C17.1076 31.6152 17.1307 31.4968 17.1459 31.396C17.1483 31.3709 17.151 31.3507 17.1535 31.3279C17.1994 31.3582 17.2456 31.3834 17.2915 31.4111C17.4753 31.5145 17.6517 31.6126 17.8127 31.7235C17.9736 31.8318 18.1218 31.9503 18.2468 32.0759C18.372 32.1994 18.4792 32.3329 18.5942 32.4513C18.8216 32.688 19.0592 32.8491 19.2634 32.8793C19.3631 32.897 19.4474 32.8819 19.4985 32.8616C19.5496 32.8391 19.5726 32.8163 19.5752 32.8163L19.5317 32.7686C19.5393 32.7635 19.4526 32.8391 19.2789 32.7985C19.1077 32.7635 18.8932 32.5999 18.6965 32.3656C18.5943 32.2471 18.4948 32.1038 18.3694 31.9628C18.2468 31.8192 18.0987 31.6857 17.9353 31.5597C17.7743 31.4314 17.5955 31.3181 17.4218 31.2047C17.2506 31.0889 17.0845 30.9729 17.0845 30.8319C17.0769 30.6557 17.0744 30.4114 17.0336 30.1973C16.9951 29.9782 16.9263 29.7692 16.8469 29.5805C16.7706 29.3814 16.6834 29.2152 16.6197 29.0516C16.6145 29.0365 16.6097 29.0239 16.6044 29.0087C16.7449 29.1826 16.9263 29.351 17.1511 29.4848C17.2174 29.5199 17.2838 29.5577 17.3554 29.588C17.4063 29.6057 17.4601 29.623 17.5112 29.6407C17.6722 29.9202 17.9046 30.273 18.1805 30.5977C18.2468 30.6834 18.3234 30.7614 18.3977 30.8394C18.4691 30.92 18.5534 30.9854 18.6273 31.0561C18.7807 31.192 18.9415 31.3002 19.0849 31.381C19.1563 31.4238 19.2278 31.4488 19.2889 31.4766C19.3479 31.5069 19.4067 31.5195 19.4526 31.532C19.5472 31.5546 19.6007 31.5699 19.6007 31.5699L19.6135 31.5069C19.6135 31.5069 19.5649 31.4892 19.4781 31.4589C19.4346 31.4438 19.381 31.4287 19.3274 31.3935C19.2713 31.3633 19.2047 31.3329 19.1408 31.2876C19.013 31.1995 18.8728 31.0862 18.7347 30.9452C18.6708 30.8723 18.5969 30.8016 18.5355 30.7185C18.4716 30.6381 18.4053 30.5574 18.349 30.4718C18.1701 30.2201 18.0168 29.9556 17.8969 29.7186C17.9454 29.7264 17.9863 29.7289 18.0295 29.7313C18.5022 29.7643 19.0053 29.8068 19.506 29.8651C19.5265 29.8927 19.5445 29.9229 19.5648 29.9581C19.6107 30.0411 19.6594 30.1368 19.7029 30.2478C19.7232 30.3005 19.7412 30.3584 19.7589 30.4189C19.7743 30.4793 19.787 30.5323 19.7999 30.6052L19.8227 30.7008C19.8382 30.7387 19.851 30.774 19.8662 30.8094C19.9047 30.8724 19.948 30.9303 19.9992 30.9756C20.0987 31.0662 20.2136 31.1189 20.3107 31.1492C20.5099 31.2121 20.648 31.2098 20.648 31.2098L20.6532 31.1467C20.6532 31.1467 20.6198 31.1441 20.5662 31.1315C20.5099 31.1216 20.4333 31.1015 20.3466 31.0636C20.2596 31.0259 20.1626 30.9677 20.0885 30.8873C20.0502 30.8469 20.0219 30.7968 19.9991 30.7464L19.9736 30.6732L19.9608 30.5752C19.9556 30.5197 19.9479 30.4441 19.9352 30.3787C19.9249 30.3132 19.9096 30.2478 19.8917 30.1872C19.8611 30.0789 19.8253 29.9808 19.7896 29.8951C20.2084 29.9455 20.6249 30.0061 21.0233 30.0766C21.0437 30.1572 21.0693 30.2577 21.105 30.3738C21.1511 30.5148 21.2124 30.6785 21.2992 30.847C21.3835 31.0159 21.4933 31.1897 21.6365 31.3383C21.708 31.4162 21.7923 31.4793 21.8637 31.5371C21.9379 31.5949 22.0042 31.6555 22.0706 31.7161C22.1983 31.8393 22.3106 31.9629 22.4001 32.0736C22.5817 32.2951 22.676 32.4613 22.676 32.4613L22.7322 32.4337C22.7322 32.4337 22.6504 32.255 22.4846 32.0132C22.4 31.8921 22.2981 31.7562 22.1728 31.6177C22.1116 31.5496 22.0426 31.4792 21.9711 31.4137C21.8996 31.3457 21.8331 31.2854 21.7768 31.2173C21.6645 31.0764 21.5776 30.9126 21.5112 30.754C21.4473 30.5926 21.4014 30.4367 21.3707 30.3006C21.3554 30.2403 21.3451 30.1848 21.3375 30.1344C21.8894 30.2403 22.3952 30.3686 22.8165 30.5147C23.2226 30.6557 23.5445 30.8143 23.7516 30.9528C23.8562 31.0208 23.9354 31.0787 23.9813 31.1241C24.0324 31.1693 24.058 31.1921 24.058 31.1921L24.1041 31.1519C24.1041 31.1519 24.0811 31.1241 24.0324 31.0737C23.9865 31.0233 23.9098 30.9554 23.8076 30.8748C23.606 30.7186 23.2865 30.5273 22.883 30.3509C22.1498 30.0313 21.1538 29.7491 20.1192 29.5349C20.3566 29.4695 20.6249 29.4093 20.8983 29.3688C21.0029 29.3511 21.1076 29.3436 21.2098 29.3362C21.3144 29.3236 21.4142 29.3286 21.5138 29.326C21.7105 29.326 21.8918 29.3488 22.0451 29.3815C22.1219 29.3968 22.1882 29.4244 22.2495 29.442C22.3134 29.4571 22.3618 29.4873 22.4028 29.5075C22.4846 29.5479 22.5305 29.5704 22.5305 29.5704L22.5661 29.5202C22.5661 29.5202 22.5202 29.4899 22.4383 29.4395C22.3976 29.4169 22.349 29.3816 22.2851 29.3591C22.2239 29.3363 22.1549 29.3012 22.0758 29.2785C21.9173 29.2305 21.7284 29.1902 21.5215 29.1702C21.4194 29.1652 21.3119 29.1501 21.2046 29.1548C21.0975 29.1548 20.9877 29.1525 20.8775 29.1626C20.4383 29.1878 20.0067 29.2658 19.6873 29.3414C19.6109 29.3586 19.5414 29.3758 19.4777 29.3932C18.6094 29.152 18.3343 28.6748 18.3343 28.6748C18.7806 28.8382 19.433 28.7981 19.8617 28.7447C19.8676 28.7453 19.8729 28.7463 19.8789 28.747C20.0374 28.7621 20.1983 28.7797 20.3617 28.7974C20.5226 28.8075 20.6887 28.8175 20.8547 28.8277C21.1818 28.8376 21.5136 28.8478 21.8458 28.8579C22.178 28.8679 22.4767 28.9056 22.7909 28.9635C23.072 29.0213 23.3451 29.0997 23.6034 29.2004C23.6134 29.296 23.6314 29.4193 23.667 29.5653C23.7105 29.7315 23.7719 29.9231 23.8742 30.1168C23.9788 30.3084 24.1295 30.4997 24.3263 30.6331C24.4233 30.701 24.5407 30.7489 24.6405 30.7892C24.745 30.8245 24.8397 30.8623 24.9265 30.9026C25.0159 30.9454 25.1002 30.9934 25.1768 31.0412C25.251 31.0939 25.32 31.1442 25.3788 31.1974C25.4937 31.3057 25.5728 31.4112 25.6187 31.4919C25.6646 31.5701 25.6775 31.6178 25.6775 31.6178L25.7389 31.6052C25.7389 31.6052 25.6903 31.3709 25.4553 31.1242C25.3966 31.0611 25.3276 31.0009 25.2534 30.9379C25.1768 30.88 25.0901 30.8221 24.9981 30.7691C24.9035 30.7163 24.8065 30.6659 24.7094 30.6257C24.6124 30.5777 24.5278 30.5348 24.4488 30.4694C24.2956 30.3459 24.1832 30.1774 24.1066 30.0061C24.0324 29.8322 23.9891 29.6561 23.9661 29.505C23.9557 29.4444 23.9481 29.389 23.9456 29.3385C24.1294 29.4192 24.3057 29.505 24.4819 29.5853C24.745 29.7038 25.0057 29.8069 25.256 29.8573C25.5064 29.9179 25.7439 29.9329 25.9482 29.9305C26.1553 29.9379 26.3313 29.9053 26.4771 29.8978C26.7657 29.8474 26.9292 29.8171 26.9292 29.8171L26.9188 29.7566C26.9188 29.7566 26.7555 29.7719 26.4668 29.7994C26.3238 29.7944 26.1502 29.8147 25.9533 29.7921C25.7568 29.777 25.5369 29.7467 25.3072 29.6711C25.0771 29.6057 24.8449 29.4924 24.5997 29.3563C24.3542 29.2229 24.0962 29.0642 23.8103 28.9284C23.524 28.7848 23.2125 28.6663 22.888 28.5733C22.5689 28.4851 22.2111 28.417 21.8817 28.3792C21.5545 28.3439 21.2272 28.3088 20.9023 28.2734C20.7535 28.2512 20.5101 28.2149 20.3609 28.1926C20.2334 28.1691 20.1073 28.1466 19.981 28.1226C19.8354 28.0924 19.69 28.0596 19.5494 28.0242C19.1254 27.8884 18.7705 27.435 18.4868 26.9011C18.4662 26.8559 18.4485 26.8106 18.4282 26.7653C17.9164 25.6296 17.4825 24.3801 17.5956 23.1192C17.6513 22.5 17.84 21.8286 18.212 21.3173C18.5761 20.8166 19.1278 20.4771 19.4698 19.9547C20.3362 20.2434 21.2154 20.5346 22.1284 20.587C23.0413 20.6394 24.008 20.4243 24.6797 19.8124C25.1622 19.3734 25.4631 18.7623 25.9086 18.2946C26.0283 18.3735 26.1722 18.4649 26.3408 18.5632C26.8292 18.848 27.514 19.1873 28.2622 19.3629C28.3539 19.389 28.4504 19.4015 28.5436 19.4205C28.6316 19.4375 28.7187 19.4542 28.8054 19.4707C28.8983 19.4858 28.9719 19.5097 29.0485 19.5311C29.1254 19.5495 29.2013 19.5805 29.2762 19.6088C29.4261 19.6653 29.5637 19.7378 29.6897 19.8137C29.8149 19.891 29.9258 19.9758 30.0236 20.0602C30.2169 20.2315 30.3503 20.4041 30.4328 20.5297C30.475 20.5924 30.5028 20.644 30.5218 20.6787C30.5383 20.7124 30.5473 20.7304 30.5473 20.7304L30.7274 20.6662C30.7274 20.6662 30.7186 20.6427 30.7019 20.5984C30.6844 20.557 30.6584 20.4966 30.6191 20.4235L30.6193 20.4237Z" fill="#009444"/>
<path d="M26.9289 10.0144C29.2511 10.0532 29.343 7.64685 29.343 7.64685C29.343 7.64685 26.9025 7.72526 26.9289 10.0144Z" fill="#009444"/>
<path d="M21.0287 8.41699C21.0287 8.41699 19.6699 10.4171 21.5712 11.7311C22.9578 9.89429 21.0287 8.41699 21.0287 8.41699Z" fill="#009444"/>
<path d="M19.252 6.3971C19.252 6.3971 20.0811 8.66132 22.2812 7.92999C21.6019 5.74027 19.252 6.3971 19.252 6.3971Z" fill="#009444"/>
<path d="M19.8832 7.99638C19.8832 7.99638 17.5458 7.30009 16.8271 9.47666C19.0145 10.2471 19.8832 7.99638 19.8832 7.99638Z" fill="#009444"/>
<path d="M18.7299 5.6947C18.7299 5.6947 16.2904 5.58445 16.135 7.8685C18.447 8.08673 18.7299 5.6947 18.7299 5.6947Z" fill="#009444"/>
<path d="M26.2611 8.93676C26.2611 8.93676 23.9234 8.24047 23.2051 10.4168C25.3921 11.1873 26.2611 8.93676 26.2611 8.93676Z" fill="#009444"/>
<path d="M25.5443 16.16C25.5443 16.16 24.5417 13.9648 22.405 14.8601C23.2524 16.9922 25.5443 16.16 25.5443 16.16Z" fill="#009444"/>
<path d="M25.8374 12.172C25.8374 12.172 24.7936 10.5463 23.2051 11.4918C24.1187 13.0848 25.8374 12.172 25.8374 12.172Z" fill="#009444"/>
<path d="M20.5586 16.4443C21.4725 18.0374 23.1913 17.1245 23.1913 17.1245C23.1913 17.1245 22.1473 15.4988 20.5586 16.4443Z" fill="#009444"/>
<path d="M18.9079 12.3863C18.9079 12.3863 16.8569 12.589 17.0112 14.5152C18.9692 14.4181 18.9079 12.3863 18.9079 12.3863Z" fill="#009444"/>
<path d="M20.2936 12.5323C20.5054 11.0903 18.9718 10.8395 18.9718 10.8395C18.9718 10.8395 18.8256 12.3648 20.2936 12.5323Z" fill="#009444"/>
<path d="M17.7945 10.5073C17.7945 10.5073 16.2806 10.8537 16.5842 12.2792C18.0389 12.0205 17.7945 10.5073 17.7945 10.5073Z" fill="#009444"/>
<path d="M26.4624 16.7667C27.917 16.508 27.6726 14.9948 27.6726 14.9948C27.6726 14.9948 26.1587 15.3411 26.4624 16.7667Z" fill="#009444"/>
<path d="M24.0415 17.6529C24.0415 17.6529 22.5278 17.9993 22.8315 19.4249C24.286 19.1662 24.0415 17.6529 24.0415 17.6529Z" fill="#009444"/>
<path d="M29.1288 10.957C30.8744 10.6465 30.5811 8.83044 30.5811 8.83044C30.5811 8.83044 28.7646 9.24637 29.1288 10.957Z" fill="#009444"/>
<path d="M25.0325 19.8506C25.784 21.4347 27.4898 20.6899 27.4898 20.6899C27.4898 20.6899 26.6167 19.0652 25.0325 19.8506Z" fill="#009444"/>
<path d="M28.1236 19.778C27.1782 21.2575 28.7361 22.2695 28.7361 22.2695C28.7361 22.2695 29.6502 20.6671 28.1236 19.778Z" fill="#009444"/>
<path d="M27.6726 5.30109C27.6726 5.30109 26.1587 5.6477 26.4624 7.07325C27.917 6.81457 27.6726 5.30109 27.6726 5.30109Z" fill="#009444"/>
<path d="M28.146 18.722C29.2968 18.902 29.5137 17.713 29.5137 17.713C29.5137 17.713 28.2957 17.5832 28.146 18.722Z" fill="#009444"/>
<path d="M28.397 16.8174C29.5477 16.9973 29.7646 15.8084 29.7646 15.8084C29.7646 15.8084 28.5466 15.6786 28.397 16.8174Z" fill="#009444"/>
<path d="M17.3254 15.8896C17.3254 15.8896 17.1045 17.4063 18.5624 17.6438C18.8447 16.2135 17.3254 15.8896 17.3254 15.8896Z" fill="#009444"/>
<path d="M5.48576 9.60048C5.51234 7.31173 3.07178 7.23297 3.07178 7.23297C3.07178 7.23297 3.16345 9.63943 5.48576 9.60048Z" fill="#009444"/>
<path d="M10.5268 11.7311C12.428 10.4172 11.0689 8.41699 11.0689 8.41699C11.0689 8.41699 9.13984 9.89422 10.5268 11.7311Z" fill="#009444"/>
<path d="M12.8462 6.39712C12.8462 6.39712 10.4962 5.74022 9.81689 7.93001C12.017 8.66141 12.8462 6.39712 12.8462 6.39712Z" fill="#009444"/>
<path d="M12.2146 7.9964C12.2146 7.9964 13.0834 10.2472 15.2707 9.47668C14.5521 7.30004 12.2146 7.9964 12.2146 7.9964Z" fill="#009444"/>
<path d="M13.4985 5.95218C13.4985 5.95218 13.6705 7.40709 15.0768 7.27437C14.9824 5.88508 13.4985 5.95218 13.4985 5.95218Z" fill="#009444"/>
<path d="M8.89306 10.4169C8.17446 8.24049 5.83691 8.93684 5.83691 8.93684C5.83691 8.93684 6.70577 11.1874 8.89306 10.4169Z" fill="#009444"/>
<path d="M6.55371 16.16C6.55371 16.16 8.84582 16.9922 9.69308 14.86C7.55622 13.9646 6.55371 16.16 6.55371 16.16Z" fill="#009444"/>
<path d="M9.14838 11.4918C7.5597 10.5462 6.51587 12.1719 6.51587 12.1719C6.51587 12.1719 8.23452 13.0847 9.14838 11.4918Z" fill="#009444"/>
<path d="M11.5395 16.4444C9.95081 15.4988 8.90698 17.1245 8.90698 17.1245C8.90698 17.1245 10.6256 18.0374 11.5395 16.4444Z" fill="#009444"/>
<path d="M12.7903 12.1555C12.7903 12.1555 12.7288 14.1873 14.6871 14.2844C14.8412 12.3582 12.7903 12.1555 12.7903 12.1555Z" fill="#009444"/>
<path d="M13.1261 10.8395C13.1261 10.8395 11.5924 11.0903 11.8043 12.5323C13.2722 12.3648 13.1261 10.8395 13.1261 10.8395Z" fill="#009444"/>
<path d="M13.6707 9.94336C13.6707 9.94336 13.4263 11.4567 14.8809 11.7157C15.1846 10.2898 13.6707 9.94336 13.6707 9.94336Z" fill="#009444"/>
<path d="M5.63577 16.7667C5.93933 15.3411 4.42564 14.9948 4.42564 14.9948C4.42564 14.9948 4.1811 16.508 5.63577 16.7667Z" fill="#009444"/>
<path d="M8.05623 17.6529C8.05623 17.6529 7.81183 19.1662 9.26651 19.4249C9.57007 17.9993 8.05623 17.6529 8.05623 17.6529Z" fill="#009444"/>
<path d="M2.96914 10.957C3.33338 9.24637 1.51685 8.83044 1.51685 8.83044C1.51685 8.83044 1.22354 10.6464 2.96914 10.957Z" fill="#009444"/>
<path d="M14.4539 2.1241C14.8027 0.4865 13.1535 0.0356038 13.0116 6.10352e-05H13.0014C12.9907 0.0705069 12.7435 1.82014 14.4539 2.1241Z" fill="#009444"/>
<path d="M7.06558 19.8506C5.48138 19.0652 4.6084 20.6899 4.6084 20.6899C4.6084 20.6899 6.31397 21.4346 7.06558 19.8506Z" fill="#009444"/>
<path d="M3.3619 22.2695C3.3619 22.2695 4.91959 21.2575 3.97423 19.778C2.4476 20.667 3.3619 22.2695 3.3619 22.2695Z" fill="#009444"/>
<path d="M5.20108 7.07325C5.50471 5.6477 3.9908 5.30109 3.9908 5.30109C3.9908 5.30109 3.74641 6.81457 5.20108 7.07325Z" fill="#009444"/>
<path d="M6.71158 5.78948C7.01514 4.36386 5.5013 4.01746 5.5013 4.01746C5.5013 4.01746 5.2569 5.53094 6.71158 5.78948Z" fill="#009444"/>
<path d="M9.91169 1.88605C9.91169 1.88605 8.61508 3.06799 9.72935 4.30609C11.0163 3.24357 9.91169 1.88605 9.91169 1.88605Z" fill="#009444"/>
<path d="M11.7736 0.510315C11.7736 0.510315 10.4768 1.69218 11.5912 2.9305C12.878 1.86805 11.7736 0.510315 11.7736 0.510315Z" fill="#009444"/>
<path d="M3.95199 18.722C3.80231 17.5832 2.58423 17.713 2.58423 17.713C2.58423 17.713 2.80103 18.902 3.95199 18.722Z" fill="#009444"/>
<path d="M2.3335 15.8083C2.3335 15.8083 2.5503 16.9973 3.70126 16.8173C3.55165 15.6784 2.3335 15.8083 2.3335 15.8083Z" fill="#009444"/>
<path d="M13.6419 17.3848C15.0341 16.9912 14.6454 15.5394 14.6454 15.5394C14.6454 15.5394 13.2032 16.0236 13.6419 17.3848Z" fill="#009444"/>
<path d="M22.6324 6.40628C23.4036 4.24662 21.1166 3.40063 21.1166 3.40063C21.1166 3.40063 20.4213 5.70822 22.6324 6.40628Z" fill="#009444"/>
<path d="M25.5443 3.96442C25.5443 3.96442 23.1077 4.11953 23.2081 6.40628C25.5305 6.37244 25.5443 3.96442 25.5443 3.96442Z" fill="#009444"/>
<path d="M23.395 6.92366C24.4227 8.97703 26.6349 7.95617 26.6349 7.95617C26.6349 7.95617 25.4471 5.85289 23.395 6.92366Z" fill="#009444"/>
<path d="M28.2545 13.8353C29.0256 11.6754 26.7387 10.8293 26.7387 10.8293C26.7387 10.8293 26.0432 13.1371 28.2545 13.8353Z" fill="#009444"/>
<path d="M28.8302 13.8354C31.1524 13.8013 31.1664 11.3933 31.1664 11.3933C31.1664 11.3933 28.7295 11.5486 28.8302 13.8354Z" fill="#009444"/>
<path d="M29.0171 14.3524C30.045 16.4059 32.2569 15.3852 32.2569 15.3852C32.2569 15.3852 31.0695 13.2817 29.0171 14.3524Z" fill="#009444"/>
<path d="M32.1756 15.6349C32.1756 15.6349 30.8397 15.7505 30.9243 17.0048C32.1987 16.9571 32.1756 15.6349 32.1756 15.6349Z" fill="#009444"/>
<path d="M31.0403 17.2945C31.5263 18.4571 32.777 17.9783 32.777 17.9783C32.777 17.9783 32.2048 16.7825 31.0403 17.2945Z" fill="#009444"/>
<path d="M30.8105 17.493C29.9542 18.425 30.9295 19.3328 30.9295 19.3328C30.9295 19.3328 31.7792 18.3102 30.8105 17.493Z" fill="#009444"/>
<path d="M33.1665 18.987C33.1604 18.9856 31.2038 18.5502 30.741 20.3777C32.5746 20.8837 33.1604 19.007 33.1665 18.9874V18.987Z" fill="#009444"/>
<path d="M30.7722 20.8441C30.9258 22.725 32.935 22.6066 32.935 22.6066C32.935 22.6066 32.6744 20.6394 30.7722 20.8441Z" fill="#009444"/>
<path d="M29.6637 23.7057C29.6637 23.7057 31.3542 22.6297 30.3505 21.0236C28.6932 21.9672 29.6637 23.7057 29.6637 23.7057Z" fill="#009444"/>
<path d="M9.83828 6.42647C12.1499 6.21207 11.9727 3.81116 11.9727 3.81116C11.9727 3.81116 9.55494 4.15379 9.83828 6.42647Z" fill="#009444"/>
<path d="M9.27583 6.30492C9.87154 4.09238 7.52518 3.4256 7.52518 3.4256C7.52518 3.4256 7.01493 5.78045 9.27583 6.30492Z" fill="#009444"/>
<path d="M5.59155 7.09388C5.59155 7.09388 7.53025 8.55881 8.98066 6.7703C7.2092 5.29072 5.59155 7.09388 5.59155 7.09388Z" fill="#009444"/>
<path d="M19.705 3.90334C19.705 3.90334 17.4271 3.03382 16.5442 5.15167C18.6659 6.08176 19.705 3.90334 19.705 3.90334Z" fill="#009444"/>
<path d="M16.1147 4.7739C17.7339 3.13346 16.0202 1.41852 16.0202 1.41852C16.0202 1.41852 14.4046 3.22459 16.1147 4.7739Z" fill="#009444"/>
<path d="M15.6257 5.03717C14.8174 2.89153 12.5107 3.6815 12.5107 3.6815C12.5107 3.6815 13.4724 5.89525 15.6257 5.03717Z" fill="#009444"/>
<path d="M4.09342 14.0143C6.34486 13.4548 5.79827 11.1084 5.79827 11.1084C5.79827 11.1084 3.46188 11.8109 4.09342 14.0143Z" fill="#009444"/>
<path d="M3.51915 13.9785C3.76542 11.7026 1.34342 11.3964 1.34342 11.3964C1.34342 11.3964 1.20349 13.8004 3.51915 13.9785Z" fill="#009444"/>
<path d="M3.29953 14.4833C1.3198 13.2873 0 15.3126 0 15.3126C0 15.3126 2.14278 16.4688 3.29953 14.4833Z" fill="#009444"/>
</svg>
