<svg width="64" height="64" viewBox="0 0 64 64" fill="none" xmlns="http://www.w3.org/2000/svg">
<path d="M47.0624 31.8666H34.0083C32.9728 31.8666 32.1333 31.0271 32.1333 29.9916V16.9375C32.1333 7.59813 39.7314 0 49.0708 0H62.1249C63.1604 0 63.9999 0.8395 63.9999 1.875V14.9291C63.9999 24.2685 56.4018 31.8666 47.0624 31.8666Z" fill="#BEF636"/>
<path d="M34.0085 31.8666H47.0626C56.402 31.8666 64.0001 24.2684 64.0001 14.9291V1.87495C64.0001 1.3572 63.7902 0.888447 63.451 0.549072L32.6826 31.3174C33.022 31.6567 33.4907 31.8666 34.0085 31.8666Z" fill="#97DB4F"/>
<path d="M5.8916 15.8C4.8561 15.8 4.0166 14.9605 4.0166 13.925V1.875C4.0166 0.8395 4.8561 0 5.8916 0C6.9271 0 7.7666 0.8395 7.7666 1.875V13.925C7.7666 14.9605 6.9271 15.8 5.8916 15.8Z" fill="#0A4519"/>
<path d="M17.9417 15.8C16.9062 15.8 16.0667 14.9605 16.0667 13.925V1.875C16.0667 0.8395 16.9062 0 17.9417 0C18.9772 0 19.8167 0.8395 19.8167 1.875V13.925C19.8167 14.9605 18.9772 15.8 17.9417 15.8Z" fill="#0A4519"/>
<path d="M55.0959 64H21.9584C15.3767 64 10.0417 58.6748 10.0417 52.0834V29.9917C10.0417 28.9562 10.8812 28.1167 11.9167 28.1167C12.9522 28.1167 13.7917 28.9562 13.7917 29.9917V52.0833C13.7917 56.5938 17.4412 60.2499 21.9584 60.2499H55.0959C57.9379 60.25 60.25 57.9379 60.25 55.0959C60.25 52.2475 57.9465 49.9418 55.0959 49.9418H41.4944C36.4359 49.9418 31.9164 46.9219 29.9805 42.2482C28.0446 37.5745 29.1052 32.2432 32.6826 28.6659L46.7409 14.6075C47.473 13.8753 48.6603 13.8753 49.3925 14.6075C50.1248 15.3398 50.1248 16.5269 49.3925 17.2592L35.3341 31.3175C32.8331 33.8185 32.0916 37.5458 33.445 40.813C34.7984 44.0804 37.958 46.1917 41.4944 46.1917H55.0959C60.0144 46.1917 64 50.1698 64 55.0958C64 60.0057 60.0056 64 55.0959 64Z" fill="#0A4519"/>
<path d="M11.9166 31.8667C5.33512 31.8667 0 26.5414 0 19.95V13.925C0 12.8895 0.8395 12.05 1.875 12.05H21.9584C22.9939 12.05 23.8334 12.8895 23.8334 13.925V19.95C23.8334 26.5308 18.509 31.8667 11.9166 31.8667Z" fill="#136528"/>
<path d="M21.9583 12.05H11.9165V31.8667C18.5089 31.8667 23.8331 26.5308 23.8331 19.95V13.925C23.8333 12.8895 22.9938 12.05 21.9583 12.05Z" fill="#136528"/>
</svg>
