<svg width="20" height="17" viewBox="0 0 20 17" fill="none" xmlns="http://www.w3.org/2000/svg">
<path d="M18.75 15.25H17.5V9.62499L17.6828 9.8078C17.8003 9.92508 17.9596 9.99088 18.1256 9.99073C18.2916 9.99059 18.4507 9.9245 18.568 9.80702C18.6852 9.68954 18.751 9.53028 18.7509 9.36428C18.7508 9.19828 18.6847 9.03914 18.5672 8.92186L10.8836 1.24061C10.6492 1.00637 10.3314 0.874786 10 0.874786C9.66862 0.874786 9.3508 1.00637 9.11641 1.24061L1.43281 8.92186C1.31564 9.03914 1.24986 9.19816 1.24993 9.36394C1.25 9.52972 1.31593 9.68868 1.4332 9.80585C1.55048 9.92302 1.7095 9.9888 1.87528 9.98873C2.04106 9.98866 2.20002 9.92273 2.31719 9.80546L2.5 9.62499V15.25H1.25C1.08424 15.25 0.925268 15.3158 0.808058 15.433C0.690848 15.5503 0.625 15.7092 0.625 15.875C0.625 16.0407 0.690848 16.1997 0.808058 16.3169C0.925268 16.4341 1.08424 16.5 1.25 16.5H18.75C18.9158 16.5 19.0747 16.4341 19.1919 16.3169C19.3092 16.1997 19.375 16.0407 19.375 15.875C19.375 15.7092 19.3092 15.5503 19.1919 15.433C19.0747 15.3158 18.9158 15.25 18.75 15.25ZM3.75 8.37499L10 2.12499L16.25 8.37499V15.25H12.5V10.875C12.5 10.7092 12.4342 10.5503 12.3169 10.433C12.1997 10.3158 12.0408 10.25 11.875 10.25H8.125C7.95924 10.25 7.80027 10.3158 7.68306 10.433C7.56585 10.5503 7.5 10.7092 7.5 10.875V15.25H3.75V8.37499ZM11.25 15.25H8.75V11.5H11.25V15.25Z" fill="#0A4519"/>
</svg>
