<svg width="24" height="25" viewBox="0 0 24 25" fill="none" xmlns="http://www.w3.org/2000/svg">
<g clip-path="url(#clip0_650_1115)">
<path d="M1.58638 17.7362C0.668552 18.0199 0 18.8765 0 19.8863V21.8771H4.1381L5.5443 20.9396V15.9067H3.79691C2.69999 15.9067 1.7839 16.6958 1.58638 17.7362Z" fill="#BADB47"/>
<path d="M22.4135 17.7361C22.2159 16.6958 21.2998 15.9067 20.2029 15.9067H18.4556V20.9395L19.8618 21.877H23.9998V19.8862C23.9998 18.8764 23.3313 18.0199 22.4135 17.7361Z" fill="#BADB47"/>
<path d="M22.4135 17.7361C22.2159 16.6958 21.2998 15.9067 20.2029 15.9067H18.4556V20.9395L19.8618 21.877H23.9998V19.8862C23.9998 18.8764 23.3313 18.0199 22.4135 17.7361Z" fill="#1FC979"/>
<path d="M12.0003 3.82617L4.13818 9.18162V21.8771H19.862V9.18556L12.0003 3.82617Z" fill="#FFF5F5"/>
<path d="M19.8621 9.18556L12.0003 3.82617L12 3.82636V21.8771H19.8621V9.18556Z" fill="#ECE6F2"/>
<path d="M2.89032 11.0299L2.09863 9.86767L12.0002 3.12305L21.8943 9.86781L21.1022 11.0298L11.9999 4.82464L2.89032 11.0299Z" fill="#E50058"/>
<path d="M11.2969 9.60083H12.7031V13.2135H11.2969V9.60083Z" fill="#FF415B"/>
<path d="M12.0001 18.1384C9.68866 18.1384 7.80811 16.2621 7.80811 13.9559C7.80811 12.669 8.3898 11.4725 9.40395 10.6731L10.2744 11.7775C9.60068 12.3085 9.21425 13.1025 9.21425 13.9559C9.21425 15.4867 10.464 16.7322 12.0001 16.7322C13.5361 16.7322 14.7859 15.4867 14.7859 13.9559C14.7859 13.1042 14.4008 12.3112 13.7292 11.7802L14.6013 10.6772C15.6123 11.4765 16.1921 12.6715 16.1921 13.9559C16.1922 16.2621 14.3116 18.1384 12.0001 18.1384Z" fill="#FF415B"/>
<path d="M21.8944 9.86782L12.0003 3.12305L12 3.12323V4.82464L21.1023 11.0298L21.8944 9.86782Z" fill="#B40042"/>
<path d="M12 9.60083H12.7032V13.2135H12V9.60083Z" fill="#E50058"/>
<path d="M12.0001 18.1384C14.3116 18.1384 16.1922 16.2622 16.1922 13.956C16.1922 12.6716 15.6124 11.4766 14.6014 10.6772L13.7293 11.7803C14.4008 12.3112 14.786 13.1042 14.786 13.9559C14.786 15.4868 13.5363 16.7322 12.0001 16.7322H12V18.1384L12.0001 18.1384Z" fill="#E50058"/>
</g>
<defs>
<clipPath id="clip0_650_1115">
<rect width="24" height="24" fill="white" transform="translate(0 0.5)"/>
</clipPath>
</defs>
</svg>
