<svg width="106" height="24" viewBox="0 0 106 24" fill="none" xmlns="http://www.w3.org/2000/svg">
<path d="M96.1842 12.5011V21.3055H91.9604V6.07623H95.9859V8.76316H96.1644C96.5015 7.87743 97.0666 7.17678 97.8598 6.6612C98.653 6.13902 99.6147 5.87793 100.745 5.87793C101.803 5.87793 102.725 6.10928 103.511 6.57197C104.298 7.03466 104.909 7.69566 105.346 8.55494C105.782 9.40762 106 10.4256 106 11.6087V21.3055H101.776V12.3623C101.783 11.4303 101.545 10.7032 101.062 10.181C100.58 9.65219 99.9155 9.3878 99.0694 9.3878C98.501 9.3878 97.9986 9.51008 97.5624 9.75464C97.1327 9.99921 96.7956 10.3561 96.551 10.8255C96.3131 11.2881 96.1908 11.8467 96.1842 12.5011Z" fill="white"/>
<path d="M83.1143 21.6029C81.5742 21.6029 80.2423 21.2757 79.1186 20.6213C78.0015 19.9604 77.1389 19.0416 76.5308 17.865C75.9227 16.6818 75.6187 15.3103 75.6187 13.7503C75.6187 12.1772 75.9227 10.8023 76.5308 9.62575C77.1389 8.44258 78.0015 7.5238 79.1186 6.86942C80.2423 6.20843 81.5742 5.87793 83.1143 5.87793C84.6544 5.87793 85.983 6.20843 87.1001 6.86942C88.2238 7.5238 89.0897 8.44258 89.6978 9.62575C90.3059 10.8023 90.6099 12.1772 90.6099 13.7503C90.6099 15.3103 90.3059 16.6818 89.6978 17.865C89.0897 19.0416 88.2238 19.9604 87.1001 20.6213C85.983 21.2757 84.6544 21.6029 83.1143 21.6029ZM83.1341 18.331C83.8348 18.331 84.4198 18.1327 84.8891 17.7361C85.3584 17.3329 85.712 16.7843 85.95 16.0902C86.1945 15.3962 86.3168 14.6063 86.3168 13.7206C86.3168 12.8349 86.1945 12.045 85.95 11.3509C85.712 10.6569 85.3584 10.1083 84.8891 9.70507C84.4198 9.30187 83.8348 9.10026 83.1341 9.10026C82.4269 9.10026 81.832 9.30187 81.3495 9.70507C80.8735 10.1083 80.5133 10.6569 80.2687 11.3509C80.0308 12.045 79.9118 12.8349 79.9118 13.7206C79.9118 14.6063 80.0308 15.3962 80.2687 16.0902C80.5133 16.7843 80.8735 17.3329 81.3495 17.7361C81.832 18.1327 82.4269 18.331 83.1341 18.331Z" fill="white"/>
<path d="M59.9587 21.3057V1H64.1825V8.63445H64.3114C64.4964 8.22464 64.7641 7.80821 65.1145 7.38518C65.4714 6.95554 65.9341 6.5986 66.5026 6.31437C67.0776 6.02354 67.7915 5.87812 68.6442 5.87812C69.7546 5.87812 70.7792 6.16896 71.7178 6.75063C72.6564 7.32569 73.4066 8.19489 73.9685 9.35824C74.5303 10.515 74.8112 11.9659 74.8112 13.7109C74.8112 15.4096 74.5369 16.844 73.9883 18.0139C73.4463 19.1773 72.706 20.0597 71.7674 20.6612C70.8354 21.2561 69.791 21.5535 68.6343 21.5535C67.8146 21.5535 67.1173 21.418 66.5422 21.147C65.9738 20.876 65.5078 20.5356 65.1442 20.1258C64.7807 19.7094 64.5031 19.2896 64.3114 18.8666H64.123V21.3057H59.9587ZM64.0932 13.691C64.0932 14.5966 64.2188 15.3865 64.47 16.0607C64.7212 16.7349 65.0847 17.2604 65.5606 17.6372C66.0366 18.0073 66.6149 18.1924 67.2957 18.1924C67.9832 18.1924 68.5649 18.004 69.0408 17.6272C69.5167 17.2439 69.8769 16.7151 70.1215 16.0409C70.3727 15.36 70.4983 14.5768 70.4983 13.691C70.4983 12.8119 70.376 12.0386 70.1314 11.371C69.8868 10.7034 69.5266 10.1812 69.0507 9.80441C68.5748 9.42764 67.9898 9.23926 67.2957 9.23926C66.6083 9.23926 66.0266 9.42103 65.5507 9.78458C65.0814 10.1481 64.7212 10.6637 64.47 11.3313C64.2188 11.9989 64.0932 12.7855 64.0932 13.691Z" fill="white"/>
<path d="M49.8511 21.3053V6.07604H53.9459V8.73322H54.1046C54.3822 7.78801 54.8482 7.07414 55.5026 6.59161C56.1569 6.10248 56.9105 5.85791 57.7631 5.85791C57.9747 5.85791 58.2027 5.87113 58.4473 5.89757C58.6918 5.92401 58.9067 5.96036 59.0917 6.00663V9.75446C58.8934 9.69497 58.6191 9.64209 58.2688 9.59582C57.9185 9.54955 57.5979 9.52641 57.3071 9.52641C56.6857 9.52641 56.1305 9.66192 55.6414 9.93292C55.1588 10.1973 54.7755 10.5675 54.4912 11.0434C54.2136 11.5193 54.0748 12.0679 54.0748 12.6893V21.3053H49.8511Z" fill="white"/>
<path d="M39.394 21.593C38.4223 21.593 37.5564 21.4245 36.7963 21.0873C36.0362 20.7436 35.4346 20.238 34.9918 19.5704C34.5555 18.8962 34.3374 18.0567 34.3374 17.052C34.3374 16.2059 34.4927 15.4954 34.8034 14.9203C35.1141 14.3452 35.5371 13.8825 36.0725 13.5322C36.6079 13.1819 37.216 12.9175 37.8968 12.739C38.5843 12.5606 39.3048 12.435 40.0583 12.3623C40.944 12.2697 41.6579 12.1838 42.1999 12.1045C42.7419 12.0185 43.1352 11.893 43.3798 11.7277C43.6243 11.5625 43.7466 11.3179 43.7466 10.994V10.9345C43.7466 10.3066 43.5483 9.82074 43.1517 9.47703C42.7617 9.13331 42.2065 8.96146 41.486 8.96146C40.7259 8.96146 40.1211 9.13001 39.6716 9.46711C39.2221 9.79761 38.9247 10.214 38.7793 10.7164L34.8728 10.3991C35.0711 9.47372 35.4611 8.67392 36.0428 7.99971C36.6244 7.31889 37.3747 6.79671 38.2934 6.43316C39.2188 6.06301 40.2896 5.87793 41.5059 5.87793C42.3519 5.87793 43.1616 5.97708 43.935 6.17537C44.715 6.37367 45.4057 6.68103 46.0072 7.09746C46.6153 7.51388 47.0945 8.04929 47.4449 8.70367C47.7952 9.35144 47.9704 10.1281 47.9704 11.0337V21.3055H43.9647V19.1936H43.8458C43.6012 19.6695 43.274 20.0892 42.8642 20.4528C42.4544 20.8097 41.9619 21.0907 41.3869 21.2956C40.8118 21.4939 40.1475 21.593 39.394 21.593ZM40.6036 18.678C41.2249 18.678 41.7736 18.5557 42.2495 18.3112C42.7254 18.06 43.0988 17.7229 43.3699 17.2999C43.6409 16.8768 43.7764 16.3976 43.7764 15.8622V14.2461C43.6442 14.332 43.4624 14.4113 43.231 14.484C43.0063 14.5501 42.7518 14.6129 42.4676 14.6724C42.1834 14.7253 41.8991 14.7749 41.6149 14.8211C41.3307 14.8608 41.0729 14.8972 40.8416 14.9302C40.3458 15.0029 39.9129 15.1186 39.5427 15.2772C39.1726 15.4359 38.885 15.6507 38.6801 15.9217C38.4752 16.1861 38.3728 16.5166 38.3728 16.9132C38.3728 17.4882 38.581 17.9278 38.9974 18.2319C39.4204 18.5293 39.9558 18.678 40.6036 18.678Z" fill="white"/>
<path d="M24.0237 16.9228L24.0336 11.8563H24.6483L29.5264 6.07595H34.3748L27.8211 13.7302H26.8197L24.0237 16.9228ZM20.1965 21.3052V4.22998H24.4203V21.3052H20.1965ZM29.7148 21.3052L25.2333 14.6721L28.0491 11.6878L34.6623 21.3052H29.7148Z" fill="white"/>
<path d="M1.98536 11.5345C3.7899 8.90309 6.13951 6.36006 8.44379 2.10693C19.4754 14.4145 13.5157 21.2382 7.43017 21.2382C0.822433 21.2382 -0.0833163 14.5511 1.98536 11.5345Z" fill="#08E04A" stroke="#08E04A" stroke-width="2.00885"/>
<path fill-rule="evenodd" clip-rule="evenodd" d="M8.50348 8.17578L8.50348 23.8657L6.49463 23.8657L6.49463 8.17578L8.50348 8.17578Z" fill="black"/>
<path fill-rule="evenodd" clip-rule="evenodd" d="M8.52081 22.1162L8.52081 23.8795L6.51196 23.8795L6.51196 22.1162L8.52081 22.1162Z" fill="#08E04A"/>
<path fill-rule="evenodd" clip-rule="evenodd" d="M6.69702 14.5927L9.65737 11.1143L11.1872 12.4162L8.22684 15.8946L6.69702 14.5927Z" fill="black"/>
<path fill-rule="evenodd" clip-rule="evenodd" d="M11.1836 18.0298L8.22324 14.5884L6.70032 15.8984L9.66067 19.3398L11.1836 18.0298Z" fill="black"/>
</svg>
