<svg width="320" height="180" viewBox="0 0 320 180" fill="none" xmlns="http://www.w3.org/2000/svg">
<g clip-path="url(#clip0_7_439)">
<rect width="385" height="180" transform="translate(-33)" fill="#E6EFEB"/>
<path d="M57.8001 189.774C59.4035 189.774 60.7036 188.475 60.7036 186.871V159.956C60.7036 158.352 59.4039 157.052 57.8001 157.052C56.1964 157.052 54.8966 158.352 54.8966 159.956V186.871C54.8966 188.475 56.1968 189.774 57.8001 189.774Z" fill="#0A5B36"/>
<path d="M27.7244 190.899C29.3282 190.899 30.6279 189.599 30.6279 187.995V145.96C30.6279 144.357 29.3282 143.057 27.7244 143.057C26.1207 143.057 24.821 144.357 24.821 145.96V187.995C24.8213 189.599 26.1211 190.899 27.7244 190.899Z" fill="#0A5B36"/>
<path d="M59.84 164.602C45.4837 164.602 33.8456 152.963 33.8456 138.607C33.8456 124.251 45.4837 112.613 59.84 112.613C74.1964 112.613 85.8345 124.251 85.8345 138.607C85.8345 152.963 74.1964 164.602 59.84 164.602Z" fill="#0F7A4F"/>
<path d="M33.8463 138.608C33.8463 152.963 45.4862 164.603 59.8408 164.603C65.966 164.603 71.5966 162.484 76.04 158.937C73.7081 159.626 71.2409 159.993 68.685 159.993C54.3304 159.993 42.6944 148.353 42.6944 133.999C42.6944 125.769 46.5191 118.43 52.4858 113.67C41.7118 116.841 33.8463 126.806 33.8463 138.608Z" fill="#0C6842"/>
<path d="M19.7436 102.497C5.38724 102.497 -6.25089 90.8589 -6.25089 76.5025C-6.25089 62.1462 5.38724 50.5081 19.7436 50.5081C34.0999 50.5081 45.738 62.1462 45.738 76.5025C45.738 90.8589 34.0999 102.497 19.7436 102.497Z" fill="#158F5E"/>
<path d="M-6.25227 76.5033C-6.25227 90.8579 5.38758 102.498 19.7422 102.498C21.8189 102.498 23.8375 102.254 25.7708 101.794C14.3243 99.0714 5.8091 88.7812 5.8091 76.5033C5.8091 64.2214 14.3243 53.9312 25.7708 51.2126C23.8372 50.7524 21.8185 50.5088 19.7422 50.5088C5.38758 50.5088 -6.25227 62.1448 -6.25227 76.5033Z" fill="#0F7A4F"/>
<path d="M-14.3079 137.903C-28.6643 137.903 -40.3024 126.265 -40.3024 111.909C-40.3024 97.5523 -28.6643 85.9142 -14.3079 85.9142C0.0484123 85.9142 11.6865 97.5523 11.6865 111.909C11.6865 126.265 0.0484123 137.903 -14.3079 137.903Z" fill="#158F5E"/>
<path d="M15.5816 189.774C17.1853 189.774 18.4851 188.475 18.4851 186.871V148.103C18.4851 146.499 17.1853 145.199 15.5816 145.199C13.9779 145.199 12.6781 146.499 12.6781 148.103V186.871C12.6781 188.475 13.9779 189.774 15.5816 189.774Z" fill="#0F7A4F"/>
<path d="M2.37889 158.089C13.5856 158.089 22.6704 149.005 22.6704 137.798V93.4184C22.6704 82.2116 13.5856 73.1268 2.37889 73.1268C-8.82783 73.1268 -17.9126 82.2116 -17.9126 93.4184V137.797C-17.9126 149.005 -8.82783 158.089 2.37889 158.089Z" fill="#D2F0A2"/>
<path d="M-17.9153 93.4176V137.796C-17.9153 149.003 -8.82776 158.09 2.37896 158.09C4.09986 158.09 5.77049 157.877 7.36377 157.471C-1.4337 155.252 -7.94605 147.282 -7.94605 137.796V93.4176C-7.94605 87.814 -5.676 82.7407 -2.00217 79.0707C0.542439 76.5261 3.75955 74.6544 7.36377 73.7456C5.77049 73.3395 4.09986 73.1268 2.37896 73.1268C-3.2246 73.1268 -8.29796 75.3969 -11.9718 79.0707C-15.6452 82.7407 -17.9153 87.8144 -17.9153 93.4176Z" fill="#BCEA73"/>
<path d="M-6.10539 128.218C-4.97115 127.084 -3.13307 127.084 -1.99921 128.218L-0.525809 129.691V123.349C-0.525809 123.348 -0.525809 123.348 -0.525809 123.347V111.996C-0.525809 110.393 0.773951 109.093 2.37767 109.093C3.9814 109.093 5.28116 110.393 5.28116 111.996V116.338L8.20901 113.41C9.34287 112.276 11.1813 112.275 12.3148 113.409C13.449 114.543 13.449 116.382 12.3152 117.515L5.28077 124.55V136.699V136.703V185.296C5.28077 186.9 3.98101 188.2 2.37728 188.2C0.773561 188.2 -0.526199 186.9 -0.526199 185.296V137.904L-6.10578 132.324C-7.23887 131.19 -7.23886 129.352 -6.10539 128.218Z" fill="#A3E440"/>
<path d="M105.735 107.315C116.942 107.315 126.027 98.2307 126.027 87.0239V58.6187C126.027 47.4119 116.942 38.3271 105.735 38.3271C94.5284 38.3271 85.4436 47.4119 85.4436 58.6187V87.0239C85.4432 98.2307 94.5284 107.315 105.735 107.315Z" fill="#D2F0A2"/>
<path d="M85.4448 58.618V87.0256C85.4448 98.2323 94.5284 107.316 105.735 107.316C107.653 107.316 109.513 107.049 111.273 106.551C102.758 104.141 96.52 96.3145 96.52 87.0259V58.6184C96.52 53.0148 98.7901 47.9414 102.463 44.2715C104.877 41.8545 107.897 40.0485 111.273 39.0937C109.513 38.5948 107.653 38.328 105.735 38.328C100.131 38.328 95.0578 40.598 91.3879 44.2715C87.7148 47.9411 85.4448 53.0148 85.4448 58.618Z" fill="#BCEA73"/>
<path d="M97.2527 77.4442C98.3866 76.3108 100.225 76.3108 101.359 77.4442L102.832 78.918V72.5751C102.832 72.5751 102.832 72.5739 102.832 72.5731V61.2229C102.832 59.6192 104.132 58.3195 105.736 58.3195C107.339 58.3195 108.639 59.6192 108.639 61.2229V65.5646L111.567 62.636C112.701 61.5025 114.54 61.5025 115.673 62.636C116.807 63.7703 116.807 65.6083 115.673 66.7422L108.639 73.7766V85.9265V85.9285V187.996C108.639 189.599 107.339 190.899 105.735 190.899C104.132 190.899 102.832 189.599 102.832 187.996V87.1304L97.2523 81.5508C96.1189 80.4166 96.1189 78.5785 97.2527 77.4442Z" fill="#A3E440"/>
<path d="M77.2888 144.685C60.2739 144.685 46.4805 130.892 46.4805 113.877C46.4805 96.8617 60.2739 83.0684 77.2888 83.0684C94.3038 83.0684 108.097 96.8617 108.097 113.877C108.097 130.892 94.3038 144.685 77.2888 144.685Z" fill="#1CA56F"/>
<path d="M46.4783 113.875C46.4783 130.89 60.2721 144.683 77.287 144.683C82.1712 144.683 86.7883 143.546 90.8914 141.52C76.5638 138.875 65.709 126.319 65.709 111.226C65.709 99.0947 72.7198 88.6034 82.9099 83.5799C81.0884 83.2435 79.209 83.0695 77.287 83.0695C60.2721 83.0695 46.4783 96.8633 46.4783 113.875Z" fill="#158F5E"/>
<path d="M68.266 99.7848C69.3999 98.6513 71.2383 98.6509 72.3718 99.7852L74.3847 101.798V98.446C74.3847 96.8422 75.6844 95.5425 77.2882 95.5425C78.8919 95.5425 80.1917 96.8422 80.1917 98.446V129.174C80.1917 130.778 78.8919 132.077 77.2882 132.077C75.6844 132.077 74.3847 130.778 74.3847 129.174V110.009L68.266 103.89C67.1322 102.757 67.1322 100.919 68.266 99.7848Z" fill="#0F7A4F"/>
<path d="M77.2882 190.899C78.8915 190.899 80.1917 189.599 80.1917 187.996V160.426C80.1917 158.822 78.8919 157.522 77.2882 157.522C75.6844 157.522 74.3847 158.822 74.3847 160.426V187.996C74.3847 189.599 75.6844 190.899 77.2882 190.899Z" fill="#0F7A4F"/>
<path d="M151.892 146.517C151.892 174.018 139.496 173.527 124.205 173.527C108.914 173.527 96.5181 174.018 96.5181 146.517C96.5181 119.016 112.142 87.9885 124.205 87.9885C136.268 87.9885 151.892 119.016 151.892 146.517Z" fill="#A3E440"/>
<path d="M151.892 146.517C151.892 174.018 139.496 173.527 124.205 173.527C108.914 173.527 96.5181 174.018 96.5181 146.517C96.5181 119.016 112.142 87.9885 124.205 87.9885C136.268 87.9885 151.892 119.016 151.892 146.517Z" fill="#99D53B"/>
<path d="M96.5187 146.516C96.5187 174.019 108.913 173.528 124.203 173.528C126.191 173.528 128.124 173.536 129.992 173.489C117.482 173.184 108.097 170.446 108.097 146.516C108.097 123.275 119.253 97.5169 129.992 90.0961C128.024 88.731 126.071 87.9885 124.203 87.9885C112.141 87.9885 96.5187 119.014 96.5187 146.516Z" fill="#8DC637"/>
<path d="M70.1168 147.551C70.1168 167.875 79.2774 167.512 90.5777 167.512C101.878 167.512 111.039 167.875 111.039 147.551C111.039 127.228 99.4923 104.298 90.5777 104.298C81.663 104.298 70.1168 127.228 70.1168 147.551Z" fill="#A3E440"/>
<path d="M70.1168 147.551C70.1168 167.875 79.2774 167.512 90.5777 167.512C101.878 167.512 111.039 167.875 111.039 147.551C111.039 127.228 99.4923 104.298 90.5777 104.298C81.663 104.298 70.1168 127.228 70.1168 147.551Z" fill="#A3E440"/>
<path d="M70.1183 147.549C70.1183 167.874 79.2755 167.511 90.5789 167.511C92.6865 167.511 94.7167 167.522 96.6306 167.41C88.2856 166.927 82.2219 164.084 82.2219 147.549C82.2219 131.651 89.2868 114.161 96.6306 107.293C94.5887 105.382 92.5198 104.296 90.5789 104.296C81.6615 104.296 70.1183 127.228 70.1183 147.549Z" fill="#99D53B"/>
<path d="M78.256 142.195C79.3895 141.062 81.228 141.062 82.3618 142.195L87.675 147.508V133.294C87.675 131.691 88.9747 130.391 90.5784 130.391C92.1822 130.391 93.4819 131.691 93.4819 133.294V154.517V154.519V186.871C93.4819 188.475 92.1822 189.775 90.5784 189.775C88.9747 189.775 87.675 188.475 87.675 186.871V155.72L78.256 146.302C77.1222 145.168 77.1222 143.33 78.256 142.195Z" fill="#88BA31"/>
<path d="M116.843 135.846C115.709 134.711 115.709 132.873 116.843 131.74C117.977 130.606 119.816 130.606 120.949 131.74L121.301 132.092V124.099C121.301 122.495 122.601 121.196 124.205 121.196C125.809 121.196 127.108 122.495 127.108 124.099V148.935L130.764 145.28C131.898 144.146 133.736 144.146 134.87 145.28C136.004 146.414 136.004 148.252 134.87 149.386L127.108 157.147V186.871C127.108 188.475 125.808 189.775 124.205 189.775C122.601 189.775 121.301 188.475 121.301 186.871V155.945C121.301 155.945 121.301 155.944 121.301 155.944V140.304L116.843 135.846Z" fill="#88BA31"/>
<path d="M57.5635 97.3104C57.5887 96.8212 57.5964 96.3273 57.5856 95.8294C57.3533 84.7331 48.4263 76 37.3275 76C26.1369 76 17.0648 85.0721 17.0648 96.2627C17.0648 96.5089 17.0694 96.7535 17.0781 96.9976C17.334 104.164 15.7591 111.29 12.0964 117.455C9.25633 122.235 7.73578 127.89 8.03784 133.92C8.80094 149.157 21.3654 161.371 36.6172 161.731C53.1393 162.122 66.6556 148.846 66.6556 132.412C66.6556 126.787 65.0715 121.532 62.3257 117.068C58.6908 111.161 57.2097 104.237 57.5635 97.3104Z" fill="#A3E440"/>
<path d="M62.3253 117.068C58.6908 111.161 57.2097 104.237 57.5636 97.3104C57.5887 96.8212 57.5964 96.3273 57.5857 95.8294C57.3533 84.7331 48.4264 76 37.3276 76C34.6162 76 32.031 76.5364 29.6668 77.5031C36.9183 80.4581 42.0252 87.4727 42.2005 95.8294C42.2108 96.3273 42.2036 96.8212 42.1785 97.3104C41.8246 104.237 43.3057 111.161 46.9402 117.068C49.6864 121.532 51.2701 126.787 51.2701 132.412C51.2701 145.944 42.1021 157.328 29.6401 160.71C31.8751 161.322 34.2121 161.675 36.6168 161.731C53.1388 162.122 66.6552 148.846 66.6552 132.412C66.6552 126.787 65.071 121.532 62.3253 117.068Z" fill="#99D53B"/>
<path d="M49.8532 132.788C48.3511 131.286 45.9157 131.286 44.4141 132.788L41.535 135.667V114.708C41.535 112.584 39.8129 110.862 37.6887 110.862C35.5646 110.862 33.8425 112.584 33.8425 114.708V126.816L30.6582 123.632C29.1561 122.13 26.7207 122.13 25.2191 123.632C23.717 125.134 23.717 127.569 25.2191 129.071L33.8425 137.695V179.752C33.8425 181.876 35.5646 183.598 37.6887 183.598C39.8129 183.598 41.535 181.876 41.535 179.752V146.545L49.8537 138.227C51.3553 136.725 51.3553 134.289 49.8532 132.788Z" fill="#88BA31"/>
<g clip-path="url(#clip1_7_439)">
<path d="M262.922 106.988C262.922 142.693 253.761 142.056 242.461 142.056C231.161 142.056 222 142.693 222 106.988C222 71.2833 233.546 31 242.461 31C251.376 31 262.922 71.2833 262.922 106.988Z" fill="#A3E440"/>
<path d="M262.922 106.988C262.922 142.693 253.761 142.056 242.461 142.056C231.161 142.056 222 142.693 222 106.988C222 71.2833 233.546 31 242.461 31C251.376 31 262.922 71.2833 262.922 106.988Z" fill="#158F5E"/>
<path d="M262.921 106.987C262.921 142.693 253.763 142.055 242.462 142.055C240.622 142.055 238.834 142.073 237.135 141.944C245.85 141.296 252.268 136.866 252.268 106.987C252.268 78.1412 244.728 46.3112 237.135 35.1435C238.94 32.4867 240.75 31.001 242.462 31.001C251.376 31.0014 262.921 71.2851 262.921 106.987Z" fill="#0F7A4F"/>
<path d="M254.784 110.75C253.65 109.616 251.811 109.616 250.678 110.75L245.365 116.062V104.947C245.365 104.945 245.365 104.944 245.365 104.943V91.8654C245.365 90.2617 244.065 88.9619 242.461 88.9619C240.858 88.9619 239.558 90.2617 239.558 91.8654V97.9349L235.428 93.8056C234.294 92.6721 232.456 92.6721 231.322 93.8056C230.188 94.9398 230.188 96.7779 231.322 97.9117L239.558 106.147V123.07V123.074V173.396C239.558 174.999 240.858 176.299 242.461 176.299C244.065 176.299 245.365 174.999 245.365 173.396V124.275L254.784 114.856C255.918 113.722 255.918 111.884 254.784 110.75Z" fill="#0A5B36"/>
<path d="M349.42 195.793C347.836 154.458 313.834 121.432 272.111 121.432C230.388 121.432 196.386 154.458 194.802 195.793H349.42Z" fill="#A3E440"/>
<path d="M246 195.793C244.624 160.222 215.359 131.804 179.45 131.804C143.541 131.804 114.277 160.222 112.901 195.793H246Z" fill="#08B865"/>
<path d="M157.198 147.86C182.057 147.86 202.208 127.709 202.208 102.85C202.208 77.9918 182.057 57.8401 157.198 57.8401C132.34 57.8401 112.188 77.9918 112.188 102.85C112.188 127.709 132.34 147.86 157.198 147.86Z" fill="#1CA56F"/>
<path d="M157.198 57.8401C154.575 57.8401 152.005 58.0668 149.505 58.4975C170.698 62.1474 186.823 80.6147 186.823 102.85C186.823 125.085 170.699 143.552 149.505 147.202C152.005 147.633 154.575 147.859 157.198 147.859C182.056 147.859 202.208 127.708 202.208 102.849C202.208 77.9905 182.056 57.8401 157.198 57.8401Z" fill="#0F7A4F"/>
<path d="M147.229 171.339C147.229 193.251 137.58 193.568 125.679 193.568C113.778 193.568 104.129 193.252 104.129 171.339C104.129 149.426 113.778 114.778 125.679 114.778C137.58 114.778 147.229 149.426 147.229 171.339Z" fill="#D2F0A2"/>
<path d="M125.678 114.778C122.968 114.778 120.375 116.579 117.985 119.613C126.088 129.902 131.843 154.416 131.843 171.339C131.843 188.261 126.088 192.303 117.985 193.266C120.375 193.551 122.968 193.568 125.678 193.568C137.58 193.568 147.228 193.252 147.228 171.339C147.228 149.425 137.58 114.778 125.678 114.778Z" fill="#BCEA73"/>
<path d="M336.791 127.077C355.333 108.535 355.333 78.4733 336.791 59.9318C318.25 41.3903 288.188 41.3903 269.646 59.9318C251.105 78.4733 251.105 108.535 269.646 127.076C288.188 145.618 318.25 145.618 336.791 127.077Z" fill="#158F5E"/>
<path d="M303.256 46.0125C300.637 46.0125 298.068 46.2278 295.564 46.6361C318.131 50.3126 335.357 69.8922 335.357 93.4986C335.357 117.104 318.131 136.685 295.564 140.361C298.068 140.769 300.637 140.985 303.256 140.985C329.482 140.985 350.742 119.725 350.742 93.4991C350.742 67.2726 329.482 46.0125 303.256 46.0125Z" fill="#0F7A4F"/>
<path d="M314.701 171.339C314.701 193.251 324.349 193.568 336.251 193.568C348.153 193.568 357.801 193.252 357.801 171.339C357.801 149.426 348.153 114.778 336.251 114.778C324.35 114.778 314.701 149.426 314.701 171.339Z" fill="#08B865"/>
<path d="M237.531 180.355C237.531 193.38 243.266 193.568 250.34 193.568C257.414 193.568 263.15 193.38 263.15 180.355C263.15 167.331 257.414 146.736 250.34 146.736C243.266 146.736 237.531 167.33 237.531 180.355Z" fill="#99D53B"/>
<path d="M169.638 97.3973C168.136 95.8952 165.701 95.8952 164.199 97.3973L161.55 100.047V92.9715C161.55 90.8474 159.828 89.1252 157.704 89.1252C155.579 89.1252 153.857 90.8474 153.857 92.9715V112.259L146.76 105.162C145.257 103.66 142.822 103.66 141.32 105.162C139.818 106.664 139.818 109.099 141.32 110.601L153.857 123.138V162.192C153.857 164.316 155.579 166.038 157.704 166.038C159.828 166.038 161.55 164.316 161.55 162.192V110.925L169.638 102.836C171.14 101.334 171.14 98.8994 169.638 97.3973Z" fill="#0A5B36"/>
<path d="M224.437 94.1731C224.462 93.6839 224.47 93.19 224.459 92.692C224.227 81.5958 215.3 72.8627 204.201 72.8627C193.01 72.8627 183.938 81.9348 183.938 93.1254C183.938 93.3715 183.943 93.6162 183.952 93.8603C184.208 101.027 182.633 108.153 178.97 114.317C176.13 119.097 174.609 124.753 174.911 130.783C175.674 146.02 188.239 158.234 203.491 158.594C220.013 158.985 233.529 145.709 233.529 129.275C233.529 123.649 231.945 118.394 229.199 113.931C225.564 108.024 224.083 101.1 224.437 94.1731Z" fill="#A3E440"/>
<path d="M229.199 113.931C225.564 108.023 224.083 101.1 224.437 94.1731C224.462 93.6839 224.47 93.19 224.459 92.692C224.227 81.5958 215.3 72.8627 204.201 72.8627C201.49 72.8627 198.905 73.3991 196.54 74.3658C203.792 77.3208 208.899 84.3353 209.074 92.692C209.084 93.19 209.077 93.6839 209.052 94.1731C208.698 101.099 210.179 108.023 213.814 113.931C216.56 118.394 218.144 123.649 218.144 129.275C218.144 142.807 208.976 154.19 196.514 157.573C198.749 158.184 201.086 158.537 203.49 158.594C220.012 158.985 233.529 145.709 233.529 129.275C233.529 123.649 231.945 118.394 229.199 113.931Z" fill="#99D53B"/>
<path d="M216.727 129.651C215.225 128.148 212.789 128.148 211.288 129.651L208.409 132.53V111.571C208.409 109.447 206.686 107.725 204.562 107.725C202.438 107.725 200.716 109.447 200.716 111.571V123.679L197.532 120.495C196.03 118.993 193.594 118.993 192.093 120.495C190.591 121.997 190.591 124.432 192.093 125.934L200.716 134.557V176.615C200.716 178.739 202.438 180.461 204.562 180.461C206.686 180.461 208.409 178.739 208.409 176.615V143.408L216.727 135.089C218.229 133.588 218.229 131.152 216.727 129.651Z" fill="#88BA31"/>
<path d="M321.522 90.0225C320.021 88.5204 317.585 88.5204 316.083 90.0225L306.57 99.5356V87.8332C306.57 85.709 304.848 83.9869 302.724 83.9869C300.6 83.9869 298.878 85.709 298.878 87.8332V110.958L291.478 103.558C289.976 102.056 287.541 102.056 286.039 103.558C284.537 105.06 284.537 107.496 286.039 108.997L298.878 121.835V163.913C298.878 166.037 300.6 167.759 302.724 167.759C304.848 167.759 306.57 166.037 306.57 163.913V110.095C306.957 109.911 307.32 109.664 307.64 109.344L321.523 95.4617C323.024 93.9601 323.024 91.5246 321.522 90.0225Z" fill="#0A5B36"/>
<path d="M212.485 195.793C214.086 193.377 215.022 190.482 215.022 187.366C215.022 178.926 208.18 172.083 199.739 172.083C197.736 172.083 195.826 172.473 194.073 173.173C190.789 169.3 185.89 166.839 180.415 166.839C177.821 166.839 175.359 167.395 173.134 168.387C169.212 161.044 161.476 156.046 152.57 156.046C139.701 156.046 129.269 166.478 129.269 179.347C129.269 185.769 131.872 191.579 136.076 195.793H212.485V195.793Z" fill="#99D53B"/>
<path d="M329.703 195.793C334.634 191.774 337.79 185.661 337.79 178.804C337.79 166.697 327.976 156.883 315.869 156.883C307.491 156.883 300.213 161.585 296.524 168.493C294.43 167.56 292.114 167.037 289.674 167.037C284.523 167.037 279.915 169.352 276.825 172.995C275.176 172.336 273.379 171.97 271.495 171.97C263.555 171.97 257.118 178.408 257.118 186.348C257.118 189.965 258.457 193.267 260.663 195.794L329.703 195.793Z" fill="#D2F0A2"/>
<path d="M322.145 178.822C322.305 185.566 319.392 191.66 314.696 195.793H329.972C334.918 191.659 338.007 185.396 337.842 178.451C337.556 166.348 327.512 156.768 315.409 157.055C312.644 157.121 310.016 157.704 307.603 158.697C315.898 161.662 321.924 169.489 322.145 178.822Z" fill="#BCEA73"/>
</g>
<path d="M53.4639 31.0756C53.4639 31.0756 56.3889 30.437 58.3389 32.0335C58.3389 32.0335 59.964 28.5212 63.864 27.8826C63.864 27.8826 58.9889 30.437 58.6639 33.9493C58.6639 33.9493 57.3639 31.7142 53.4639 31.0756Z" fill="black"/>
<path d="M261.467 16.6157C261.467 16.6157 264.009 16.6157 265.598 19.8658C265.598 19.8658 266.551 18.2407 271 18.8908C271 18.8908 266.939 18.6535 265.28 21.8158C265.28 21.8158 264.727 18.7413 261.467 16.6157Z" fill="black"/>
<path d="M131.465 74.0583C127.026 74.3808 125.757 77.2832 125.757 77.2832C124.172 73.4134 118.465 72.1234 118.465 72.1234C118.465 72.1234 122.587 71.4785 125.757 75.3483C125.757 75.3483 127.66 73.0909 131.465 74.0583Z" fill="black"/>
<path d="M48.2637 62.5498C48.2637 62.5498 50.3437 62.2609 51.3837 63.1276C51.3837 63.1276 51.7304 61.972 53.4637 61.6831C53.4637 61.6831 51.7304 62.8387 51.7304 64.2831C51.7304 64.2831 50.6904 62.8387 48.2637 62.5498Z" fill="black"/>
</g>
<defs>
<clipPath id="clip0_7_439">
<rect width="385" height="180" fill="white" transform="translate(-33)"/>
</clipPath>
<clipPath id="clip1_7_439">
<rect width="262.573" height="182.736" fill="white" transform="translate(99.6311 27)"/>
</clipPath>
</defs>
</svg>
