<svg width="64" height="64" viewBox="0 0 64 64" fill="none" xmlns="http://www.w3.org/2000/svg">
<path d="M9.34875 34.07C9.1225 34.125 8.935 34.2812 8.84125 34.4938C8.7475 34.7063 8.75625 34.95 8.8675 35.155C9.985 37.22 10.6525 39.2463 11.2987 41.2062C12.0538 43.4963 12.7662 45.6588 14.1025 47.5288C17.1362 51.7725 20.9788 53.9025 25.5763 53.9025C27.565 53.9025 29.695 53.5025 31.9613 52.7038C33.2537 52.9225 34.5037 53.0325 35.7088 53.0325C41.82 53.0325 46.7775 50.2325 50.1888 44.8013C50.5563 44.215 50.9112 43.5838 51.245 42.9225C51.4312 42.5525 51.2825 42.1012 50.9125 41.915C50.5425 41.7288 50.0912 41.8775 49.905 42.2475C49.5925 42.8675 49.26 43.4575 48.9175 44.0037C45.22 49.8925 39.775 52.3487 32.725 51.3075C32.9337 49.2663 32.785 47.3587 32.2713 45.5662C35.5188 38.5137 42.8313 35.9825 50.2588 34.3025C50.6625 34.2113 50.9163 33.81 50.825 33.405C50.7337 33.0012 50.3313 32.7475 49.9275 32.8387C46.6888 33.5712 42.5088 34.6675 38.8975 36.655C35.6075 38.4662 33.1962 40.7675 31.5662 43.6538C31.2425 42.9438 30.8563 42.2512 30.4062 41.5762C30.4075 41.5662 30.4113 41.5562 30.4125 41.5462C30.7113 38.4662 32.2188 36.1663 35.1538 34.3063C39.7 31.4275 46.05 30.1688 53.56 30.6525C53.12 32.6787 52.5962 34.9388 51.9137 37.1413C51.7912 37.5375 52.0125 37.9575 52.4075 38.08C52.8025 38.2025 53.2237 37.9813 53.3462 37.5863C54.1437 35.0138 54.7263 32.385 55.2088 30.1238C55.2537 29.9125 55.2062 29.6925 55.0775 29.52C54.9487 29.3475 54.7513 29.2375 54.5363 29.22C48.9238 28.7662 43.8862 29.24 39.665 30.5963C40.6763 27.2188 41.1025 22.8962 39.9625 19.69C38.81 16.4463 36.3025 13.2737 32.5125 10.2612C32.355 10.1362 32.155 10.08 31.955 10.1038C31.755 10.1275 31.5737 10.2313 31.4513 10.39C30.2738 11.9188 29.0987 13.3137 27.9625 14.6637C22.7887 20.8088 18.6425 25.7362 21.67 34.8037C17.8525 33.3762 13.5025 33.0588 9.34875 34.07ZM29.1075 15.6325C30.1038 14.45 31.1288 13.2312 32.165 11.915C35.4025 14.6025 37.5475 17.385 38.5462 20.1938C39.6975 23.4325 39.0487 28.0112 37.87 31.2463C36.6087 31.7575 35.4338 32.3562 34.3512 33.0412C31.5138 34.8387 29.8037 37.1038 29.1562 39.935C28.9025 39.64 28.64 39.3525 28.3662 39.075C27.6412 31.5013 29.13 24.7012 32.7938 18.8625C33.0138 18.5112 32.9075 18.0487 32.5575 17.8288C32.2075 17.6088 31.7437 17.715 31.5238 18.065C27.9363 23.7825 26.3363 30.36 26.7525 37.6425C25.77 36.8713 24.7013 36.1987 23.5662 35.6325C19.9575 26.5037 23.8025 21.9338 29.1075 15.6325ZM28.1238 41.0325C29.765 42.985 30.765 45.0987 31.1425 47.42C30.8975 47.1075 30.65 46.7962 30.4175 46.505C30.0987 46.1038 29.8225 45.7575 29.665 45.545C26.5662 41.3637 21.7675 38.7163 14.995 37.4487C14.5875 37.3725 14.1962 37.6413 14.12 38.0475C14.0437 38.455 14.3125 38.8463 14.7188 38.9225C21.1012 40.1162 25.5962 42.575 28.46 46.4375C28.6325 46.6712 28.9163 47.0263 29.2437 47.4388C29.915 48.2825 30.91 49.5312 31.3013 50.1875C31.285 50.5788 31.255 50.9762 31.2087 51.3787C24.4387 53.6838 19.2388 52.1375 15.3225 46.6575C14.1188 44.9738 13.4412 42.9162 12.7225 40.7375C12.1462 38.99 11.5538 37.19 10.64 35.3237C17.2188 34.065 24.145 36.2962 28.1238 41.0325ZM62.125 32C62.125 40.0462 58.9912 47.6113 53.3013 53.3013C47.6113 58.9912 40.0462 62.125 32 62.125C23.9538 62.125 16.3888 58.9912 10.6987 53.3013C5.00875 47.6113 1.875 40.0462 1.875 32C1.875 29.485 2.18625 26.985 2.79875 24.5688C2.9 24.1675 3.30875 23.9237 3.71 24.0263C4.11125 24.1275 4.355 24.5362 4.2525 24.9375C3.67 27.2325 3.375 29.6087 3.375 32C3.375 47.7837 16.2163 60.625 32 60.625C47.7837 60.625 60.625 47.7837 60.625 32C60.625 16.2163 47.7837 3.375 32 3.375C20.9487 3.375 10.7712 9.8425 6.07375 19.8512C5.8975 20.2262 5.45125 20.3875 5.07625 20.2113C4.70125 20.035 4.54 19.5888 4.71625 19.2138C7.11375 14.1063 10.89 9.78 15.6362 6.70375C20.5087 3.545 26.1675 1.875 32 1.875C40.0462 1.875 47.6113 5.00875 53.3013 10.6987C58.9912 16.3888 62.125 23.9538 62.125 32Z" fill="#25B567"/>
</svg>
