<svg width="38" height="46" viewBox="0 0 38 46" fill="none" xmlns="http://www.w3.org/2000/svg">
<path d="M19 0.5C8.58039 0.5 0.103516 8.97696 0.103516 19.3965C0.103516 23.6816 1.51029 27.7228 4.17162 31.0831C6.62843 34.1851 10.0372 36.4652 13.8193 37.5484L17.8467 44.8203H20.1533L24.1807 37.5484C27.9627 36.4652 31.3715 34.1851 33.8284 31.0831C36.4897 27.7228 37.8965 23.6816 37.8965 19.3965C37.8965 8.97696 29.4196 0.5 19 0.5Z" fill="#0A4519"/>
<path d="M20.1533 44.8203L24.1807 37.5484C27.9627 36.4652 31.3715 34.1851 33.8284 31.0831C36.4897 27.7228 37.8965 23.6816 37.8965 19.3965C37.8965 8.97696 29.4196 0.5 19 0.5V44.8203H20.1533Z" fill="#0A4519"/>
<path d="M19 33.0195C11.4882 33.0195 5.37695 26.9082 5.37695 19.3965C5.37695 11.8847 11.4882 5.77344 19 5.77344C26.5118 5.77344 32.623 11.8847 32.623 19.3965C32.623 26.9082 26.5118 33.0195 19 33.0195Z" fill="white"/>
<path d="M32.623 19.3965C32.623 11.8847 26.5118 5.77344 19 5.77344V33.0195C26.5118 33.0195 32.623 26.9082 32.623 19.3965Z" fill="white"/>
<path d="M23.0399 23.4362C26.5348 19.9413 25.9318 13.9171 25.9044 13.6623C25.8382 13.0458 25.351 12.5587 24.7345 12.4924C24.4797 12.465 18.4556 11.862 14.9606 15.3568C12.0949 18.2225 11.9844 22.7877 12.0526 24.4796L13.9171 26.344C15.609 26.4123 20.1743 26.3018 23.0399 23.4362Z" fill="#B2FA09"/>
<path d="M25.9051 13.6624C25.839 13.0458 25.3518 12.5588 24.7352 12.4925C24.5656 12.4742 21.8371 12.2011 19.001 13.0527V25.7409C20.4235 25.3137 21.8731 24.6037 23.0406 23.4362C26.5356 19.9413 25.9325 13.9172 25.9051 13.6624Z" fill="#70DA40"/>
<path d="M19.311 17.2214L12.0527 24.4796C12.0677 24.8511 12.0912 25.0848 12.0962 25.1307C12.1293 25.439 12.2676 25.7149 12.4747 25.9221C12.6818 26.1292 12.9577 26.2676 13.2661 26.3006C13.3119 26.3056 13.5456 26.3291 13.9172 26.344L21.1754 19.0858C21.6903 18.5709 21.6903 17.7362 21.1754 17.2214C20.6606 16.7065 19.8259 16.7065 19.311 17.2214Z" fill="#70DA40"/>
<path d="M21.1762 17.2214C20.6613 16.7065 19.8266 16.7065 19.3118 17.2214L19.001 17.5321V21.2611L21.1762 19.0859C21.691 18.571 21.691 17.7362 21.1762 17.2214Z" fill="#56C225"/>
<path d="M31.3047 45.5H6.69531C5.96723 45.5 5.37695 44.9097 5.37695 44.1816C5.37695 43.4536 5.96723 42.8633 6.69531 42.8633H31.3047C32.0328 42.8633 32.623 43.4536 32.623 44.1816C32.623 44.9097 32.0328 45.5 31.3047 45.5Z" fill="#B2FA09"/>
<path d="M31.3047 42.8633H19V45.5H31.3047C32.0328 45.5 32.623 44.9097 32.623 44.1816C32.623 43.4536 32.0328 42.8633 31.3047 42.8633Z" fill="#70DA40"/>
</svg>
