<svg width="8" height="10" viewBox="0 0 8 10" fill="none" xmlns="http://www.w3.org/2000/svg">
<path d="M4 0.625C3.08864 0.626034 2.21489 0.98853 1.57046 1.63296C0.92603 2.27739 0.563534 3.15114 0.5625 4.0625C0.5625 7.00391 3.6875 9.22539 3.8207 9.31836C3.87325 9.35517 3.93585 9.37491 4 9.37491C4.06415 9.37491 4.12675 9.35517 4.1793 9.31836C4.3125 9.22539 7.4375 7.00391 7.4375 4.0625C7.43647 3.15114 7.07397 2.27739 6.42954 1.63296C5.78511 0.98853 4.91136 0.626034 4 0.625ZM4 2.8125C4.24723 2.8125 4.4889 2.88581 4.69446 3.02316C4.90002 3.16051 5.06024 3.35574 5.15485 3.58415C5.24946 3.81255 5.27421 4.06389 5.22598 4.30636C5.17775 4.54884 5.0587 4.77157 4.88388 4.94638C4.70907 5.1212 4.48634 5.24025 4.24386 5.28848C4.00139 5.33671 3.75005 5.31196 3.52165 5.21735C3.29324 5.12274 3.09801 4.96252 2.96066 4.75696C2.82331 4.5514 2.75 4.30973 2.75 4.0625C2.75 3.73098 2.8817 3.41304 3.11612 3.17862C3.35054 2.9442 3.66848 2.8125 4 2.8125Z" fill="#0A4519"/>
</svg>
