<svg width="301" height="153" viewBox="0 0 301 153" fill="none" xmlns="http://www.w3.org/2000/svg">
<path d="M249.788 168.793C248.205 127.458 214.203 94.4319 172.48 94.4319C130.757 94.4319 96.7548 127.458 95.1711 168.793H249.788Z" fill="#A3E440"/>
<path d="M146.368 168.793C144.993 133.222 115.728 104.804 79.8191 104.804C43.9103 104.804 14.6457 133.222 13.2698 168.793H146.368Z" fill="#08B865"/>
<path d="M57.5671 120.86C82.4255 120.86 102.577 100.709 102.577 75.8503C102.577 50.9918 82.4255 30.8401 57.5671 30.8401C32.7086 30.8401 12.5569 50.9918 12.5569 75.8503C12.5569 100.709 32.7086 120.86 57.5671 120.86Z" fill="#1CA56F"/>
<path d="M57.5668 30.8401C54.9437 30.8401 52.3743 31.0668 49.8743 31.4975C71.0673 35.1474 87.1919 53.6147 87.1919 75.8498C87.1919 98.0848 71.0678 116.552 49.8743 120.202C52.3743 120.633 54.9437 120.859 57.5668 120.859C82.4251 120.859 102.577 100.708 102.577 75.8492C102.577 50.9905 82.4251 30.8401 57.5668 30.8401Z" fill="#0F7A4F"/>
<path d="M47.5979 144.339C47.5979 166.251 37.9494 166.568 26.048 166.568C14.1466 166.568 4.49805 166.252 4.49805 144.339C4.49805 122.426 14.1466 87.7777 26.048 87.7777C37.9494 87.7777 47.5979 122.426 47.5979 144.339Z" fill="#D2F0A2"/>
<path d="M26.0468 87.7777C23.3365 87.7777 20.7436 89.5788 18.3542 92.6132C26.4571 102.902 32.2116 127.416 32.2116 144.339C32.2116 161.261 26.4571 165.303 18.3542 166.266C20.7436 166.551 23.3365 166.568 26.0468 166.568C37.9487 166.568 47.5967 166.252 47.5967 144.339C47.5967 122.425 37.9487 87.7777 26.0468 87.7777Z" fill="#BCEA73"/>
<path d="M124.806 67.1731C124.831 66.6839 124.839 66.19 124.828 65.692C124.596 54.5958 115.669 45.8627 104.57 45.8627C93.3793 45.8627 84.3072 54.9348 84.3072 66.1254C84.3072 66.3715 84.3118 66.6162 84.3206 66.8603C84.5765 74.0267 83.0015 81.1525 79.3389 87.3173C76.4988 92.0975 74.9782 97.7531 75.2803 103.783C76.0434 119.02 88.6079 131.234 103.86 131.594C120.382 131.985 133.898 118.709 133.898 102.275C133.898 96.6494 132.314 91.3944 129.568 86.9307C125.933 81.0238 124.452 74.1 124.806 67.1731Z" fill="#A3E440"/>
<path d="M129.568 86.9307C125.933 81.0233 124.452 74.1 124.806 67.1731C124.831 66.6839 124.839 66.19 124.828 65.692C124.596 54.5958 115.669 45.8627 104.57 45.8627C101.859 45.8627 99.2734 46.3991 96.9092 47.3658C104.161 50.3208 109.268 57.3353 109.443 65.692C109.453 66.19 109.446 66.6839 109.421 67.1731C109.067 74.0995 110.548 81.0233 114.183 86.9307C116.929 91.3944 118.512 96.6494 118.512 102.275C118.512 115.807 109.345 127.19 96.8826 130.573C99.1175 131.184 101.455 131.537 103.859 131.594C120.381 131.985 133.898 118.709 133.898 102.275C133.898 96.6494 132.313 91.3944 129.568 86.9307Z" fill="#99D53B"/>
<path d="M227.717 100.717C246.259 82.1755 246.259 52.1138 227.717 33.5723C209.176 15.0308 179.114 15.0308 160.572 33.5723C142.031 52.1138 142.031 82.1755 160.572 100.717C179.114 119.258 209.176 119.258 227.717 100.717Z" fill="#08B865"/>
<path d="M194.182 19.653C191.563 19.653 188.994 19.8683 186.49 20.2766C209.057 23.9531 226.283 43.5327 226.283 67.1391C226.283 90.745 209.057 110.325 186.49 114.002C188.994 114.41 191.563 114.625 194.182 114.625C220.408 114.625 241.668 93.3651 241.668 67.1396C241.668 40.9131 220.408 19.653 194.182 19.653Z" fill="#08A45B"/>
<path d="M215.07 144.339C215.07 166.251 224.718 166.568 236.62 166.568C248.522 166.568 258.17 166.252 258.17 144.339C258.17 122.426 248.522 87.7777 236.62 87.7777C224.719 87.7777 215.07 122.426 215.07 144.339Z" fill="#08B865"/>
<path d="M236.62 87.7777C233.91 87.7777 231.317 89.5788 228.928 92.6132C237.031 102.902 242.785 127.416 242.785 144.339C242.785 161.261 237.03 165.303 228.928 166.266C231.317 166.551 233.91 166.568 236.62 166.568C248.522 166.568 258.17 166.252 258.17 144.339C258.17 122.425 248.522 87.7777 236.62 87.7777Z" fill="#09A755"/>
<path d="M137.9 153.355C137.9 166.38 143.635 166.568 150.709 166.568C157.783 166.568 163.518 166.38 163.518 153.355C163.518 140.331 157.783 119.736 150.709 119.736C143.635 119.736 137.9 140.33 137.9 153.355Z" fill="#99D53B"/>
<path d="M70.0072 70.3973C68.5051 68.8952 66.0696 68.8952 64.568 70.3973L61.9187 73.0466V65.9715C61.9187 63.8474 60.1966 62.1252 58.0724 62.1252C55.9482 62.1252 54.2261 63.8474 54.2261 65.9715V85.2593L47.1285 78.1617C45.6264 76.6596 43.1909 76.6596 41.6893 78.1617C40.1872 79.6638 40.1872 82.0987 41.6893 83.6008L54.2261 96.1376V135.192C54.2261 137.316 55.9482 139.038 58.0724 139.038C60.1966 139.038 61.9187 137.316 61.9187 135.192V83.9249L70.0072 75.8359C71.5093 74.3343 71.5093 71.8994 70.0072 70.3973Z" fill="#0A5B36"/>
<path d="M117.096 102.651C115.594 101.149 113.158 101.149 111.657 102.651L108.777 105.53V84.5711C108.777 82.447 107.055 80.7249 104.931 80.7249C102.807 80.7249 101.085 82.447 101.085 84.5711V96.6792L97.9007 93.495C96.3986 91.9929 93.9631 91.9929 92.4615 93.495C90.9594 94.9971 90.9594 97.4321 92.4615 98.9342L101.085 107.558V149.615C101.085 151.739 102.807 153.461 104.931 153.461C107.055 153.461 108.777 151.739 108.777 149.615V116.408L117.096 108.089C118.598 106.588 118.598 104.152 117.096 102.651Z" fill="#88BA31"/>
<path d="M212.448 63.663C210.947 62.1609 208.511 62.1609 207.009 63.663L197.496 73.1761V61.4737C197.496 59.3495 195.774 57.6274 193.65 57.6274C191.526 57.6274 189.804 59.3495 189.804 61.4737V84.5981L182.404 77.1988C180.902 75.6967 178.467 75.6967 176.965 77.1988C175.463 78.7009 175.463 81.1364 176.965 82.638L189.804 95.4758V137.554C189.804 139.678 191.526 141.4 193.65 141.4C195.774 141.4 197.496 139.678 197.496 137.554V83.7355C197.883 83.5519 198.246 83.3042 198.566 82.9847L212.449 69.1022C213.95 67.6006 213.95 65.1651 212.448 63.663Z" fill="#0A5B36"/>
<path d="M112.854 168.793C114.455 166.377 115.391 163.482 115.391 160.366C115.391 151.926 108.548 145.083 100.108 145.083C98.105 145.083 96.1947 145.473 94.4418 146.173C91.1576 142.3 86.259 139.839 80.7835 139.839C78.19 139.839 75.7279 140.395 73.5027 141.387C69.581 134.044 61.8449 129.046 52.939 129.046C40.0698 129.046 29.6377 139.478 29.6377 152.347C29.6377 158.769 32.2414 164.579 36.4446 168.793H112.854V168.793Z" fill="#99D53B"/>
<path d="M230.072 168.793C235.003 164.774 238.159 158.661 238.159 151.804C238.159 139.697 228.344 129.883 216.238 129.883C207.86 129.883 200.582 134.585 196.893 141.493C194.799 140.56 192.483 140.037 190.043 140.037C184.892 140.037 180.284 142.352 177.194 145.995C175.545 145.336 173.748 144.97 171.864 144.97C163.924 144.97 157.487 151.408 157.487 159.348C157.487 162.965 158.826 166.267 161.032 168.794L230.072 168.793Z" fill="#D2F0A2"/>
<path d="M222.514 151.822C222.673 158.566 219.761 164.66 215.065 168.793H230.341C235.287 164.659 238.375 158.396 238.211 151.451C237.925 139.348 227.881 129.768 215.778 130.055C213.013 130.121 210.385 130.704 207.971 131.697C216.267 134.662 222.293 142.489 222.514 151.822Z" fill="#BCEA73"/>
<path d="M283.625 118.513C304.754 118.513 321.882 101.385 321.882 80.2563C321.882 59.1279 304.754 42 283.625 42C262.497 42 245.369 59.1279 245.369 80.2563C245.369 101.385 262.497 118.513 283.625 118.513Z" fill="#1CA56F"/>
<path d="M321.884 80.2538C321.884 101.383 304.756 118.511 283.628 118.511C277.563 118.511 271.829 117.099 266.734 114.583C284.526 111.298 298.005 95.706 298.005 76.9644C298.005 61.9007 289.299 48.8731 276.645 42.6352C278.907 42.2174 281.241 42.0013 283.628 42.0013C304.756 42.0013 321.884 59.1299 321.884 80.2538Z" fill="#158F5E"/>
<path d="M294.829 78.0005C293.421 76.593 291.138 76.5925 289.731 78.001L287.231 80.5V76.338C287.231 74.3466 285.617 72.7326 283.626 72.7326C281.634 72.7326 280.021 74.3466 280.021 76.338V159.5C280.021 161.491 281.634 163.105 283.626 163.105C285.617 163.105 287.231 161.491 287.231 159.5V90.6968L294.829 83.0984C296.237 81.6909 296.237 79.409 294.829 78.0005Z" fill="#0F7A4F"/>
<path d="M275.63 118.899C275.63 141.874 265.274 141.464 252.499 141.464C239.725 141.464 229.369 141.874 229.369 118.899C229.369 95.9238 242.422 70.0029 252.499 70.0029C262.577 70.0029 275.63 95.9238 275.63 118.899Z" fill="#A3E440"/>
<path d="M275.63 118.899C275.63 141.874 265.274 141.464 252.499 141.464C239.725 141.464 229.369 141.874 229.369 118.899C229.369 95.9238 242.422 70.0029 252.499 70.0029C262.577 70.0029 275.63 95.9238 275.63 118.899Z" fill="#A3E440"/>
<path d="M275.628 118.896C275.628 141.873 265.276 141.462 252.498 141.462C250.115 141.462 247.82 141.476 245.657 141.349C255.09 140.802 261.945 137.589 261.945 118.896C261.945 100.925 253.959 81.1523 245.657 73.3881C247.965 71.2285 250.304 70 252.498 70C262.579 70.0004 275.628 95.9239 275.628 118.896Z" fill="#99D53B"/>
<path d="M266.428 112.844C265.147 111.563 263.069 111.563 261.787 112.844L255.781 118.851V102.782C255.781 100.969 254.311 99.4998 252.498 99.4998C250.685 99.4998 249.216 100.969 249.216 102.782V126.774V126.776V163.349C249.216 165.162 250.685 166.632 252.498 166.632C254.311 166.632 255.781 165.162 255.781 163.349V128.134L266.428 117.486C267.71 116.205 267.71 114.127 266.428 112.844Z" fill="#88BA31"/>
</svg>
