<svg width="24" height="25" viewBox="0 0 24 25" fill="none" xmlns="http://www.w3.org/2000/svg">
<g clip-path="url(#clip0_650_1078)">
<path d="M5.64716 15.3237H1.41187V16.7355H5.64716L6.35304 16.0296L5.64716 15.3237Z" fill="#BCEAF9"/>
<path d="M6.35314 13.2061L5.9754 12.5002H2.82373V13.912H5.64726L6.35314 13.2061Z" fill="#BCEAF9"/>
<path d="M7.85765 8.26489H1.41187V9.67666H6.91648L8.47069 8.97077L7.85765 8.26489Z" fill="#BCEAF9"/>
<path d="M8.79864 6.85303L5.64697 11.5805V12.5001L6.35286 13.206L5.64697 13.9119V15.3236L10.5881 16.0295L14.8234 15.3236L15.5293 11.0883L14.8234 6.85303H8.79864Z" fill="#ACE233"/>
<path d="M23.2941 13.206L24 13.9119V15.3236L19.0588 16.0295L14.8235 15.3236V6.85303H17.319L20.1425 11.0883H21.8823C22.8023 11.0883 23.5877 11.6784 23.8785 12.5001L23.2941 13.206Z" fill="#00CB75"/>
<path d="M5.64697 15.3237V16.7355H14.8234L15.5293 16.0296L14.8234 15.3237H5.64697Z" fill="#00CB75"/>
<path d="M5.64697 12.5H7.05874V13.9118H5.64697V12.5Z" fill="#FFD321"/>
<path d="M23.9999 13.2059V13.9118H22.5881V12.5H23.8785C23.9571 12.7207 23.9999 12.9584 23.9999 13.2059Z" fill="#FF9D21"/>
<path d="M14.8235 15.3237H24V16.7355H14.8235V15.3237Z" fill="#06A48B"/>
<path d="M13.4119 8.26489V11.0884H14.8236L15.5295 9.67666L14.8236 8.26489H13.4119Z" fill="#E7F9FB"/>
<path d="M16.5634 8.26489H14.8235V11.0884H18.4457L16.5634 8.26489Z" fill="#BCEAF9"/>
<path d="M0 12.5H1.41176V13.9118H0V12.5Z" fill="#BCEAF9"/>
<path d="M10.5884 18.1472C11.7579 18.1472 12.706 17.1991 12.706 16.0295C12.706 14.86 11.7579 13.9119 10.5884 13.9119C9.41881 13.9119 8.4707 14.86 8.4707 16.0295C8.4707 17.1991 9.41881 18.1472 10.5884 18.1472Z" fill="#3F3F72"/>
<path d="M10.5882 16.7355C10.9781 16.7355 11.2941 16.4195 11.2941 16.0296C11.2941 15.6398 10.9781 15.3237 10.5882 15.3237C10.1984 15.3237 9.88232 15.6398 9.88232 16.0296C9.88232 16.4195 10.1984 16.7355 10.5882 16.7355Z" fill="#002659"/>
<path d="M19.0588 18.1472C20.2284 18.1472 21.1765 17.1991 21.1765 16.0295C21.1765 14.86 20.2284 13.9119 19.0588 13.9119C17.8893 13.9119 16.9412 14.86 16.9412 16.0295C16.9412 17.1991 17.8893 18.1472 19.0588 18.1472Z" fill="#3F3F72"/>
<path d="M19.0589 16.7355C19.4488 16.7355 19.7648 16.4195 19.7648 16.0296C19.7648 15.6398 19.4488 15.3237 19.0589 15.3237C18.6691 15.3237 18.353 15.6398 18.353 16.0296C18.353 16.4195 18.6691 16.7355 19.0589 16.7355Z" fill="#002659"/>
<path d="M12 8.26489H9.55423L7.67188 11.0884H12V8.26489Z" fill="#E7F9FB"/>
</g>
<defs>
<clipPath id="clip0_650_1078">
<rect width="24" height="24" fill="white" transform="translate(0 0.5)"/>
</clipPath>
</defs>
</svg>
