<svg width="315" height="83" viewBox="0 0 315 83" fill="none" xmlns="http://www.w3.org/2000/svg">
<path d="M94.3878 23.6023H97.1609L109.286 40.6524V23.6023H112.841V47.811H109.997L97.9789 30.8997V47.811H94.3878V23.6023Z" fill="#E5FFD9"/>
<path d="M137.439 37.6434C137.463 37.7358 137.475 37.8278 137.475 37.9202C137.475 38.0125 137.475 38.1162 137.475 38.2315C137.475 38.6004 137.439 38.9464 137.369 39.2689H121.084C121.084 40.4911 121.422 41.5402 122.098 42.4161C122.773 43.2923 123.615 43.9663 124.622 44.4391C125.63 44.9117 126.607 45.1483 127.555 45.1483C128.741 45.1483 129.849 44.8944 130.88 44.3872C131.911 43.8799 132.711 43.0962 133.28 42.0357H136.871C136.397 43.396 135.674 44.5315 134.702 45.4421C133.73 46.3529 132.622 47.0329 131.378 47.4827C130.133 47.9322 128.847 48.1571 127.52 48.1571C126.287 48.1571 125.078 47.9552 123.893 47.5519C122.708 47.1482 121.641 46.5432 120.693 45.7362C119.744 44.9291 118.992 43.9205 118.435 42.7102C117.878 41.4995 117.599 40.0875 117.599 38.4736C117.599 36.8597 117.878 35.4534 118.435 34.2541C118.992 33.0553 119.745 32.0525 120.693 31.2457C121.641 30.4386 122.708 29.8334 123.893 29.4297C125.078 29.0263 126.311 28.8247 127.59 28.8247C129.179 28.8247 130.702 29.1534 132.16 29.8105C133.617 30.4673 134.832 31.4474 135.804 32.7499C136.776 34.0525 137.321 35.6841 137.439 37.6434H137.439ZM133.778 36.4677C133.564 35.3381 133.144 34.4329 132.516 33.7531C131.887 33.0728 131.14 32.5771 130.275 32.2658C129.41 31.9544 128.515 31.7989 127.591 31.7989C126.666 31.7989 125.76 31.9544 124.871 32.2658C123.982 32.5771 123.212 33.0788 122.56 33.7704C121.908 34.462 121.464 35.3612 121.227 36.4679H133.778V36.4677Z" fill="#E5FFD9"/>
<path d="M143.443 47.8111V31.9026H140.491V28.963H143.443C143.443 26.9109 143.994 25.4413 145.096 24.5535C146.198 23.666 147.792 23.2222 149.878 23.2222C150.091 23.2222 150.316 23.2276 150.553 23.2393C150.791 23.2509 151.028 23.2678 151.265 23.2909V26.1271C151.051 26.1041 150.838 26.0865 150.625 26.075C150.411 26.0636 150.21 26.0579 150.02 26.0579C149.096 26.0579 148.349 26.2535 147.78 26.6457C147.211 27.0377 146.927 27.8102 146.927 28.9628H150.838V31.9024H146.927V47.8109H143.442L143.443 47.8111Z" fill="#E5FFD9"/>
<path d="M173.378 37.6434C173.402 37.7358 173.414 37.8278 173.414 37.9202C173.414 38.0125 173.414 38.1162 173.414 38.2315C173.414 38.6004 173.378 38.9464 173.307 39.2689H157.023C157.023 40.4911 157.36 41.5402 158.036 42.4161C158.712 43.2923 159.553 43.9663 160.561 44.4391C161.568 44.9117 162.546 45.1483 163.494 45.1483C164.679 45.1483 165.787 44.8944 166.818 44.3872C167.849 43.8799 168.649 43.0962 169.218 42.0357H172.809C172.335 43.396 171.612 44.5315 170.641 45.4421C169.669 46.3529 168.561 47.0329 167.316 47.4827C166.072 47.9322 164.786 48.1571 163.458 48.1571C162.225 48.1571 161.017 47.9552 159.831 47.5519C158.646 47.1482 157.58 46.5432 156.631 45.7362C155.683 44.9291 154.931 43.9205 154.374 42.7102C153.817 41.4995 153.538 40.0875 153.538 38.4736C153.538 36.8597 153.817 35.4534 154.374 34.2541C154.931 33.0553 155.683 32.0525 156.631 31.2457C157.58 30.4386 158.646 29.8334 159.831 29.4297C161.017 29.0263 162.249 28.8247 163.529 28.8247C165.117 28.8247 166.64 29.1534 168.098 29.8105C169.556 30.4673 170.77 31.4474 171.743 32.7499C172.714 34.0525 173.259 35.6841 173.378 37.6434H173.378ZM169.716 36.4677C169.503 35.3381 169.082 34.4329 168.454 33.7531C167.826 33.0728 167.079 32.5771 166.214 32.2658C165.349 31.9544 164.454 31.7989 163.529 31.7989C162.605 31.7989 161.698 31.9544 160.809 32.2658C159.921 32.5771 159.15 33.0788 158.498 33.7704C157.846 34.462 157.402 35.3612 157.165 36.4679H169.716V36.4677Z" fill="#E5FFD9"/>
<path d="M180.377 34.4961C180.377 35.0728 180.525 35.5219 180.821 35.8452C181.117 36.1679 181.502 36.3985 181.976 36.5368C182.451 36.675 182.943 36.7614 183.452 36.796C183.961 36.8306 184.43 36.8595 184.856 36.8826C185.757 36.9517 186.664 37.0843 187.576 37.2802C188.489 37.4761 189.324 37.7759 190.083 38.1794C190.841 38.5827 191.452 39.1361 191.914 39.8395C192.376 40.5426 192.607 41.4244 192.607 42.485C192.607 43.5686 192.364 44.4737 191.879 45.1997C191.393 45.9257 190.752 46.5024 189.958 46.929C189.164 47.3555 188.293 47.6608 187.345 47.8454C186.397 48.0299 185.472 48.1223 184.572 48.1223C183.244 48.1223 181.994 47.9263 180.821 47.5342C179.647 47.1425 178.681 46.5026 177.923 45.6149C177.164 44.727 176.738 43.5457 176.643 42.07H180.127C180.198 43.1076 180.672 43.8856 181.55 44.4043C182.427 44.9232 183.458 45.1826 184.643 45.1826C185.235 45.1826 185.875 45.1077 186.563 44.9576C187.25 44.8079 187.849 44.5314 188.359 44.1278C188.868 43.7243 189.123 43.1536 189.123 42.416C189.123 41.8856 188.963 41.4646 188.643 41.1534C188.323 40.8425 187.914 40.6004 187.416 40.4274C186.919 40.2544 186.409 40.1334 185.888 40.0643C185.366 39.9952 184.892 39.949 184.465 39.9261C183.612 39.8799 182.741 39.7705 181.852 39.5975C180.963 39.4246 180.145 39.1422 179.399 38.75C178.652 38.3582 178.054 37.8223 177.603 37.142C177.153 36.462 176.928 35.6032 176.928 34.5654C176.928 33.1129 177.307 31.9603 178.065 31.1074C178.824 30.2542 179.796 29.643 180.981 29.2741C182.166 28.9054 183.375 28.7209 184.607 28.7209C185.887 28.7209 187.073 28.9054 188.163 29.2741C189.253 29.643 190.154 30.231 190.865 31.0381C191.576 31.845 191.967 32.9055 192.038 34.2196H188.59C188.495 33.3898 188.05 32.7726 187.256 32.3695C186.462 31.966 185.544 31.7644 184.501 31.7644C183.434 31.7644 182.48 31.9776 181.639 32.4042C180.797 32.8308 180.377 33.5282 180.377 34.4965V34.4961Z" fill="#E5FFD9"/>
<path d="M216.39 38.474C216.39 40.0879 216.1 41.4998 215.52 42.7106C214.938 43.921 214.15 44.9297 213.155 45.7366C212.16 46.5436 211.039 47.1486 209.795 47.5522C208.55 47.9555 207.277 48.1575 205.973 48.1575C204.693 48.1575 203.437 47.9555 202.204 47.5522C200.972 47.1486 199.863 46.5436 198.88 45.7366C197.896 44.9295 197.114 43.9208 196.533 42.7106C195.952 41.4998 195.661 40.0879 195.661 38.474C195.661 36.8601 195.952 35.4478 196.533 34.2374C197.114 33.027 197.902 32.0183 198.897 31.2115C199.893 30.4044 201.013 29.7992 202.257 29.3957C203.502 28.9921 204.776 28.7905 206.079 28.7905C207.383 28.7905 208.645 28.9921 209.866 29.3957C211.087 29.7992 212.189 30.4044 213.173 31.2115C214.157 32.0185 214.939 33.0271 215.52 34.2374C216.101 35.4478 216.391 36.8601 216.391 38.474H216.39ZM199.146 38.474C199.146 39.9494 199.484 41.1773 200.159 42.1572C200.835 43.137 201.7 43.8748 202.755 44.3705C203.81 44.8662 204.906 45.1143 206.044 45.1143C207.205 45.1143 208.307 44.8664 209.351 44.3705C210.394 43.875 211.253 43.1314 211.928 42.1398C212.604 41.1484 212.942 39.9265 212.942 38.4742C212.942 36.9985 212.61 35.7652 211.946 34.7736C211.283 33.7822 210.423 33.0388 209.368 32.5429C208.314 32.0472 207.217 31.7993 206.08 31.7993C204.918 31.7993 203.81 32.047 202.755 32.5429C201.7 33.0386 200.835 33.7764 200.16 34.7565C199.484 35.7363 199.146 36.9756 199.146 38.4742L199.146 38.474Z" fill="#E5FFD9"/>
<path d="M221.148 47.811V23.6023H224.633V47.811H221.148Z" fill="#E5FFD9"/>
<path d="M230.853 43.6611C231.516 43.6611 232.056 43.8571 232.47 44.2492C232.885 44.6412 233.092 45.16 233.092 45.8056C233.092 46.3128 232.885 46.7912 232.47 47.2407C232.056 47.6904 231.516 47.915 230.853 47.915C230.26 47.915 229.756 47.6902 229.342 47.2407C228.927 46.791 228.719 46.3126 228.719 45.8056C228.719 45.16 228.927 44.6411 229.342 44.2492C229.756 43.8571 230.26 43.6611 230.853 43.6611Z" fill="#E5FFD9"/>
<path d="M256.237 40.6867C255.929 42.3468 255.277 43.7244 254.282 44.8193C253.286 45.9147 252.101 46.7329 250.726 47.2748C249.351 47.8166 247.929 48.0876 246.46 48.0876C245.227 48.0876 244.018 47.8859 242.833 47.4826C241.648 47.0789 240.581 46.4739 239.633 45.6669C238.685 44.8598 237.932 43.857 237.375 42.6579C236.818 41.4591 236.54 40.0528 236.54 38.4387C236.54 36.825 236.818 35.4127 237.375 34.2023C237.932 32.9917 238.691 31.9886 239.651 31.1935C240.611 30.398 241.684 29.7985 242.869 29.395C244.054 28.9914 245.275 28.7898 246.531 28.7898C248 28.7898 249.411 29.0607 250.762 29.6026C252.113 30.1445 253.286 30.9687 254.282 32.0754C255.277 33.1819 255.929 34.5652 256.237 36.2254H252.646C252.219 34.7269 251.431 33.6145 250.282 32.888C249.132 32.1616 247.894 31.7985 246.566 31.7985C245.5 31.7985 244.463 32.0407 243.455 32.5247C242.448 33.0088 241.624 33.7409 240.984 34.7209C240.344 35.7006 240.024 36.94 240.024 38.4385C240.024 39.9371 240.344 41.1822 240.984 42.1734C241.624 43.165 242.448 43.9025 243.455 44.3869C244.463 44.8711 245.512 45.1132 246.602 45.1132C247.929 45.1132 249.162 44.7443 250.3 44.0063C251.438 43.2685 252.22 42.1622 252.646 40.6865H256.238L256.237 40.6867Z" fill="#E5FFD9"/>
<path d="M280.588 38.474C280.588 40.0879 280.298 41.4998 279.717 42.7106C279.136 43.921 278.348 44.9297 277.353 45.7366C276.357 46.5436 275.237 47.1486 273.993 47.5522C272.748 47.9555 271.474 48.1575 270.17 48.1575C268.89 48.1575 267.634 47.9555 266.402 47.5522C265.169 47.1486 264.061 46.5436 263.077 45.7366C262.094 44.9295 261.311 43.9208 260.73 42.7106C260.15 41.4998 259.859 40.0879 259.859 38.474C259.859 36.8601 260.15 35.4478 260.73 34.2374C261.311 33.027 262.1 32.0183 263.095 31.2115C264.09 30.4044 265.211 29.7992 266.455 29.3957C267.699 28.9921 268.973 28.7905 270.277 28.7905C271.581 28.7905 272.843 28.9921 274.064 29.3957C275.284 29.7992 276.387 30.4044 277.37 31.2115C278.354 32.0185 279.136 33.0271 279.717 34.2374C280.298 35.4478 280.588 36.8601 280.588 38.474H280.588ZM263.344 38.474C263.344 39.9494 263.681 41.1773 264.357 42.1572C265.032 43.137 265.897 43.8748 266.953 44.3705C268.007 44.8662 269.104 45.1143 270.241 45.1143C271.403 45.1143 272.505 44.8664 273.548 44.3705C274.591 43.875 275.45 43.1314 276.126 42.1398C276.801 41.1484 277.139 39.9265 277.139 38.4742C277.139 36.9985 276.807 35.7652 276.144 34.7736C275.48 33.7822 274.621 33.0388 273.566 32.5429C272.511 32.0472 271.415 31.7993 270.277 31.7993C269.116 31.7993 268.008 32.047 266.953 32.5429C265.898 33.0386 265.033 33.7764 264.357 34.7565C263.682 35.7363 263.344 36.9756 263.344 38.4742L263.344 38.474Z" fill="#E5FFD9"/>
<path d="M289.293 31.4191C289.957 30.4735 290.745 29.799 291.658 29.3957C292.571 28.9921 293.584 28.7905 294.698 28.7905C296.049 28.7905 297.299 29.0037 298.449 29.4303C299.598 29.8569 300.529 30.7273 301.24 32.0414C302.449 29.9202 304.499 28.8367 307.391 28.7905C309.169 28.7905 310.615 29.1594 311.729 29.8972C312.843 30.6352 313.667 31.6323 314.2 32.8889C314.734 34.1453 315 35.5693 315 37.1601V47.8118H311.516V37.1948C311.516 36.3184 311.415 35.4771 311.213 34.6699C311.012 33.863 310.621 33.206 310.04 32.6986C309.459 32.1913 308.612 31.9379 307.498 31.9379C305.791 31.9379 304.511 32.4454 303.658 33.4597C302.805 34.4742 302.378 35.7423 302.378 37.2641V47.812H298.893V37.2987C298.893 36.4224 298.763 35.5755 298.502 34.7569C298.241 33.9381 297.803 33.264 297.187 32.7335C296.57 32.2035 295.729 31.9381 294.662 31.9381C293.145 31.9381 291.871 32.4279 290.84 33.408C289.809 34.388 289.293 35.7999 289.293 37.6443V47.8122H285.809V28.7911H289.293V31.4198V31.4191Z" fill="#E5FFD9"/>
<path d="M94.3877 57.6327C94.4901 57.307 94.5414 56.8658 94.5414 56.3093V53.4418C94.5414 53.1737 94.5266 52.9244 94.4968 52.6932C94.4673 52.462 94.4307 52.2705 94.3877 52.1182H95.9425C95.8995 52.2809 95.8644 52.4687 95.8373 52.6814C95.8105 52.8942 95.7967 53.132 95.7967 53.3945V54.3554H99.336V53.3945C99.336 53.1263 99.3226 52.8849 99.2956 52.6696C99.2687 52.4543 99.2334 52.2705 99.1902 52.1183H100.745C100.702 52.2707 100.667 52.4622 100.64 52.6934C100.613 52.9246 100.599 53.1739 100.599 53.442V56.3095C100.599 56.5775 100.611 56.8267 100.636 57.058C100.66 57.289 100.697 57.4807 100.745 57.6331H99.1902C99.2334 57.4807 99.2686 57.2968 99.2956 57.0817C99.3224 56.8663 99.336 56.6249 99.336 56.3569V55.3801H95.7967V56.3569C95.7967 56.6144 95.8076 56.8492 95.8294 57.0621C95.8509 57.2748 95.8887 57.465 95.9425 57.6333H94.3877V57.6327Z" fill="#E5FFD9"/>
<path d="M108.534 57.6332C108.636 57.3075 108.687 56.8663 108.687 56.3098V53.4423C108.687 53.1742 108.673 52.9249 108.643 52.6937C108.613 52.4625 108.576 52.271 108.534 52.1187H114.082L114.284 53.3083C114.192 53.2661 114.056 53.2319 113.875 53.2056C113.694 53.1795 113.463 53.1661 113.183 53.1661H109.943V54.3557H112.551C112.923 54.3557 113.207 54.34 113.401 54.3085V55.4272C113.207 55.3956 112.923 55.3799 112.551 55.3799H109.943V56.5852H113.239C113.558 56.5852 113.814 56.5669 114.009 56.53C114.203 56.493 114.36 56.4433 114.478 56.3801L114.244 57.6327H108.534L108.534 57.6332Z" fill="#E5FFD9"/>
<path d="M127.817 57.7506C127.514 57.7506 127.27 57.71 127.084 57.6287C126.897 57.5472 126.746 57.4384 126.63 57.3016C126.514 57.1651 126.414 57.0154 126.331 56.8525C126.247 56.6899 126.163 56.5283 126.079 56.368C125.996 56.2078 125.889 56.0594 125.76 55.9228C125.63 55.7863 125.461 55.6775 125.254 55.596C125.046 55.5144 124.774 55.4738 124.439 55.4738C124.364 55.4738 124.253 55.4763 124.108 55.4816C123.962 55.4869 123.82 55.4934 123.682 55.5013C123.545 55.5091 123.443 55.5234 123.379 55.5445V56.364C123.379 56.8944 123.427 57.3171 123.524 57.6324H121.969C122.012 57.4749 122.048 57.2818 122.075 57.0533C122.101 56.8248 122.115 56.5768 122.115 56.3088V53.4413C122.115 53.1733 122.102 52.9239 122.075 52.6927C122.048 52.4615 122.012 52.27 121.969 52.1177H125.889C126.343 52.1177 126.742 52.1727 127.088 52.2829C127.434 52.3935 127.703 52.5562 127.898 52.7714C128.092 52.9869 128.19 53.2493 128.19 53.5593C128.19 53.8534 128.098 54.1146 127.914 54.3429C127.73 54.5715 127.475 54.7501 127.149 54.8787C126.822 55.0072 126.44 55.0716 126.003 55.0716H125.508V55.1347H125.573C125.86 55.1347 126.097 55.1689 126.286 55.2372C126.475 55.3054 126.632 55.392 126.756 55.4969C126.88 55.6022 126.987 55.7138 127.076 55.8318C127.165 55.9501 127.25 56.0617 127.331 56.1668C127.412 56.2718 127.502 56.3583 127.602 56.4266C127.702 56.4948 127.825 56.5292 127.971 56.5292C128.192 56.5292 128.359 56.4791 128.473 56.3793C128.586 56.2795 128.678 56.1457 128.748 55.9774L128.805 57.3404C128.713 57.461 128.577 57.5598 128.396 57.6358C128.215 57.7118 128.022 57.7499 127.817 57.7499V57.7506ZM123.378 54.5997H125.703C126.075 54.5997 126.372 54.538 126.594 54.4147C126.815 54.2913 126.926 54.1165 126.926 53.8908C126.926 53.67 126.819 53.4968 126.606 53.3708C126.392 53.2449 126.11 53.1815 125.759 53.1815H123.378V54.5997Z" fill="#E5FFD9"/>
<path d="M144.029 57.6329C144.138 57.4805 144.266 57.2848 144.414 57.046C144.562 56.8069 144.704 56.5616 144.839 56.3093L146.378 53.4418C146.513 53.1792 146.617 52.9309 146.69 52.6971C146.763 52.4634 146.813 52.2705 146.84 52.1182H148.824C148.862 52.2966 148.917 52.5068 148.99 52.7486C149.063 52.99 149.153 53.2184 149.261 53.4338L150.816 56.3093C150.951 56.5667 151.092 56.8136 151.237 57.0499C151.383 57.2862 151.51 57.4805 151.618 57.6329H150.031C150.014 57.5278 149.98 57.407 149.925 57.2705C149.871 57.134 149.785 56.9635 149.666 56.7584L149.431 56.3408H146.216L145.981 56.7664C145.884 56.9656 145.803 57.1339 145.738 57.2705C145.673 57.407 145.633 57.5278 145.617 57.6329H144.029H144.029ZM146.686 55.4034H148.962L148.209 53.9934C148.139 53.8463 148.077 53.7029 148.023 53.564C147.969 53.4249 147.914 53.2792 147.86 53.1268H147.788C147.734 53.2845 147.68 53.4314 147.626 53.5677C147.571 53.7045 147.507 53.849 147.431 54.0011L146.686 55.4034H146.686Z" fill="#E5FFD9"/>
<path d="M161.723 51.7479C161.351 51.7479 161.044 51.66 160.804 51.4842C160.564 51.3081 160.389 51.1125 160.281 50.897L160.767 50.6609C160.832 50.7974 160.942 50.9316 161.095 51.0628C161.249 51.194 161.458 51.2596 161.723 51.2596C161.993 51.2596 162.205 51.1952 162.359 51.0665C162.513 50.9377 162.619 50.8027 162.679 50.6609L163.156 50.897C163.054 51.1125 162.884 51.3081 162.646 51.4842C162.409 51.66 162.101 51.7479 161.723 51.7479ZM161.982 57.743C161.269 57.743 160.64 57.6262 160.095 57.3924C159.55 57.1589 159.125 56.8292 158.819 56.4036C158.514 55.9785 158.362 55.4741 158.362 54.8912C158.362 54.3031 158.517 53.7934 158.828 53.3628C159.138 52.9323 159.567 52.5987 160.115 52.3624C160.663 52.1259 161.291 52.008 161.998 52.008C162.468 52.008 162.906 52.0461 163.311 52.1221C163.715 52.1981 164.083 52.2966 164.412 52.4176L164.347 53.5282C164.174 53.4233 163.968 53.3367 163.728 53.2685C163.488 53.2 163.23 53.1475 162.954 53.1106C162.679 53.074 162.406 53.0556 162.136 53.0556C161.645 53.0556 161.209 53.129 160.828 53.276C160.447 53.4235 160.149 53.6347 159.933 53.9105C159.717 54.1863 159.609 54.5131 159.609 54.8913C159.609 55.259 159.71 55.5782 159.913 55.8485C160.115 56.119 160.397 56.3264 160.759 56.4706C161.121 56.6152 161.539 56.6876 162.015 56.6876C162.382 56.6876 162.734 56.6324 163.071 56.522C163.409 56.4118 163.672 56.2596 163.861 56.0652V55.4034H162.492C162.373 55.4034 162.238 55.41 162.087 55.423C161.936 55.4362 161.823 55.456 161.747 55.4823L161.804 54.4108H165.06V56.6798C164.752 57.0002 164.327 57.2573 163.784 57.4516C163.241 57.646 162.641 57.7431 161.982 57.7431L161.982 57.743Z" fill="#E5FFD9"/>
<path d="M171.836 57.6324C171.944 57.4801 172.072 57.2843 172.221 57.0456C172.369 56.8064 172.511 56.5611 172.646 56.3088L174.185 53.4413C174.32 53.1787 174.424 52.9304 174.497 52.6966C174.569 52.463 174.619 52.27 174.646 52.1177H176.631C176.669 52.2961 176.724 52.5063 176.797 52.7481C176.87 52.9895 176.96 53.2179 177.068 53.4334L178.623 56.3088C178.758 56.5663 178.898 56.8131 179.044 57.0494C179.19 57.2857 179.317 57.4801 179.425 57.6324H177.838C177.821 57.5273 177.786 57.4065 177.732 57.27C177.678 57.1335 177.592 56.963 177.473 56.7579L177.238 56.3404H174.023L173.788 56.7659C173.69 56.9651 173.61 57.1334 173.545 57.27C173.48 57.4065 173.439 57.5273 173.423 57.6324H171.836H171.836ZM174.493 55.4029H176.769L176.015 53.9929C175.945 53.8458 175.883 53.7025 175.829 53.5635C175.775 53.4244 175.721 53.2787 175.667 53.1264H175.595C175.54 53.284 175.486 53.4309 175.432 53.5672C175.378 53.704 175.314 53.8485 175.238 54.0007L174.493 55.4029H174.493Z" fill="#E5FFD9"/>
<path d="M189.588 59.1691C189.399 59.1691 189.221 59.1442 189.053 59.0943C188.886 59.0444 188.759 58.988 188.673 58.925L188.802 58.5783C188.91 58.657 189.036 58.7161 189.179 58.7556C189.322 58.7951 189.45 58.8146 189.564 58.8146C189.693 58.8146 189.816 58.791 189.932 58.7437C190.048 58.6963 190.106 58.6203 190.106 58.5154C190.106 58.3419 190.004 58.2553 189.798 58.2553C189.653 58.2553 189.537 58.2974 189.45 58.3815L189.11 58.216L189.312 57.7116C188.718 57.654 188.184 57.5083 187.709 57.2745C187.234 57.0408 186.858 56.723 186.583 56.3212C186.307 55.9195 186.17 55.4402 186.17 54.8838C186.17 54.4216 186.266 54.012 186.457 53.6547C186.649 53.2976 186.914 52.9969 187.251 52.7525C187.589 52.5085 187.981 52.3233 188.429 52.1974C188.877 52.0715 189.361 52.0085 189.879 52.0085C190.344 52.0085 190.783 52.0532 191.195 52.1422C191.608 52.2316 191.955 52.3471 192.236 52.4889L192.131 53.6706C191.904 53.5025 191.606 53.3621 191.236 53.2489C190.866 53.1361 190.465 53.0796 190.033 53.0796C189.547 53.0796 189.108 53.1519 188.717 53.2962C188.325 53.4408 188.015 53.6469 187.786 53.915C187.556 54.183 187.441 54.5059 187.441 54.884C187.441 55.2673 187.56 55.5916 187.798 55.8569C188.035 56.1222 188.356 56.3243 188.761 56.4633C189.166 56.6026 189.623 56.6724 190.13 56.6724C190.584 56.6724 191.017 56.612 191.43 56.491C191.843 56.3704 192.187 56.205 192.463 55.9948V57.2634C192.134 57.4103 191.752 57.5272 191.321 57.6137C190.889 57.7003 190.416 57.7437 189.903 57.7437H189.749L189.612 58.0668C189.655 58.0352 189.709 58.0128 189.774 57.9999C189.839 57.9867 189.901 57.9802 189.96 57.9802C190.133 57.9802 190.275 58.0289 190.385 58.1258C190.496 58.223 190.552 58.3558 190.552 58.5237C190.552 58.7337 190.454 58.894 190.26 59.0042C190.065 59.1146 189.841 59.1696 189.588 59.1696L189.588 59.1691Z" fill="#E5FFD9"/>
<path d="M208.62 57.6329C208.669 57.4805 208.705 57.2889 208.729 57.0579C208.754 56.8265 208.766 56.5773 208.766 56.3093V53.4418C208.766 53.1737 208.752 52.9244 208.725 52.6932C208.699 52.462 208.663 52.2705 208.62 52.1182H212.71C213.067 52.1182 213.388 52.1693 213.674 52.2718C213.96 52.3744 214.188 52.5239 214.358 52.7209C214.529 52.9179 214.613 53.1633 214.613 53.4577C214.613 53.7045 214.541 53.9237 214.395 54.1154C214.249 54.3071 214.052 54.4554 213.804 54.5605C213.555 54.6658 213.274 54.7181 212.961 54.7181H212.88V54.797H213.034C213.391 54.797 213.712 54.8481 213.998 54.9506C214.284 55.053 214.512 55.2052 214.682 55.4075C214.852 55.6097 214.938 55.8658 214.938 56.1758C214.938 56.4906 214.847 56.756 214.666 56.9713C214.485 57.1868 214.237 57.3506 213.921 57.4634C213.605 57.5766 213.247 57.6331 212.848 57.6331H208.62V57.6329ZM210.029 54.3242H212.33C212.626 54.3242 212.876 54.2704 213.079 54.1628C213.281 54.0549 213.382 53.896 213.382 53.686C213.382 53.476 213.282 53.3185 213.083 53.2132C212.883 53.1081 212.637 53.0558 212.346 53.0558H210.029V54.3242ZM210.029 56.6561H212.467C212.824 56.6561 213.112 56.5958 213.334 56.4749C213.555 56.3543 213.666 56.1783 213.666 55.9471C213.666 55.7108 213.551 55.5283 213.321 55.3997C213.092 55.271 212.802 55.2068 212.451 55.2068H210.029V56.6563L210.029 56.6561Z" fill="#E5FFD9"/>
<path d="M223.213 51.7246C223.072 51.7246 222.954 51.6837 222.856 51.6024C222.759 51.5211 222.711 51.4147 222.711 51.2834C222.711 51.1471 222.759 51.0379 222.856 50.9564C222.954 50.875 223.072 50.8342 223.213 50.8342C223.353 50.8342 223.472 50.875 223.569 50.9564C223.666 51.0377 223.715 51.1469 223.715 51.2834C223.715 51.4147 223.666 51.5211 223.569 51.6024C223.472 51.6837 223.353 51.7246 223.213 51.7246ZM222.435 57.6329C222.484 57.4806 222.52 57.2889 222.544 57.0579C222.569 56.8265 222.581 56.5773 222.581 56.3093V53.4418C222.581 53.1738 222.567 52.9244 222.54 52.6932C222.514 52.462 222.478 52.2705 222.435 52.1182H223.99C223.947 52.2705 223.912 52.462 223.885 52.6932C223.858 52.9244 223.844 53.1738 223.844 53.4418V56.3093C223.844 56.5773 223.858 56.8265 223.885 57.0579C223.912 57.2889 223.947 57.4806 223.99 57.6329H222.435Z" fill="#E5FFD9"/>
<path d="M237.647 57.7506C237.345 57.7506 237.1 57.71 236.914 57.6287C236.728 57.5472 236.576 57.4384 236.46 57.3016C236.344 57.1651 236.245 57.0154 236.161 56.8525C236.077 56.6899 235.993 56.5283 235.91 56.368C235.826 56.2078 235.72 56.0594 235.59 55.9228C235.46 55.7863 235.292 55.6775 235.084 55.596C234.876 55.5144 234.605 55.4738 234.27 55.4738C234.194 55.4738 234.084 55.4763 233.938 55.4816C233.792 55.4869 233.651 55.4934 233.513 55.5013C233.375 55.5091 233.274 55.5234 233.209 55.5445V56.364C233.209 56.8944 233.258 57.3171 233.355 57.6324H231.8C231.843 57.4749 231.878 57.2818 231.905 57.0533C231.932 56.8248 231.945 56.5768 231.945 56.3088V53.4413C231.945 53.1733 231.932 52.9239 231.905 52.6927C231.878 52.4615 231.843 52.27 231.8 52.1177H235.72C236.173 52.1177 236.573 52.1727 236.919 52.2829C237.264 52.3935 237.534 52.5562 237.728 52.7714C237.923 52.9869 238.02 53.2493 238.02 53.5593C238.02 53.8534 237.928 54.1146 237.744 54.3429C237.561 54.5715 237.306 54.7501 236.979 54.8787C236.652 55.0072 236.27 55.0716 235.833 55.0716H235.339V55.1347H235.404C235.69 55.1347 235.927 55.1689 236.117 55.2372C236.305 55.3054 236.462 55.392 236.586 55.4969C236.71 55.6022 236.817 55.7138 236.906 55.8318C236.995 55.9501 237.08 56.0617 237.161 56.1668C237.242 56.2718 237.333 56.3583 237.433 56.4266C237.532 56.4948 237.655 56.5292 237.801 56.5292C238.023 56.5292 238.19 56.4791 238.303 56.3793C238.417 56.2795 238.508 56.1457 238.579 55.9774L238.635 57.3404C238.543 57.461 238.407 57.5598 238.226 57.6358C238.045 57.7118 237.852 57.7499 237.647 57.7499V57.7506ZM233.209 54.5997H235.533C235.906 54.5997 236.203 54.538 236.424 54.4147C236.646 54.2913 236.756 54.1165 236.756 53.8908C236.756 53.67 236.649 53.4968 236.436 53.3708C236.223 53.2449 235.941 53.1815 235.59 53.1815H233.209V54.5997Z" fill="#E5FFD9"/>
<path d="M254.614 57.6332C254.657 57.4809 254.693 57.2892 254.723 57.0582C254.753 56.8268 254.768 56.5776 254.768 56.3096V53.4421C254.768 52.8854 254.716 52.4442 254.614 52.1187H256.08L259.846 55.9867H259.951V53.4185C259.951 53.1451 259.936 52.8919 259.907 52.6581C259.877 52.4246 259.843 52.2446 259.805 52.1187H261.36C261.317 52.271 261.282 52.4625 261.255 52.6937C261.228 52.9249 261.215 53.1742 261.215 53.4423V57.6332H260.056L256.12 53.6391H256.023V56.2232C256.023 56.4962 256.038 56.7654 256.068 57.0307C256.097 57.2959 256.131 57.4969 256.169 57.6332H254.614H254.614Z" fill="#E5FFD9"/>
<path d="M269.148 57.6327C269.25 57.307 269.302 56.8658 269.302 56.3093V53.4418C269.302 53.1737 269.287 52.9244 269.257 52.6932C269.228 52.462 269.191 52.2705 269.148 52.1182H274.696L274.898 53.3078C274.806 53.2656 274.67 53.2314 274.489 53.2051C274.309 53.179 274.078 53.1656 273.797 53.1656H270.557V54.3552H273.165C273.538 54.3552 273.821 54.3395 274.016 54.308V55.4267C273.821 55.3951 273.538 55.3794 273.165 55.3794H270.557V56.5847H273.854C274.172 56.5847 274.428 56.5664 274.623 56.5295C274.817 56.4925 274.974 56.4428 275.093 56.3796L274.858 57.6322H269.148L269.148 57.6327Z" fill="#E5FFD9"/>
<path d="M282.574 57.6324C282.622 57.4801 282.659 57.2884 282.683 57.0574C282.707 56.826 282.72 56.5768 282.72 56.3088V53.4413C282.72 53.1733 282.706 52.9239 282.679 52.6927C282.652 52.4615 282.617 52.27 282.574 52.1177H288.122L288.332 53.3309C288.235 53.2836 288.088 53.2484 287.891 53.2244C287.694 53.2008 287.458 53.189 287.182 53.189H283.983V54.4889H286.631C287.004 54.4889 287.287 54.4731 287.482 54.4415V55.56C287.287 55.5287 287.004 55.5128 286.631 55.5128H283.983V56.403C283.983 56.9124 284.031 57.3221 284.128 57.6321H282.574L282.574 57.6324Z" fill="#E5FFD9"/>
<path d="M295.693 57.6327C295.795 57.307 295.847 56.8658 295.847 56.3093V53.4418C295.847 53.1737 295.832 52.9244 295.802 52.6932C295.773 52.462 295.736 52.2705 295.693 52.1182H301.241L301.443 53.3078C301.351 53.2656 301.215 53.2314 301.034 53.2051C300.854 53.179 300.623 53.1656 300.342 53.1656H297.102V54.3552H299.71C300.083 54.3552 300.366 54.3395 300.561 54.308V55.4267C300.366 55.3951 300.083 55.3794 299.71 55.3794H297.102V56.5847H300.399C300.717 56.5847 300.973 56.5664 301.168 56.5295C301.362 56.4925 301.519 56.4428 301.638 56.3796L301.403 57.6322H295.693L295.693 57.6327Z" fill="#E5FFD9"/>
<path d="M311.978 57.7429C311.654 57.7429 311.299 57.7195 310.913 57.6722C310.527 57.625 310.146 57.5594 309.771 57.4754C309.396 57.3913 309.06 57.294 308.763 57.1838L308.819 55.9312C309.246 56.194 309.729 56.3895 310.269 56.5182C310.809 56.6468 311.371 56.7112 311.954 56.7112C312.467 56.7112 312.884 56.6625 313.205 56.5655C313.526 56.4682 313.687 56.2989 313.687 56.0571C313.687 55.9155 313.62 55.8012 313.485 55.7145C313.35 55.6277 313.167 55.5595 312.938 55.5097C312.709 55.4598 312.451 55.4179 312.164 55.3837C311.878 55.3496 311.584 55.3117 311.282 55.2696C310.979 55.2276 310.685 55.1712 310.399 55.1003C310.113 55.0292 309.855 54.9333 309.625 54.8125C309.396 54.6919 309.213 54.5355 309.079 54.3438C308.944 54.1524 308.876 53.9146 308.876 53.6308C308.876 53.2739 309.01 52.9757 309.277 52.7368C309.544 52.4978 309.905 52.3169 310.358 52.1933C310.812 52.0698 311.311 52.0083 311.857 52.0083C312.164 52.0083 312.476 52.0266 312.792 52.0633C313.108 52.1002 313.408 52.1511 313.691 52.2169C313.975 52.2825 314.222 52.3601 314.432 52.4495V53.6153C314.135 53.4472 313.76 53.3109 313.306 53.2057C312.853 53.1006 312.386 53.0482 311.905 53.0482C311.603 53.0482 311.319 53.0651 311.055 53.0993C310.79 53.1335 310.578 53.1938 310.419 53.2806C310.26 53.3672 310.18 53.4894 310.18 53.6469C310.18 53.7939 310.248 53.9121 310.382 54.0013C310.518 54.0905 310.7 54.1604 310.929 54.2103C311.159 54.26 311.417 54.3036 311.703 54.3401C311.989 54.3769 312.284 54.4148 312.59 54.4543C312.895 54.4937 313.19 54.5476 313.477 54.6157C313.763 54.6841 314.021 54.7762 314.25 54.8917C314.48 55.0072 314.662 55.1583 314.797 55.3447C314.932 55.5311 314.999 55.7661 314.999 56.0499C314.999 56.4017 314.875 56.7036 314.627 56.9556C314.378 57.2077 314.029 57.4021 313.578 57.5386C313.127 57.675 312.594 57.7433 311.978 57.7433L311.978 57.7429Z" fill="#E5FFD9"/>
<path d="M48.3642 1.05225C48.3642 1.05225 42.4551 2.63562 43.8806 8.14101C49.57 6.90962 48.3642 1.05225 48.3642 1.05225Z" fill="#E5FFD9"/>
<path d="M55.5145 2.90509C55.5145 2.90509 49.4043 2.44361 48.8319 8.09448C54.614 8.81343 55.5145 2.90509 55.5145 2.90509Z" fill="#E5FFD9"/>
<path d="M61.0707 5.79834C61.0707 5.79834 58.0117 6.42083 58.5574 9.26734C61.4933 8.81661 61.0707 5.79834 61.0707 5.79834Z" fill="#E5FFD9"/>
<path d="M76.8419 50.9279C76.6477 50.5652 76.3284 50.0647 75.8362 49.5445C75.5873 49.2874 75.2992 49.0242 74.9676 48.7766C74.634 48.5327 74.2629 48.2941 73.8536 48.0952C73.464 47.895 72.967 47.7039 72.5402 47.5806C72.3196 47.5178 72.0977 47.454 71.8743 47.3903C71.6668 47.3269 71.4552 47.2821 71.2505 47.2029C69.5915 46.6557 68.0724 45.732 67.0036 44.9752C66.795 44.8272 66.6079 44.6884 66.4334 44.5562C67.4297 44.0058 68.5796 43.7261 69.7184 43.547C71.8676 43.208 74.0664 43.1666 76.228 43.4239C76.546 43.4616 77.007 43.3833 76.9777 43.0723C76.847 43.0379 76.7161 43.0056 76.585 42.9742C73.6433 42.2731 70.5414 42.2144 67.5745 42.8067C66.2465 43.0723 64.9026 43.4886 63.8833 44.3596C62.8304 45.2593 62.2154 46.564 61.1755 47.4773C59.7171 48.7572 57.5873 49.0959 55.6463 48.8154C53.7053 48.535 51.8982 47.7093 50.124 46.8934C50.921 44.3199 50.4636 41.2776 52.1855 39.1781C52.9852 38.2022 54.1484 37.5891 55.2788 37.0013C56.3688 36.4347 57.4797 35.8609 58.6932 35.6322C60.6945 35.2543 62.7335 35.8502 64.7421 36.1914C67.233 36.6143 69.9365 36.6095 72.1224 35.3718C71.9293 34.9639 71.3127 35.096 70.8767 35.242C66.9623 36.5538 62.871 33.468 58.7363 33.6589C56.9964 33.7387 55.3472 34.3992 53.741 35.0565C51.7571 35.8687 49.6011 36.8548 48.7391 38.776C48.4111 37.0355 49.4438 35.2933 50.7872 34.1017C52.13 32.9104 53.7816 32.104 55.2313 31.0369C56.6808 29.9699 57.9892 28.5039 58.1574 26.7416C58.2628 25.6433 57.9138 24.5601 57.7009 23.4775C57.312 21.5007 57.3755 19.441 57.8855 17.4907C57.9848 17.1098 57.9279 16.5143 57.5271 16.5605C56.6998 19.1298 56.4968 21.8881 56.9407 24.5468C57.0559 25.2395 57.2158 25.9408 57.119 26.6363C56.9531 27.8326 56.0596 28.8115 55.0879 29.5595C52.5215 31.5347 49.0119 32.6051 47.4747 35.4187C46.8108 36.6337 46.6115 38.0835 46.9236 39.4262C47.0476 39.9611 47.2497 40.4777 47.3396 41.0191C47.5987 42.5818 46.9384 44.6096 46.2183 46.0018C46.1077 46.2152 46.035 46.4519 45.905 46.6386C45.7805 46.826 45.6579 47.0117 45.5363 47.1943C45.0049 47.8721 44.4525 48.4212 43.8062 48.7455C43.4198 48.9601 43.0311 49.1236 42.6453 49.2467C42.5677 48.2128 42.453 46.7776 42.2894 45.0614C42.1181 43.2812 41.8993 41.205 41.5813 38.9679C41.4281 37.8515 41.231 36.6878 40.9968 35.4975C40.7633 34.2095 40.3059 32.9908 40.1806 32.1967C40.0386 31.2803 40.1434 30.2529 40.3693 29.1799C40.5896 28.107 40.9259 26.9862 41.1155 25.8022C41.305 24.6119 41.3273 23.3717 40.8624 22.1771C40.7589 21.8479 40.6266 21.6774 40.5078 21.4508L40.4175 21.2898L40.3468 21.1593L40.3039 21.0886L40.1333 20.8073C40.0114 20.6248 39.9154 20.4337 39.8303 20.2407C39.7344 20.0521 39.651 19.8618 39.5905 19.6667C39.0308 18.1234 39.1483 16.649 39.355 15.6804C39.457 15.1901 39.5769 14.8103 39.6692 14.5562C39.7634 14.3015 39.824 14.1735 39.824 14.1735L39.5999 14.054C39.5999 14.054 39.2422 14.5542 38.8669 15.5453C38.4985 16.5247 38.0998 18.0707 38.4583 19.9559C38.4943 20.1926 38.5556 20.4282 38.6314 20.6654C38.6969 20.907 38.7752 21.1498 38.8823 21.3864L39.0333 21.7506L39.072 21.8424C39.0968 21.8918 39.0433 21.7885 39.0542 21.8137L39.0624 21.8347L39.0781 21.8779L39.1425 22.0505C39.2197 22.2734 39.3466 22.5388 39.343 22.7083C39.3673 22.8982 39.4162 23.0687 39.4054 23.2983C39.4155 23.5122 39.4177 23.7284 39.3787 23.955C39.364 24.1756 39.3169 24.4052 39.2587 24.6376C39.2175 24.866 39.1314 25.1071 39.0594 25.3455C38.7492 26.3078 38.2677 27.3228 37.8348 28.4678C37.4053 29.607 37.02 30.9119 37.0001 32.3443L36.9977 32.8816C37.0103 33.0606 37.0344 33.2401 37.0539 33.4205L37.1645 34.347C37.2594 34.9605 37.2584 35.4236 37.2956 35.9525C37.3375 37.0555 37.352 38.1557 37.331 39.2349C37.2996 41.387 37.197 43.4161 37.0927 45.1529C37.0124 46.4751 36.9287 47.6288 36.8569 48.5517C36.3462 48.2213 35.8878 47.7562 35.4473 47.1944C35.326 47.0119 35.2029 46.8262 35.0782 46.6388C34.9482 46.452 34.8755 46.2154 34.7651 46.002C34.5298 45.5814 34.4036 45.0723 34.2451 44.5666C34.0676 44.0048 33.9304 43.3643 33.7678 42.7545C33.6365 42.3297 33.5148 41.8906 33.3747 41.4513C33.593 41.0207 33.8125 40.4557 33.9917 39.7715C34.1494 39.1375 34.2391 38.3877 34.1837 37.5591C34.0917 36.7322 33.8301 35.8414 33.3241 35.0314C32.7924 34.255 32.1142 33.5173 31.2902 32.9908C31.0913 32.8557 30.8806 32.7012 30.6868 32.581C30.4917 32.4632 30.295 32.3448 30.0972 32.2255C29.7051 31.9863 29.3082 31.7448 28.9079 31.5003C28.1175 31.0059 27.3129 30.5028 26.5576 29.9621C25.8059 29.4207 25.0849 28.8459 24.5408 28.1982C23.9964 27.5499 23.7156 26.8186 23.7598 26.0521C23.7928 25.8597 23.7859 25.668 23.8454 25.477C23.8972 25.2727 23.9485 25.0697 23.9991 24.869C24.111 24.4789 24.1908 24.0032 24.2366 23.5868C24.3296 22.7487 24.3106 21.9645 24.2653 21.2482C24.1743 19.8136 23.9455 18.6461 23.7803 17.8319C23.6064 17.0191 23.4759 16.5575 23.4759 16.5575L23.0089 16.67C23.0089 16.67 23.1106 17.1212 23.237 17.9262C23.3548 18.7314 23.5156 19.8903 23.5258 21.2739C23.5321 21.9638 23.5076 22.7131 23.3791 23.4773C23.3124 23.8593 23.2435 24.2028 23.1003 24.6234C23.0355 24.8322 22.9703 25.0423 22.9041 25.2543C22.8243 25.4762 22.8075 25.728 22.7589 25.9683C22.6273 26.965 22.9956 28.0705 23.6193 28.875C24.2364 29.695 24.9926 30.3536 25.7552 30.9696C26.5222 31.5829 27.3134 32.1369 28.0914 32.6838C28.4817 32.9511 28.8693 33.2167 29.2518 33.4785C29.4429 33.6083 29.6326 33.7369 29.8211 33.8642C30.0075 33.9947 30.1518 34.1196 30.3175 34.2446C30.9881 34.7191 31.4492 35.3187 31.8101 35.8914C32.1341 36.488 32.2706 37.101 32.3092 37.6758C32.3098 38.0571 32.261 38.411 32.1936 38.7496C32.1818 38.7304 32.174 38.7115 32.1615 38.6923L31.8531 38.1864L31.4745 37.6928C31.2385 37.3607 30.8986 37.0629 30.5913 36.7726C29.9228 36.2029 29.1416 35.8216 28.4402 35.5553C27.7284 35.285 27.0939 35.1145 26.5181 34.9041C26.22 34.8066 25.9555 34.6884 25.6794 34.5772C25.5431 34.52 25.4189 34.4497 25.2876 34.3872L24.8302 34.1573L24.6105 34.0506C24.5251 34.0116 24.3991 33.9631 24.2948 33.9228C24.0669 33.8284 23.8749 33.7857 23.6784 33.7353C23.2845 33.6422 22.8988 33.6039 22.5266 33.5882C21.0409 33.562 19.795 33.8952 18.6492 34.1913C17.5063 34.5013 16.465 34.8175 15.4981 35.0586C14.5338 35.2959 13.6456 35.47 12.8559 35.5313C12.0664 35.5975 11.3776 35.5645 10.8212 35.4735C10.2614 35.3915 9.84166 35.2416 9.5563 35.1395C9.27729 35.0201 9.12862 34.9563 9.12862 34.9563L8.89185 35.3643C8.89185 35.3643 9.04486 35.4502 9.33131 35.6125C9.6261 35.7565 10.0677 35.9699 10.67 36.1274C11.2686 36.2931 12.0208 36.4116 12.882 36.4325C13.7443 36.4582 14.7066 36.3755 15.7362 36.2379C16.7636 36.0967 17.8581 35.8913 18.9888 35.7126C20.1116 35.5409 21.3058 35.3908 22.3642 35.535C22.6238 35.5763 22.8738 35.6312 23.0995 35.7139C23.2107 35.7574 23.3312 35.7992 23.3969 35.8424C23.4406 35.8671 23.4677 35.8738 23.5265 35.9075L23.7323 36.0366L24.1565 36.3124C24.3403 36.4314 24.6487 36.6151 24.8409 36.7209C25.0757 36.85 25.3123 36.9781 25.5479 37.0856C26.1917 37.4009 26.8321 37.6534 27.3509 37.9232C27.8771 38.1953 28.2886 38.474 28.6068 38.8177C29.2335 39.5117 29.6467 40.5566 29.9277 41.697C30.0907 42.26 30.1587 42.8319 30.2725 43.4032C30.367 44.0414 30.4241 44.6465 30.5456 45.288C30.6471 45.8445 30.7361 46.3949 30.8971 46.9368C30.3737 47.1734 29.7919 47.4228 29.1467 47.6709C27.7603 48.1923 26.0855 48.7439 24.3414 48.8961C23.4759 48.9716 22.5946 48.9303 21.8524 48.6695C21.6617 48.6106 21.4954 48.5209 21.3208 48.4389L20.6963 48.0486C20.4827 47.912 20.3322 47.7857 20.1433 47.6538C19.9633 47.5224 19.7914 47.3588 19.6125 47.2124C18.9141 46.5934 18.4096 45.8225 17.6681 44.948C17.291 44.5274 16.8466 44.1026 16.3386 43.8125C16.0971 43.6424 15.8308 43.5456 15.5804 43.4154C15.3246 43.3077 15.0675 43.223 14.815 43.1292C13.8064 42.8192 12.8059 42.6852 11.9231 42.5706C10.9891 42.466 10.1248 42.4156 9.31953 42.4064C7.71034 42.3963 6.37799 42.5573 5.45972 42.7323C5.00013 42.8213 4.64262 42.9088 4.39913 42.9761C4.15311 43.0511 4.02167 43.0917 4.02167 43.0917L4.16925 43.538C4.16925 43.538 4.29108 43.5115 4.51933 43.4634C4.75429 43.4195 5.10329 43.3655 5.55019 43.3183C6.44452 43.2262 7.73717 43.1819 9.2713 43.3241C10.0366 43.398 10.868 43.5207 11.7143 43.6884C12.6034 43.8811 13.4799 44.0836 14.3242 44.4236C14.4103 44.459 14.4872 44.5024 14.5697 44.5401C14.3902 44.6771 14.1964 44.8207 13.9796 44.9746C12.9112 45.7315 11.3914 46.6552 9.73288 47.2024C9.5282 47.2815 9.31663 47.3263 9.10886 47.3898C8.88568 47.4535 8.66323 47.5173 8.4426 47.5801C8.01619 47.7033 7.51889 47.8943 7.12946 48.0946C6.7201 48.2934 6.34898 48.532 6.01558 48.776C5.68362 49.0236 5.39572 49.2869 5.14698 49.544C4.65494 50.0644 4.33568 50.5647 4.14097 50.9274C4.04234 51.1089 3.97708 51.2588 3.93356 51.3614C3.89168 51.4712 3.86938 51.5294 3.86938 51.5294L4.32154 51.6889C4.32154 51.6889 4.34366 51.6442 4.38554 51.5607C4.43267 51.4744 4.50338 51.3464 4.60835 51.1909C4.81539 50.8794 5.15079 50.4511 5.63558 50.0263C5.88105 49.8166 6.15934 49.6064 6.47408 49.4147C6.79026 49.2268 7.1349 49.0469 7.51109 48.9064C7.69928 48.8362 7.88964 48.7593 8.08254 48.7136C8.2749 48.6605 8.45964 48.6013 8.69224 48.5639C8.90998 48.523 9.12935 48.4815 9.34944 48.4394C9.5835 48.392 9.82589 48.3613 10.056 48.2966C11.9338 47.861 13.6523 47.0191 14.8777 46.3127C15.3362 46.0482 15.7282 45.8019 16.0411 45.5952C16.1479 45.7137 16.2545 45.832 16.35 45.9671C16.8649 46.6839 17.4184 47.7018 18.2043 48.5389C18.4078 48.7417 18.5956 48.9513 18.8164 49.1479C19.0356 49.3364 19.2738 49.5541 19.4832 49.7151L20.1344 50.2042C20.4089 50.3767 20.6867 50.5484 20.9784 50.6728C22.1445 51.1979 23.3423 51.3259 24.4308 51.3314C26.6256 51.3229 28.5178 50.8525 30.1056 50.4132C30.8672 50.1936 31.5516 49.9679 32.1606 49.7528C32.6209 49.5893 34.6079 53.7873 34.7569 54.2123C35.9926 57.7399 34.8204 61.2226 33.5799 64.5787C33.5799 64.5787 33.5738 64.6041 33.5607 64.6412C33.3493 65.2037 33.1379 65.7408 32.9262 66.2406C32.92 66.2591 32.9073 66.278 32.9008 66.303C32.1763 67.7457 30.8366 69.6576 28.6184 70.1448C28.4646 70.1822 28.298 70.2134 28.1314 70.2324C27.7404 70.2883 27.3491 70.3448 26.9646 70.4005C26.1506 70.4883 25.33 70.5754 24.503 70.6631C23.6822 70.7569 22.785 70.9256 21.9837 71.1445C21.1694 71.3751 20.381 71.6691 19.6694 72.0253C18.9513 72.3623 18.3039 72.7559 17.6885 73.0869C17.0732 73.4246 16.4833 73.7058 15.9064 73.8679C15.3359 74.0554 14.7845 74.1305 14.291 74.1679C13.7974 74.2241 13.3552 74.1737 12.996 74.1862C12.2781 74.1178 11.8677 74.0799 11.8677 74.0799L11.8423 74.2301C11.8423 74.2301 12.2527 74.3052 12.9768 74.4301C13.3423 74.4488 13.7847 74.5299 14.3039 74.5112C14.8166 74.5174 15.4064 74.48 16.0349 74.3297C16.6695 74.2047 17.3234 73.949 17.9837 73.6551C18.4259 73.4558 18.8682 73.243 19.3298 73.0428C19.317 73.1745 19.3043 73.3117 19.2785 73.4558C19.2143 73.8305 19.1117 74.2675 18.9196 74.6988C18.7337 75.1236 18.4516 75.5416 18.0606 75.8482C17.8682 76.0105 17.6566 76.1168 17.4132 76.2358C17.1693 76.3356 16.9195 76.4607 16.6822 76.5917C16.4579 76.7231 16.24 76.8668 16.0476 77.0103C15.8553 77.1667 15.6885 77.3161 15.5413 77.4725C14.9513 78.0846 14.8233 78.6656 14.8233 78.6656L14.9838 78.697C14.9838 78.697 15.0155 78.5787 15.131 78.3846C15.24 78.1846 15.4387 77.9225 15.7336 77.6541C15.881 77.5224 16.0542 77.3976 16.24 77.2665C16.4322 77.148 16.6437 77.029 16.868 76.9227C17.0861 76.8229 17.3234 76.7292 17.5861 76.6414C17.8359 76.5416 18.1309 76.4226 18.3681 76.2543C18.8681 75.9233 19.2464 75.4488 19.503 74.9736C19.7657 74.4929 19.9196 74.0176 20.0222 73.6053C20.1118 73.2431 20.1631 72.9308 20.189 72.6933C20.8364 72.4434 21.5223 72.2561 22.2275 72.1124C23.016 71.9689 23.766 71.8752 24.5996 71.8506C25.4328 71.8253 26.2662 71.8001 27.0931 71.7756C27.4971 71.7502 28.1572 71.7005 28.5674 71.6751C28.8941 71.6377 29.2149 71.6065 29.5354 71.5753C29.5745 71.5705 29.6112 71.564 29.6501 71.5591C30.7238 71.6966 32.4126 71.8114 33.5611 71.3961C33.5611 71.3961 32.8615 72.6083 30.6253 73.1994C30.446 73.1555 30.2408 73.0996 30.0164 73.0497C29.215 72.8624 28.1253 72.6688 27.029 72.6062C26.7534 72.5811 26.4778 72.587 26.2084 72.587C25.9328 72.5751 25.6701 72.6124 25.4071 72.625C24.8946 72.6748 24.4201 72.7746 24.0225 72.8936C23.8238 72.95 23.6507 73.0372 23.4968 73.0936C23.3365 73.1495 23.2147 73.2371 23.1124 73.293C22.907 73.4181 22.7853 73.4932 22.7853 73.4932L22.8816 73.6179C22.8816 73.6179 22.9969 73.5621 23.2021 73.4618C23.3048 73.4117 23.4264 73.3368 23.5801 73.2994C23.7341 73.2557 23.9007 73.1872 24.093 73.1491C24.4841 73.0682 24.9392 73.0116 25.4328 73.0116C25.6763 73.0181 25.9328 73.0058 26.1957 73.0368C26.4521 73.0553 26.715 73.074 26.9778 73.1177C27.6635 73.2183 28.3368 73.3676 28.9329 73.5299C26.3368 74.061 23.8302 74.7611 21.9967 75.5541C20.9775 75.9916 20.1825 76.4661 19.6698 76.8536C19.4199 77.0537 19.2274 77.2221 19.1121 77.347C18.9903 77.472 18.9263 77.5409 18.9263 77.5409L19.0481 77.6407C19.0481 77.6407 19.1121 77.5841 19.2339 77.472C19.3558 77.3595 19.5545 77.2159 19.8108 77.0472C20.3366 76.7033 21.1379 76.3099 22.1637 75.9604C23.2148 75.598 24.4906 75.2795 25.8752 75.017C25.8562 75.142 25.8239 75.2795 25.792 75.4292C25.7086 75.7668 25.5998 76.1536 25.433 76.5539C25.2726 76.9475 25.0546 77.3537 24.7664 77.7033C24.6315 77.8723 24.4585 78.0218 24.2789 78.1906C24.1059 78.353 23.9328 78.5277 23.779 78.6967C23.465 79.0402 23.2021 79.3774 22.9969 79.6777C22.5803 80.2774 22.3753 80.7209 22.3753 80.7209L22.5163 80.7893C22.5163 80.7893 22.7533 80.377 23.2021 79.8276C23.4329 79.5528 23.7083 79.2463 24.0354 78.9406C24.2022 78.7903 24.3688 78.6402 24.5548 78.4965C24.7343 78.3532 24.9459 78.1967 25.1252 78.0035C25.4843 77.6349 25.7597 77.2036 25.9716 76.7848C26.1828 76.3667 26.3369 75.9606 26.4523 75.6109C26.5485 75.3229 26.6125 75.0737 26.6636 74.8736C27.6637 74.6919 28.7087 74.5484 29.76 74.4234C29.6703 74.6361 29.574 74.8794 29.5037 75.148C29.4585 75.2984 29.4204 75.4604 29.3884 75.623C29.3626 75.7854 29.3369 75.9727 29.3305 76.1104L29.2984 76.3536L29.2341 76.5353C29.1768 76.6601 29.1059 76.7844 29.0098 76.8848C28.8238 77.0842 28.5803 77.2286 28.3624 77.3221C28.1443 77.4161 27.9456 77.4656 27.8111 77.4905C27.67 77.5217 27.593 77.5282 27.593 77.5282L27.6058 77.6847C27.6058 77.6847 27.9521 77.6905 28.4456 77.5344C28.6956 77.4593 28.9777 77.3284 29.2339 77.1036C29.3622 76.9913 29.471 76.8477 29.5608 76.6913C29.6059 76.6037 29.6378 76.516 29.6763 76.422L29.7341 76.1849C29.7662 76.0041 29.7916 75.8726 29.8367 75.7227C29.8815 75.5724 29.9264 75.4291 29.9778 75.2982C30.0802 75.0228 30.2084 74.7856 30.3238 74.5796C30.3752 74.4925 30.4201 74.4174 30.4647 74.3488C31.7278 74.2045 32.9842 74.0989 34.1766 74.0171C34.2792 74.0111 34.3878 74.0049 34.51 73.9855C34.2087 74.5733 33.8241 75.2294 33.3751 75.8539C33.228 76.0665 33.0674 76.2665 32.9008 76.466C32.7469 76.6719 32.5674 76.8474 32.4008 77.0283C32.061 77.378 31.7086 77.6593 31.3815 77.8777C31.2211 77.9903 31.061 78.0654 30.9198 78.1403C30.7852 78.2274 30.6507 78.2652 30.5418 78.3026C30.3237 78.3777 30.2018 78.4216 30.2018 78.4216L30.2339 78.578C30.2339 78.578 30.3686 78.5399 30.5994 78.484C30.7212 78.4528 30.8623 78.4216 31.0162 78.3465C31.1636 78.2775 31.3496 78.2156 31.5289 78.1093C31.8877 77.9091 32.2853 77.6406 32.6764 77.3034C32.8622 77.1279 33.0739 76.9657 33.2534 76.7657C33.4393 76.5723 33.6253 76.3787 33.7982 76.1662C34.4841 75.3663 35.0677 74.4855 35.4841 73.7923L35.8688 73.6614C36.0483 73.5863 36.2151 73.4926 36.3815 73.4055C36.9521 73.0737 37.4073 72.6489 37.7599 72.2122C37.7407 72.2556 37.7278 72.2934 37.7151 72.3307C37.5483 72.7367 37.3368 73.149 37.1379 73.6429C36.9457 74.1109 36.7726 74.6294 36.6761 75.173C36.5735 75.7042 36.5673 76.3099 36.5481 76.7472C36.5481 77.0969 36.1313 77.3847 35.702 77.672C35.2662 77.9532 34.8173 78.2345 34.407 78.5528C34.0031 78.8653 33.6312 79.1964 33.3236 79.5526C33.0032 79.9023 32.7596 80.258 32.5032 80.5518C32.003 81.133 31.4647 81.539 31.0416 81.6259C30.6056 81.7264 30.3877 81.539 30.4071 81.5517L30.2979 81.67C30.3043 81.67 30.3619 81.7264 30.4903 81.7823C30.6183 81.8327 30.8298 81.8699 31.08 81.8262C31.5927 81.7513 32.1888 81.3517 32.7596 80.7645C33.0417 80.4709 33.3172 80.1397 33.6312 79.8332C33.9452 79.5216 34.3109 79.2276 34.7149 78.9591C35.1188 78.6838 35.561 78.4405 36.0289 78.1841C36.1444 78.1155 36.2599 78.053 36.3754 77.9777C36.3815 78.0343 36.3815 78.0842 36.3942 78.1467C36.4328 78.3965 36.4907 78.6903 36.5867 78.9903C36.6381 79.1463 36.6894 79.3026 36.7534 79.4521C36.8174 79.6025 36.9073 79.7773 36.9715 79.8958L37.0741 80.1212L37.1254 80.3084C37.1446 80.4455 37.1446 80.5832 37.1188 80.714C37.0741 80.9893 36.9459 81.2328 36.8175 81.4199C36.683 81.6141 36.542 81.7578 36.4457 81.8574C36.3431 81.9511 36.2791 82.001 36.2791 82.001L36.3755 82.1258C36.3755 82.1258 36.6703 81.9509 37.0035 81.564C37.1702 81.364 37.3435 81.108 37.4329 80.783C37.478 80.6202 37.4907 80.4453 37.4843 80.2644C37.4715 80.1705 37.4521 80.0771 37.4329 79.9831L37.3562 79.7519C37.2793 79.5772 37.2343 79.4588 37.183 79.3024C37.1446 79.1583 37.1062 79.0146 37.0741 78.8711C37.0162 78.5898 36.9845 78.3154 36.9715 78.0906C36.9588 77.8594 36.9649 77.6658 36.9715 77.5344C36.9776 77.503 36.9776 77.4905 36.9776 77.4658C37.0101 77.4281 37.042 77.3969 37.0741 77.3535C37.1254 77.2911 37.1636 77.1782 37.2022 77.0842C37.2536 76.9719 37.2407 76.9474 37.2599 76.8722C37.3306 76.2852 37.3623 75.8477 37.478 75.3857C37.7663 75.8223 38.1702 76.3349 38.6573 76.7784C38.7598 76.8661 38.9264 77.0225 38.9906 77.1161C39.0803 77.2221 39.151 77.3595 39.2021 77.4905C39.3111 77.7598 39.3367 78.04 39.3111 78.284C39.2919 78.5274 39.2342 78.7275 39.1893 78.8711C39.1378 79.0086 39.1062 79.077 39.1062 79.077L39.2406 79.1582C39.2406 79.1582 39.465 78.8649 39.6061 78.3338C39.6764 78.0652 39.7085 77.7275 39.6316 77.372C39.593 77.1905 39.5354 77.0158 39.4264 76.8349C39.3176 76.6349 39.2342 76.5409 39.1062 76.3721C38.6833 75.8537 38.3754 75.2665 38.1832 74.8105C38.0868 74.5858 38.0228 74.3916 37.9782 74.2608C37.9653 74.2042 37.9525 74.161 37.9396 74.1232C37.9588 74.0859 37.9782 74.0421 37.9974 73.9982C38.1959 73.5861 38.4459 73.1613 38.6512 72.7365C38.6894 72.6615 38.7202 72.5901 38.756 72.5161C39.2281 72.0248 39.7177 71.4748 39.7121 71.3097C39.707 71.1662 39.9931 71.4148 40.3084 71.7303C40.3499 71.8241 40.3902 71.917 40.4331 72.0121C40.4331 72.0368 40.427 72.0495 40.427 72.0807C40.4141 72.218 40.3884 72.4182 40.3436 72.6615C40.2602 73.1428 40.0807 73.7796 39.7794 74.3735C39.6898 74.5606 39.6255 74.6731 39.5615 74.8919C39.4973 75.0917 39.4781 75.2726 39.4781 75.4543C39.4781 75.8225 39.5809 76.1418 39.7089 76.391C39.959 76.8848 40.2411 77.1283 40.2411 77.1283L40.3628 77.0227C40.3628 77.0227 40.3115 76.9534 40.2346 76.8285C40.1579 76.7035 40.0553 76.5162 39.9848 76.2856C39.9143 76.054 39.8758 75.7668 39.9206 75.4857C39.9464 75.3481 39.9848 75.1979 40.0488 75.0796C40.0874 74.9732 40.2219 74.7858 40.2988 74.6733C40.6257 74.2298 40.882 73.7427 41.0682 73.3114C41.1899 73.5426 41.3182 73.7739 41.4272 73.9986C41.6321 74.4299 41.8182 74.8736 41.9335 75.3354C42.0557 75.8227 42.0878 76.2669 42.158 76.8726C42.1832 76.9475 42.1709 76.9722 42.2155 77.0846C42.2543 77.1786 42.2992 77.2914 42.3502 77.3538C42.3754 77.3972 42.4076 77.4284 42.4395 77.4662C42.4464 77.4908 42.4464 77.5035 42.4464 77.5348C42.4591 77.6661 42.4591 77.8599 42.4524 78.0909C42.4395 78.3158 42.4075 78.5902 42.35 78.8714C42.3179 79.015 42.2793 79.1587 42.2349 79.3028C42.1899 79.4592 42.1449 79.5775 42.0677 79.7523L41.9912 79.9834C41.9714 80.0774 41.9461 80.1709 41.9394 80.2647C41.9272 80.4456 41.9393 80.6206 41.9912 80.7833C42.0808 81.1085 42.2539 81.3644 42.4143 81.5644C42.7539 81.9512 43.0487 82.1262 43.0487 82.1262L43.1448 82.0013C43.1448 82.0013 43.0808 81.9512 42.9784 81.8578C42.8821 81.758 42.7409 81.6144 42.6065 81.4203C42.4716 81.2332 42.3433 80.9897 42.299 80.7144C42.2731 80.5835 42.2793 80.4458 42.299 80.3088L42.35 80.1215L42.4524 79.8962C42.5166 79.7777 42.6067 79.6029 42.6638 79.4525C42.7282 79.3029 42.786 79.1467 42.8373 78.9906C42.9334 78.6907 42.9914 78.3969 43.0295 78.147C43.0357 78.0846 43.0424 78.0347 43.0487 77.9781C43.1638 78.0532 43.2799 78.1156 43.395 78.1844C43.8562 78.4408 44.2989 78.6842 44.7029 78.9594C45.1068 79.228 45.4786 79.522 45.7924 79.8336C46.1066 80.14 46.3757 80.4712 46.6641 80.7648C47.2348 81.352 47.8311 81.7516 48.3437 81.8266C48.5938 81.8705 48.8054 81.8331 48.9336 81.7827C49.0618 81.7268 49.1194 81.6703 49.1261 81.6703L49.017 81.552C49.0358 81.5393 48.8183 81.7268 48.3825 81.6262C47.9528 81.5393 47.4145 81.1334 46.9208 80.5521C46.6643 80.2584 46.4147 79.9027 46.0999 79.553C45.7924 79.1968 45.4206 78.8656 45.0107 78.5531C44.6066 78.2348 44.1579 77.9536 43.7219 77.6723C43.2924 77.3851 42.8754 77.0973 42.8754 76.7476C42.8563 76.3104 42.8502 75.7045 42.7478 75.1734C42.6511 74.6297 42.4785 74.1113 42.2793 73.6433C42.0877 73.1493 41.869 72.737 41.7091 72.3311C41.696 72.2937 41.6839 72.2625 41.6707 72.2248C42.0233 72.6561 42.4783 73.074 43.0425 73.4059C43.209 73.493 43.3758 73.5866 43.5554 73.6618C43.6831 73.7057 43.8181 73.7487 43.9463 73.7926C44.3502 74.486 44.9335 75.361 45.6258 76.1665C45.7924 76.3792 45.9846 76.5726 46.171 76.7661C46.3503 76.9661 46.5617 77.1283 46.7473 77.3038C47.1322 77.6409 47.5358 77.9093 47.8955 78.1096C48.0748 78.216 48.2543 78.2779 48.4077 78.3468C48.5556 78.4219 48.7032 78.4533 48.8183 78.4844C49.0558 78.5403 49.1901 78.5784 49.1901 78.5784L49.2222 78.4219C49.2222 78.4219 49.1002 78.378 48.8823 78.3029C48.7732 78.2655 48.6388 78.228 48.5041 78.1407C48.3634 78.0657 48.1963 77.9904 48.036 77.8781C47.7153 77.6594 47.3634 77.3783 47.0167 77.0287C46.8563 76.8479 46.6708 76.6725 46.5169 76.4663C46.3565 76.2669 46.19 76.0667 46.0488 75.8542C45.5999 75.2298 45.2152 74.5736 44.9142 73.9859C45.0359 74.0051 45.1387 74.0113 45.2471 74.0174C46.4333 74.0991 47.6959 74.2047 48.9525 74.3491C49.0038 74.4177 49.0489 74.4927 49.0998 74.58C49.2152 74.7859 49.3373 75.0233 49.4465 75.2986C49.4974 75.4294 49.5426 75.573 49.587 75.723C49.6258 75.8729 49.6577 76.0045 49.69 76.1852L49.7473 76.4224C49.7861 76.5164 49.8181 76.6038 49.8564 76.6917C49.9528 76.8481 50.0616 76.9916 50.19 77.104C50.4398 77.3288 50.7283 77.4596 50.9717 77.5348C51.4718 77.6908 51.8184 77.685 51.8184 77.685L51.8313 77.5286C51.8313 77.5286 51.7475 77.5221 51.613 77.4909C51.4718 77.4662 51.2794 77.4164 51.0618 77.3224C50.8436 77.2288 50.6001 77.0846 50.4142 76.8851C50.3182 76.7848 50.2471 76.6605 50.1898 76.5356L50.1258 76.354L50.0937 76.1108C50.0807 75.9731 50.0614 75.7856 50.0295 75.6234C50.0036 75.4608 49.9654 75.2986 49.9204 75.1483C49.8435 74.8796 49.7538 74.6362 49.664 74.4237C50.715 74.5488 51.7604 74.699 52.7602 74.8739C52.8114 75.0739 52.8755 75.3233 52.9653 75.6112C53.0808 75.9609 53.2347 76.367 53.4526 76.7851C53.664 77.2039 53.9396 77.6351 54.2991 78.0038C54.4786 78.1971 54.69 78.3535 54.8693 78.4969C55.0554 78.6404 55.2219 78.7907 55.3885 78.9409C55.7088 79.2467 55.9908 79.5532 56.2152 79.8279C56.671 80.3774 56.9076 80.7897 56.9076 80.7897L57.0486 80.7213C57.0486 80.7213 56.8436 80.2778 56.4273 79.678C56.215 79.3777 55.9594 79.0405 55.6448 78.697C55.4913 78.5281 55.3181 78.3533 55.1387 78.1909C54.9592 78.0222 54.7924 77.8726 54.651 77.7037C54.3692 77.354 54.1511 76.9479 53.9845 76.5543C53.8241 76.154 53.709 75.7671 53.6319 75.4296C53.5936 75.2799 53.5677 75.1423 53.5487 75.0173C54.9336 75.2799 56.2031 75.5984 57.2602 75.9607C58.2794 76.3104 59.0871 76.7038 59.6071 77.0475C59.8694 77.2163 60.0683 77.3598 60.1834 77.4723C60.3118 77.5845 60.3758 77.6411 60.3758 77.6411L60.4916 77.5413C60.4916 77.5413 60.4338 77.4723 60.3118 77.3473C60.1965 77.2225 60.0039 77.0541 59.7476 76.8539C59.2416 76.4665 58.4399 75.9919 57.4272 75.5544C55.5872 74.7614 53.0877 74.0614 50.4913 73.5302C51.087 73.368 51.7604 73.2186 52.4464 73.1181C52.7089 73.0742 52.9718 73.0557 53.2282 73.0372C53.4907 73.0059 53.741 73.0185 53.9911 73.0119C54.4847 73.0119 54.9398 73.0686 55.3245 73.1495C55.517 73.1876 55.6835 73.256 55.8374 73.2997C55.9976 73.3371 56.1193 73.4121 56.2221 73.4621C56.4273 73.5625 56.5424 73.6182 56.5424 73.6182L56.632 73.4935C56.632 73.4935 56.5167 73.4184 56.3113 73.2934C56.209 73.2375 56.087 73.1498 55.9268 73.0939C55.7732 73.0375 55.5999 72.9504 55.4014 72.894C55.0036 72.7749 54.5297 72.6751 54.0104 72.6254C53.7541 72.6129 53.4845 72.5755 53.2151 72.5873C52.9464 72.5873 52.6708 72.5815 52.3944 72.6065C51.2921 72.669 50.2088 72.8626 49.4073 73.05C49.2155 73.0927 49.0411 73.1354 48.8814 73.1786C46.7024 72.5803 46.012 71.3965 46.012 71.3965C47.132 71.8017 48.7692 71.7023 49.845 71.5698C49.8598 71.5714 49.8733 71.5739 49.8881 71.5756C50.2861 71.613 50.6896 71.6568 51.0997 71.7007C51.5037 71.7257 51.9205 71.7504 52.3371 71.7758C53.1578 71.8003 53.9907 71.8255 54.8243 71.8507C55.6579 71.8754 56.4076 71.9691 57.196 72.1126C57.9014 72.2561 58.5869 72.4505 59.2351 72.7003C59.2603 72.9375 59.3052 73.2433 59.3948 73.6055C59.5039 74.0178 59.6578 74.493 59.9146 74.9737C60.1773 75.449 60.5553 75.9235 61.0491 76.2545C61.2926 76.4227 61.5872 76.5418 61.8378 76.6416C62.1001 76.7292 62.3376 76.823 62.5555 76.9229C62.7798 77.0292 62.9914 77.1482 63.1835 77.2667C63.3697 77.3976 63.543 77.5224 63.6904 77.6543C63.9789 77.9229 64.1774 78.1848 64.2927 78.3847C64.4078 78.5789 64.4401 78.6972 64.4401 78.6972L64.5942 78.6658C64.5942 78.6658 64.4722 78.0848 63.8826 77.4727C63.7352 77.3163 63.5621 77.1669 63.3759 77.0105C63.1835 76.867 62.966 76.7232 62.7352 76.5919C62.4979 76.4608 62.2542 76.3358 62.0107 76.236C61.7672 76.117 61.5549 76.0106 61.3566 75.8484C60.9721 75.5419 60.6901 75.124 60.4978 74.699C60.3116 74.2677 60.203 73.8307 60.1452 73.456C60.1192 73.3056 60.1 73.1682 60.0939 73.043C60.5551 73.2431 60.9976 73.456 61.4398 73.6552C62.0999 73.9492 62.7542 74.2049 63.3824 74.3299C64.0108 74.4803 64.6069 74.5176 65.1194 74.5114C65.6392 74.5299 66.081 74.449 66.4467 74.4303C67.1711 74.3054 67.5812 74.2303 67.5812 74.2303L67.5553 74.08C67.5553 74.08 67.1454 74.118 66.4209 74.1864C66.0622 74.1739 65.6263 74.2243 65.1323 74.168C64.6392 74.1307 64.0873 74.0555 63.5109 73.8681C62.9335 73.7059 62.3506 73.4246 61.7353 73.0871C61.1193 72.7561 60.4719 72.3625 59.7543 72.0255C59.0358 71.6693 58.2541 71.3753 57.4397 71.1447C56.6389 70.9258 55.7411 70.7569 54.9144 70.6632C54.0931 70.5756 53.2718 70.4885 52.4566 70.4007C52.0831 70.3457 51.4721 70.2555 51.0979 70.2002C50.7777 70.142 50.4614 70.0861 50.1445 70.0266C49.779 69.9517 49.414 69.8704 49.0612 69.7826C47.9972 69.4456 47.1065 68.3209 46.3947 66.9966C46.3429 66.8844 46.2984 66.7719 46.2477 66.6596C44.9632 63.8422 43.8743 60.7426 44.1581 57.6148C44.2978 56.0785 44.7714 54.4132 45.7051 53.1447C46.6186 51.9028 48.0034 51.0604 48.8616 49.7644C51.0357 50.4807 53.2421 51.2032 55.5333 51.3332C57.8244 51.463 60.2505 50.9295 61.936 49.4116C63.1471 48.3225 63.9022 46.8065 65.0201 45.6463C65.3205 45.8421 65.6816 46.0688 66.1048 46.3127C67.3303 47.0191 69.0488 47.8608 70.9267 48.2966C71.1568 48.3613 71.399 48.3921 71.6327 48.4394C71.8537 48.4815 72.0723 48.523 72.2899 48.5639C72.523 48.6013 72.7076 48.6605 72.8998 48.7136C73.0928 48.7593 73.2834 48.8362 73.4712 48.9064C73.8474 49.0467 74.1928 49.2266 74.509 49.4147C74.8231 49.6064 75.1014 49.8168 75.3469 50.0263C75.8321 50.4511 76.1669 50.8793 76.3739 51.1909C76.4796 51.3466 76.5496 51.4744 76.5973 51.5607C76.6386 51.6442 76.6613 51.6889 76.6613 51.6889L77.1131 51.5294C77.1131 51.5294 77.091 51.4712 77.0491 51.3614C77.0052 51.2586 76.94 51.1089 76.8413 50.9274L76.8419 50.9279Z" fill="#E5FFD9"/>
<path d="M67.5811 25.1059C73.4087 25.202 73.6395 19.2327 73.6395 19.2327C73.6395 19.2327 67.5147 19.4272 67.5811 25.1059Z" fill="#E5FFD9"/>
<path d="M52.7735 21.1433C52.7735 21.1433 49.3635 26.105 54.1348 29.3645C57.6145 24.808 52.7735 21.1433 52.7735 21.1433Z" fill="#E5FFD9"/>
<path d="M48.3148 16.1327C48.3148 16.1327 50.3956 21.7495 55.917 19.9353C54.212 14.5033 48.3148 16.1327 48.3148 16.1327Z" fill="#E5FFD9"/>
<path d="M49.8986 20.1001C49.8986 20.1001 44.0328 18.3728 42.2292 23.7722C47.7186 25.6834 49.8986 20.1001 49.8986 20.1001Z" fill="#E5FFD9"/>
<path d="M47.0036 14.3903C47.0036 14.3903 40.8815 14.1168 40.4916 19.7828C46.2936 20.3242 47.0036 14.3903 47.0036 14.3903Z" fill="#E5FFD9"/>
<path d="M65.9042 22.4329C65.9042 22.4329 60.0376 20.7056 58.235 26.1045C63.7234 28.0157 65.9042 22.4329 65.9042 22.4329Z" fill="#E5FFD9"/>
<path d="M64.1057 40.3514C64.1057 40.3514 61.5897 34.9057 56.2277 37.1267C58.3541 42.4159 64.1057 40.3514 64.1057 40.3514Z" fill="#E5FFD9"/>
<path d="M64.8414 30.4584C64.8414 30.4584 62.2219 26.4257 58.2354 28.7712C60.528 32.7228 64.8414 30.4584 64.8414 30.4584Z" fill="#E5FFD9"/>
<path d="M51.5931 41.0568C53.8865 45.0087 58.2 42.7441 58.2 42.7441C58.2 42.7441 55.5802 38.7113 51.5931 41.0568Z" fill="#E5FFD9"/>
<path d="M47.4511 30.99C47.4511 30.99 42.3041 31.4929 42.6913 36.2713C47.605 36.0302 47.4511 30.99 47.4511 30.99Z" fill="#E5FFD9"/>
<path d="M50.9283 31.3521C51.4599 27.7748 47.6113 27.1528 47.6113 27.1528C47.6113 27.1528 47.2444 30.9364 50.9283 31.3521Z" fill="#E5FFD9"/>
<path d="M44.6568 26.3286C44.6568 26.3286 40.8577 27.1879 41.6195 30.7243C45.2701 30.0826 44.6568 26.3286 44.6568 26.3286Z" fill="#E5FFD9"/>
<path d="M66.4091 41.8566C70.0597 41.2149 69.4464 37.4609 69.4464 37.4609C69.4464 37.4609 65.6471 38.3201 66.4091 41.8566Z" fill="#E5FFD9"/>
<path d="M60.3341 44.0549C60.3341 44.0549 56.5356 44.9142 57.2977 48.4508C60.9478 47.8091 60.3341 44.0549 60.3341 44.0549Z" fill="#E5FFD9"/>
<path d="M73.1016 27.4445C77.4823 26.6742 76.7462 22.1692 76.7462 22.1692C76.7462 22.1692 72.1875 23.201 73.1016 27.4445Z" fill="#E5FFD9"/>
<path d="M62.8208 49.5069C64.7068 53.4365 68.9876 51.5888 68.9876 51.5888C68.9876 51.5888 66.7965 47.5585 62.8208 49.5069Z" fill="#E5FFD9"/>
<path d="M70.5788 49.3264C68.2064 52.9968 72.1159 55.5072 72.1159 55.5072C72.1159 55.5072 74.41 51.5321 70.5788 49.3264Z" fill="#E5FFD9"/>
<path d="M69.4464 13.4138C69.4464 13.4138 65.6471 14.2737 66.4091 17.81C70.0597 17.1683 69.4464 13.4138 69.4464 13.4138Z" fill="#E5FFD9"/>
<path d="M70.6337 46.707C73.5217 47.1535 74.066 44.204 74.066 44.204C74.066 44.204 71.0093 43.882 70.6337 46.707Z" fill="#E5FFD9"/>
<path d="M71.2648 41.9821C74.1526 42.4286 74.6969 39.4791 74.6969 39.4791C74.6969 39.4791 71.6402 39.1571 71.2648 41.9821Z" fill="#E5FFD9"/>
<path d="M43.4792 39.6809C43.4792 39.6809 42.9248 43.4433 46.5834 44.0323C47.2919 40.4843 43.4792 39.6809 43.4792 39.6809Z" fill="#E5FFD9"/>
<path d="M13.7676 24.0791C13.8343 18.4014 7.70959 18.2061 7.70959 18.2061C7.70959 18.2061 7.93966 24.1758 13.7676 24.0791Z" fill="#E5FFD9"/>
<path d="M26.4187 29.3645C31.1899 26.1052 27.7794 21.1433 27.7794 21.1433C27.7794 21.1433 22.9382 24.8079 26.4187 29.3645Z" fill="#E5FFD9"/>
<path d="M32.2378 16.1327C32.2378 16.1327 26.3404 14.5031 24.6356 19.9353C30.157 21.7497 32.2378 16.1327 32.2378 16.1327Z" fill="#E5FFD9"/>
<path d="M30.6538 20.1002C30.6538 20.1002 32.8341 25.6837 38.3232 23.7723C36.52 18.3727 30.6538 20.1002 30.6538 20.1002Z" fill="#E5FFD9"/>
<path d="M33.8757 15.0289C33.8757 15.0289 34.3074 18.6381 37.8365 18.3088C37.5996 14.8624 33.8757 15.0289 33.8757 15.0289Z" fill="#E5FFD9"/>
<path d="M22.3186 26.1046C20.5153 20.7055 14.649 22.4329 14.649 22.4329C14.649 22.4329 16.8295 28.0159 22.3186 26.1046Z" fill="#E5FFD9"/>
<path d="M16.4469 40.3515C16.4469 40.3515 22.1991 42.4159 24.3253 37.1267C18.9628 34.9055 16.4469 40.3515 16.4469 40.3515Z" fill="#E5FFD9"/>
<path d="M22.9596 28.7713C18.9727 26.4256 16.3531 30.4585 16.3531 30.4585C16.3531 30.4585 20.6662 32.7229 22.9596 28.7713Z" fill="#E5FFD9"/>
<path d="M28.9603 41.0569C24.9734 38.7112 22.3539 42.7442 22.3539 42.7442C22.3539 42.7442 26.6669 45.0087 28.9603 41.0569Z" fill="#E5FFD9"/>
<path d="M32.0984 30.4175C32.0984 30.4175 31.9443 35.4579 36.8586 35.6987C37.2455 30.9204 32.0984 30.4175 32.0984 30.4175Z" fill="#E5FFD9"/>
<path d="M32.9409 27.1528C32.9409 27.1528 29.0922 27.775 29.6238 31.3521C33.3077 30.9364 32.9409 27.1528 32.9409 27.1528Z" fill="#E5FFD9"/>
<path d="M34.3075 24.9297C34.3075 24.9297 33.6942 28.6838 37.3444 29.3262C38.1066 25.789 34.3075 24.9297 34.3075 24.9297Z" fill="#E5FFD9"/>
<path d="M14.1431 41.8566C14.9049 38.3201 11.1062 37.4609 11.1062 37.4609C11.1062 37.4609 10.4925 41.2149 14.1431 41.8566Z" fill="#E5FFD9"/>
<path d="M20.2179 44.0549C20.2179 44.0549 19.6045 47.8091 23.2551 48.4508C24.0169 44.9142 20.2179 44.0549 20.2179 44.0549Z" fill="#E5FFD9"/>
<path d="M7.45082 27.4445C8.36492 23.201 3.80621 22.1692 3.80621 22.1692C3.80621 22.1692 3.07015 26.674 7.45082 27.4445Z" fill="#E5FFD9"/>
<path d="M36.2742 5.53252C37.1493 1.47014 33.0106 0.351599 32.6546 0.263428H32.6288C32.6022 0.438183 31.9818 4.77849 36.2742 5.53252Z" fill="#E5FFD9"/>
<path d="M17.7319 49.5069C13.7562 47.5585 11.5654 51.5888 11.5654 51.5888C11.5654 51.5888 15.8457 53.4363 17.7319 49.5069Z" fill="#E5FFD9"/>
<path d="M8.43738 55.5072C8.43738 55.5072 12.3465 52.9968 9.97405 49.3264C6.14289 51.5319 8.43738 55.5072 8.43738 55.5072Z" fill="#E5FFD9"/>
<path d="M13.0527 17.81C13.8147 14.2737 10.0155 13.4138 10.0155 13.4138C10.0155 13.4138 9.40215 17.1683 13.0527 17.81Z" fill="#E5FFD9"/>
<path d="M16.8438 14.6253C17.6056 11.0888 13.8065 10.2295 13.8065 10.2295C13.8065 10.2295 13.1932 13.984 16.8438 14.6253Z" fill="#E5FFD9"/>
<path d="M24.8745 4.94214C24.8745 4.94214 21.6206 7.87418 24.4169 10.9455C27.6466 8.30974 24.8745 4.94214 24.8745 4.94214Z" fill="#E5FFD9"/>
<path d="M29.5466 1.52979C29.5466 1.52979 26.2923 4.46165 29.089 7.53352C32.3182 4.89792 29.5466 1.52979 29.5466 1.52979Z" fill="#E5FFD9"/>
<path d="M9.9187 46.707C9.54305 43.8818 6.48621 44.204 6.48621 44.204C6.48621 44.204 7.03028 47.1535 9.9187 46.707Z" fill="#E5FFD9"/>
<path d="M5.85645 39.4791C5.85645 39.4791 6.40052 42.4286 9.28894 41.9821C8.91347 39.157 5.85645 39.4791 5.85645 39.4791Z" fill="#E5FFD9"/>
<path d="M34.2357 43.3898C37.7294 42.4134 36.7541 38.812 36.7541 38.812C36.7541 38.812 33.1346 40.0131 34.2357 43.3898Z" fill="#E5FFD9"/>
<path d="M56.7984 16.1551C58.7339 10.7976 52.9944 8.69897 52.9944 8.69897C52.9944 8.69897 51.2494 14.4234 56.7984 16.1551Z" fill="#E5FFD9"/>
<path d="M64.1056 10.0981C64.1056 10.0981 57.9908 10.4829 58.2428 16.1557C64.0711 16.0717 64.1056 10.0981 64.1056 10.0981Z" fill="#E5FFD9"/>
<path d="M58.7118 17.4388C61.2907 22.5326 66.8426 20.0002 66.8426 20.0002C66.8426 20.0002 63.8615 14.7826 58.7118 17.4388Z" fill="#E5FFD9"/>
<path d="M70.9069 34.5849C72.8419 29.2268 67.1029 27.1279 67.1029 27.1279C67.1029 27.1279 65.3574 32.8527 70.9069 34.5849Z" fill="#E5FFD9"/>
<path d="M72.3515 34.5847C78.1793 34.5 78.2144 28.5266 78.2144 28.5266C78.2144 28.5266 72.0989 28.9117 72.3515 34.5847Z" fill="#E5FFD9"/>
<path d="M72.8204 35.8676C75.3999 40.9616 80.951 38.4295 80.951 38.4295C80.951 38.4295 77.9711 33.2116 72.8204 35.8676Z" fill="#E5FFD9"/>
<path d="M80.7471 39.0491C80.7471 39.0491 77.3947 39.336 77.6068 42.4475C80.8051 42.329 80.7471 39.0491 80.7471 39.0491Z" fill="#E5FFD9"/>
<path d="M77.8982 43.1658C79.118 46.0497 82.2566 44.8621 82.2566 44.8621C82.2566 44.8621 80.8207 41.8956 77.8982 43.1658Z" fill="#E5FFD9"/>
<path d="M77.3213 43.6589C75.1723 45.971 77.6198 48.2228 77.6198 48.2228C77.6198 48.2228 79.7524 45.6862 77.3213 43.6589Z" fill="#E5FFD9"/>
<path d="M83.2341 47.3643C83.2187 47.361 78.3085 46.2809 77.1471 50.8143C81.7488 52.0695 83.2189 47.414 83.2341 47.3654V47.3643Z" fill="#E5FFD9"/>
<path d="M77.225 51.9714C77.6104 56.6374 82.6526 56.3436 82.6526 56.3436C82.6526 56.3436 81.9987 51.4635 77.225 51.9714Z" fill="#E5FFD9"/>
<path d="M74.4431 59.0698C74.4431 59.0698 78.6854 56.4007 76.1666 52.4163C72.0075 54.7572 74.4431 59.0698 74.4431 59.0698Z" fill="#E5FFD9"/>
<path d="M24.6908 16.2056C30.4919 15.6737 30.0472 9.71777 30.0472 9.71777C30.0472 9.71777 23.9797 10.5677 24.6908 16.2056Z" fill="#E5FFD9"/>
<path d="M23.2791 15.904C24.774 10.4153 18.8857 8.76123 18.8857 8.76123C18.8857 8.76123 17.6052 14.6029 23.2791 15.904Z" fill="#E5FFD9"/>
<path d="M14.0337 17.8611C14.0337 17.8611 18.899 21.4952 22.5389 17.0584C18.0933 13.388 14.0337 17.8611 14.0337 17.8611Z" fill="#E5FFD9"/>
<path d="M49.4511 9.94658C49.4511 9.94658 43.7346 7.78957 41.5188 13.0433C46.8433 15.3506 49.4511 9.94658 49.4511 9.94658Z" fill="#E5FFD9"/>
<path d="M40.4409 12.1059C44.5043 8.03648 40.2036 3.78223 40.2036 3.78223C40.2036 3.78223 36.1492 8.26255 40.4409 12.1059Z" fill="#E5FFD9"/>
<path d="M39.2146 12.7594C37.1861 7.43669 31.3975 9.39638 31.3975 9.39638C31.3975 9.39638 33.8107 14.888 39.2146 12.7594Z" fill="#E5FFD9"/>
<path d="M10.2735 35.0285C15.9236 33.6405 14.5519 27.8198 14.5519 27.8198C14.5519 27.8198 8.68863 29.5624 10.2735 35.0285Z" fill="#E5FFD9"/>
<path d="M8.83236 34.9392C9.4504 29.2934 3.37225 28.5339 3.37225 28.5339C3.37225 28.5339 3.02108 34.4975 8.83236 34.9392Z" fill="#E5FFD9"/>
<path d="M8.28073 36.192C3.31248 33.2252 0.000366211 38.2494 0.000366211 38.2494C0.000366211 38.2494 5.37781 41.1176 8.28073 36.192Z" fill="#E5FFD9"/>
</svg>
