<svg width="117" height="117" viewBox="0 0 117 117" fill="none" xmlns="http://www.w3.org/2000/svg">
<path d="M58.3697 116.732C90.6044 116.732 116.736 90.6006 116.736 58.3659C116.736 26.1313 90.6044 0 58.3697 0C26.1351 0 0.00378418 26.1313 0.00378418 58.3659C0.00378418 90.6006 26.1351 116.732 58.3697 116.732Z" fill="#97DB4F"/>
<path d="M58.3698 100.672C81.7347 100.672 100.676 81.7309 100.676 58.366C100.676 35.0011 81.7347 16.0601 58.3698 16.0601C35.0048 16.0601 16.0638 35.0011 16.0638 58.366C16.0638 81.7309 35.0048 100.672 58.3698 100.672Z" fill="white"/>
<path d="M64.4772 29.9666C64.4772 29.9666 60.2329 31.1038 61.2568 35.0582C65.3433 34.1737 64.4772 29.9666 64.4772 29.9666Z" fill="#97DB4F"/>
<path d="M69.6129 31.2974C69.6129 31.2974 65.2241 30.966 64.813 35.0248C68.9661 35.5412 69.6129 31.2974 69.6129 31.2974Z" fill="#97DB4F"/>
<path d="M73.6038 33.3755C73.6038 33.3755 71.4066 33.8226 71.7985 35.8671C73.9073 35.5434 73.6038 33.3755 73.6038 33.3755Z" fill="#97DB4F"/>
<path d="M84.9316 65.7905C84.7921 65.53 84.5628 65.1705 84.2092 64.7969C84.0304 64.6122 83.8235 64.4231 83.5853 64.2453C83.3457 64.0701 83.0792 63.8987 82.7852 63.7559C82.5053 63.6121 82.1484 63.4748 81.8418 63.3863C81.6834 63.3412 81.524 63.2953 81.3636 63.2496C81.2145 63.204 81.0625 63.1718 80.9155 63.115C79.7238 62.7219 78.6327 62.0585 77.8651 61.5149C77.7152 61.4086 77.5808 61.3089 77.4556 61.2139C78.1711 60.8186 78.9971 60.6177 79.815 60.4891C81.3587 60.2456 82.938 60.2159 84.4906 60.4006C84.719 60.4278 85.0502 60.3715 85.0291 60.1481C84.9352 60.1234 84.8412 60.1002 84.747 60.0777C82.6341 59.5741 80.4062 59.5319 78.2752 59.9573C77.3213 60.1481 76.356 60.4471 75.6239 61.0727C74.8676 61.7189 74.4259 62.6561 73.6789 63.3121C72.6315 64.2314 71.1017 64.4747 69.7075 64.2732C68.3134 64.0718 67.0154 63.4787 65.7411 62.8927C66.3135 61.0442 65.985 58.8591 67.2218 57.3511C67.7962 56.6501 68.6317 56.2097 69.4436 55.7876C70.2265 55.3806 71.0244 54.9685 71.896 54.8042C73.3335 54.5327 74.798 54.9607 76.2407 55.2058C78.0298 55.5095 79.9716 55.5061 81.5417 54.6171C81.403 54.3241 80.9601 54.419 80.647 54.5239C77.8354 55.4661 74.8968 53.2497 71.927 53.3869C70.6773 53.4441 69.4927 53.9186 68.3391 54.3906C66.9141 54.974 65.3655 55.6823 64.7463 57.0623C64.5108 55.8121 65.2525 54.5607 66.2174 53.7049C67.1819 52.8492 68.3682 52.27 69.4095 51.5035C70.4506 50.7371 71.3904 49.6842 71.5112 48.4184C71.5869 47.6295 71.3362 46.8514 71.1833 46.0739C70.904 44.654 70.9496 43.1746 71.3159 41.7738C71.3872 41.5002 71.3463 41.0725 71.0584 41.1056C70.4642 42.9511 70.3184 44.9323 70.6373 46.8419C70.72 47.3395 70.8348 47.8432 70.7653 48.3427C70.6462 49.202 70.0044 49.9051 69.3065 50.4424C67.4631 51.8611 64.9423 52.6299 63.8382 54.6508C63.3613 55.5235 63.2182 56.5649 63.4423 57.5293C63.5314 57.9134 63.6766 58.2845 63.7412 58.6734C63.9273 59.7958 63.453 61.2523 62.9358 62.2523C62.8563 62.4055 62.8041 62.5755 62.7107 62.7097C62.6213 62.8443 62.5333 62.9777 62.4459 63.1088C62.0642 63.5956 61.6674 63.9901 61.2032 64.223C60.9257 64.3771 60.6465 64.4946 60.3694 64.583C60.3137 63.8404 60.2312 62.8095 60.1138 61.5768C59.9907 60.2982 59.8336 58.8069 59.6052 57.2001C59.4951 56.3982 59.3536 55.5624 59.1853 54.7074C59.0176 53.7823 58.6891 52.9069 58.5991 52.3366C58.4971 51.6783 58.5724 50.9404 58.7346 50.1697C58.8929 49.3991 59.1344 48.594 59.2706 47.7436C59.4067 46.8887 59.4227 45.9979 59.0888 45.1399C59.0145 44.9034 58.9194 44.7809 58.8341 44.6182L58.7693 44.5025L58.7185 44.4088L58.6876 44.358L58.5651 44.156C58.4776 44.0249 58.4086 43.8876 58.3475 43.749C58.2786 43.6135 58.2187 43.4768 58.1752 43.3368C57.7732 42.2282 57.8576 41.1692 58.0061 40.4735C58.0794 40.1214 58.1655 39.8485 58.2317 39.666C58.2995 39.4831 58.3429 39.3912 58.3429 39.3912L58.182 39.3053C58.182 39.3053 57.9251 39.6646 57.6555 40.3765C57.3909 41.0799 57.1046 42.1904 57.362 43.5445C57.3879 43.7145 57.4319 43.8837 57.4864 44.054C57.5334 44.2276 57.5896 44.402 57.6666 44.5719L57.7751 44.8335L57.8028 44.8995C57.8206 44.935 57.7822 44.8607 57.79 44.8788L57.7959 44.8939L57.8072 44.9249L57.8534 45.0489C57.9089 45.209 58.0001 45.3997 57.9975 45.5214C58.0149 45.6578 58.0501 45.7803 58.0423 45.9452C58.0496 46.0988 58.0511 46.2541 58.0231 46.4169C58.0126 46.5753 57.9787 46.7402 57.9369 46.9072C57.9074 47.0712 57.8455 47.2443 57.7938 47.4156C57.571 48.1068 57.2251 48.8358 56.9142 49.6582C56.6057 50.4765 56.329 51.4137 56.3147 52.4426L56.313 52.8285C56.3219 52.9571 56.3393 53.086 56.3533 53.2156L56.4328 53.8811C56.5009 54.3217 56.5002 54.6543 56.5269 55.0342C56.557 55.8264 56.5674 56.6167 56.5523 57.3918C56.5298 58.9376 56.4561 60.3951 56.3812 61.6425C56.3235 62.5922 56.2633 63.4209 56.2118 64.0838C55.845 63.8464 55.5158 63.5124 55.1993 63.1089C55.1122 62.9778 55.0238 62.8444 54.9342 62.7098C54.8408 62.5757 54.7886 62.4057 54.7093 62.2524C54.5403 61.9503 54.4497 61.5847 54.3358 61.2214C54.2084 60.8179 54.1098 60.3578 53.993 59.9198C53.8987 59.6147 53.8113 59.2993 53.7107 58.9838C53.8675 58.6745 54.0251 58.2687 54.1538 57.7773C54.2671 57.3219 54.3316 56.7834 54.2917 56.1882C54.2257 55.5943 54.0378 54.9544 53.6743 54.3726C53.2924 53.815 52.8053 53.2851 52.2134 52.9069C52.0706 52.8099 51.9192 52.699 51.78 52.6126C51.6399 52.528 51.4986 52.443 51.3566 52.3572C51.0749 52.1855 50.7899 52.012 50.5023 51.8364C49.9346 51.4813 49.3567 51.1199 48.8142 50.7316C48.2743 50.3427 47.7564 49.9298 47.3656 49.4646C46.9746 48.999 46.7729 48.4737 46.8046 47.9231C46.8283 47.7849 46.8234 47.6473 46.8661 47.5101C46.9033 47.3633 46.9402 47.2175 46.9765 47.0734C47.0569 46.7932 47.1142 46.4515 47.1471 46.1524C47.2139 45.5504 47.2002 44.9871 47.1677 44.4726C47.1023 43.4423 46.938 42.6037 46.8194 42.0189C46.6945 41.4351 46.6007 41.1035 46.6007 41.1035L46.2653 41.1843C46.2653 41.1843 46.3383 41.5084 46.4291 42.0866C46.5137 42.665 46.6292 43.4974 46.6365 44.4911C46.6411 44.9866 46.6235 45.5248 46.5312 46.0738C46.4833 46.3481 46.4338 46.5948 46.3309 46.8969C46.2844 47.0469 46.2375 47.1979 46.19 47.3501C46.1327 47.5094 46.1206 47.6903 46.0857 47.863C45.9912 48.5788 46.2558 49.3729 46.7037 49.9507C47.147 50.5397 47.6901 51.0127 48.2378 51.4552C48.7888 51.8957 49.3571 52.2936 49.9158 52.6864C50.1962 52.8784 50.4746 53.0692 50.7494 53.2573C50.8866 53.3505 51.0228 53.4428 51.1582 53.5343C51.2921 53.628 51.3958 53.7177 51.5148 53.8075C51.9965 54.1483 52.3276 54.579 52.5869 54.9904C52.8196 55.4189 52.9176 55.8591 52.9454 56.272C52.9458 56.5459 52.9107 56.8001 52.8623 57.0433C52.8538 57.0295 52.8482 57.0159 52.8392 57.0021L52.6177 56.6387L52.3458 56.2842C52.1763 56.0457 51.9321 55.8318 51.7114 55.6233C51.2313 55.214 50.6702 54.9402 50.1664 54.749C49.6551 54.5548 49.1994 54.4323 48.7858 54.2812C48.5717 54.2112 48.3817 54.1263 48.1834 54.0464C48.0855 54.0053 47.9963 53.9548 47.902 53.91L47.5735 53.7448L47.4156 53.6682C47.3543 53.6402 47.2638 53.6053 47.1889 53.5763C47.0252 53.5086 46.8873 53.4779 46.7462 53.4417C46.4632 53.3748 46.1862 53.3473 45.9189 53.3361C44.8517 53.3172 43.9569 53.5566 43.1339 53.7692C42.313 53.9919 41.565 54.219 40.8706 54.3922C40.1779 54.5626 39.54 54.6876 38.9728 54.7317C38.4057 54.7792 37.911 54.7555 37.5113 54.6902C37.1092 54.6313 36.8077 54.5236 36.6028 54.4503C36.4024 54.3645 36.2956 54.3187 36.2956 54.3187L36.1255 54.6118C36.1255 54.6118 36.2354 54.6735 36.4412 54.79C36.6529 54.8935 36.9701 55.0467 37.4027 55.1598C37.8327 55.2789 38.373 55.364 38.9915 55.379C39.6108 55.3975 40.302 55.338 41.0415 55.2393C41.7795 55.1378 42.5656 54.9902 43.3778 54.8619C44.1842 54.7386 45.042 54.6308 45.8022 54.7344C45.9887 54.764 46.1683 54.8034 46.3304 54.8628C46.4102 54.8941 46.4968 54.9241 46.5439 54.9552C46.5753 54.9729 46.5949 54.9777 46.637 55.0019L46.7848 55.0946L47.0896 55.2927C47.2216 55.3782 47.4431 55.5102 47.5811 55.5862C47.7498 55.6789 47.9197 55.7708 48.089 55.8481C48.5514 56.0746 49.0113 56.256 49.384 56.4497C49.7619 56.6452 50.0575 56.8453 50.286 57.0922C50.7362 57.5907 51.033 58.3412 51.2348 59.1603C51.3519 59.5647 51.4007 59.9754 51.4825 60.3858C51.5503 60.8442 51.5914 61.2788 51.6786 61.7396C51.7515 62.1393 51.8155 62.5346 51.9311 62.9238C51.5552 63.0938 51.1373 63.2729 50.6738 63.4511C49.678 63.8257 48.4751 64.2219 47.2224 64.3312C46.6007 64.3854 45.9677 64.3557 45.4346 64.1684C45.2976 64.1261 45.1782 64.0616 45.0528 64.0027L44.6042 63.7224C44.4508 63.6243 44.3427 63.5336 44.207 63.4388C44.0777 63.3445 43.9543 63.2269 43.8258 63.1218C43.3241 62.6772 42.9618 62.1235 42.4292 61.4954C42.1583 61.1933 41.8391 60.8882 41.4743 60.6798C41.3008 60.5576 41.1095 60.488 40.9297 60.3946C40.7459 60.3172 40.5613 60.2564 40.3799 60.189C39.6555 59.9663 38.9368 59.8701 38.3028 59.7877C37.6319 59.7126 37.0111 59.6764 36.4327 59.6698C35.2769 59.6626 34.3199 59.7782 33.6603 59.9039C33.3302 59.9679 33.0734 60.0307 32.8986 60.0791C32.7219 60.1329 32.6275 60.162 32.6275 60.162L32.7334 60.4826C32.7334 60.4826 32.821 60.4636 32.9849 60.429C33.1537 60.3975 33.4043 60.3587 33.7253 60.3248C34.3677 60.2587 35.2962 60.2269 36.3981 60.329C36.9477 60.382 37.5449 60.4702 38.1528 60.5906C38.7914 60.7291 39.421 60.8745 40.0274 61.1187C40.0893 61.1441 40.1445 61.1753 40.2037 61.2024C40.0748 61.3008 39.9356 61.4039 39.7799 61.5145C39.0125 62.0581 37.9208 62.7216 36.7296 63.1146C36.5826 63.1715 36.4306 63.2036 36.2814 63.2492C36.1211 63.295 35.9613 63.3408 35.8028 63.3859C35.4966 63.4744 35.1394 63.6116 34.8597 63.7555C34.5656 63.8982 34.2991 64.0696 34.0596 64.2449C33.8212 64.4227 33.6144 64.6118 33.4357 64.7965C33.0823 65.1703 32.853 65.5296 32.7131 65.7902C32.6423 65.9205 32.5954 66.0281 32.5642 66.1019C32.5341 66.1808 32.5181 66.2226 32.5181 66.2226L32.8428 66.3371C32.8428 66.3371 32.8587 66.305 32.8888 66.245C32.9227 66.1831 32.9734 66.0911 33.0488 65.9794C33.1975 65.7557 33.4385 65.448 33.7867 65.1429C33.963 64.9923 34.1629 64.8413 34.3889 64.7037C34.616 64.5686 34.8636 64.4395 35.1338 64.3385C35.2689 64.2881 35.4057 64.2329 35.5442 64.2001C35.6824 64.1619 35.8151 64.1194 35.9821 64.0925C36.1385 64.0631 36.2961 64.0334 36.4542 64.0031C36.6223 63.969 36.7964 63.947 36.9617 63.9005C38.3105 63.5877 39.5448 62.983 40.425 62.4756C40.7543 62.2856 41.0358 62.1087 41.2606 61.9602C41.3373 62.0453 41.4138 62.1303 41.4825 62.2273C41.8523 62.7422 42.2498 63.4733 42.8143 64.0745C42.9604 64.2202 43.0954 64.3708 43.254 64.512C43.4114 64.6474 43.5825 64.8037 43.7329 64.9194L44.2007 65.2707C44.3978 65.3946 44.5973 65.518 44.8068 65.6073C45.6444 65.9845 46.5047 66.0764 47.2866 66.0803C48.863 66.0743 50.2221 65.7363 51.3626 65.4208C51.9096 65.2631 52.4012 65.101 52.8386 64.9465C53.1692 64.8291 54.5964 67.8443 54.7035 68.1496C55.591 70.6833 54.749 73.1848 53.8581 75.5954C53.8581 75.5954 53.8536 75.6137 53.8443 75.6403C53.6924 76.0443 53.5406 76.4301 53.3885 76.7891C53.3841 76.8024 53.375 76.8159 53.3703 76.8339C52.8499 77.8701 51.8876 79.2433 50.2944 79.5933C50.1839 79.6202 50.0643 79.6426 49.9446 79.6563C49.6637 79.6964 49.3827 79.7369 49.1065 79.777C48.5218 79.84 47.9325 79.9026 47.3384 79.9656C46.7489 80.0329 46.1045 80.1542 45.5289 80.3113C44.9441 80.477 44.3778 80.6882 43.8666 80.944C43.3508 81.1861 42.8858 81.4688 42.4439 81.7065C42.0019 81.9491 41.5782 82.1511 41.1638 82.2675C40.754 82.4021 40.358 82.4561 40.0036 82.4829C39.649 82.5233 39.3314 82.4871 39.0734 82.4961C38.5577 82.447 38.2629 82.4197 38.2629 82.4197L38.2447 82.5276C38.2447 82.5276 38.5395 82.5816 39.0596 82.6713C39.3221 82.6847 39.6399 82.743 40.0128 82.7295C40.3811 82.734 40.8047 82.7071 41.2561 82.5992C41.7119 82.5094 42.1816 82.3257 42.6559 82.1146C42.9735 81.9715 43.2912 81.8186 43.6227 81.6748C43.6135 81.7695 43.6044 81.868 43.5859 81.9715C43.5398 82.2406 43.4661 82.5545 43.3281 82.8643C43.1946 83.1694 42.992 83.4696 42.7111 83.6899C42.5729 83.8064 42.421 83.8828 42.2461 83.9683C42.0709 84.04 41.8915 84.1298 41.721 84.2239C41.5599 84.3182 41.4034 84.4215 41.2653 84.5246C41.1271 84.6369 41.0073 84.7442 40.9016 84.8565C40.4778 85.2962 40.3859 85.7135 40.3859 85.7135L40.5011 85.7361C40.5011 85.7361 40.5239 85.6511 40.6069 85.5116C40.6851 85.368 40.8279 85.1798 41.0397 84.987C41.1456 84.8924 41.2699 84.8027 41.4034 84.7086C41.5415 84.6235 41.6934 84.538 41.8545 84.4616C42.0112 84.3899 42.1816 84.3227 42.3703 84.2596C42.5497 84.1879 42.7616 84.1024 42.9319 83.9816C43.2911 83.7438 43.5628 83.403 43.7471 83.0616C43.9358 82.7164 44.0463 82.375 44.12 82.0789C44.1844 81.8187 44.2212 81.5944 44.2398 81.4238C44.7049 81.2443 45.1975 81.1098 45.704 81.0066C46.2704 80.9035 46.8091 80.8362 47.4078 80.8185C48.0063 80.8004 48.6049 80.7823 49.1988 80.7647C49.489 80.7464 49.9631 80.7107 50.2578 80.6925C50.4924 80.6656 50.7228 80.6432 50.953 80.6208C50.9812 80.6174 51.0075 80.6127 51.0355 80.6091C51.8066 80.7079 53.0196 80.7904 53.8445 80.4921C53.8445 80.4921 53.342 81.3627 51.7359 81.7873C51.6071 81.7558 51.4597 81.7156 51.2985 81.6798C50.7229 81.5453 49.9402 81.4062 49.1527 81.3612C48.9548 81.3432 48.7569 81.3474 48.5634 81.3474C48.3654 81.3389 48.1768 81.3657 47.9878 81.3748C47.6197 81.4105 47.2789 81.4822 46.9933 81.5677C46.8506 81.6082 46.7262 81.6708 46.6157 81.7113C46.5006 81.7515 46.4131 81.8144 46.3396 81.8546C46.1921 81.9444 46.1047 81.9983 46.1047 81.9983L46.1739 82.0879C46.1739 82.0879 46.2567 82.0479 46.4041 81.9758C46.4778 81.9398 46.5652 81.886 46.6756 81.8591C46.7861 81.8277 46.9058 81.7786 47.044 81.7512C47.3249 81.6931 47.6517 81.6524 48.0063 81.6524C48.1812 81.6571 48.3654 81.6482 48.5543 81.6705C48.7384 81.6838 48.9272 81.6973 49.116 81.7287C49.6085 81.8009 50.0921 81.9081 50.5203 82.0247C48.6556 82.4062 46.8552 82.909 45.5383 83.4786C44.8062 83.7929 44.2352 84.1337 43.8669 84.412C43.6875 84.5557 43.5492 84.6767 43.4663 84.7664C43.3788 84.8562 43.3329 84.9057 43.3329 84.9057L43.4204 84.9774C43.4204 84.9774 43.4663 84.9367 43.5539 84.8562C43.6414 84.7753 43.7841 84.6722 43.9682 84.551C44.3458 84.304 44.9214 84.0215 45.6582 83.7704C46.4132 83.5101 47.3296 83.2814 48.324 83.0928C48.3104 83.1826 48.2872 83.2814 48.2643 83.3889C48.2044 83.6314 48.1262 83.9092 48.0064 84.1968C47.8912 84.4795 47.7347 84.7712 47.5276 85.0223C47.4307 85.1437 47.3065 85.2511 47.1775 85.3723C47.0532 85.489 46.9289 85.6145 46.8184 85.7358C46.5929 85.9825 46.4041 86.2247 46.2567 86.4404C45.9574 86.8712 45.8102 87.1897 45.8102 87.1897L45.9115 87.2389C45.9115 87.2389 46.0817 86.9428 46.4041 86.5481C46.5699 86.3507 46.7677 86.1306 47.0026 85.911C47.1224 85.8031 47.242 85.6953 47.3756 85.5921C47.5046 85.4891 47.6565 85.3767 47.7853 85.2379C48.0433 84.9732 48.2411 84.6634 48.3933 84.3626C48.545 84.0623 48.6557 83.7706 48.7385 83.5194C48.8077 83.3126 48.8536 83.1336 48.8904 82.9898C49.6086 82.8594 50.3592 82.7563 51.1144 82.6665C51.0499 82.8192 50.9808 82.994 50.9302 83.1869C50.8978 83.2949 50.8705 83.4113 50.8474 83.5281C50.8289 83.6448 50.8104 83.7793 50.8059 83.8782L50.7828 84.0529L50.7366 84.1833C50.6954 84.273 50.6445 84.3623 50.5755 84.4344C50.4419 84.5776 50.267 84.6814 50.1105 84.7485C49.9539 84.816 49.8111 84.8516 49.7145 84.8695C49.6132 84.8919 49.5579 84.8966 49.5579 84.8966L49.5671 85.0089C49.5671 85.0089 49.8158 85.0131 50.1703 84.901C50.3498 84.847 50.5525 84.7531 50.7365 84.5916C50.8287 84.5109 50.9068 84.4078 50.9713 84.2954C51.0037 84.2325 51.0266 84.1695 51.0542 84.102L51.0957 83.9317C51.1188 83.8018 51.137 83.7074 51.1694 83.5997C51.2016 83.4918 51.2339 83.3888 51.2708 83.2948C51.3443 83.097 51.4364 82.9266 51.5193 82.7787C51.5562 82.7161 51.5885 82.6622 51.6205 82.6129C52.5278 82.5093 53.4302 82.4334 54.2866 82.3746C54.3603 82.3703 54.4383 82.3659 54.5261 82.352C54.3097 82.7741 54.0335 83.2454 53.7109 83.6939C53.6053 83.8467 53.4899 83.9903 53.3703 84.1336C53.2597 84.2815 53.1308 84.4075 53.0111 84.5375C52.7671 84.7887 52.514 84.9907 52.279 85.1476C52.1638 85.2284 52.0488 85.2824 51.9474 85.3362C51.8508 85.3988 51.7541 85.4259 51.6759 85.4527C51.5192 85.5067 51.4317 85.5382 51.4317 85.5382L51.4548 85.6506C51.4548 85.6506 51.5515 85.6232 51.7173 85.5831C51.8048 85.5606 51.9061 85.5382 52.0166 85.4843C52.1225 85.4347 52.2561 85.3903 52.3849 85.3139C52.6426 85.1702 52.9282 84.9772 53.2091 84.7351C53.3425 84.609 53.4946 84.4925 53.6236 84.3489C53.757 84.2099 53.8906 84.0709 54.0149 83.9182C54.5075 83.3437 54.9267 82.711 55.2258 82.2131L55.5021 82.1192C55.631 82.0652 55.7508 81.9979 55.8703 81.9354C56.2801 81.697 56.6071 81.3919 56.8604 81.0783C56.8466 81.1094 56.8374 81.1365 56.8282 81.1634C56.7084 81.455 56.5565 81.7511 56.4136 82.1059C56.2756 82.442 56.1512 82.8144 56.082 83.2049C56.0082 83.5864 56.0038 84.0215 55.99 84.3356C55.99 84.5868 55.6906 84.7935 55.3823 84.9998C55.0692 85.2018 54.7468 85.4038 54.4521 85.6325C54.162 85.8569 53.8949 86.0948 53.6739 86.3506C53.4438 86.6018 53.2688 86.8573 53.0847 87.0683C52.7254 87.4857 52.3388 87.7773 52.0349 87.8398C51.7217 87.912 51.5652 87.7773 51.5791 87.7864L51.5007 87.8714C51.5053 87.8714 51.5467 87.912 51.6389 87.9521C51.7308 87.9883 51.8828 88.0151 52.0625 87.9836C52.4307 87.9298 52.8589 87.6428 53.2688 87.221C53.4715 87.0101 53.6694 86.7723 53.8949 86.5521C54.1205 86.3283 54.3831 86.1172 54.6732 85.9243C54.9634 85.7266 55.281 85.5518 55.6171 85.3676C55.7 85.3183 55.783 85.2735 55.8659 85.2194C55.8703 85.2601 55.8703 85.2959 55.8795 85.3408C55.9072 85.5202 55.9487 85.7313 56.0178 85.9467C56.0546 86.0588 56.0915 86.171 56.1374 86.2784C56.1834 86.3865 56.248 86.512 56.2941 86.5971L56.3678 86.759L56.4046 86.8935C56.4184 86.9919 56.4184 87.0908 56.3999 87.1848C56.3678 87.3825 56.2757 87.5574 56.1835 87.6918C56.0869 87.8313 55.9856 87.9345 55.9164 88.0061C55.8427 88.0733 55.7968 88.1092 55.7968 88.1092L55.866 88.1988C55.866 88.1988 56.0778 88.0732 56.3171 87.7953C56.4368 87.6517 56.5613 87.4678 56.6255 87.2343C56.6579 87.1174 56.667 86.9918 56.6625 86.8618C56.6532 86.7944 56.6393 86.7273 56.6255 86.6598L56.5704 86.4937C56.5152 86.3682 56.4829 86.2832 56.446 86.1709C56.4184 86.0674 56.3908 85.9642 56.3678 85.8611C56.3262 85.6591 56.3035 85.462 56.2941 85.3005C56.285 85.1344 56.2894 84.9954 56.2941 84.901C56.2985 84.8785 56.2985 84.8695 56.2985 84.8517C56.3218 84.8246 56.3447 84.8022 56.3678 84.771C56.4046 84.7262 56.4321 84.6451 56.4598 84.5776C56.4967 84.497 56.4875 84.4793 56.5013 84.4254C56.552 84.0037 56.5748 83.6895 56.6579 83.3576C56.865 83.6713 57.1551 84.0395 57.505 84.358C57.5786 84.421 57.6982 84.5333 57.7443 84.6006C57.8088 84.6767 57.8596 84.7754 57.8963 84.8695C57.9746 85.0629 57.9929 85.2641 57.9746 85.4394C57.9608 85.6142 57.9193 85.758 57.887 85.8611C57.8501 85.9599 57.8274 86.009 57.8274 86.009L57.9239 86.0673C57.9239 86.0673 58.0851 85.8566 58.1864 85.4751C58.2369 85.2822 58.26 85.0397 58.2048 84.7843C58.177 84.654 58.1356 84.5285 58.0574 84.3985C57.9792 84.2549 57.9193 84.1874 57.8274 84.0662C57.5236 83.6938 57.3025 83.272 57.1645 82.9445C57.0952 82.7831 57.0492 82.6437 57.0172 82.5497C57.0079 82.509 56.9987 82.478 56.9894 82.4509C57.0033 82.424 57.0172 82.3926 57.031 82.3611C57.1736 82.0651 57.3532 81.76 57.5006 81.4548C57.528 81.401 57.5502 81.3497 57.5758 81.2965C57.9149 80.9436 58.2666 80.5486 58.2626 80.43C58.259 80.3269 58.4644 80.5055 58.6909 80.7321C58.7207 80.7995 58.7496 80.8662 58.7805 80.9345C58.7805 80.9522 58.7761 80.9614 58.7761 80.9838C58.7668 81.0825 58.7483 81.2262 58.7162 81.401C58.6562 81.7467 58.5273 82.204 58.3109 82.6306C58.2466 82.765 58.2004 82.8458 58.1544 83.003C58.1083 83.1465 58.0945 83.2765 58.0945 83.4069C58.0945 83.6714 58.1683 83.9008 58.2603 84.0797C58.44 84.4344 58.6426 84.6093 58.6426 84.6093L58.73 84.5334C58.73 84.5334 58.6931 84.4837 58.6379 84.394C58.5828 84.3042 58.5091 84.1697 58.4584 84.004C58.4078 83.8377 58.3802 83.6314 58.4123 83.4295C58.4308 83.3307 58.4584 83.2228 58.5044 83.1378C58.5322 83.0614 58.6288 82.9267 58.684 82.8459C58.9188 82.5274 59.1029 82.1776 59.2366 81.8677C59.324 82.0338 59.4162 82.2 59.4945 82.3613C59.6416 82.6711 59.7753 82.9898 59.8582 83.3215C59.9459 83.6715 59.969 83.9906 60.0194 84.4256C60.0375 84.4795 60.0286 84.4972 60.0607 84.5779C60.0885 84.6454 60.1208 84.7265 60.1574 84.7713C60.1755 84.8025 60.1987 84.8249 60.2216 84.852C60.2266 84.8697 60.2266 84.8788 60.2266 84.9012C60.2357 84.9956 60.2357 85.1348 60.2309 85.3007C60.2216 85.4622 60.1986 85.6593 60.1573 85.8613C60.1342 85.9644 60.1065 86.0677 60.0746 86.1711C60.0423 86.2835 60.01 86.3685 59.9545 86.494L59.8996 86.66C59.8854 86.7276 59.8672 86.7947 59.8623 86.8621C59.8536 86.992 59.8623 87.1177 59.8996 87.2346C59.9639 87.4681 60.0883 87.6519 60.2035 87.7956C60.4474 88.0735 60.6591 88.1991 60.6591 88.1991L60.7282 88.1094C60.7282 88.1094 60.6822 88.0734 60.6086 88.0063C60.5395 87.9346 60.438 87.8315 60.3415 87.6921C60.2447 87.5577 60.1525 87.3828 60.1207 87.1851C60.1021 87.0911 60.1065 86.9922 60.1207 86.8937L60.1573 86.7592L60.2309 86.5974C60.277 86.5122 60.3417 86.3867 60.3827 86.2787C60.4289 86.1713 60.4705 86.059 60.5073 85.947C60.5763 85.7315 60.618 85.5205 60.6453 85.341C60.6498 85.2962 60.6546 85.2603 60.6591 85.2197C60.7418 85.2736 60.8252 85.3185 60.9079 85.3679C61.2391 85.552 61.5571 85.7268 61.8473 85.9245C62.1374 86.1174 62.4045 86.3286 62.6299 86.5524C62.8555 86.7725 63.0488 87.0104 63.256 87.2213C63.6659 87.6431 64.0942 87.9301 64.4623 87.9839C64.642 88.0154 64.794 87.9886 64.8861 87.9524C64.9781 87.9122 65.0195 87.8717 65.0243 87.8717L64.9459 87.7867C64.9595 87.7776 64.8032 87.9122 64.4902 87.84C64.1816 87.7776 63.7949 87.486 63.4404 87.0685C63.2561 86.8575 63.0768 86.602 62.8507 86.3509C62.6299 86.095 62.3628 85.8572 62.0684 85.6327C61.7781 85.4041 61.4558 85.2021 61.1426 85C60.8342 84.7937 60.5347 84.587 60.5347 84.3358C60.521 84.0218 60.5166 83.5866 60.443 83.2051C60.3736 82.8147 60.2496 82.4423 60.1065 82.1061C59.9689 81.7513 59.8118 81.4552 59.697 81.1636C59.6876 81.1368 59.6789 81.1144 59.6693 81.0873C59.9226 81.3971 60.2495 81.6973 60.6547 81.9356C60.7743 81.9982 60.8941 82.0655 61.0231 82.1194C61.1148 82.151 61.2118 82.1819 61.3039 82.2134C61.594 82.7114 62.0129 83.3399 62.5102 83.9185C62.6299 84.0712 62.7679 84.2102 62.9018 84.3491C63.0306 84.4928 63.1824 84.6093 63.3157 84.7353C63.5922 84.9775 63.8821 85.1703 64.1404 85.3142C64.2692 85.3905 64.3981 85.435 64.5083 85.4845C64.6145 85.5385 64.7205 85.561 64.8032 85.5833C64.9738 85.6235 65.0703 85.6508 65.0703 85.6508L65.0934 85.5385C65.0934 85.5385 65.0057 85.5069 64.8492 85.453C64.7708 85.4261 64.6743 85.3991 64.5776 85.3365C64.4765 85.2826 64.3564 85.2285 64.2413 85.1479C64.011 84.9908 63.7582 84.7889 63.5092 84.5377C63.394 84.4079 63.2608 84.2819 63.1502 84.1338C63.035 83.9906 62.9154 83.8468 62.814 83.6942C62.4916 83.2457 62.2153 82.7744 61.9991 82.3522C62.0865 82.366 62.1603 82.3705 62.2382 82.3749C63.0902 82.4335 63.997 82.5094 64.8996 82.6131C64.9364 82.6624 64.9689 82.7162 65.0055 82.7789C65.0883 82.9269 65.1761 83.0974 65.2544 83.2951C65.291 83.3891 65.3235 83.4922 65.3554 83.5999C65.3832 83.7076 65.4061 83.8021 65.4293 83.9319L65.4705 84.1023C65.4983 84.1698 65.5214 84.2326 65.5489 84.2957C65.6181 84.408 65.6963 84.5111 65.7885 84.5918C65.9679 84.7533 66.1751 84.8473 66.35 84.9012C66.7091 85.0133 66.9581 85.0092 66.9581 85.0092L66.9673 84.8968C66.9673 84.8968 66.9072 84.8921 66.8106 84.8697C66.7091 84.852 66.571 84.8163 66.4147 84.7488C66.2579 84.6815 66.083 84.5779 65.9495 84.4346C65.8805 84.3626 65.8295 84.2733 65.7883 84.1836L65.7424 84.0531L65.7193 83.8785C65.7099 83.7795 65.6961 83.6449 65.6732 83.5284C65.6546 83.4116 65.6271 83.2951 65.5948 83.1872C65.5396 82.9941 65.4752 82.8193 65.4107 82.6667C66.1656 82.7565 66.9164 82.8644 67.6346 82.9901C67.6713 83.1337 67.7174 83.3128 67.7819 83.5196C67.8648 83.7708 67.9754 84.0625 68.1319 84.3628C68.2837 84.6636 68.4817 84.9733 68.7399 85.2382C68.8688 85.377 69.0206 85.4893 69.1494 85.5923C69.2832 85.6954 69.4027 85.8033 69.5224 85.9112C69.7525 86.1309 69.9549 86.351 70.1162 86.5483C70.4435 86.943 70.6135 87.2391 70.6135 87.2391L70.7148 87.19C70.7148 87.19 70.5675 86.8714 70.2685 86.4407C70.116 86.225 69.9324 85.9828 69.7065 85.7361C69.5962 85.6147 69.4718 85.4892 69.3429 85.3726C69.214 85.2513 69.0942 85.1439 68.9926 85.0226C68.7903 84.7714 68.6336 84.4797 68.5139 84.197C68.3987 83.9095 68.316 83.6316 68.2607 83.3892C68.2332 83.2816 68.2146 83.1829 68.2009 83.0931C69.1956 83.2817 70.1074 83.5104 70.8667 83.7707C71.5988 84.0219 72.179 84.3044 72.5524 84.5513C72.7409 84.6725 72.8837 84.7756 72.9664 84.8564C73.0586 84.937 73.1046 84.9776 73.1046 84.9776L73.1878 84.9059C73.1878 84.9059 73.1462 84.8564 73.0586 84.7666C72.9758 84.6769 72.8375 84.556 72.6533 84.4122C72.2899 84.1339 71.7141 83.7931 70.9867 83.4789C69.6651 82.9093 67.8698 82.4064 66.0049 82.0249C66.4328 81.9084 66.9164 81.8011 67.4092 81.7289C67.5977 81.6974 67.7865 81.6841 67.9707 81.6708C68.1592 81.6484 68.3391 81.6574 68.5186 81.6527C68.8732 81.6527 69.2001 81.6933 69.4764 81.7515C69.6147 81.7788 69.7342 81.828 69.8448 81.8594C69.9599 81.8862 70.0473 81.9401 70.1211 81.976C70.2685 82.0481 70.3512 82.0881 70.3512 82.0881L70.4155 81.9986C70.4155 81.9986 70.3327 81.9446 70.1852 81.8548C70.1117 81.8147 70.0241 81.7517 69.909 81.7116C69.7987 81.671 69.6742 81.6085 69.5316 81.5679C69.2459 81.4824 68.9055 81.4108 68.5326 81.375C68.3484 81.366 68.1548 81.3392 67.9613 81.3477C67.7683 81.3477 67.5704 81.3435 67.3718 81.3615C66.5801 81.4063 65.802 81.5454 65.2263 81.68C65.0885 81.7107 64.9633 81.7413 64.8485 81.7724C63.2834 81.3426 62.7876 80.4923 62.7876 80.4923C63.5921 80.7834 64.7679 80.712 65.5407 80.6168C65.5513 80.618 65.561 80.6198 65.5717 80.621C65.8575 80.6479 66.1474 80.6793 66.4419 80.7108C66.732 80.7288 67.0314 80.7466 67.3307 80.7648C67.9202 80.7824 68.5184 80.8005 69.1171 80.8186C69.7159 80.8364 70.2543 80.9036 70.8206 81.0067C71.3273 81.1098 71.8197 81.2494 72.2852 81.4289C72.3033 81.5992 72.3356 81.8189 72.3999 82.079C72.4783 82.3751 72.5889 82.7165 72.7733 83.0618C72.962 83.4031 73.2335 83.744 73.5882 83.9817C73.7631 84.1025 73.9747 84.188 74.1546 84.2597C74.3431 84.3227 74.5137 84.3901 74.6702 84.4617C74.8313 84.5381 74.9832 84.6236 75.1213 84.7087C75.255 84.8027 75.3795 84.8924 75.4853 84.9871C75.6925 85.18 75.8351 85.3681 75.9179 85.5118C76.0006 85.6512 76.0238 85.7362 76.0238 85.7362L76.1345 85.7136C76.1345 85.7136 76.0469 85.2963 75.6234 84.8567C75.5175 84.7443 75.3932 84.637 75.2594 84.5247C75.1213 84.4216 74.965 84.3184 74.7992 84.224C74.6288 84.1299 74.4538 84.0401 74.2789 83.9684C74.104 83.8829 73.9515 83.8065 73.809 83.69C73.5328 83.4699 73.3304 83.1697 73.1922 82.8644C73.0585 82.5546 72.9805 82.2408 72.9389 81.9716C72.9203 81.8636 72.9065 81.7649 72.9021 81.675C73.2333 81.8187 73.5512 81.9716 73.8688 82.1147C74.3429 82.3259 74.8129 82.5095 75.2641 82.5993C75.7154 82.7074 76.1436 82.7341 76.5117 82.7297C76.8851 82.743 77.2024 82.6848 77.4651 82.6714C77.9854 82.5817 78.28 82.5278 78.28 82.5278L78.2613 82.4199C78.2613 82.4199 77.9669 82.4471 77.4466 82.4962C77.1889 82.4872 76.8758 82.5235 76.521 82.4831C76.1668 82.4562 75.7704 82.4023 75.3564 82.2676C74.9417 82.1511 74.523 81.9491 74.0811 81.7066C73.6386 81.4689 73.1736 81.1862 72.6582 80.9441C72.1421 80.6883 71.5806 80.4771 70.9957 80.3115C70.4205 80.1543 69.7756 80.0329 69.1818 79.9657C68.5919 79.9027 68.0021 79.8402 67.4165 79.7771C67.1482 79.7376 66.7094 79.6729 66.4406 79.6331C66.2106 79.5913 65.9834 79.5511 65.7558 79.5084C65.4933 79.4546 65.2311 79.3962 64.9777 79.3332C64.2135 79.0911 63.5737 78.2833 63.0625 77.3321C63.0252 77.2515 62.9933 77.1707 62.9569 77.09C62.0343 75.0664 61.2522 72.8401 61.456 70.5935C61.5564 69.49 61.8965 68.2938 62.5671 67.3828C63.2233 66.4907 64.2179 65.8857 64.8344 64.9548C66.3959 65.4693 67.9807 65.9883 69.6264 66.0816C71.272 66.1748 73.0146 65.7917 74.2252 64.7014C75.0951 63.9191 75.6374 62.8302 76.4404 61.9969C76.6561 62.1375 76.9155 62.3004 77.2195 62.4756C78.0998 62.983 79.3341 63.5875 80.6829 63.9005C80.8481 63.947 81.0221 63.9692 81.19 64.0031C81.3487 64.0334 81.5058 64.0631 81.662 64.0925C81.8295 64.1194 81.962 64.1619 82.1001 64.2001C82.2388 64.2329 82.3756 64.2881 82.5105 64.3385C82.7807 64.4393 83.0288 64.5685 83.2559 64.7037C83.4816 64.8413 83.6814 64.9925 83.8578 65.1429C84.2062 65.448 84.4467 65.7556 84.5955 65.9794C84.6714 66.0912 84.7216 66.1831 84.7559 66.245C84.7856 66.305 84.8019 66.3371 84.8019 66.3371L85.1264 66.2226C85.1264 66.2226 85.1105 66.1808 85.0804 66.1019C85.0489 66.028 85.002 65.9205 84.9312 65.7902L84.9316 65.7905Z" fill="#97DB4F"/>
<path d="M78.2799 47.2434C82.4657 47.3125 82.6314 43.0249 82.6314 43.0249C82.6314 43.0249 78.2323 43.1646 78.2799 47.2434Z" fill="#97DB4F"/>
<path d="M67.6442 44.3973C67.6442 44.3973 65.1949 47.9612 68.622 50.3024C71.1213 47.0296 67.6442 44.3973 67.6442 44.3973Z" fill="#97DB4F"/>
<path d="M64.4417 40.7982C64.4417 40.7982 65.9362 44.8326 69.902 43.5295C68.6774 39.6279 64.4417 40.7982 64.4417 40.7982Z" fill="#97DB4F"/>
<path d="M65.5792 43.648C65.5792 43.648 61.366 42.4073 60.0706 46.2855C64.0133 47.6583 65.5792 43.648 65.5792 43.648Z" fill="#97DB4F"/>
<path d="M63.4998 39.5468C63.4998 39.5468 59.1026 39.3504 58.8225 43.4201C62.9899 43.8089 63.4998 39.5468 63.4998 39.5468Z" fill="#97DB4F"/>
<path d="M77.0754 45.3235C77.0754 45.3235 72.8617 44.0829 71.5669 47.9607C75.509 49.3335 77.0754 45.3235 77.0754 45.3235Z" fill="#97DB4F"/>
<path d="M75.7838 58.1939C75.7838 58.1939 73.9766 54.2824 70.1252 55.8777C71.6526 59.6767 75.7838 58.1939 75.7838 58.1939Z" fill="#97DB4F"/>
<path d="M76.3121 51.0879C76.3121 51.0879 74.4305 48.1914 71.5671 49.8761C73.2139 52.7144 76.3121 51.0879 76.3121 51.0879Z" fill="#97DB4F"/>
<path d="M66.7963 58.7005C68.4435 61.539 71.5417 59.9124 71.5417 59.9124C71.5417 59.9124 69.66 57.0158 66.7963 58.7005Z" fill="#97DB4F"/>
<path d="M63.8213 51.4698C63.8213 51.4698 60.1244 51.8311 60.4025 55.2632C63.9318 55.09 63.8213 51.4698 63.8213 51.4698Z" fill="#97DB4F"/>
<path d="M66.3188 51.73C66.7006 49.1606 63.9364 48.7139 63.9364 48.7139C63.9364 48.7139 63.6728 51.4315 66.3188 51.73Z" fill="#97DB4F"/>
<path d="M61.8143 48.1218C61.8143 48.1218 59.0855 48.739 59.6327 51.2791C62.2548 50.8182 61.8143 48.1218 61.8143 48.1218Z" fill="#97DB4F"/>
<path d="M77.4383 59.2749C80.0604 58.814 79.6198 56.1177 79.6198 56.1177C79.6198 56.1177 76.891 56.7348 77.4383 59.2749Z" fill="#97DB4F"/>
<path d="M73.0745 60.8539C73.0745 60.8539 70.3462 61.4711 70.8936 64.0113C73.5153 63.5503 73.0745 60.8539 73.0745 60.8539Z" fill="#97DB4F"/>
<path d="M82.2452 48.9232C85.3917 48.3699 84.863 45.1342 84.863 45.1342C84.863 45.1342 81.5887 45.8752 82.2452 48.9232Z" fill="#97DB4F"/>
<path d="M74.8608 64.7698C76.2155 67.5923 79.2902 66.2652 79.2902 66.2652C79.2902 66.2652 77.7164 63.3704 74.8608 64.7698Z" fill="#97DB4F"/>
<path d="M80.4331 64.6401C78.7291 67.2764 81.5371 69.0796 81.5371 69.0796C81.5371 69.0796 83.1849 66.2244 80.4331 64.6401Z" fill="#97DB4F"/>
<path d="M79.6198 38.8455C79.6198 38.8455 76.891 39.4631 77.4383 42.0031C80.0604 41.5422 79.6198 38.8455 79.6198 38.8455Z" fill="#97DB4F"/>
<path d="M80.4724 62.7587C82.5468 63.0794 82.9377 60.9609 82.9377 60.9609C82.9377 60.9609 80.7422 60.7296 80.4724 62.7587Z" fill="#97DB4F"/>
<path d="M80.9258 59.3651C83 59.6858 83.391 57.5673 83.391 57.5673C83.391 57.5673 81.1955 57.336 80.9258 59.3651Z" fill="#97DB4F"/>
<path d="M60.9684 57.712C60.9684 57.712 60.5702 60.4145 63.198 60.8375C63.7069 58.2891 60.9684 57.712 60.9684 57.712Z" fill="#97DB4F"/>
<path d="M39.6276 46.506C39.6756 42.4279 35.2764 42.2876 35.2764 42.2876C35.2764 42.2876 35.4416 46.5754 39.6276 46.506Z" fill="#97DB4F"/>
<path d="M48.7145 50.3024C52.1414 47.9613 49.6918 44.3973 49.6918 44.3973C49.6918 44.3973 46.2145 47.0295 48.7145 50.3024Z" fill="#97DB4F"/>
<path d="M52.8941 40.7983C52.8941 40.7983 48.6582 39.6278 47.4337 43.5295C51.3995 44.8328 52.8941 40.7983 52.8941 40.7983Z" fill="#97DB4F"/>
<path d="M51.7563 43.6479C51.7563 43.6479 53.3224 47.6583 57.265 46.2855C55.9698 42.4071 51.7563 43.6479 51.7563 43.6479Z" fill="#97DB4F"/>
<path d="M54.0706 40.0056C54.0706 40.0056 54.3806 42.5979 56.9154 42.3614C56.7453 39.886 54.0706 40.0056 54.0706 40.0056Z" fill="#97DB4F"/>
<path d="M45.7695 47.9608C44.4742 44.0828 40.2607 45.3236 40.2607 45.3236C40.2607 45.3236 41.8269 49.3336 45.7695 47.9608Z" fill="#97DB4F"/>
<path d="M41.5521 58.1939C41.5521 58.1939 45.6837 59.6768 47.2109 55.8777C43.3592 54.2823 41.5521 58.1939 41.5521 58.1939Z" fill="#97DB4F"/>
<path d="M46.2299 49.8761C43.3663 48.1913 41.4847 51.088 41.4847 51.088C41.4847 51.088 44.5826 52.7144 46.2299 49.8761Z" fill="#97DB4F"/>
<path d="M50.54 58.7007C47.6763 57.0159 45.7948 59.9126 45.7948 59.9126C45.7948 59.9126 48.8927 61.5391 50.54 58.7007Z" fill="#97DB4F"/>
<path d="M52.794 51.0586C52.794 51.0586 52.6833 54.6789 56.213 54.8519C56.4909 51.4198 52.794 51.0586 52.794 51.0586Z" fill="#97DB4F"/>
<path d="M53.3992 48.7137C53.3992 48.7137 50.6347 49.1606 51.0165 51.7299C53.6626 51.4314 53.3992 48.7137 53.3992 48.7137Z" fill="#97DB4F"/>
<path d="M54.3807 47.1171C54.3807 47.1171 53.9401 49.8135 56.562 50.275C57.1094 47.7343 54.3807 47.1171 54.3807 47.1171Z" fill="#97DB4F"/>
<path d="M39.8973 59.2748C40.4445 56.7346 37.716 56.1176 37.716 56.1176C37.716 56.1176 37.2752 58.8139 39.8973 59.2748Z" fill="#97DB4F"/>
<path d="M44.2607 60.8539C44.2607 60.8539 43.8201 63.5503 46.4422 64.0113C46.9894 61.4711 44.2607 60.8539 44.2607 60.8539Z" fill="#97DB4F"/>
<path d="M35.0906 48.9232C35.7471 45.8752 32.4728 45.1342 32.4728 45.1342C32.4728 45.1342 31.9441 48.3698 35.0906 48.9232Z" fill="#97DB4F"/>
<path d="M55.7932 33.1846C56.4218 30.2668 53.4492 29.4634 53.1934 29.4H53.1749C53.1558 29.5255 52.7102 32.643 55.7932 33.1846Z" fill="#97DB4F"/>
<path d="M42.4749 64.7698C39.6193 63.3704 38.0458 66.2652 38.0458 66.2652C38.0458 66.2652 41.1201 67.5922 42.4749 64.7698Z" fill="#97DB4F"/>
<path d="M35.7991 69.0798C35.7991 69.0798 38.6069 67.2767 36.9028 64.6404C34.151 66.2245 35.7991 69.0798 35.7991 69.0798Z" fill="#97DB4F"/>
<path d="M39.1142 42.0031C39.6615 39.4631 36.9327 38.8455 36.9327 38.8455C36.9327 38.8455 36.4921 41.5422 39.1142 42.0031Z" fill="#97DB4F"/>
<path d="M41.8371 39.7156C42.3843 37.1754 39.6556 36.5582 39.6556 36.5582C39.6556 36.5582 39.215 39.2549 41.8371 39.7156Z" fill="#97DB4F"/>
<path d="M47.6053 32.7606C47.6053 32.7606 45.2682 34.8666 47.2767 37.0726C49.5964 35.1794 47.6053 32.7606 47.6053 32.7606Z" fill="#97DB4F"/>
<path d="M50.961 30.3096C50.961 30.3096 48.6236 32.4154 50.6324 34.6218C52.9518 32.7288 50.961 30.3096 50.961 30.3096Z" fill="#97DB4F"/>
<path d="M36.8631 62.7587C36.5933 60.7295 34.3977 60.9609 34.3977 60.9609C34.3977 60.9609 34.7885 63.0794 36.8631 62.7587Z" fill="#97DB4F"/>
<path d="M33.9453 57.5673C33.9453 57.5673 34.3361 59.6858 36.4107 59.3651C36.1411 57.3359 33.9453 57.5673 33.9453 57.5673Z" fill="#97DB4F"/>
<path d="M54.329 60.3762C56.8385 59.6749 56.1379 57.0881 56.1379 57.0881C56.1379 57.0881 53.5382 57.9508 54.329 60.3762Z" fill="#97DB4F"/>
<path d="M70.5351 40.8145C71.9253 36.9665 67.8028 35.4591 67.8028 35.4591C67.8028 35.4591 66.5495 39.5707 70.5351 40.8145Z" fill="#97DB4F"/>
<path d="M75.7836 36.464C75.7836 36.464 71.3916 36.7404 71.5726 40.8149C75.7589 40.7546 75.7836 36.464 75.7836 36.464Z" fill="#97DB4F"/>
<path d="M71.9094 41.7366C73.7618 45.3953 77.7495 43.5763 77.7495 43.5763C77.7495 43.5763 75.6083 39.8287 71.9094 41.7366Z" fill="#97DB4F"/>
<path d="M80.6687 54.0517C82.0585 50.2032 77.9365 48.6957 77.9365 48.6957C77.9365 48.6957 76.6827 52.8076 80.6687 54.0517Z" fill="#97DB4F"/>
<path d="M81.7062 54.0518C85.892 53.991 85.9173 49.7006 85.9173 49.7006C85.9173 49.7006 81.5248 49.9772 81.7062 54.0518Z" fill="#97DB4F"/>
<path d="M82.0432 54.9732C83.896 58.632 87.8831 56.8133 87.8831 56.8133C87.8831 56.8133 85.7427 53.0654 82.0432 54.9732Z" fill="#97DB4F"/>
<path d="M87.7366 57.2582C87.7366 57.2582 85.3287 57.4643 85.4811 59.6992C87.7782 59.6141 87.7366 57.2582 87.7366 57.2582Z" fill="#97DB4F"/>
<path d="M85.6902 60.2153C86.5663 62.2867 88.8206 61.4336 88.8206 61.4336C88.8206 61.4336 87.7893 59.303 85.6902 60.2153Z" fill="#97DB4F"/>
<path d="M85.2759 60.5693C83.7323 62.23 85.4903 63.8474 85.4903 63.8474C85.4903 63.8474 87.022 62.0254 85.2759 60.5693Z" fill="#97DB4F"/>
<path d="M89.523 63.2309C89.5119 63.2285 85.9851 62.4527 85.1509 65.7089C88.4561 66.6104 89.512 63.2666 89.523 63.2317V63.2309Z" fill="#97DB4F"/>
<path d="M85.2068 66.5399C85.4836 69.8913 89.1053 69.6803 89.1053 69.6803C89.1053 69.6803 88.6356 66.1751 85.2068 66.5399Z" fill="#97DB4F"/>
<path d="M83.2085 71.6386C83.2085 71.6386 86.2556 69.7215 84.4465 66.8596C81.4591 68.541 83.2085 71.6386 83.2085 71.6386Z" fill="#97DB4F"/>
<path d="M47.4733 40.8506C51.64 40.4686 51.3206 36.1907 51.3206 36.1907C51.3206 36.1907 46.9625 36.8012 47.4733 40.8506Z" fill="#97DB4F"/>
<path d="M46.4594 40.634C47.5332 36.6917 43.3038 35.5037 43.3038 35.5037C43.3038 35.5037 42.3841 39.6995 46.4594 40.634Z" fill="#97DB4F"/>
<path d="M39.8187 42.04C39.8187 42.04 43.3133 44.6502 45.9277 41.4634C42.7346 38.8271 39.8187 42.04 39.8187 42.04Z" fill="#97DB4F"/>
<path d="M65.2578 36.355C65.2578 36.355 61.1518 34.8057 59.5603 38.5793C63.3847 40.2365 65.2578 36.355 65.2578 36.355Z" fill="#97DB4F"/>
<path d="M58.7861 37.9061C61.7047 34.9832 58.6157 31.9275 58.6157 31.9275C58.6157 31.9275 55.7036 35.1455 58.7861 37.9061Z" fill="#97DB4F"/>
<path d="M57.9053 38.3753C56.4483 34.5522 52.2905 35.9598 52.2905 35.9598C52.2905 35.9598 54.0239 39.9043 57.9053 38.3753Z" fill="#97DB4F"/>
<path d="M37.1178 54.3706C41.1761 53.3737 40.1909 49.1929 40.1909 49.1929C40.1909 49.1929 35.9795 50.4445 37.1178 54.3706Z" fill="#97DB4F"/>
<path d="M36.0829 54.3065C36.5269 50.2513 32.1611 49.7058 32.1611 49.7058C32.1611 49.7058 31.9089 53.9892 36.0829 54.3065Z" fill="#97DB4F"/>
<path d="M35.6866 55.2062C32.1181 53.0753 29.7391 56.684 29.7391 56.684C29.7391 56.684 33.6016 58.7441 35.6866 55.2062Z" fill="#97DB4F"/>
</svg>
