<svg width="24" height="25" viewBox="0 0 24 25" fill="none" xmlns="http://www.w3.org/2000/svg">
<g clip-path="url(#clip0_650_1100)">
<path d="M23.65 11.4732C23.1311 12.122 22.2104 12.2608 21.528 11.8173L19.733 14.0636L18.415 13.3839L17.123 12.7178L19.2789 10.0201C18.6957 9.45249 18.6278 8.52396 19.1467 7.87467C19.6984 7.18382 20.7062 7.07121 21.3971 7.62345C21.8063 7.95011 22.0127 8.43717 21.998 8.92332C22.4692 8.80192 22.989 8.89567 23.3983 9.22233C24.0891 9.77457 24.2017 10.7824 23.65 11.4732Z" fill="#FFDBA9"/>
<path d="M23.65 11.4732C23.1311 12.122 22.2104 12.2608 21.528 11.8173L19.733 14.0636L18.415 13.3839L21.998 8.9233C22.4692 8.8019 22.989 8.89565 23.3983 9.22231C24.0891 9.77455 24.2017 10.7824 23.65 11.4732Z" fill="#FFBDAD"/>
<path d="M17.779 16.6076V18.0139H1.5954L1.5791 17.3276C1.57819 17.2822 1.57764 17.2362 1.57764 17.1902C1.57764 12.5463 5.34119 8.76538 9.97852 8.73682H10.0311C11.3886 8.73682 12.7386 9.06677 13.9352 9.69061C15.0927 10.2945 16.1104 11.1734 16.8781 12.2323L16.309 12.6448L17.5578 16.6076H17.779Z" fill="#FF9A00"/>
<path d="M17.779 16.6076V18.0139H9.97852V8.73682H10.0311C11.3886 8.73682 12.7386 9.06677 13.9352 9.69061C15.0927 10.2945 16.1104 11.1734 16.8781 12.2323L16.309 12.6448L17.5578 16.6076H17.779Z" fill="#E67500"/>
<path d="M21.9528 18.0137H10.5093L10.5135 17.3064C10.5219 15.7863 11.1205 14.3578 12.1986 13.2854C13.2778 12.2124 14.7097 11.6213 16.2313 11.6213C17.7529 11.6213 19.185 12.2124 20.2635 13.2854C21.3416 14.3578 21.9402 15.7863 21.9486 17.3064L21.9528 18.0137Z" fill="#FF9A00"/>
<path d="M21.9529 18.0137H16.2314V11.6213C17.7531 11.6213 19.1851 12.2124 20.2636 13.2854C21.3417 14.3578 21.9403 15.7863 21.9487 17.3064L21.9529 18.0137Z" fill="#E67500"/>
<path d="M8.88369 7.00507L8.02895 5.88831L8.02053 5.8949C8.02217 5.89362 8.18111 5.76196 8.26076 5.55963C8.31807 5.41425 8.36348 5.17731 8.09615 4.80084C7.17897 3.50958 7.80153 2.25952 8.44368 1.73438L9.33394 2.82294L9.34127 2.81689C9.33962 2.81818 9.17098 2.96631 9.08437 3.19006C9.02266 3.34955 8.97213 3.60571 9.24257 3.98657C10.1687 5.29065 9.53536 6.5061 8.88369 7.00507Z" fill="#FFDBA9"/>
<path d="M11.6917 7.0354L10.837 5.91882L10.8287 5.92542C10.8302 5.92413 10.9891 5.7923 11.0688 5.59015C11.1263 5.44458 11.1715 5.20764 10.9042 4.83136C9.98718 3.5401 10.6096 2.29004 11.2517 1.76489L12.142 2.85327L12.1493 2.84723C12.1476 2.84869 11.979 2.99683 11.8926 3.22058C11.8309 3.38007 11.7801 3.63605 12.0506 4.01709C12.9767 5.32098 12.3434 6.53662 11.6917 7.0354Z" fill="#FFBDAD"/>
<path d="M0 16.6074H24V19.2714H0V16.6074Z" fill="#B38A65"/>
<path d="M11.479 16.6074H23.9999V19.2714H11.479V16.6074Z" fill="#8A6746"/>
<path d="M5.92859 15.4277V16.6074H3.12543C1.40222 16.6074 0 15.2054 0 13.4822V12.3022H2.80334C4.52692 12.3022 5.92859 13.7045 5.92859 15.4277Z" fill="#60DD4E"/>
<path d="M5.92859 15.4277V16.6074L0 12.3022H2.80334C4.52692 12.3022 5.92859 13.7045 5.92859 15.4277Z" fill="#00AD00"/>
<path d="M7.76581 14.8804C7.76581 15.8323 6.99091 16.6072 6.03839 16.6072C5.08643 16.6072 4.31152 15.8323 4.31152 14.8804C4.31152 13.928 5.08643 13.1533 6.03839 13.1533C6.99091 13.1533 7.76581 13.928 7.76581 14.8804Z" fill="#FF7A53"/>
<path d="M7.7655 14.8804C7.7655 15.8323 6.9906 16.6072 6.03809 16.6072V13.1533C6.9906 13.1533 7.7655 13.928 7.7655 14.8804Z" fill="#FF3B62"/>
</g>
<defs>
<clipPath id="clip0_650_1100">
<rect width="24" height="24" fill="white" transform="translate(0 0.5)"/>
</clipPath>
</defs>
</svg>
