<svg width="17" height="17" viewBox="0 0 17 17" fill="none" xmlns="http://www.w3.org/2000/svg">
<path d="M13.4789 6.92265L15.7555 4.78047L15.7688 4.76719C16.2376 4.29829 16.5011 3.66233 16.5011 2.99922C16.5011 2.3361 16.2376 1.70014 15.7688 1.23125C15.2999 0.762354 14.6639 0.498932 14.0008 0.498932C13.3377 0.498932 12.7017 0.762354 12.2328 1.23125C12.2328 1.23594 12.2242 1.23984 12.2195 1.24453L10.0773 3.52109L3.59297 1.16172C3.48121 1.12107 3.36018 1.11315 3.24407 1.13889C3.12797 1.16463 3.02162 1.22296 2.93751 1.30703L1.06251 3.18203C0.997169 3.24742 0.94715 3.32649 0.916052 3.41354C0.884955 3.50058 0.873554 3.59345 0.88267 3.68544C0.891787 3.77742 0.921194 3.86624 0.968773 3.94549C1.01635 4.02474 1.08092 4.09246 1.15782 4.14375L6.14922 7.47109L4.99141 8.625H3.37501C3.20947 8.62508 3.05072 8.69082 2.9336 8.80781L1.0586 10.6828C0.985476 10.7558 0.93157 10.8457 0.901702 10.9446C0.871835 11.0434 0.866936 11.1482 0.887445 11.2494C0.907954 11.3506 0.953231 11.4452 1.01923 11.5246C1.08522 11.6041 1.16988 11.666 1.26563 11.7047L4.14219 12.8555L5.29063 15.7266L5.29532 15.7391C5.33505 15.8352 5.39816 15.92 5.47893 15.9856C5.5597 16.0512 5.65557 16.0956 5.75784 16.1147C5.86011 16.1339 5.96556 16.1272 6.0646 16.0953C6.16364 16.0634 6.25315 16.0073 6.32501 15.932L8.18985 14.0664C8.2482 14.0086 8.29459 13.9399 8.32636 13.8641C8.35813 13.7884 8.37466 13.7071 8.37501 13.625V12.0086L9.52813 10.8555L12.8555 15.8469C12.9068 15.9238 12.9745 15.9883 13.0537 16.0359C13.133 16.0835 13.2218 16.1129 13.3138 16.122C13.4058 16.1311 13.4986 16.1197 13.5857 16.0886C13.6727 16.0575 13.7518 16.0075 13.8172 15.9422L15.6922 14.0672C15.7763 13.9831 15.8346 13.8767 15.8603 13.7606C15.8861 13.6445 15.8782 13.5235 15.8375 13.4117L13.4789 6.92265ZM13.4734 14.5187L10.1461 9.52812C10.0951 9.45064 10.0275 9.38548 9.94815 9.33737C9.86883 9.28926 9.7798 9.25942 9.68751 9.25C9.66641 9.25 9.6461 9.25 9.62579 9.25C9.54363 9.25004 9.46229 9.26627 9.38642 9.29777C9.31054 9.32928 9.24162 9.37543 9.1836 9.43359L7.3086 11.3086C7.19132 11.4256 7.12529 11.5843 7.12501 11.75V13.3664L6.10391 14.3875L5.20547 12.1406C5.17404 12.0626 5.12718 11.9918 5.06772 11.9323C5.00825 11.8728 4.93739 11.826 4.85938 11.7945L2.61407 10.8961L3.63438 9.875H5.25001C5.33211 9.87506 5.41341 9.85895 5.48929 9.82758C5.56516 9.79622 5.63411 9.75021 5.69219 9.69219L7.56719 7.81719C7.63267 7.75179 7.68281 7.67268 7.714 7.58555C7.74518 7.49842 7.75662 7.40545 7.7475 7.31336C7.73838 7.22127 7.70893 7.13235 7.66126 7.05303C7.6136 6.97371 7.54891 6.90597 7.47188 6.85469L2.48126 3.52656L3.53594 2.47265L10.0375 4.83672C10.1521 4.87881 10.2764 4.88644 10.3953 4.85868C10.5141 4.83091 10.6222 4.76896 10.7063 4.68047L13.1234 2.10937C13.359 1.88066 13.6752 1.75384 14.0035 1.75631C14.3319 1.75878 14.6461 1.89035 14.8782 2.12258C15.1103 2.35482 15.2418 2.66907 15.2441 2.99741C15.2464 3.32576 15.1194 3.64184 14.8906 3.87734L12.3227 6.29375C12.2342 6.37779 12.1722 6.4859 12.1445 6.60474C12.1167 6.72358 12.1243 6.84795 12.1664 6.9625L14.5305 13.4641L13.4734 14.5187Z" fill="white"/>
</svg>
