<svg width="102" height="102" viewBox="0 0 102 102" fill="none" xmlns="http://www.w3.org/2000/svg">
<path d="M50.2612 81.6959C49.6031 81.6959 49.0693 81.1623 49.0693 80.5039V69.4551C49.0693 68.7967 49.6029 68.2632 50.2612 68.2632C50.9196 68.2632 51.4532 68.7967 51.4532 69.4551V80.5039C51.4532 81.1623 50.9194 81.6959 50.2612 81.6959Z" fill="#0A5B36"/>
<path d="M62.6079 82.1574C61.9496 82.1574 61.416 81.6238 61.416 80.9655V63.7097C61.416 63.0514 61.9496 62.5178 62.6079 62.5178C63.2663 62.5178 63.7998 63.0514 63.7998 63.7097V80.9653C63.7997 81.6238 63.2661 82.1574 62.6079 82.1574Z" fill="#0A5B36"/>
<path d="M49.424 71.3623C55.3174 71.3623 60.095 66.5847 60.095 60.6913C60.095 54.7978 55.3174 50.0203 49.424 50.0203C43.5305 50.0203 38.7529 54.7978 38.7529 60.6913C38.7529 66.5847 43.5305 71.3623 49.424 71.3623Z" fill="#0F7A4F"/>
<path d="M60.0954 60.6917C60.0954 66.5845 55.3171 71.3628 49.4244 71.3628C46.9099 71.3628 44.5985 70.4928 42.7744 69.037C43.7317 69.3196 44.7445 69.4704 45.7937 69.4704C51.6865 69.4704 56.4632 64.6921 56.4632 58.7994C56.4632 55.4211 54.8931 52.4082 52.4437 50.4541C56.8665 51.7559 60.0954 55.8468 60.0954 60.6917Z" fill="#0C6842"/>
<path d="M65.8839 45.8677C71.7774 45.8677 76.5549 41.0901 76.5549 35.1967C76.5549 29.3032 71.7774 24.5256 65.8839 24.5256C59.9905 24.5256 55.2129 29.3032 55.2129 35.1967C55.2129 41.0901 59.9905 45.8677 65.8839 45.8677Z" fill="#158F5E"/>
<path d="M76.556 35.1964C76.556 41.0891 71.7777 45.8674 65.8849 45.8674C65.0324 45.8674 64.2038 45.7674 63.4102 45.5785C68.1091 44.4609 71.6046 40.2366 71.6046 35.1964C71.6046 30.1546 68.1091 25.9303 63.4102 24.8143C64.2039 24.6254 65.0326 24.5254 65.8849 24.5254C71.7777 24.5254 76.556 29.3021 76.556 35.1964Z" fill="#0F7A4F"/>
<path d="M79.8614 60.4019C85.7549 60.4019 90.5325 55.6243 90.5325 49.7308C90.5325 43.8374 85.7549 39.0598 79.8614 39.0598C73.968 39.0598 69.1904 43.8374 69.1904 49.7308C69.1904 55.6243 73.968 60.4019 79.8614 60.4019Z" fill="#158F5E"/>
<path d="M90.532 49.7318C90.532 55.6245 85.7538 60.4028 79.861 60.4028C78.891 60.4028 77.9512 60.2727 77.0576 60.0298C82.2868 59.3408 86.3221 54.8673 86.3221 49.4508C86.3221 44.5281 82.9885 40.3832 78.4546 39.1529C78.915 39.0925 79.3849 39.0608 79.8612 39.0608C85.7538 39.0608 90.532 43.8375 90.532 49.7318Z" fill="#0F7A4F"/>
<path d="M67.5923 81.6961C66.934 81.6961 66.4004 81.1625 66.4004 80.5041V64.5894C66.4004 63.931 66.934 63.3975 67.5923 63.3975C68.2506 63.3975 68.7842 63.931 68.7842 64.5894V80.5041C68.7842 81.1625 68.2506 81.6961 67.5923 81.6961Z" fill="#0F7A4F"/>
<path d="M73.0115 68.6886C68.4111 68.6886 64.6816 64.9592 64.6816 60.3587V42.1404C64.6816 37.54 68.4111 33.8105 73.0115 33.8105C77.612 33.8105 81.3414 37.54 81.3414 42.1404V60.3586C81.3414 64.9592 77.612 68.6886 73.0115 68.6886Z" fill="#D2F0A2"/>
<path d="M81.3422 42.1401V60.3579C81.3422 64.9584 77.6117 68.6889 73.0112 68.6889C72.3047 68.6889 71.6189 68.6016 70.9648 68.4349C74.5763 67.5237 77.2497 64.252 77.2497 60.3579V42.1401C77.2497 39.8398 76.3178 37.7571 74.8097 36.2506C73.7651 35.206 72.4444 34.4376 70.9648 34.0646C71.6189 33.8979 72.3047 33.8105 73.0112 33.8105C75.3115 33.8105 77.3942 34.7424 78.9023 36.2506C80.4103 37.7571 81.3422 39.84 81.3422 42.1401Z" fill="#BCEA73"/>
<path d="M76.4949 56.4263C76.0293 55.961 75.2747 55.961 74.8093 56.4263L74.2044 57.0311V54.4274C74.2044 54.4273 74.2044 54.427 74.2044 54.4267V49.7671C74.2044 49.1088 73.6709 48.5752 73.0125 48.5752C72.3542 48.5752 71.8206 49.1088 71.8206 49.7671V51.5494L70.6187 50.3473C70.1532 49.8819 69.3985 49.8817 68.9332 50.3472C68.4676 50.8127 68.4676 51.5674 68.9331 52.0327L71.8208 54.9205V59.9077V59.9093V79.8577C71.8208 80.516 72.3543 81.0496 73.0127 81.0496C73.671 81.0496 74.2046 80.516 74.2046 79.8577V60.4024L76.4951 58.1119C76.9602 57.6465 76.9602 56.8919 76.4949 56.4263Z" fill="#A3E440"/>
<path d="M30.5828 47.8454C25.9823 47.8454 22.2529 44.116 22.2529 39.5155V27.8548C22.2529 23.2543 25.9823 19.5249 30.5828 19.5249C35.1833 19.5249 38.9127 23.2543 38.9127 27.8548V39.5155C38.9129 44.116 35.1833 47.8454 30.5828 47.8454Z" fill="#D2F0A2"/>
<path d="M38.9123 27.8544V39.5161C38.9123 44.1165 35.1834 47.8456 30.5829 47.8456C29.7955 47.8456 29.0319 47.7361 28.3096 47.5313C31.8051 46.5423 34.3658 43.3293 34.3658 39.5162V27.8546C34.3658 25.5542 33.4339 23.4716 31.926 21.965C30.9353 20.9728 29.6955 20.2314 28.3097 19.8395C29.0321 19.6347 29.7957 19.5251 30.5831 19.5251C32.8834 19.5251 34.9661 20.457 36.4726 21.965C37.9805 23.4714 38.9123 25.5542 38.9123 27.8544Z" fill="#BCEA73"/>
<path d="M34.0652 35.5829C33.5998 35.1176 32.8451 35.1176 32.3798 35.5829L31.7748 36.1879V33.584C31.7748 33.584 31.7748 33.5835 31.7748 33.5832V28.9238C31.7748 28.2655 31.2412 27.7319 30.5829 27.7319C29.9245 27.7319 29.3909 28.2655 29.3909 28.9238V30.7062L28.1889 29.5039C27.7234 29.0386 26.9687 29.0386 26.5034 29.5039C26.0379 29.9695 26.0379 30.7241 26.5034 31.1896L29.3911 34.0773V39.065V39.0657V80.9654C29.3911 81.6238 29.9247 82.1574 30.583 82.1574C31.2414 82.1574 31.7749 81.6238 31.7749 80.9654V39.5591L34.0654 37.2687C34.5307 36.803 34.5307 36.0485 34.0652 35.5829Z" fill="#A3E440"/>
<path d="M42.2605 63.1862C49.2453 63.1862 54.9076 57.5239 54.9076 50.539C54.9076 43.5542 49.2453 37.8918 42.2605 37.8918C35.2756 37.8918 29.6133 43.5542 29.6133 50.539C29.6133 57.5239 35.2756 63.1862 42.2605 63.1862Z" fill="#1CA56F"/>
<path d="M54.9088 50.5382C54.9088 57.5232 49.2463 63.1856 42.2615 63.1856C40.2565 63.1856 38.3611 62.7188 36.6768 61.887C42.5584 60.8011 47.0144 55.6466 47.0144 49.4508C47.0144 44.4709 44.1364 40.1641 39.9533 38.1019C40.701 37.9638 41.4725 37.8923 42.2615 37.8923C49.2463 37.8923 54.9088 43.5549 54.9088 50.5382Z" fill="#158F5E"/>
<path d="M45.9649 44.7542C45.4995 44.2889 44.7448 44.2887 44.2795 44.7544L43.4532 45.5805V44.2046C43.4532 43.5463 42.9196 43.0127 42.2613 43.0127C41.6029 43.0127 41.0693 43.5463 41.0693 44.2046V56.8188C41.0693 57.4771 41.6029 58.0107 42.2613 58.0107C42.9196 58.0107 43.4532 57.4771 43.4532 56.8188V48.9515L45.9649 46.4395C46.4304 45.9742 46.4304 45.2198 45.9649 44.7542Z" fill="#0F7A4F"/>
<path d="M42.2613 82.1577C41.6031 82.1577 41.0693 81.6241 41.0693 80.9657V69.648C41.0693 68.9896 41.6029 68.4561 42.2613 68.4561C42.9196 68.4561 43.4532 68.9896 43.4532 69.648V80.9657C43.4532 81.6241 42.9196 82.1577 42.2613 82.1577Z" fill="#0F7A4F"/>
<path d="M65.8828 53.2425C65.8828 67.8996 62.1223 67.6382 57.4834 67.6382C52.8445 67.6382 49.084 67.8996 49.084 53.2425C49.084 38.5854 53.8239 22.0486 57.4834 22.0486C61.143 22.0486 65.8828 38.5854 65.8828 53.2425Z" fill="#A3E440"/>
<path d="M65.8828 53.2425C65.8828 67.8996 62.1223 67.6382 57.4834 67.6382C52.8445 67.6382 49.084 67.8996 49.084 53.2425C49.084 38.5854 53.8239 22.0486 57.4834 22.0486C61.143 22.0486 65.8828 38.5854 65.8828 53.2425Z" fill="#A3E440"/>
<path d="M65.8831 53.2424C65.8831 67.9004 62.1236 67.6383 57.4845 67.6383C56.729 67.6383 55.9953 67.6456 55.2979 67.5927C58.8753 67.3268 61.5098 65.508 61.5098 53.2424C61.5098 41.4009 58.4148 28.3343 55.2979 23.7499C56.0389 22.6592 56.7817 22.0493 57.4845 22.0493C61.1439 22.0495 65.8831 38.5864 65.8831 53.2424Z" fill="#99D53B"/>
<path d="M62.5418 54.7871C62.0762 54.3218 61.3216 54.3218 60.8562 54.7871L58.6752 56.9681V52.4049C58.6752 52.4044 58.6752 52.4038 58.6752 52.4033V47.0349C58.6752 46.3766 58.1417 45.843 57.4833 45.843C56.825 45.843 56.2914 46.3766 56.2914 47.0349V49.5265L54.5963 47.8314C54.1306 47.3661 53.3761 47.3661 52.9106 47.8314C52.4452 48.297 52.4452 49.0516 52.9106 49.517L56.2914 52.8978V59.8448V59.8464V80.5041C56.2914 81.1624 56.825 81.696 57.4833 81.696C58.1417 81.696 58.6752 81.1624 58.6752 80.5041V60.3393L62.5418 56.4728C63.0073 56.0073 63.0073 55.2528 62.5418 54.7871Z" fill="#88BA31"/>
<path d="M11.6357 63.9382C11.6357 75.2277 16.7244 75.0262 23.0015 75.0262C29.2785 75.0262 34.3672 75.2277 34.3672 63.9382C34.3672 52.6486 27.9534 39.9116 23.0015 39.9116C18.0495 39.9116 11.6357 52.6486 11.6357 63.9382Z" fill="#A3E440"/>
<path d="M11.6357 63.9382C11.6357 75.2277 16.7244 75.0262 23.0015 75.0262C29.2785 75.0262 34.3672 75.2277 34.3672 63.9382C34.3672 52.6486 27.9534 39.9116 23.0015 39.9116C18.0495 39.9116 11.6357 52.6486 11.6357 63.9382Z" fill="#99D53B"/>
<path d="M34.3661 63.938C34.3661 75.2282 29.2783 75.0266 23.0014 75.0266C22.1854 75.0266 21.3916 75.0297 20.625 75.0107C25.7605 74.8853 29.6132 73.7613 29.6132 63.938C29.6132 54.3973 25.0334 43.8231 20.625 40.7768C21.4331 40.2164 22.2348 39.9116 23.0014 39.9116C27.9529 39.9116 34.3661 52.648 34.3661 63.938Z" fill="#8DC637"/>
<path d="M45.2051 64.3625C45.2051 72.7056 41.4446 72.5567 36.8057 72.5567C32.1668 72.5567 28.4062 72.7056 28.4062 64.3625C28.4062 56.0194 33.1461 46.6067 36.8057 46.6067C40.4652 46.6067 45.2051 56.0194 45.2051 64.3625Z" fill="#A3E440"/>
<path d="M45.2051 64.3625C45.2051 72.7056 41.4446 72.5567 36.8057 72.5567C32.1668 72.5567 28.4062 72.7056 28.4062 64.3625C28.4062 56.0194 33.1461 46.6067 36.8057 46.6067C40.4652 46.6067 45.2051 56.0194 45.2051 64.3625Z" fill="#A3E440"/>
<path d="M45.2039 64.3617C45.2039 72.7054 41.4448 72.5562 36.8046 72.5562C35.9394 72.5562 35.106 72.5609 34.3203 72.5149C37.746 72.3165 40.2353 71.1496 40.2353 64.3617C40.2353 57.8355 37.335 50.6555 34.3203 47.836C35.1585 47.0518 36.0078 46.6057 36.8046 46.6057C40.4653 46.6059 45.2039 56.0196 45.2039 64.3617Z" fill="#99D53B"/>
<path d="M41.8637 62.164C41.3984 61.6987 40.6437 61.6987 40.1782 62.164L37.9971 64.3451V58.51C37.9971 57.8517 37.4635 57.3181 36.8052 57.3181C36.1468 57.3181 35.6133 57.8517 35.6133 58.51V67.2222V67.223V80.5041C35.6133 81.1624 36.1468 81.696 36.8052 81.696C37.4635 81.696 37.9971 81.1624 37.9971 80.5041V67.7162L41.8637 63.8497C42.3291 63.3842 42.3291 62.6297 41.8637 62.164Z" fill="#88BA31"/>
<path d="M89.9723 68.427C89.9723 74.4399 87.2621 74.3328 83.9188 74.3328C80.5755 74.3328 77.8652 74.4401 77.8652 68.427C77.8652 62.4139 81.2813 55.6301 83.9188 55.6301C86.5563 55.6301 89.9723 62.4141 89.9723 68.427Z" fill="#A3E440"/>
<path d="M89.9723 68.427C89.9723 74.4399 87.2621 74.3328 83.9188 74.3328C80.5755 74.3328 77.8652 74.4401 77.8652 68.427C77.8652 62.4139 81.2813 55.6301 83.9188 55.6301C86.5563 55.6301 89.9723 62.4141 89.9723 68.427Z" fill="#A3E440"/>
<path d="M89.9726 68.4272C89.9726 74.439 87.2612 74.3326 83.9179 74.3326C83.2067 74.3326 82.524 74.3374 81.8906 74.2866C84.237 74.1009 85.9148 73.1595 85.9148 68.4272C85.9148 63.895 83.9749 58.9262 81.8906 56.7513C82.5701 56.0401 83.267 55.6289 83.9179 55.6289C86.5564 55.6291 89.9726 62.4138 89.9726 68.4272Z" fill="#99D53B"/>
<path d="M87.0681 67.3379C86.6028 66.8726 85.8481 66.8725 85.3826 67.3381L85.1104 67.6103V64.2088C85.1104 63.5504 84.5768 63.0168 83.9185 63.0168C83.2601 63.0168 82.7266 63.5504 82.7266 64.2088V70.4877V70.4885V80.5041C82.7266 81.1624 83.2601 81.696 83.9185 81.696C84.5768 81.696 85.1104 81.1624 85.1104 80.5041V70.9818L87.0683 69.0237C87.5336 68.5581 87.5336 67.8034 87.0681 67.3379Z" fill="#88BA31"/>
<path d="M26.0236 59.5572C26.4891 59.0916 26.4891 58.3371 26.0236 57.8716C25.5581 57.4063 24.8034 57.4063 24.3381 57.8716L24.1935 58.0162V54.7351C24.1935 54.0768 23.6599 53.5432 23.0016 53.5432C22.3432 53.5432 21.8097 54.0768 21.8097 54.7351V64.9307L20.309 63.43C19.8435 62.9647 19.0888 62.9647 18.6235 63.43C18.158 63.8956 18.158 64.6502 18.6235 65.1156L21.8098 68.3018V80.5038C21.8098 81.1622 22.3434 81.6957 23.0017 81.6957C23.6601 81.6957 24.1937 81.1622 24.1937 80.5038V67.8084C24.1937 67.8084 24.1937 67.8079 24.1937 67.8076V61.3873L26.0236 59.5572Z" fill="#88BA31"/>
<path d="M90.4487 82.4754H11.5513C10.8931 82.4754 10.3594 81.9418 10.3594 81.2835C10.3594 80.6251 10.8929 80.0916 11.5513 80.0916H90.4487C91.1071 80.0916 91.6406 80.6251 91.6406 81.2835C91.6406 81.9418 91.1071 82.4754 90.4487 82.4754Z" fill="#0A5B36"/>
<path d="M77.3673 86.5784C78.4264 88.6089 80.5518 90 83 90C85.448 90 87.5734 88.6093 88.6328 86.5793C90.2429 87.066 92.8309 87.2112 95.0212 85.0207C96.7498 83.2921 97.2703 80.8105 96.5882 78.6282C98.6133 77.5673 100 75.4445 100 73C100 70.5555 98.6133 68.4328 96.5882 67.3718C97.2703 65.1896 96.75 62.7081 95.0215 60.9795L77.3673 86.5784ZM77.3673 86.5784C75.7535 87.0639 73.1618 87.2033 70.9793 85.0207C68.789 82.8304 68.9341 80.2427 69.4207 78.6327M77.3673 86.5784L69.4207 78.6327M69.4207 78.6327C67.3907 77.5734 66 75.448 66 73C66 70.5516 67.3911 68.426 69.4216 67.3668M69.4207 78.6327L69.4216 67.3668M69.4216 67.3668C68.9362 65.7532 68.7968 63.1618 70.9792 60.9794C70.9792 60.9794 70.9793 60.9793 70.9793 60.9793C70.9793 60.9793 70.9793 60.9793 70.9794 60.9792C73.1696 58.7884 75.7576 58.9335 77.3678 59.4204C78.4271 57.3905 80.5522 56 83 56C85.4483 56 87.5739 57.3909 88.6331 59.4213C90.2469 58.9356 92.8388 58.7962 95.0214 60.9794L69.4216 67.3668Z" fill="#97DB4F" stroke="white" stroke-width="2"/>
<path d="M83 57C85.3766 57 87.3961 58.5577 88.0911 60.7058C89.2101 60.1312 92.0331 59.4046 94.3143 61.6865C95.9951 63.3674 96.3213 65.8977 95.2927 67.9083C97.4414 68.6029 99 70.6229 99 73C99 75.3771 97.4414 77.3971 95.2927 78.0917C96.3213 80.1023 95.9951 82.6327 94.3141 84.3136C92.023 86.6048 89.2073 85.8669 88.0912 85.2941C87.3962 87.4421 85.3766 89 83 89V57Z" fill="#BEF636"/>
<path d="M81.9961 76.9498C81.7562 76.9498 81.5163 76.8583 81.3333 76.6752L77.3166 72.6586C76.9505 72.2925 76.9505 71.6989 77.3166 71.3328C77.6826 70.9667 78.2763 70.9667 78.6424 71.3328L81.9962 74.6865L88.978 67.7051C89.3441 67.3392 89.9378 67.3391 90.3038 67.7052C90.67 68.0713 90.6699 68.6649 90.3038 69.0311L82.6591 76.6753C82.476 76.8583 82.236 76.9498 81.9961 76.9498Z" fill="#0A4519"/>
<path d="M88.9777 67.7051L83 73.6824V76.3341L90.3034 69.0311C90.6696 68.6649 90.6696 68.0714 90.3034 67.7052C89.9374 67.3391 89.3438 67.3392 88.9777 67.7051Z" fill="#0A4519"/>
</svg>
