<svg width="22" height="22" viewBox="0 0 22 22" fill="none" xmlns="http://www.w3.org/2000/svg">
<path d="M17.5719 4.8678C17.0294 3.57241 16.1161 2.46624 14.9468 1.68828C13.7775 0.910323 12.4044 0.49527 11 0.49527C9.5956 0.49527 8.2225 0.910323 7.05323 1.68828C5.88397 2.46624 4.97069 3.57241 4.42815 4.8678C3.25647 5.40334 2.26333 6.26424 1.56693 7.34806C0.870535 8.43188 0.500207 9.69297 0.500022 10.9812C0.490647 14.5625 3.50002 17.6562 7.07565 17.75C8.17546 17.7765 9.26512 17.5342 10.25 17.0441V20.75C10.25 20.9489 10.329 21.1397 10.4697 21.2803C10.6103 21.421 10.8011 21.5 11 21.5C11.1989 21.5 11.3897 21.421 11.5304 21.2803C11.671 21.1397 11.75 20.9489 11.75 20.75V17.0441C12.6824 17.507 13.709 17.7486 14.75 17.75H14.9206C18.5 17.6562 21.5103 14.5625 21.5 10.9812C21.4998 9.69297 21.1295 8.43188 20.4331 7.34806C19.7367 6.26424 18.7436 5.40334 17.5719 4.8678ZM14.886 16.25C13.7675 16.2791 12.669 15.9507 11.75 15.3125V11.4687L15.8356 9.42686C15.9238 9.38279 16.0024 9.32178 16.067 9.24733C16.1315 9.17288 16.1808 9.08643 16.212 8.99294C16.2432 8.89944 16.2556 8.80072 16.2486 8.70241C16.2416 8.60411 16.2153 8.50814 16.1713 8.41999C16.1272 8.33184 16.0662 8.25323 15.9917 8.18866C15.9173 8.12409 15.8308 8.07481 15.7373 8.04365C15.6438 8.01248 15.5451 8.00003 15.4468 8.00702C15.3485 8.01401 15.2525 8.04029 15.1644 8.08436L11.75 9.78686V7.24999C11.75 7.05108 11.671 6.86031 11.5304 6.71966C11.3897 6.57901 11.1989 6.49999 11 6.49999C10.8011 6.49999 10.6103 6.57901 10.4697 6.71966C10.329 6.86031 10.25 7.05108 10.25 7.24999V12.0369L6.83565 10.3287C6.65762 10.2397 6.45153 10.2251 6.2627 10.288C6.07387 10.351 5.91779 10.4863 5.82877 10.6644C5.73976 10.8424 5.72511 11.0485 5.78805 11.2373C5.851 11.4261 5.98637 11.5822 6.1644 11.6712L10.25 13.7131V15.3069C9.33132 15.9456 8.23259 16.274 7.11409 16.2444C4.3344 16.1778 1.99252 13.7675 2.00002 10.985C1.99931 9.93853 2.31263 8.91594 2.89945 8.0495C3.48627 7.18306 4.31958 6.51265 5.29158 6.12499C5.38909 6.08583 5.47729 6.02663 5.55045 5.95121C5.62361 5.87578 5.6801 5.78583 5.71627 5.68718C6.11188 4.60379 6.83095 3.6682 7.77607 3.00716C8.72119 2.34612 9.84667 1.99158 11 1.99158C12.1534 1.99158 13.2789 2.34612 14.224 3.00716C15.1691 3.6682 15.8882 4.60379 16.2838 5.68718C16.3199 5.78583 16.3764 5.87578 16.4496 5.95121C16.5228 6.02663 16.611 6.08583 16.7085 6.12499C17.6803 6.51286 18.5135 7.18333 19.1003 8.04972C19.6871 8.91611 20.0005 9.93859 20 10.985C20.0075 13.7675 17.6656 16.1778 14.886 16.25Z" fill="white"/>
</svg>
