<svg width="13" height="14" viewBox="0 0 13 14" fill="none" xmlns="http://www.w3.org/2000/svg">
<path d="M6.5 0.5C5.21442 0.5 3.95772 0.881218 2.8888 1.59545C1.81988 2.30968 0.986756 3.32484 0.494786 4.51256C0.00281635 5.70028 -0.125905 7.00721 0.124899 8.26809C0.375703 9.52896 0.994767 10.6872 1.90381 11.5962C2.81285 12.5052 3.97104 13.1243 5.23192 13.3751C6.49279 13.6259 7.79973 13.4972 8.98744 13.0052C10.1752 12.5132 11.1903 11.6801 11.9046 10.6112C12.6188 9.54229 13 8.28558 13 7C12.9979 5.27675 12.3123 3.6247 11.0938 2.40618C9.8753 1.18766 8.22325 0.50215 6.5 0.5ZM9 7.5H7V9.5C7 9.63261 6.94732 9.75979 6.85356 9.85355C6.75979 9.94732 6.63261 10 6.5 10C6.36739 10 6.24022 9.94732 6.14645 9.85355C6.05268 9.75979 6 9.63261 6 9.5V7.5H4C3.86739 7.5 3.74022 7.44732 3.64645 7.35355C3.55268 7.25979 3.5 7.13261 3.5 7C3.5 6.86739 3.55268 6.74021 3.64645 6.64645C3.74022 6.55268 3.86739 6.5 4 6.5H6V4.5C6 4.36739 6.05268 4.24021 6.14645 4.14645C6.24022 4.05268 6.36739 4 6.5 4C6.63261 4 6.75979 4.05268 6.85356 4.14645C6.94732 4.24021 7 4.36739 7 4.5V6.5H9C9.13261 6.5 9.25979 6.55268 9.35356 6.64645C9.44732 6.74021 9.5 6.86739 9.5 7C9.5 7.13261 9.44732 7.25979 9.35356 7.35355C9.25979 7.44732 9.13261 7.5 9 7.5Z" fill="#0A4519"/>
</svg>
