<svg width="18" height="18" viewBox="0 0 18 18" fill="none" xmlns="http://www.w3.org/2000/svg">
<path d="M9 0.875C10.607 0.875 12.1779 1.35152 13.514 2.24431C14.8502 3.1371 15.8916 4.40605 16.5065 5.8907C17.1215 7.37535 17.2824 9.00901 16.9689 10.5851C16.6554 12.1612 15.8815 13.6089 14.7452 14.7452C13.6089 15.8815 12.1612 16.6554 10.5851 16.9689C9.00901 17.2824 7.37534 17.1215 5.89069 16.5065C4.40604 15.8916 3.13709 14.8502 2.24431 13.514C1.35152 12.1779 0.874996 10.607 0.874996 9C0.877272 6.84581 1.73403 4.78051 3.25727 3.25727C4.78051 1.73403 6.84581 0.877275 9 0.875ZM9 15.875C10.3597 15.875 11.689 15.4718 12.8195 14.7164C13.9501 13.9609 14.8313 12.8872 15.3517 11.6309C15.872 10.3747 16.0082 8.99237 15.7429 7.65875C15.4776 6.32513 14.8228 5.10013 13.8614 4.13864C12.8999 3.17716 11.6749 2.52237 10.3412 2.2571C9.00762 1.99183 7.62529 2.12798 6.36905 2.64833C5.11281 3.16868 4.03908 4.04987 3.28364 5.18045C2.52821 6.31104 2.125 7.64025 2.125 9C2.12706 10.8227 2.85206 12.5702 4.14092 13.8591C5.42979 15.1479 7.17727 15.8729 9 15.875ZM6.68281 8.55781C6.6247 8.61586 6.5786 8.68479 6.54715 8.76066C6.51569 8.83654 6.49951 8.91787 6.49951 9C6.49951 9.08213 6.51569 9.16346 6.54715 9.23934C6.5786 9.31521 6.6247 9.38414 6.68281 9.44219L9.80781 12.5672C9.86588 12.6253 9.93482 12.6713 10.0107 12.7027C10.0866 12.7342 10.1679 12.7503 10.25 12.7503C10.3321 12.7503 10.4134 12.7342 10.4893 12.7027C10.5652 12.6713 10.6341 12.6253 10.6922 12.5672C10.7503 12.5091 10.7963 12.4402 10.8277 12.3643C10.8592 12.2884 10.8753 12.2071 10.8753 12.125C10.8753 12.0429 10.8592 11.9616 10.8277 11.8857C10.7963 11.8098 10.7503 11.7409 10.6922 11.6828L8.00859 9L10.6922 6.31719C10.8095 6.19991 10.8753 6.04085 10.8753 5.875C10.8753 5.70915 10.8095 5.55009 10.6922 5.43281C10.5749 5.31554 10.4158 5.24965 10.25 5.24965C10.0841 5.24965 9.92508 5.31554 9.80781 5.43281L6.68281 8.55781Z" fill="#25B567"/>
</svg>
