<svg width="198" height="165" viewBox="0 0 198 165" fill="none" xmlns="http://www.w3.org/2000/svg">
<path d="M97.1999 173.774C95.5965 173.774 94.2964 172.475 94.2964 170.871V143.956C94.2964 142.352 95.5961 141.052 97.1999 141.052C98.8036 141.052 100.103 142.352 100.103 143.956V170.871C100.103 172.475 98.8032 173.774 97.1999 173.774Z" fill="#0A5B36"/>
<path d="M127.276 174.899C125.672 174.899 124.372 173.599 124.372 171.995V129.96C124.372 128.357 125.672 127.057 127.276 127.057C128.879 127.057 130.179 128.357 130.179 129.96V171.995C130.179 173.599 128.879 174.899 127.276 174.899Z" fill="#0A5B36"/>
<path d="M95.16 148.602C109.516 148.602 121.154 136.963 121.154 122.607C121.154 108.251 109.516 96.6127 95.16 96.6127C80.8036 96.6127 69.1655 108.251 69.1655 122.607C69.1655 136.963 80.8036 148.602 95.16 148.602Z" fill="#0F7A4F"/>
<path d="M121.154 122.608C121.154 136.963 109.514 148.603 95.1592 148.603C89.034 148.603 83.4034 146.484 78.96 142.937C81.2919 143.626 83.7591 143.993 86.315 143.993C100.67 143.993 112.306 132.353 112.306 117.999C112.306 109.769 108.481 102.43 102.514 97.6696C113.288 100.841 121.154 110.806 121.154 122.608Z" fill="#0C6842"/>
<path d="M135.256 86.497C149.613 86.497 161.251 74.8589 161.251 60.5025C161.251 46.1462 149.613 34.5081 135.256 34.5081C120.9 34.5081 109.262 46.1462 109.262 60.5025C109.262 74.8589 120.9 86.497 135.256 86.497Z" fill="#158F5E"/>
<path d="M161.252 60.5033C161.252 74.8579 149.612 86.4977 135.258 86.4977C133.181 86.4977 131.162 86.2541 129.229 85.7939C140.676 83.0714 149.191 72.7812 149.191 60.5033C149.191 48.2214 140.676 37.9312 129.229 35.2126C131.163 34.7524 133.182 34.5088 135.258 34.5088C149.612 34.5088 161.252 46.1448 161.252 60.5033Z" fill="#0F7A4F"/>
<path d="M169.308 121.903C183.664 121.903 195.302 110.265 195.302 95.9086C195.302 81.5523 183.664 69.9142 169.308 69.9142C154.952 69.9142 143.313 81.5523 143.313 95.9086C143.313 110.265 154.952 121.903 169.308 121.903Z" fill="#158F5E"/>
<path d="M195.302 95.9102C195.302 110.265 183.662 121.905 169.308 121.905C166.945 121.905 164.656 121.588 162.479 120.996C175.217 119.318 185.047 108.42 185.047 95.2257C185.047 83.234 176.926 73.1371 165.882 70.1401C167.003 69.9931 168.148 69.9158 169.308 69.9158C183.662 69.9158 195.302 81.5517 195.302 95.9102Z" fill="#0F7A4F"/>
<path d="M139.418 173.774C137.815 173.774 136.515 172.475 136.515 170.871V132.103C136.515 130.499 137.815 129.199 139.418 129.199C141.022 129.199 142.322 130.499 142.322 132.103V170.871C142.322 172.475 141.022 173.774 139.418 173.774Z" fill="#0F7A4F"/>
<path d="M152.621 142.089C141.414 142.089 132.33 133.005 132.33 121.798V77.4184C132.33 66.2116 141.414 57.1268 152.621 57.1268C163.828 57.1268 172.913 66.2116 172.913 77.4184V121.797C172.913 133.005 163.828 142.089 152.621 142.089Z" fill="#D2F0A2"/>
<path d="M172.915 77.4176V121.796C172.915 133.003 163.828 142.09 152.621 142.09C150.9 142.09 149.23 141.877 147.636 141.471C156.434 139.252 162.946 131.282 162.946 121.796V77.4176C162.946 71.814 160.676 66.7407 157.002 63.0707C154.458 60.5261 151.24 58.6544 147.636 57.7456C149.23 57.3395 150.9 57.1268 152.621 57.1268C158.225 57.1268 163.298 59.3969 166.972 63.0707C170.645 66.7407 172.915 71.8144 172.915 77.4176Z" fill="#BCEA73"/>
<path d="M161.105 112.218C159.971 111.084 158.133 111.084 156.999 112.218L155.526 113.691V107.349C155.526 107.348 155.526 107.348 155.526 107.347V95.9963C155.526 94.3925 154.226 93.0928 152.622 93.0928C151.019 93.0928 149.719 94.3925 149.719 95.9963V100.338L146.791 97.4097C145.657 96.2759 143.819 96.2755 142.685 97.4093C141.551 98.5432 141.551 100.382 142.685 101.515L149.719 108.55V120.699V120.703V169.296C149.719 170.9 151.019 172.2 152.623 172.2C154.226 172.2 155.526 170.9 155.526 169.296V121.904L161.106 116.324C162.239 115.19 162.239 113.352 161.105 112.218Z" fill="#A3E440"/>
<path d="M49.2649 91.3155C38.0582 91.3155 28.9734 82.2307 28.9734 71.0239V42.6187C28.9734 31.4119 38.0582 22.3271 49.2649 22.3271C60.4716 22.3271 69.5564 31.4119 69.5564 42.6187V71.0239C69.5568 82.2307 60.4716 91.3155 49.2649 91.3155Z" fill="#E6F9C8"/>
<path d="M69.5552 42.618V71.0256C69.5552 82.2323 60.4716 91.3163 49.2649 91.3163C47.3467 91.3163 45.4866 91.0495 43.7271 90.5506C52.2422 88.1413 58.48 80.3145 58.48 71.0259V42.6184C58.48 37.0148 56.2099 31.9414 52.5365 28.2715C50.1234 25.8545 47.1031 24.0485 43.7274 23.0937C45.487 22.5948 47.3471 22.328 49.2653 22.328C54.8688 22.328 59.9422 24.598 63.6121 28.2715C67.2852 31.9411 69.5552 37.0148 69.5552 42.618Z" fill="#BCEA73"/>
<path d="M57.7473 61.4442C56.6134 60.3108 54.775 60.3108 53.6415 61.4442L52.1677 62.918V56.5751C52.1677 56.5751 52.1677 56.5739 52.1677 56.5731V45.2229C52.1677 43.6192 50.8679 42.3195 49.2642 42.3195C47.6605 42.3195 46.3607 43.6192 46.3607 45.2229V49.5646L43.4325 46.636C42.2986 45.5025 40.4602 45.5025 39.3267 46.636C38.1929 47.7703 38.1929 49.6083 39.3267 50.7422L46.3611 57.7766V69.9265V69.9285V171.996C46.3611 173.599 47.6609 174.899 49.2646 174.899C50.8683 174.899 52.1681 173.599 52.1681 171.996V71.1304L57.7477 65.5508C58.8811 64.4166 58.8811 62.5785 57.7473 61.4442Z" fill="#A3E440"/>
<path d="M77.7112 128.685C94.7261 128.685 108.52 114.892 108.52 97.8767C108.52 80.8617 94.7261 67.0684 77.7112 67.0684C60.6962 67.0684 46.9028 80.8617 46.9028 97.8767C46.9028 114.892 60.6962 128.685 77.7112 128.685Z" fill="#1CA56F"/>
<path d="M108.522 97.8747C108.522 114.89 94.7279 128.683 77.713 128.683C72.8288 128.683 68.2117 127.546 64.1086 125.52C78.4362 122.875 89.291 110.319 89.291 95.2257C89.291 83.0947 82.2802 72.6034 72.0901 67.5799C73.9116 67.2435 75.791 67.0695 77.713 67.0695C94.7279 67.0695 108.522 80.8633 108.522 97.8747Z" fill="#158F5E"/>
<path d="M86.734 83.7848C85.6001 82.6513 83.7617 82.6509 82.6282 83.7852L80.6153 85.7977V82.446C80.6153 80.8422 79.3156 79.5425 77.7118 79.5425C76.1081 79.5425 74.8083 80.8422 74.8083 82.446V113.174C74.8083 114.778 76.1081 116.077 77.7118 116.077C79.3156 116.077 80.6153 114.778 80.6153 113.174V94.0092L86.734 87.8902C87.8678 86.7567 87.8678 84.919 86.734 83.7848Z" fill="#0F7A4F"/>
<path d="M77.7118 174.899C76.1085 174.899 74.8083 173.599 74.8083 171.996V144.426C74.8083 142.822 76.1081 141.522 77.7118 141.522C79.3156 141.522 80.6153 142.822 80.6153 144.426V171.996C80.6153 173.599 79.3156 174.899 77.7118 174.899Z" fill="#0F7A4F"/>
<path d="M135.256 104.463C135.256 140.167 126.096 139.53 114.795 139.53C103.495 139.53 94.3345 140.167 94.3345 104.463C94.3345 68.7582 105.881 28.4749 114.795 28.4749C123.71 28.4749 135.256 68.7582 135.256 104.463Z" fill="#A3E440"/>
<path d="M135.256 104.463C135.256 140.167 126.096 139.53 114.795 139.53C103.495 139.53 94.3345 140.167 94.3345 104.463C94.3345 68.7582 105.881 28.4749 114.795 28.4749C123.71 28.4749 135.256 68.7582 135.256 104.463Z" fill="#A3E440"/>
<path d="M135.255 104.462C135.255 140.168 126.097 139.53 114.796 139.53C112.956 139.53 111.169 139.548 109.47 139.419C118.184 138.771 124.602 134.34 124.602 104.462C124.602 75.6161 117.063 43.786 109.47 32.6184C111.275 29.9616 113.084 28.4758 114.796 28.4758C123.711 28.4762 135.255 68.7599 135.255 104.462Z" fill="#99D53B"/>
<path d="M127.118 108.225C125.984 107.091 124.146 107.091 123.012 108.225L117.699 113.537V102.421C117.699 102.42 117.699 102.419 117.699 102.418V89.3403C117.699 87.7365 116.4 86.4368 114.796 86.4368C113.192 86.4368 111.892 87.7365 111.892 89.3403V95.4098L107.763 91.2804C106.629 90.1469 104.791 90.1469 103.657 91.2804C102.523 92.4147 102.523 94.2527 103.657 95.3866L111.892 103.622V120.545V120.549V170.871C111.892 172.474 113.192 173.774 114.796 173.774C116.4 173.774 117.699 172.474 117.699 170.871V121.75L127.118 112.331C128.252 111.197 128.252 109.359 127.118 108.225Z" fill="#88BA31"/>
<path d="M3.1084 130.517C3.1084 158.018 15.5043 157.527 30.7951 157.527C46.086 157.527 58.4819 158.018 58.4819 130.517C58.4819 103.016 42.8581 71.9885 30.7951 71.9885C18.7322 71.9885 3.1084 103.016 3.1084 130.517Z" fill="#A3E440"/>
<path d="M3.1084 130.517C3.1084 158.018 15.5043 157.527 30.7951 157.527C46.086 157.527 58.4819 158.018 58.4819 130.517C58.4819 103.016 42.8581 71.9885 30.7951 71.9885C18.7322 71.9885 3.1084 103.016 3.1084 130.517Z" fill="#99D53B"/>
<path d="M58.4813 130.516C58.4813 158.019 46.0873 157.528 30.7969 157.528C28.8091 157.528 26.8755 157.536 25.0081 157.489C37.518 157.184 46.9033 154.446 46.9033 130.516C46.9033 107.275 35.7469 81.5169 25.0081 74.0961C26.9765 72.731 28.9294 71.9885 30.7969 71.9885C42.8586 71.9885 58.4813 103.014 58.4813 130.516Z" fill="#8DC637"/>
<path d="M84.8832 131.551C84.8832 151.875 75.7226 151.512 64.4223 151.512C53.122 151.512 43.9614 151.875 43.9614 131.551C43.9614 111.228 55.5077 88.2982 64.4223 88.2982C73.337 88.2982 84.8832 111.228 84.8832 131.551Z" fill="#A3E440"/>
<path d="M84.8832 131.551C84.8832 151.875 75.7226 151.512 64.4223 151.512C53.122 151.512 43.9614 151.875 43.9614 131.551C43.9614 111.228 55.5077 88.2982 64.4223 88.2982C73.337 88.2982 84.8832 111.228 84.8832 131.551Z" fill="#A3E440"/>
<path d="M84.8817 131.549C84.8817 151.874 75.7245 151.511 64.4211 151.511C62.3135 151.511 60.2833 151.522 58.3694 151.41C66.7144 150.927 72.7781 148.084 72.7781 131.549C72.7781 115.651 65.7132 98.1607 58.3694 91.2926C60.4113 89.3822 62.4802 88.2955 64.4211 88.2955C73.3385 88.2959 84.8817 111.228 84.8817 131.549Z" fill="#99D53B"/>
<path d="M76.744 126.195C75.6105 125.062 73.772 125.062 72.6382 126.195L67.325 131.508V117.294C67.325 115.691 66.0253 114.391 64.4216 114.391C62.8178 114.391 61.5181 115.691 61.5181 117.294V138.517V138.519V170.871C61.5181 172.475 62.8178 173.775 64.4216 173.775C66.0253 173.775 67.325 172.475 67.325 170.871V139.72L76.744 130.302C77.8778 129.168 77.8778 127.33 76.744 126.195Z" fill="#88BA31"/>
<path d="M193.935 141.451C193.935 156.099 187.333 155.838 179.189 155.838C171.045 155.838 164.443 156.099 164.443 141.451C164.443 126.803 172.764 110.278 179.189 110.278C185.614 110.278 193.935 126.804 193.935 141.451Z" fill="#A3E440"/>
<path d="M193.935 141.451C193.935 156.099 187.333 155.838 179.189 155.838C171.045 155.838 164.443 156.099 164.443 141.451C164.443 126.803 172.764 110.278 179.189 110.278C185.614 110.278 193.935 126.804 193.935 141.451Z" fill="#A3E440"/>
<path d="M193.936 141.452C193.936 156.097 187.331 155.838 179.187 155.838C177.455 155.838 175.792 155.85 174.249 155.726C179.964 155.273 184.052 152.98 184.052 141.452C184.052 130.412 179.326 118.308 174.249 113.01C175.904 111.278 177.602 110.276 179.187 110.276C185.614 110.276 193.936 126.804 193.936 141.452Z" fill="#99D53B"/>
<path d="M186.862 138.799C185.728 137.666 183.89 137.665 182.756 138.8L182.093 139.463V131.177C182.093 129.573 180.793 128.273 179.189 128.273C177.586 128.273 176.286 129.573 176.286 131.177V146.472V146.474V170.872C176.286 172.476 177.586 173.775 179.189 173.775C180.793 173.775 182.093 172.476 182.093 170.872V147.676L186.862 142.906C187.996 141.772 187.996 139.933 186.862 138.799Z" fill="#88BA31"/>
<path d="M38.1567 119.846C39.2905 118.711 39.2905 116.873 38.1567 115.74C37.0228 114.606 35.1844 114.606 34.0509 115.74L33.6986 116.092V108.099C33.6986 106.495 32.3988 105.196 30.7951 105.196C29.1914 105.196 27.8916 106.495 27.8916 108.099V132.935L24.236 129.28C23.1021 128.146 21.2637 128.146 20.1302 129.28C18.9963 130.414 18.9963 132.252 20.1302 133.386L27.892 141.147V170.871C27.892 172.475 29.1918 173.775 30.7955 173.775C32.3992 173.775 33.699 172.475 33.699 170.871V139.945C33.699 139.945 33.699 139.944 33.699 139.944V124.304L38.1567 119.846Z" fill="#88BA31"/>
</svg>
