<svg width="44" height="42" viewBox="0 0 44 42" fill="none" xmlns="http://www.w3.org/2000/svg">
<path d="M11.4135 10.3775C10.6675 9.82806 9.60809 10.0097 9.09127 10.7928C8.6126 11.5183 8.81741 12.5003 9.51624 13.0172C12.8912 15.5131 13.2743 17.293 13.4045 19.1972C13.5659 21.5601 13.4028 28.8576 13.4011 28.931C13.3806 29.8283 14.0916 30.5723 14.989 30.5927C14.9985 30.5929 15.0081 30.593 15.0176 30.593L16.1011 20.3267L15.0176 13.9342C14.25 12.8142 13.1122 11.6292 11.4135 10.3775Z" fill="#B2FA09"/>
<path d="M23.4335 3.3841C19.9959 4.08265 17.2697 7.30953 15.3301 12.975C15.2198 13.2972 15.116 13.6176 15.0171 13.9348C15.0169 13.9347 15.0168 13.9345 15.0166 13.9342V30.593C15.0196 30.593 15.0227 30.5931 15.0257 30.5931C15.9061 30.5931 16.6297 29.8894 16.6499 29.0047C16.6543 28.8119 16.72 25.8734 16.725 23.099C16.7381 19.8709 17.3713 17.1695 18.4211 13.9822C20.3334 8.42429 22.5499 6.88343 24.0748 6.57076C24.7757 6.427 25.3194 5.85516 25.3776 5.1421C25.4713 3.9955 24.4671 3.17439 23.4335 3.3841Z" fill="#70DA40"/>
<path d="M28.9261 10.897C27.9136 10.8971 26.9016 10.5967 26.0184 9.99582L21.9632 7.23724C21.3704 6.83413 21.0166 6.16545 21.0166 5.44853C21.0166 4.73161 21.3704 4.06283 21.9633 3.65972L26.0184 0.90114C27.7847 -0.30038 30.0674 -0.30038 31.8335 0.90114L35.8887 3.65972C36.4815 4.06283 36.8353 4.73152 36.8353 5.44843C36.8353 6.16535 36.4815 6.83404 35.8886 7.23715L31.8335 9.99573C30.9506 10.5965 29.9381 10.8969 28.9261 10.897Z" fill="#B2FA09"/>
<path d="M10.3873 14.2089C10.1869 14.2089 9.98515 14.181 9.7875 14.124L5.07497 12.766C3.02228 12.1745 1.56424 10.4183 1.36046 8.29172V8.29163L0.892725 3.40943C0.824331 2.69571 1.11289 1.99641 1.66447 1.53856C2.21606 1.08071 2.95624 0.925744 3.64546 1.12443L8.358 2.48243C10.4108 3.07405 11.8687 4.83026 12.0724 6.9568L12.5402 11.8389C12.6086 12.5526 12.3201 13.252 11.7685 13.7099C11.3751 14.0365 10.8856 14.2089 10.3873 14.2089Z" fill="#70DA40"/>
<path d="M37.0056 40.6542C36.8698 40.5184 35.9278 39.5764 34.5248 38.1734C34.2358 37.8843 34.6685 36.6339 34.6685 36.6339C34.6685 36.6339 32.7186 36.3672 32.2409 35.8896C29.9667 33.6154 27.966 31.6147 25.4456 29.0943C25.1034 28.7521 25.4045 27.4771 25.4045 27.4771C25.4045 27.4771 23.5649 27.2136 23.1472 26.7959C20.4915 24.1402 20.0073 23.656 19.8041 23.4528C19.1695 22.8181 19.1695 21.789 19.8041 21.1543L23.1407 17.8178C23.7753 17.1831 24.8045 17.1831 25.4391 17.8178L28.7822 21.1608L28.6497 23.3038L31.0807 23.4593L37.8613 30.24L37.8093 32.3549L40.1598 32.5384L42.6406 35.0192C43.2753 35.6539 43.2753 36.683 42.6406 37.3177L39.3041 40.6542C38.6694 41.2889 37.6404 41.2889 37.0056 40.6542Z" fill="#0A4519"/>
<path d="M3.39577 26.0615C2.49817 26.0615 1.77051 26.7892 1.77051 27.6868V32.4054C1.77051 33.303 2.49817 34.0306 3.39577 34.0306H5.62142C6.13268 34.0306 7.24669 32.8388 7.24669 32.8388C7.24669 32.8388 8.31161 34.0306 8.87195 34.0306H15.0173L18.2678 30.0461L15.0173 26.0616H8.87195L7.24669 28.337L5.62142 26.0616H3.39577V26.0615Z" fill="#0A4519"/>
<path d="M27.7217 26.0615H22.1092L20.4839 27.2533L18.8587 26.0615H15.0166V34.0306H18.8587C19.4106 34.0306 20.4839 32.8388 20.4839 32.8388C20.4839 32.8388 21.5846 34.0306 22.1092 34.0306H27.7217C28.6193 34.0306 29.347 33.303 29.347 32.4054V27.6868C29.347 26.7893 28.6193 26.0615 27.7217 26.0615Z" fill="#0A4519"/>
<path d="M5.62109 26.0615V34.0306H8.87162V26.0615H5.62109Z" fill="#0A4519"/>
<path d="M18.8584 26.0615V34.0306H22.1089V26.0615H18.8584Z" fill="#175F29"/>
<path d="M3.39577 34.0308C2.49817 34.0308 1.77051 34.7584 1.77051 35.656V40.3745C1.77051 41.2721 2.49817 41.9998 3.39577 41.9998H10.0232L11.6484 39.616L13.2737 41.9998H15.0173L16.1008 38.0153L15.0173 34.0308H13.2737L11.6484 36.5228L10.0232 34.0308H3.39577Z" fill="#0A4519"/>
<path d="M27.7226 34.0305H24.2253L22.6 36.5226L20.9748 34.0305H15.0176V41.9995H20.9748L22.7245 39.6158L24.2253 41.9995H27.7226C28.6202 41.9995 29.3478 41.2719 29.3478 40.3743V35.6558C29.3478 34.7582 28.6202 34.0305 27.7226 34.0305Z" fill="#175F29"/>
<path d="M28.7825 21.1606L23.1475 26.7957L25.4459 29.0941L31.0809 23.4591L28.7825 21.1606Z" fill="#175F29"/>
<path d="M37.8626 30.2397L32.2275 35.8748L34.526 38.1732L40.161 32.5382L37.8626 30.2397Z" fill="#175F29"/>
<path d="M10.0234 34.0308H13.274V41.9998H10.0234V34.0308Z" fill="#0A4519"/>
<path d="M20.9736 34.0308H24.2242V41.9998H20.9736V34.0308Z" fill="#0A4519"/>
</svg>
