<svg width="64" height="64" viewBox="0 0 64 64" fill="none" xmlns="http://www.w3.org/2000/svg">
<path d="M52.9236 36.0212L50.8236 35.9562C50.5849 35.1362 50.2561 34.3449 49.8449 33.5949L51.2836 32.0637C51.6461 31.6787 51.6361 31.0837 51.2624 30.7099L48.0499 27.4974C47.6761 27.1237 47.0811 27.1137 46.6961 27.4762L45.1649 28.9149C44.4149 28.5037 43.6236 28.1749 42.8036 27.9362L42.7386 25.8362C42.7224 25.3074 42.2949 24.8937 41.7661 24.8937H37.2224C36.6936 24.8937 36.2661 25.3074 36.2499 25.8362L36.1849 27.9362C35.3636 28.1762 34.5711 28.5037 33.8211 28.9162L32.2924 27.4762C31.9074 27.1137 31.3124 27.1224 30.9386 27.4962L29.5599 28.8749C27.9961 29.4999 26.5699 30.3724 25.4299 31.4062C24.6936 32.0737 24.0724 32.7612 23.5711 33.4537V28.2287C23.9549 28.5037 24.4011 28.7087 24.8986 28.8299C25.2474 28.9149 25.6086 28.9562 25.9774 28.9562C27.9611 28.9562 30.1799 27.7512 32.1099 25.5762C34.3474 23.0549 35.6749 19.3924 35.4899 16.2449C35.4661 15.8487 35.1386 15.5387 34.7411 15.5387H34.7399C31.4824 15.5437 27.8274 16.9512 25.4299 19.1237C24.6936 19.7912 24.0711 20.4762 23.5711 21.1649V18.9074C23.9436 18.8162 24.3099 18.6649 24.6624 18.4499C26.6199 17.2587 27.6661 14.4924 27.4611 11.0499C27.2611 7.68492 25.6099 4.15617 23.2524 2.06117C22.9549 1.79742 22.5036 1.81117 22.2224 2.09242C19.9224 4.39992 18.3336 7.97867 18.1736 11.2099C18.0011 14.7074 18.9924 17.3612 20.8924 18.4912C21.2699 18.7162 21.6661 18.8662 22.0711 18.9449V21.1624C21.5699 20.4737 20.9486 19.7887 20.2124 19.1212C17.8149 16.9487 14.1599 15.5424 10.9024 15.5362H10.9011C10.5036 15.5362 10.1761 15.8462 10.1524 16.2424C9.96738 19.3899 11.2936 23.0537 13.5324 25.5737C15.4624 27.7474 17.6824 28.9537 19.6649 28.9537C20.0336 28.9537 20.3949 28.9124 20.7436 28.8274C21.2424 28.7062 21.6874 28.5012 22.0711 28.2262V33.4437C21.5699 32.7549 20.9486 32.0699 20.2124 31.4024C17.8149 29.2299 14.1611 27.8237 10.9024 27.8174H10.9011C10.5036 27.8174 10.1761 28.1274 10.1524 28.5237C9.96738 31.6712 11.2936 35.3349 13.5324 37.8549C15.4624 40.0287 17.6824 41.2349 19.6649 41.2349C20.0336 41.2349 20.3949 41.1937 20.7436 41.1087C21.2424 40.9874 21.6874 40.7824 22.0711 40.5087V45.7262C21.5699 45.0374 20.9486 44.3524 20.2124 43.6849C17.8149 41.5124 14.1599 40.1062 10.9024 40.0999H10.9011C10.5036 40.0999 10.1761 40.4099 10.1524 40.8062C9.96738 43.9537 11.2936 47.6174 13.5324 50.1374C15.4624 52.3112 17.6824 53.5174 19.6649 53.5174C20.0336 53.5174 20.3949 53.4762 20.7436 53.3912C21.2424 53.2699 21.6874 53.0649 22.0711 52.7899V61.3749C22.0711 61.7887 22.4074 62.1249 22.8211 62.1249C23.2349 62.1249 23.5711 61.7887 23.5711 61.3749V52.7924C23.9211 53.0437 24.3236 53.2374 24.7711 53.3624C25.1549 53.4687 25.5561 53.5212 25.9686 53.5212C27.6099 53.5212 29.4324 52.6899 31.1024 51.1649C31.4711 51.4037 31.9611 51.3674 32.2936 51.0537L33.8224 49.6137C34.5736 50.0262 35.3661 50.3549 36.1886 50.5949L36.2511 52.6924C36.2674 53.2212 36.6936 53.6362 37.2236 53.6362H41.7674C42.2961 53.6362 42.7236 53.2224 42.7399 52.6937L42.8024 50.5962C43.6236 50.3574 44.4161 50.0287 45.1661 49.6162L46.6974 51.0549C47.0824 51.4174 47.6774 51.4074 48.0511 51.0337L51.2649 47.8212C51.6386 47.4474 51.6474 46.8524 51.2861 46.4674L49.8474 44.9362C50.2586 44.1862 50.5874 43.3949 50.8261 42.5749L52.9249 42.5099C53.4536 42.4937 53.8674 42.0674 53.8674 41.5374V36.9937C53.8661 36.4649 53.4524 36.0374 52.9236 36.0212ZM26.4361 20.2362C28.3949 18.4612 31.2949 17.2599 34.0036 17.0674C33.9424 19.6612 32.8024 22.5374 30.9874 24.5812C28.7336 27.1199 26.5474 27.6887 25.2524 27.3724C24.4249 27.1712 23.8586 26.6224 23.6561 25.8262C23.2586 24.2637 24.2986 22.1737 26.4361 20.2362ZM21.9836 25.8262C21.7811 26.6224 21.2149 27.1712 20.3874 27.3724C19.0924 27.6874 16.9061 27.1199 14.6524 24.5812C12.8374 22.5374 11.6974 19.6612 11.6361 17.0674C14.3449 17.2599 17.2449 18.4624 19.2036 20.2362C21.3411 22.1737 22.3811 24.2637 21.9836 25.8262ZM21.9836 38.1087C21.7811 38.9049 21.2149 39.4537 20.3874 39.6549C19.0924 39.9699 16.9061 39.4024 14.6524 36.8637C12.8374 34.8199 11.6974 31.9437 11.6361 29.3487C14.3449 29.5412 17.2449 30.7437 19.2036 32.5174C21.3411 34.4549 22.3811 36.5449 21.9836 38.1087ZM21.9836 50.3912C21.7811 51.1874 21.2149 51.7362 20.3874 51.9374C19.0924 52.2524 16.9061 51.6849 14.6524 49.1462C12.8374 47.1024 11.6974 44.2262 11.6361 41.6312C14.3449 41.8237 17.2449 43.0262 19.2036 44.7999C21.3411 46.7374 22.3811 48.8274 21.9836 50.3912ZM26.4361 32.5187C26.7599 32.2262 27.1124 31.9487 27.4849 31.6874C27.5274 31.8237 27.6011 31.9524 27.7061 32.0649L29.1461 33.5937C28.7336 34.3449 28.4049 35.1374 28.1649 35.9599L26.0661 36.0224C25.5374 36.0387 25.1236 36.4649 25.1236 36.9949V39.6212C24.4586 39.4237 23.9674 38.9824 23.7311 38.3487C23.2761 37.1262 23.7474 34.9537 26.4361 32.5187ZM19.6711 11.2874C19.8011 8.64742 21.0024 5.74617 22.7811 3.69492C24.5724 5.57242 25.7999 8.41242 25.9611 11.1412C26.1624 14.5299 25.0174 16.4774 23.8799 17.1699C23.1524 17.6124 22.3636 17.6249 21.6574 17.2049C20.2724 16.3812 19.5299 14.1687 19.6711 11.2874ZM23.5699 40.5112C24.0136 40.8299 24.5386 41.0512 25.1224 41.1587V41.5362C25.1224 42.0649 25.5361 42.4924 26.0661 42.5087L26.9186 42.5337C26.3849 42.8887 25.8861 43.2737 25.4286 43.6874C24.6924 44.3549 24.0711 45.0412 23.5699 45.7299V40.5112ZM25.1711 51.9162C24.3749 51.6949 23.8336 51.1399 23.6474 50.3524C23.2774 48.7924 24.3199 46.7174 26.4361 44.7999C27.0249 44.2662 27.6924 43.7862 28.4274 43.3637C28.6274 43.9049 28.8674 44.4299 29.1449 44.9374L27.7049 46.4662C27.3424 46.8512 27.3511 47.4462 27.7249 47.8199L30.0236 50.1187C28.3436 51.6349 26.5649 52.3024 25.1711 51.9162ZM52.3661 41.0262L50.3886 41.0874C49.9511 41.1012 49.5849 41.3949 49.4761 41.8187C49.2336 42.7674 48.8586 43.6749 48.3574 44.5162C48.1336 44.8924 48.1849 45.3599 48.4849 45.6787L49.8411 47.1212L47.3511 49.6112L45.9086 48.2549C45.5899 47.9549 45.1224 47.9037 44.7461 48.1274C43.9024 48.6287 42.9936 49.0049 42.0461 49.2462C41.6211 49.3549 41.3274 49.7212 41.3149 50.1599L41.2561 52.1362H37.7361L37.6774 50.1599C37.6636 49.7212 37.3699 49.3549 36.9461 49.2474C35.9961 49.0049 35.0874 48.6287 34.2436 48.1274C33.8674 47.9037 33.3986 47.9549 33.0799 48.2549L31.6399 49.6112L29.1511 47.1224L30.5074 45.6812C30.8074 45.3624 30.8586 44.8949 30.6349 44.5187C30.1336 43.6749 29.7561 42.7649 29.5149 41.8162C29.4074 41.3912 29.0399 41.0974 28.6011 41.0837L26.6249 41.0249V37.5049L28.6011 37.4462C29.0399 37.4337 29.4061 37.1399 29.5149 36.7137C29.7574 35.7637 30.1336 34.8549 30.6349 34.0112C30.8586 33.6349 30.8074 33.1674 30.5074 32.8474L29.1511 31.4074L31.6399 28.9187L33.0799 30.2749C33.3986 30.5762 33.8674 30.6274 34.2436 30.4037C35.0874 29.9024 35.9949 29.5262 36.9436 29.2837C37.3674 29.1749 37.6611 28.8087 37.6749 28.3712L37.7361 26.3924H41.2574L41.3186 28.3712C41.3324 28.8087 41.6261 29.1749 42.0499 29.2837C42.9986 29.5262 43.9061 29.9024 44.7474 30.4012C45.1236 30.6249 45.5924 30.5737 45.9099 30.2737L47.3524 28.9174L49.8424 31.4074L48.4861 32.8499C48.1861 33.1687 48.1349 33.6362 48.3586 34.0124C48.8586 34.8549 49.2349 35.7624 49.4774 36.7099C49.5861 37.1337 49.9524 37.4274 50.3899 37.4412L52.3686 37.5024V41.0262H52.3661ZM41.4374 32.0149C39.5011 31.4962 37.4774 31.7624 35.7411 32.7649C34.0049 33.7674 32.7624 35.3862 32.2436 37.3224C31.1724 41.3199 33.5536 45.4449 37.5511 46.5162C38.1999 46.6899 38.8511 46.7724 39.4924 46.7724C42.8061 46.7724 45.8474 44.5574 46.7449 41.2074C47.2636 39.2712 46.9974 37.2474 45.9949 35.5112C44.9924 33.7749 43.3736 32.5337 41.4374 32.0149ZM45.2961 40.8199C44.4386 44.0187 41.1386 45.9249 37.9399 45.0674C34.7411 44.2099 32.8361 40.9099 33.6924 37.7112C34.1074 36.1612 35.1011 34.8662 36.4911 34.0637C37.8811 33.2612 39.4986 33.0487 41.0486 33.4637C42.5986 33.8787 43.8936 34.8724 44.6961 36.2624C45.4986 37.6524 45.7111 39.2699 45.2961 40.8199Z" fill="#25B567"/>
</svg>
