<svg width="64" height="64" viewBox="0 0 64 64" fill="none" xmlns="http://www.w3.org/2000/svg">
<path fill-rule="evenodd" clip-rule="evenodd" d="M9.35791 23.2645C10.36 11.6388 20.1145 2.51514 32 2.51514C43.8855 2.51514 53.64 11.6388 54.6422 23.2645H50.6305C49.6418 13.8471 41.6779 6.50851 32 6.50851C22.3222 6.50851 14.3583 13.8471 13.3695 23.2645H9.35791Z" fill="#136528"/>
<path fill-rule="evenodd" clip-rule="evenodd" d="M8.20972 44.3052C8.87759 44.3563 9.68559 44.3856 10.4973 44.3381C10.9297 46.5309 11.5047 50.6863 13.857 53.0386C15.9856 55.1672 18.8727 56.3631 21.8831 56.3631H27.1527C27.0853 56.7312 27.0508 57.1069 27.0508 57.4862C27.0508 57.8698 27.0855 58.2452 27.1516 58.6093H21.8831C18.277 58.6093 14.8186 57.1768 12.2686 54.6269C9.36072 51.7191 8.66159 47.1098 8.20972 44.3052Z" fill="#136528"/>
<path fill-rule="evenodd" clip-rule="evenodd" d="M14.3949 25.0892C14.3949 23.6541 13.3655 22.4907 12.0955 22.4907H7.31287C5.37337 22.4907 3.51325 23.3615 2.14188 24.9112C0.7705 26.4611 0 28.5631 0 30.755V37.1296C0 39.3215 0.7705 41.4235 2.14188 42.9732C3.51325 44.5231 5.37337 45.3937 7.31287 45.3937H12.0955C13.3655 45.3937 14.3949 44.2305 14.3949 42.7953V25.0892Z" fill="#97DB4F"/>
<path fill-rule="evenodd" clip-rule="evenodd" d="M8.24825 22.4907V45.3937H7.31287C5.37337 45.3937 3.51325 44.5231 2.14188 42.9732C0.7705 41.4235 0 39.3215 0 37.1296V30.755C0 28.5631 0.7705 26.4611 2.14188 24.9112C3.51325 23.3615 5.37337 22.4907 7.31287 22.4907H8.24825Z" fill="#BEF636"/>
<path fill-rule="evenodd" clip-rule="evenodd" d="M64.0001 30.755C64.0001 28.5631 63.2296 26.4611 61.8582 24.9112C60.4868 23.3615 58.6267 22.4907 56.6872 22.4907H51.9046C50.6346 22.4907 49.6052 23.6541 49.6052 25.0892V42.7953C49.6052 44.2305 50.6346 45.3937 51.9046 45.3937H56.6872C58.6267 45.3937 60.4868 44.5231 61.8582 42.9732C63.2296 41.4235 64.0001 39.3215 64.0001 37.1296V30.755Z" fill="#97DB4F"/>
<path fill-rule="evenodd" clip-rule="evenodd" d="M55.7517 22.4907H56.6871C58.6266 22.4907 60.4867 23.3615 61.8581 24.9112C63.2295 26.4611 64 28.5631 64 30.755V37.1296C64 39.3215 63.2295 41.4235 61.8581 42.9732C60.4867 44.5231 58.6266 45.3937 56.6871 45.3937H55.7517V22.4907Z" fill="#BEF636"/>
<path fill-rule="evenodd" clip-rule="evenodd" d="M38.4467 57.4862C38.4467 55.2778 36.6565 53.4875 34.4481 53.4875H29.5518C28.4913 53.4875 27.4742 53.9089 26.7243 54.6588C25.9745 55.4087 25.5532 56.4257 25.5532 57.4862C25.5532 59.6946 27.3435 61.4848 29.5518 61.4848H34.4481C36.6565 61.4848 38.4467 59.6946 38.4467 57.4862Z" fill="#97DB4F"/>
</svg>
