<svg width="64" height="64" viewBox="0 0 64 64" fill="none" xmlns="http://www.w3.org/2000/svg">
<g clip-path="url(#clip0_178_17235)">
<path fill-rule="evenodd" clip-rule="evenodd" d="M9.35742 23.2645C10.3595 11.6388 20.114 2.51514 31.9995 2.51514C43.885 2.51514 53.6395 11.6388 54.6417 23.2645H50.63C49.6413 13.8471 41.6774 6.50851 31.9995 6.50851C22.3217 6.50851 14.3578 13.8471 13.369 23.2645H9.35742Z" fill="#136528"/>
<path fill-rule="evenodd" clip-rule="evenodd" d="M8.20996 44.3052C8.87784 44.3563 9.68584 44.3856 10.4976 44.3381C10.93 46.5309 11.505 50.6863 13.8572 53.0386C15.9858 55.1672 18.873 56.3631 21.8833 56.3631H27.153C27.0856 56.7312 27.0511 57.1069 27.0511 57.4862C27.0511 57.8698 27.0857 58.2452 27.1518 58.6093H21.8833C18.2772 58.6093 14.8188 57.1768 12.2688 54.6269C9.36096 51.7191 8.66184 47.1098 8.20996 44.3052Z" fill="#136528"/>
<path fill-rule="evenodd" clip-rule="evenodd" d="M14.3949 25.0892C14.3949 23.6541 13.3655 22.4907 12.0955 22.4907H7.31287C5.37337 22.4907 3.51325 23.3615 2.14188 24.9112C0.7705 26.4611 0 28.5631 0 30.755V37.1296C0 39.3215 0.7705 41.4235 2.14188 42.9732C3.51325 44.5231 5.37337 45.3937 7.31287 45.3937H12.0955C13.3655 45.3937 14.3949 44.2305 14.3949 42.7953V25.0892Z" fill="#97DB4F"/>
<path fill-rule="evenodd" clip-rule="evenodd" d="M8.24825 22.4907V45.3937H7.31287C5.37337 45.3937 3.51325 44.5231 2.14188 42.9732C0.7705 41.4235 0 39.3215 0 37.1296V30.755C0 28.5631 0.7705 26.4611 2.14188 24.9112C3.51325 23.3615 5.37337 22.4907 7.31287 22.4907H8.24825Z" fill="#BEF636"/>
<path fill-rule="evenodd" clip-rule="evenodd" d="M64.0003 30.755C64.0003 28.5631 63.2298 26.4611 61.8585 24.9112C60.4871 23.3615 58.627 22.4907 56.6875 22.4907H51.9048C50.6348 22.4907 49.6055 23.6541 49.6055 25.0892V42.7953C49.6055 44.2305 50.6348 45.3937 51.9048 45.3937H56.6875C58.627 45.3937 60.4871 44.5231 61.8585 42.9732C63.2298 41.4235 64.0003 39.3215 64.0003 37.1296V30.755Z" fill="#97DB4F"/>
<path fill-rule="evenodd" clip-rule="evenodd" d="M55.752 22.4907H56.6873C58.6268 22.4907 60.487 23.3615 61.8583 24.9112C63.2297 26.4611 64.0002 28.5631 64.0002 30.755V37.1296C64.0002 39.3215 63.2297 41.4235 61.8583 42.9732C60.487 44.5231 58.6268 45.3937 56.6873 45.3937H55.752V22.4907Z" fill="#BEF636"/>
<path fill-rule="evenodd" clip-rule="evenodd" d="M38.4472 57.4864C38.4472 55.278 36.657 53.4878 34.4486 53.4878H29.5523C28.4918 53.4878 27.4747 53.9092 26.7248 54.659C25.975 55.4089 25.5537 56.4259 25.5537 57.4864C25.5537 59.6948 27.344 61.485 29.5523 61.485H34.4486C36.657 61.485 38.4472 59.6948 38.4472 57.4864Z" fill="#97DB4F"/>
</g>
<defs>
<clipPath id="clip0_178_17235">
<rect width="64" height="64" fill="white"/>
</clipPath>
</defs>
</svg>
