<svg width="51" height="34" viewBox="0 0 51 34" fill="none" xmlns="http://www.w3.org/2000/svg">
<path d="M0 21.148C0 16.8413 1.59235 12.6933 4.77704 8.704C8.0066 4.71467 11.595 1.81333 15.5422 0L16.8206 2.72C13.6807 4.53333 10.9894 6.8 8.7467 9.52C6.54881 12.1947 5.44987 14.9147 5.44987 17.68C5.44987 18.224 5.60686 18.632 5.92084 18.904C6.27968 19.176 6.72823 19.312 7.26649 19.312C10.1821 18.9947 11.752 18.836 11.9763 18.836C13.4565 18.836 15.0488 19.38 16.7533 20.468C18.5026 21.556 19.3773 23.4147 19.3773 26.044C19.3773 28.2653 18.6596 30.1467 17.2243 31.688C15.7889 33.2293 13.748 34 11.1016 34C8.0066 34 5.38259 32.7987 3.22955 30.396C1.07652 27.948 0 24.8653 0 21.148ZM31.6227 21.692C31.6227 16.8413 33.2375 12.4667 36.467 8.568C39.7414 4.624 43.3074 1.768 47.1649 0L48.4433 2.72C45.3034 4.53333 42.6121 6.77733 40.3694 9.452C38.1715 12.0813 37.0726 14.7787 37.0726 17.544C37.0726 18.0427 37.2071 18.4733 37.4763 18.836C37.7454 19.1533 38.2164 19.312 38.8892 19.312C41.7599 18.9947 43.3298 18.836 43.5989 18.836C45.2586 18.836 46.8958 19.448 48.5106 20.672C50.1702 21.8507 51 23.6187 51 25.976C51 27.8347 50.3496 29.648 49.0488 31.416C47.7929 33.1387 45.6623 34 42.657 34C39.4274 34 36.781 32.7533 34.7177 30.26C32.6544 27.7213 31.6227 24.8653 31.6227 21.692Z" fill="#009444"/>
</svg>
