<svg width="18" height="18" viewBox="0 0 18 18" fill="none" xmlns="http://www.w3.org/2000/svg">
<path d="M17.125 5.25V8.375C17.125 8.54076 17.0592 8.69973 16.9419 8.81694C16.8247 8.93415 16.6658 9 16.5 9C15.1944 9.00303 13.9075 8.6891 12.75 8.08516V11.1875C12.75 12.7622 12.1244 14.2724 11.0109 15.3859C9.89745 16.4994 8.38722 17.125 6.8125 17.125C5.23778 17.125 3.72755 16.4994 2.61405 15.3859C1.50056 14.2724 0.875 12.7622 0.875 11.1875C0.875 8.30469 2.97734 5.75625 5.76562 5.25938C5.85558 5.24339 5.94794 5.24731 6.03621 5.27088C6.12447 5.29444 6.2065 5.33707 6.27652 5.39576C6.34653 5.45446 6.40283 5.52778 6.44144 5.61058C6.48005 5.69338 6.50004 5.78364 6.5 5.875V9.21016C6.50004 9.32844 6.46651 9.44431 6.40331 9.5443C6.34011 9.64429 6.24983 9.72428 6.14297 9.775C5.89034 9.89481 5.67449 10.0802 5.51793 10.3119C5.36137 10.5435 5.26983 10.8129 5.25288 11.092C5.23592 11.3711 5.29416 11.6496 5.42152 11.8985C5.54888 12.1474 5.74069 12.3576 5.97695 12.5071C6.21322 12.6566 6.48527 12.74 6.76474 12.7486C7.0442 12.7571 7.32084 12.6905 7.5658 12.5557C7.81076 12.4209 8.01506 12.2229 8.15739 11.9822C8.29972 11.7415 8.37487 11.4671 8.375 11.1875V0.875C8.375 0.70924 8.44085 0.550268 8.55806 0.433058C8.67527 0.315848 8.83424 0.25 9 0.25H12.125C12.2908 0.25 12.4497 0.315848 12.5669 0.433058C12.6842 0.550268 12.75 0.70924 12.75 0.875C12.751 1.86924 13.1465 2.82247 13.8495 3.52551C14.5525 4.22855 15.5058 4.62397 16.5 4.625C16.6658 4.625 16.8247 4.69085 16.9419 4.80806C17.0592 4.92527 17.125 5.08424 17.125 5.25Z" fill="#0A4519"/>
</svg>
