<svg width="213" height="56" viewBox="0 0 213 56" fill="none" xmlns="http://www.w3.org/2000/svg">
<path d="M63.8242 15.9652H65.6994L73.8979 27.6286V15.9652H76.3022V32.5255H74.3789L66.2525 20.9571V32.5255H63.8242V15.9652Z" fill="#1F2721"/>
<path d="M92.9353 25.5702C92.9514 25.6334 92.9595 25.6963 92.9595 25.7596C92.9595 25.8226 92.9595 25.8936 92.9595 25.9725C92.9595 26.2248 92.9353 26.4615 92.8875 26.6821H81.8761C81.8761 27.5182 82.1045 28.2358 82.5614 28.835C83.0181 29.4344 83.5871 29.8954 84.2684 30.2188C84.9497 30.5421 85.6106 30.704 86.2518 30.704C87.0533 30.704 87.8026 30.5303 88.4997 30.1834C89.197 29.8363 89.738 29.3003 90.1226 28.5748H92.5509C92.2304 29.5053 91.7415 30.282 91.0845 30.905C90.4271 31.528 89.678 31.9932 88.8364 32.3009C87.9948 32.6084 87.1252 32.7622 86.2277 32.7622C85.3941 32.7622 84.5767 32.624 83.7753 32.3482C82.9739 32.0721 82.2528 31.6582 81.6114 31.1062C80.9702 30.5541 80.4615 29.8641 80.0848 29.0362C79.7082 28.208 79.5198 27.2421 79.5198 26.1381C79.5198 25.0341 79.7082 24.0721 80.0848 23.2517C80.4615 22.4317 80.9703 21.7456 81.6114 21.1938C82.2528 20.6417 82.9739 20.2277 83.7753 19.9515C84.5767 19.6755 85.4102 19.5377 86.2756 19.5377C87.3497 19.5377 88.3794 19.7625 89.3652 20.212C90.351 20.6613 91.1722 21.3318 91.8296 22.2227C92.4865 23.1138 92.8553 24.2299 92.9352 25.5702H92.9353ZM90.4592 24.7659C90.3149 23.9932 90.0305 23.374 89.6059 22.909C89.1811 22.4436 88.676 22.1045 88.0909 21.8916C87.506 21.6786 86.9009 21.5722 86.2757 21.5722C85.6507 21.5722 85.0376 21.6786 84.4366 21.8916C83.8356 22.1045 83.3147 22.4477 82.874 22.9208C82.4329 23.3939 82.1327 24.009 81.9723 24.7661H90.4592V24.7659Z" fill="#1F2721"/>
<path d="M96.9949 32.5255V21.6431H94.9993V19.6322H96.9949C96.9949 18.2285 97.3676 17.2232 98.1127 16.6159C98.8582 16.0088 99.9362 15.7052 101.346 15.7052C101.491 15.7052 101.643 15.7089 101.803 15.7169C101.964 15.7248 102.124 15.7364 102.284 15.7522V17.6923C102.14 17.6766 101.996 17.6645 101.851 17.6567C101.707 17.6489 101.571 17.645 101.443 17.645C100.818 17.645 100.313 17.7788 99.9279 18.0471C99.5432 18.3152 99.3509 18.8437 99.3509 19.6321H101.996V21.643H99.3509V32.5254H96.9948L96.9949 32.5255Z" fill="#1F2721"/>
<path d="M117.236 25.5702C117.252 25.6334 117.26 25.6963 117.26 25.7596C117.26 25.8226 117.26 25.8936 117.26 25.9725C117.26 26.2248 117.236 26.4615 117.188 26.6821H106.177C106.177 27.5182 106.405 28.2358 106.862 28.835C107.319 29.4344 107.888 29.8954 108.569 30.2188C109.251 30.5421 109.912 30.704 110.553 30.704C111.354 30.704 112.103 30.5303 112.801 30.1834C113.498 29.8363 114.039 29.3003 114.424 28.5748H116.852C116.531 29.5053 116.042 30.282 115.385 30.905C114.728 31.528 113.979 31.9932 113.137 32.3009C112.296 32.6084 111.426 32.7622 110.529 32.7622C109.695 32.7622 108.878 32.624 108.076 32.3482C107.275 32.0721 106.554 31.6582 105.912 31.1062C105.271 30.5541 104.763 29.8641 104.386 29.0362C104.009 28.208 103.821 27.2421 103.821 26.1381C103.821 25.0341 104.009 24.0721 104.386 23.2517C104.763 22.4317 105.271 21.7456 105.912 21.1938C106.554 20.6417 107.275 20.2277 108.076 19.9515C108.878 19.6755 109.711 19.5377 110.577 19.5377C111.651 19.5377 112.68 19.7625 113.666 20.212C114.652 20.6613 115.473 21.3318 116.13 22.2227C116.788 23.1138 117.156 24.2299 117.236 25.5702H117.236ZM114.76 24.7659C114.616 23.9932 114.331 23.374 113.907 22.909C113.482 22.4436 112.977 22.1045 112.392 21.8916C111.807 21.6786 111.202 21.5722 110.577 21.5722C109.952 21.5722 109.339 21.6786 108.738 21.8916C108.137 22.1045 107.616 22.4477 107.175 22.9208C106.734 23.3939 106.434 24.009 106.273 24.7661H114.76V24.7659Z" fill="#1F2721"/>
<path d="M121.969 23.4173C121.969 23.8118 122.069 24.119 122.27 24.3401C122.47 24.5609 122.73 24.7187 123.051 24.8132C123.372 24.9078 123.704 24.9669 124.049 24.9906C124.393 25.0142 124.71 25.034 124.998 25.0498C125.607 25.0971 126.22 25.1878 126.838 25.3218C127.455 25.4558 128.02 25.6609 128.533 25.9369C129.045 26.2128 129.458 26.5913 129.771 27.0725C130.083 27.5534 130.239 28.1567 130.239 28.8822C130.239 29.6234 130.075 30.2426 129.747 30.7392C129.418 31.2359 128.985 31.6303 128.448 31.9221C127.911 32.2139 127.322 32.4227 126.681 32.549C126.04 32.6752 125.415 32.7384 124.806 32.7384C123.908 32.7384 123.063 32.6044 122.269 32.3361C121.476 32.0682 120.823 31.6304 120.31 31.0232C119.797 30.4158 119.508 29.6077 119.444 28.5983H121.801C121.849 29.3081 122.169 29.8403 122.762 30.1951C123.355 30.5501 124.053 30.7275 124.854 30.7275C125.255 30.7275 125.687 30.6763 126.152 30.5736C126.617 30.4712 127.022 30.2821 127.367 30.0059C127.711 29.7299 127.884 29.3396 127.884 28.835C127.884 28.4721 127.775 28.1842 127.559 27.9713C127.343 27.7586 127.066 27.593 126.729 27.4747C126.393 27.3563 126.048 27.2736 125.696 27.2263C125.343 27.179 125.023 27.1474 124.734 27.1317C124.157 27.1001 123.568 27.0253 122.967 26.907C122.366 26.7886 121.813 26.5955 121.308 26.3272C120.803 26.0592 120.398 25.6926 120.094 25.2272C119.789 24.7621 119.637 24.1746 119.637 23.4647C119.637 22.4711 119.893 21.6827 120.406 21.0992C120.919 20.5156 121.576 20.0975 122.378 19.8451C123.179 19.5929 123.997 19.4667 124.83 19.4667C125.696 19.4667 126.497 19.5929 127.234 19.8451C127.972 20.0975 128.581 20.4997 129.062 21.0518C129.542 21.6038 129.807 22.3293 129.855 23.2282H127.523C127.459 22.6605 127.158 22.2383 126.621 21.9625C126.084 21.6865 125.463 21.5487 124.758 21.5487C124.037 21.5487 123.392 21.6945 122.823 21.9863C122.254 22.2781 121.969 22.7552 121.969 23.4176V23.4173Z" fill="#1F2721"/>
<path d="M146.321 26.1381C146.321 27.2421 146.125 28.208 145.732 29.0362C145.339 29.8642 144.806 30.5542 144.133 31.1062C143.46 31.6582 142.703 32.072 141.861 32.3482C141.02 32.624 140.158 32.7622 139.277 32.7622C138.411 32.7622 137.562 32.624 136.728 32.3482C135.895 32.072 135.145 31.6582 134.48 31.1062C133.815 30.5541 133.286 29.8641 132.894 29.0362C132.501 28.208 132.304 27.2421 132.304 26.1381C132.304 25.0341 132.501 24.068 132.894 23.24C133.286 22.412 133.819 21.722 134.492 21.1701C135.165 20.618 135.923 20.204 136.764 19.928C137.606 19.6519 138.467 19.514 139.349 19.514C140.23 19.514 141.084 19.6519 141.909 19.928C142.735 20.204 143.48 20.618 144.145 21.1701C144.811 21.7221 145.339 22.4121 145.732 23.24C146.125 24.068 146.321 25.0341 146.321 26.1381H146.321ZM134.66 26.1381C134.66 27.1474 134.889 27.9873 135.346 28.6577C135.802 29.3279 136.387 29.8326 137.101 30.1717C137.814 30.5107 138.555 30.6805 139.325 30.6805C140.11 30.6805 140.855 30.5109 141.561 30.1717C142.266 29.8327 142.847 29.324 143.304 28.6457C143.76 27.9675 143.989 27.1317 143.989 26.1382C143.989 25.1288 143.765 24.2851 143.316 23.6068C142.867 22.9286 142.286 22.4201 141.573 22.0809C140.86 21.7418 140.118 21.5722 139.349 21.5722C138.563 21.5722 137.814 21.7417 137.101 22.0809C136.388 22.42 135.802 22.9247 135.346 23.5951C134.889 24.2653 134.661 25.1131 134.661 26.1382L134.66 26.1381Z" fill="#1F2721"/>
<path d="M149.539 32.5255V15.9652H151.895V32.5255H149.539Z" fill="#1F2721"/>
<path d="M156.101 29.6865C156.55 29.6865 156.914 29.8205 157.195 30.0888C157.475 30.3569 157.616 30.7118 157.616 31.1535C157.616 31.5004 157.475 31.8276 157.195 32.1351C156.914 32.4427 156.55 32.5964 156.101 32.5964C155.7 32.5964 155.36 32.4426 155.079 32.1351C154.799 31.8275 154.658 31.5003 154.658 31.1535C154.658 30.7118 154.799 30.3568 155.079 30.0888C155.36 29.8205 155.7 29.6865 156.101 29.6865Z" fill="#1F2721"/>
<path d="M173.266 27.6521C173.058 28.7877 172.617 29.73 171.944 30.479C171.271 31.2284 170.469 31.7881 169.54 32.1588C168.61 32.5293 167.648 32.7148 166.655 32.7148C165.821 32.7148 165.004 32.5767 164.202 32.3009C163.401 32.0248 162.68 31.6109 162.038 31.0589C161.397 30.5068 160.889 29.8208 160.512 29.0005C160.135 28.1804 159.947 27.2184 159.947 26.1143C159.947 25.0104 160.135 24.0443 160.512 23.2163C160.889 22.3882 161.401 21.7021 162.05 21.1582C162.7 20.614 163.425 20.2039 164.226 19.9279C165.028 19.6518 165.853 19.5139 166.703 19.5139C167.696 19.5139 168.65 19.6992 169.564 20.0699C170.477 20.4406 171.271 21.0044 171.944 21.7614C172.617 22.5184 173.058 23.4646 173.266 24.6003H170.838C170.549 23.5752 170.016 22.8143 169.239 22.3173C168.462 21.8204 167.624 21.572 166.727 21.572C166.005 21.572 165.304 21.7377 164.623 22.0688C163.942 22.3999 163.385 22.9008 162.952 23.5711C162.519 24.2413 162.303 25.0891 162.303 26.1142C162.303 27.1393 162.519 27.9911 162.952 28.6691C163.385 29.3474 163.942 29.8519 164.623 30.1832C165.304 30.5145 166.013 30.6801 166.751 30.6801C167.648 30.6801 168.482 30.4278 169.251 29.9229C170.021 29.4182 170.549 28.6614 170.838 27.652H173.266L173.266 27.6521Z" fill="#1F2721"/>
<path d="M189.731 26.1381C189.731 27.2421 189.535 28.208 189.143 29.0362C188.75 29.8642 188.217 30.5542 187.544 31.1062C186.87 31.6582 186.113 32.072 185.272 32.3482C184.43 32.624 183.569 32.7622 182.687 32.7622C181.822 32.7622 180.972 32.624 180.139 32.3482C179.305 32.072 178.556 31.6582 177.891 31.1062C177.226 30.5541 176.696 29.8641 176.304 29.0362C175.911 28.208 175.715 27.2421 175.715 26.1381C175.715 25.0341 175.911 24.068 176.304 23.24C176.696 22.412 177.23 21.722 177.903 21.1701C178.576 20.618 179.333 20.204 180.175 19.928C181.016 19.6519 181.878 19.514 182.759 19.514C183.641 19.514 184.494 19.6519 185.32 19.928C186.145 20.204 186.89 20.618 187.556 21.1701C188.221 21.7221 188.75 22.4121 189.143 23.24C189.535 24.068 189.731 25.0341 189.731 26.1381H189.731ZM178.071 26.1381C178.071 27.1474 178.299 27.9873 178.756 28.6577C179.213 29.3279 179.798 29.8326 180.511 30.1717C181.224 30.5107 181.966 30.6805 182.735 30.6805C183.52 30.6805 184.266 30.5109 184.971 30.1717C185.676 29.8327 186.257 29.324 186.714 28.6457C187.171 27.9675 187.399 27.1317 187.399 26.1382C187.399 25.1288 187.175 24.2851 186.726 23.6068C186.277 22.9286 185.696 22.4201 184.983 22.0809C184.27 21.7418 183.529 21.5722 182.759 21.5722C181.974 21.5722 181.224 21.7417 180.511 22.0809C179.798 22.42 179.213 22.9247 178.756 23.5951C178.299 24.2653 178.071 25.1131 178.071 26.1382L178.071 26.1381Z" fill="#1F2721"/>
<path d="M195.618 21.3121C196.067 20.6653 196.599 20.2039 197.217 19.928C197.834 19.6519 198.519 19.514 199.272 19.514C200.186 19.514 201.031 19.6598 201.809 19.9516C202.586 20.2434 203.215 20.8389 203.696 21.7378C204.513 20.2868 205.9 19.5456 207.855 19.514C209.057 19.514 210.035 19.7664 210.789 20.2711C211.542 20.7759 212.099 21.4579 212.46 22.3175C212.82 23.177 213 24.1511 213 25.2393V32.5257H210.644V25.263C210.644 24.6635 210.576 24.088 210.44 23.5359C210.304 22.9839 210.039 22.5344 209.647 22.1874C209.254 21.8403 208.681 21.667 207.927 21.667C206.774 21.667 205.908 22.0142 205.331 22.708C204.754 23.402 204.465 24.2694 204.465 25.3105V32.5258H202.109V25.3341C202.109 24.7347 202.021 24.1553 201.845 23.5954C201.668 23.0353 201.372 22.5741 200.955 22.2113C200.538 21.8487 199.969 21.6671 199.248 21.6671C198.222 21.6671 197.361 22.0022 196.664 22.6727C195.967 23.343 195.618 24.3089 195.618 25.5705V32.526H193.261V19.5144H195.618V21.3126V21.3121Z" fill="#1F2721"/>
<path d="M63.824 39.244C63.8932 39.0212 63.9279 38.7194 63.9279 38.3387V36.3772C63.9279 36.1938 63.9179 36.0233 63.8978 35.8651C63.8778 35.707 63.853 35.576 63.824 35.4717H64.8753C64.8463 35.5831 64.8225 35.7115 64.8042 35.857C64.7861 36.0026 64.7768 36.1652 64.7768 36.3448V37.0022H67.17V36.3448C67.17 36.1614 67.1609 35.9962 67.1427 35.8489C67.1245 35.7017 67.1006 35.576 67.0714 35.4719H68.1229C68.0937 35.5761 68.0701 35.7071 68.0517 35.8652C68.0335 36.0234 68.0243 36.1939 68.0243 36.3773V38.3388C68.0243 38.5222 68.0324 38.6926 68.049 38.8509C68.0653 39.0089 68.09 39.1401 68.1229 39.2443H67.0714C67.1006 39.1401 67.1244 39.0142 67.1427 38.8671C67.1608 38.7198 67.17 38.5546 67.17 38.3713V37.7031H64.7768V38.3713C64.7768 38.5474 64.7841 38.7081 64.7988 38.8537C64.8134 38.9992 64.8389 39.1293 64.8753 39.2444H63.824V39.244Z" fill="#009444"/>
<path d="M73.3896 39.244C73.4589 39.0212 73.4936 38.7194 73.4936 38.3387V36.3772C73.4936 36.1938 73.4836 36.0233 73.4634 35.8651C73.4435 35.707 73.4186 35.576 73.3896 35.4717H77.1411L77.278 36.2855C77.2157 36.2567 77.1237 36.2333 77.0014 36.2153C76.8792 36.1974 76.723 36.1883 76.5331 36.1883H74.3424V37.002H76.106C76.358 37.002 76.5496 36.9913 76.6811 36.9697V37.735C76.5496 37.7134 76.358 37.7026 76.106 37.7026H74.3424V38.5271H76.5714C76.7869 38.5271 76.9602 38.5146 77.0918 38.4894C77.2233 38.4641 77.3293 38.43 77.4094 38.3868L77.2507 39.2437H73.3898L73.3896 39.244Z" fill="#009444"/>
<path d="M86.4279 39.3247C86.2235 39.3247 86.0581 39.297 85.9323 39.2414C85.8062 39.1857 85.7039 39.1112 85.6256 39.0176C85.5471 38.9242 85.4796 38.8218 85.4229 38.7104C85.3664 38.5992 85.3097 38.4887 85.2532 38.379C85.1966 38.2694 85.1244 38.1679 85.0369 38.0744C84.9494 37.9811 84.8352 37.9066 84.6947 37.8509C84.5541 37.795 84.3706 37.7673 84.1442 37.7673C84.0932 37.7673 84.0184 37.769 83.9198 37.7726C83.8212 37.7762 83.7254 37.7807 83.6324 37.7861C83.5392 37.7914 83.4707 37.8012 83.4269 37.8157V38.3762C83.4269 38.7391 83.4598 39.0282 83.5253 39.2439H82.4739C82.5031 39.1362 82.5268 39.0041 82.5451 38.8478C82.5632 38.6914 82.5724 38.5218 82.5724 38.3385V36.3769C82.5724 36.1936 82.5634 36.023 82.5451 35.8649C82.527 35.7067 82.5031 35.5757 82.4739 35.4715H85.1245C85.4313 35.4715 85.7015 35.5091 85.9353 35.5845C86.1689 35.6602 86.3513 35.7715 86.4829 35.9187C86.6143 36.0661 86.68 36.2456 86.68 36.4576C86.68 36.6588 86.6178 36.8375 86.4938 36.9937C86.3696 37.15 86.1971 37.2722 85.9762 37.3602C85.7553 37.4481 85.497 37.4921 85.2012 37.4921H84.867V37.5353H84.911C85.1044 37.5353 85.265 37.5587 85.3929 37.6054C85.5208 37.6521 85.6267 37.7113 85.7107 37.7831C85.7946 37.8551 85.8668 37.9315 85.9269 38.0122C85.9871 38.0931 86.0446 38.1695 86.0995 38.2414C86.1542 38.3131 86.2154 38.3724 86.2828 38.4191C86.3503 38.4657 86.4333 38.4893 86.532 38.4893C86.6817 38.4893 86.7949 38.455 86.8715 38.3867C86.9482 38.3185 87.0101 38.2269 87.0577 38.1118L87.0959 39.0442C87.0339 39.1267 86.9419 39.1942 86.8195 39.2462C86.6972 39.2982 86.5666 39.3243 86.4279 39.3243V39.3247ZM83.4267 37.1693H84.9984C85.2503 37.1693 85.4511 37.1271 85.6009 37.0428C85.7506 36.9584 85.8254 36.8388 85.8254 36.6844C85.8254 36.5334 85.7532 36.4149 85.609 36.3287C85.4647 36.2426 85.2741 36.1992 85.0367 36.1992H83.4267V37.1693Z" fill="#009444"/>
<path d="M97.3915 39.244C97.4645 39.1398 97.5511 39.0059 97.6516 38.8426C97.7519 38.679 97.8478 38.5112 97.9391 38.3386L98.9795 36.3771C99.0707 36.1974 99.141 36.0276 99.1905 35.8676C99.2397 35.7078 99.2735 35.5758 99.2916 35.4716H100.633C100.659 35.5937 100.696 35.7375 100.746 35.9029C100.795 36.068 100.856 36.2242 100.929 36.3716L101.981 38.3386C102.072 38.5147 102.167 38.6836 102.265 38.8452C102.364 39.0069 102.45 39.1398 102.523 39.244H101.45C101.438 39.1721 101.415 39.0895 101.378 38.9961C101.342 38.9028 101.283 38.7861 101.203 38.6458L101.044 38.3602H98.8701L98.7111 38.6513C98.6453 38.7876 98.5908 38.9027 98.5468 38.9961C98.503 39.0895 98.4756 39.1721 98.4646 39.244H97.3914H97.3915ZM99.1877 37.7189H100.727L100.218 36.7544C100.17 36.6538 100.128 36.5557 100.092 36.4607C100.055 36.3655 100.018 36.2658 99.982 36.1616H99.9328C99.8962 36.2695 99.8597 36.3699 99.8232 36.4632C99.7866 36.5568 99.7428 36.6556 99.6918 36.7597L99.1878 37.7189H99.1877Z" fill="#009444"/>
<path d="M109.356 35.2184C109.104 35.2184 108.897 35.1583 108.735 35.0381C108.572 34.9176 108.454 34.7838 108.381 34.6364L108.71 34.4749C108.754 34.5682 108.828 34.66 108.932 34.7498C109.036 34.8395 109.177 34.8844 109.356 34.8844C109.539 34.8844 109.682 34.8404 109.786 34.7523C109.89 34.6642 109.962 34.5718 110.002 34.4749L110.325 34.6364C110.256 34.7838 110.141 34.9176 109.98 35.0381C109.82 35.1583 109.612 35.2184 109.356 35.2184ZM109.531 39.3194C109.049 39.3194 108.624 39.2396 108.255 39.0796C107.887 38.9199 107.599 38.6943 107.393 38.4032C107.186 38.1124 107.083 37.7674 107.083 37.3686C107.083 36.9663 107.188 36.6177 107.398 36.3231C107.608 36.0287 107.898 35.8004 108.269 35.6388C108.64 35.477 109.064 35.3963 109.542 35.3963C109.86 35.3963 110.156 35.4224 110.43 35.4744C110.703 35.5264 110.952 35.5938 111.174 35.6766L111.131 36.4363C111.014 36.3645 110.874 36.3053 110.712 36.2586C110.549 36.2118 110.375 36.1758 110.189 36.1506C110.002 36.1255 109.818 36.113 109.635 36.113C109.303 36.113 109.008 36.1632 108.751 36.2638C108.494 36.3646 108.292 36.5091 108.146 36.6978C108 36.8865 107.927 37.11 107.927 37.3687C107.927 37.6202 107.995 37.8386 108.132 38.0235C108.269 38.2086 108.46 38.3504 108.704 38.4491C108.949 38.548 109.232 38.5975 109.553 38.5975C109.802 38.5975 110.04 38.5597 110.268 38.4842C110.496 38.4088 110.674 38.3047 110.802 38.1718V37.719H109.876C109.796 37.719 109.705 37.7235 109.602 37.7324C109.5 37.7415 109.424 37.755 109.372 37.773L109.411 37.04H111.612V38.5921C111.404 38.8113 111.117 38.9872 110.75 39.1201C110.383 39.2531 109.977 39.3195 109.531 39.3195L109.531 39.3194Z" fill="#009444"/>
<path d="M116.195 39.244C116.268 39.1398 116.354 39.0059 116.455 38.8426C116.555 38.679 116.651 38.5112 116.742 38.3386L117.783 36.3771C117.874 36.1974 117.944 36.0276 117.994 35.8676C118.043 35.7078 118.077 35.5758 118.095 35.4716H119.437C119.462 35.5937 119.5 35.7375 119.549 35.9029C119.598 36.068 119.659 36.2242 119.732 36.3716L120.784 38.3386C120.875 38.5147 120.97 38.6836 121.069 38.8452C121.167 39.0069 121.253 39.1398 121.326 39.244H120.253C120.242 39.1721 120.218 39.0895 120.182 38.9961C120.145 38.9028 120.086 38.7861 120.006 38.6458L119.847 38.3602H117.673L117.514 38.6513C117.448 38.7876 117.394 38.9027 117.35 38.9961C117.306 39.0895 117.279 39.1721 117.268 39.244H116.195H116.195ZM117.991 37.7189H119.53L119.021 36.7544C118.973 36.6538 118.931 36.5557 118.895 36.4607C118.858 36.3655 118.822 36.2658 118.785 36.1616H118.736C118.699 36.2695 118.663 36.3699 118.626 36.4632C118.59 36.5568 118.546 36.6556 118.495 36.7597L117.991 37.7189H117.991Z" fill="#009444"/>
<path d="M128.197 40.2948C128.07 40.2948 127.949 40.2778 127.836 40.2437C127.723 40.2095 127.637 40.1709 127.578 40.1279L127.666 39.8907C127.739 39.9445 127.824 39.9849 127.921 40.0119C128.017 40.039 128.104 40.0524 128.181 40.0524C128.268 40.0524 128.351 40.0362 128.43 40.0039C128.509 39.9714 128.548 39.9194 128.548 39.8476C128.548 39.729 128.478 39.6697 128.34 39.6697C128.241 39.6697 128.163 39.6986 128.104 39.7561L127.874 39.6428L128.011 39.2978C127.609 39.2584 127.248 39.1587 126.927 38.9988C126.605 38.839 126.352 38.6216 126.165 38.3467C125.979 38.0719 125.886 37.744 125.886 37.3634C125.886 37.0473 125.951 36.767 126.08 36.5226C126.21 36.2784 126.389 36.0727 126.617 35.9055C126.846 35.7386 127.111 35.6119 127.414 35.5258C127.717 35.4396 128.044 35.3966 128.394 35.3966C128.708 35.3966 129.005 35.4271 129.284 35.488C129.563 35.5492 129.798 35.6282 129.988 35.7252L129.917 36.5335C129.763 36.4185 129.562 36.3225 129.312 36.2451C129.061 36.1679 128.79 36.1293 128.498 36.1293C128.17 36.1293 127.873 36.1787 127.608 36.2774C127.344 36.3763 127.134 36.5173 126.979 36.7007C126.823 36.884 126.746 37.1049 126.746 37.3635C126.746 37.6258 126.826 37.8476 126.987 38.0291C127.147 38.2106 127.365 38.3488 127.638 38.4439C127.912 38.5392 128.221 38.587 128.564 38.587C128.871 38.587 129.164 38.5456 129.443 38.4628C129.722 38.3803 129.955 38.2672 130.141 38.1234V38.9912C129.919 39.0917 129.661 39.1716 129.369 39.2309C129.077 39.2901 128.757 39.3198 128.411 39.3198H128.306L128.214 39.5408C128.243 39.5192 128.279 39.5039 128.323 39.4951C128.367 39.486 128.409 39.4815 128.449 39.4815C128.566 39.4815 128.662 39.5148 128.737 39.5812C128.812 39.6476 128.849 39.7385 128.849 39.8533C128.849 39.997 128.783 40.1066 128.652 40.182C128.52 40.2575 128.369 40.2952 128.197 40.2952L128.197 40.2948Z" fill="#009444"/>
<path d="M141.067 39.244C141.1 39.1398 141.125 39.0087 141.141 38.8507C141.157 38.6924 141.166 38.522 141.166 38.3386V36.3771C141.166 36.1937 141.157 36.0231 141.138 35.865C141.12 35.7068 141.096 35.5758 141.067 35.4716H143.833C144.074 35.4716 144.291 35.5066 144.484 35.5767C144.678 35.6469 144.832 35.7492 144.947 35.8839C145.062 36.0187 145.12 36.1866 145.12 36.3879C145.12 36.5568 145.07 36.7067 144.972 36.8379C144.873 36.969 144.74 37.0704 144.572 37.1423C144.404 37.2143 144.214 37.2502 144.002 37.2502H143.948V37.3041H144.052C144.293 37.3041 144.51 37.3391 144.704 37.4092C144.897 37.4792 145.051 37.5833 145.166 37.7217C145.281 37.8601 145.339 38.0352 145.339 38.2473C145.339 38.4626 145.278 38.6441 145.155 38.7914C145.033 38.9388 144.865 39.0509 144.652 39.1281C144.438 39.2056 144.196 39.2442 143.926 39.2442H141.067V39.244ZM142.02 36.9807H143.575C143.776 36.9807 143.945 36.9439 144.082 36.8703C144.219 36.7965 144.287 36.6878 144.287 36.5441C144.287 36.4005 144.22 36.2927 144.085 36.2207C143.95 36.1488 143.783 36.113 143.586 36.113H142.02V36.9807ZM142.02 38.5759H143.668C143.909 38.5759 144.105 38.5346 144.254 38.4519C144.404 38.3694 144.479 38.249 144.479 38.0908C144.479 37.9292 144.401 37.8043 144.246 37.7164C144.091 37.6283 143.895 37.5844 143.657 37.5844H142.02V38.576L142.02 38.5759Z" fill="#009444"/>
<path d="M150.934 35.2024C150.839 35.2024 150.759 35.1744 150.693 35.1188C150.628 35.0632 150.595 34.9904 150.595 34.9006C150.595 34.8073 150.628 34.7326 150.693 34.6769C150.759 34.6212 150.839 34.5933 150.934 34.5933C151.029 34.5933 151.11 34.6212 151.175 34.6769C151.241 34.7325 151.274 34.8072 151.274 34.9006C151.274 34.9904 151.241 35.0632 151.175 35.1188C151.11 35.1744 151.029 35.2024 150.934 35.2024ZM150.409 39.244C150.442 39.1398 150.466 39.0087 150.482 38.8507C150.499 38.6924 150.507 38.522 150.507 38.3386V36.3771C150.507 36.1937 150.498 36.0231 150.48 35.865C150.462 35.7068 150.438 35.5758 150.409 35.4716H151.46C151.431 35.5758 151.407 35.7068 151.389 35.865C151.371 36.0231 151.361 36.1937 151.361 36.3771V38.3386C151.361 38.522 151.371 38.6924 151.389 38.8507C151.407 39.0087 151.431 39.1398 151.46 39.244H150.409Z" fill="#009444"/>
<path d="M160.694 39.3247C160.49 39.3247 160.325 39.297 160.199 39.2414C160.073 39.1857 159.971 39.1112 159.892 39.0176C159.814 38.9242 159.746 38.8218 159.69 38.7104C159.633 38.5992 159.576 38.4887 159.52 38.379C159.463 38.2694 159.391 38.1679 159.304 38.0744C159.216 37.9811 159.102 37.9066 158.961 37.8509C158.821 37.795 158.637 37.7673 158.411 37.7673C158.36 37.7673 158.285 37.769 158.186 37.7726C158.088 37.7762 157.992 37.7807 157.899 37.7861C157.806 37.7914 157.737 37.8012 157.694 37.8157V38.3762C157.694 38.7391 157.726 39.0282 157.792 39.2439H156.74C156.77 39.1362 156.793 39.0041 156.812 38.8478C156.83 38.6914 156.839 38.5218 156.839 38.3385V36.3769C156.839 36.1936 156.83 36.023 156.812 35.8649C156.794 35.7067 156.77 35.5757 156.74 35.4715H159.391C159.698 35.4715 159.968 35.5091 160.202 35.5845C160.435 35.6602 160.618 35.7715 160.749 35.9187C160.881 36.0661 160.947 36.2456 160.947 36.4576C160.947 36.6588 160.884 36.8375 160.76 36.9937C160.636 37.15 160.464 37.2722 160.243 37.3602C160.022 37.4481 159.763 37.4921 159.468 37.4921H159.134V37.5353H159.177C159.371 37.5353 159.532 37.5587 159.66 37.6054C159.787 37.6521 159.893 37.7113 159.977 37.7831C160.061 37.8551 160.133 37.9315 160.193 38.0122C160.254 38.0931 160.311 38.1695 160.366 38.2414C160.421 38.3131 160.482 38.3724 160.549 38.4191C160.617 38.4657 160.7 38.4893 160.799 38.4893C160.948 38.4893 161.061 38.455 161.138 38.3867C161.215 38.3185 161.277 38.2269 161.324 38.1118L161.363 39.0442C161.301 39.1267 161.208 39.1942 161.086 39.2462C160.964 39.2982 160.833 39.3243 160.694 39.3243V39.3247ZM157.693 37.1693H159.265C159.517 37.1693 159.718 37.1271 159.867 37.0428C160.017 36.9584 160.092 36.8388 160.092 36.6844C160.092 36.5334 160.02 36.4149 159.876 36.3287C159.731 36.2426 159.541 36.1992 159.303 36.1992H157.693V37.1693Z" fill="#009444"/>
<path d="M172.167 39.244C172.196 39.1398 172.221 39.0087 172.241 38.8507C172.261 38.6924 172.271 38.522 172.271 38.3386V36.3771C172.271 35.9962 172.237 35.6944 172.167 35.4717H173.159L175.705 38.1177H175.776V36.3609C175.776 36.1739 175.766 36.0007 175.746 35.8407C175.726 35.681 175.703 35.5579 175.678 35.4717H176.729C176.7 35.576 176.676 35.707 176.658 35.8651C176.64 36.0233 176.631 36.1938 176.631 36.3772V39.244H175.848L173.186 36.5118H173.12V38.2795C173.12 38.4662 173.13 38.6504 173.15 38.8318C173.17 39.0133 173.193 39.1508 173.219 39.244H172.167H172.167Z" fill="#009444"/>
<path d="M181.996 39.244C182.065 39.0212 182.1 38.7194 182.1 38.3387V36.3772C182.1 36.1938 182.09 36.0233 182.069 35.8651C182.049 35.707 182.025 35.576 181.996 35.4717H185.747L185.884 36.2855C185.822 36.2567 185.73 36.2333 185.608 36.2153C185.485 36.1974 185.329 36.1883 185.139 36.1883H182.949V37.002H184.712C184.964 37.002 185.156 36.9913 185.287 36.9697V37.735C185.156 37.7134 184.964 37.7026 184.712 37.7026H182.949V38.5271H185.177C185.393 38.5271 185.566 38.5146 185.698 38.4894C185.829 38.4641 185.935 38.43 186.015 38.3868L185.857 39.2437H181.996L181.996 39.244Z" fill="#009444"/>
<path d="M191.074 39.244C191.107 39.1398 191.132 39.0087 191.148 38.8507C191.165 38.6924 191.173 38.522 191.173 38.3386V36.3771C191.173 36.1937 191.164 36.0231 191.145 35.865C191.127 35.7068 191.103 35.5758 191.074 35.4716H194.826L194.968 36.3015C194.902 36.2692 194.803 36.2451 194.67 36.2287C194.536 36.2125 194.377 36.2044 194.191 36.2044H192.027V37.0937H193.818C194.07 37.0937 194.262 37.0829 194.393 37.0613V37.8264C194.262 37.8049 194.07 37.7941 193.818 37.7941H192.027V38.403C192.027 38.7515 192.06 39.0317 192.126 39.2438H191.074L191.074 39.244Z" fill="#009444"/>
<path d="M199.945 39.244C200.015 39.0212 200.049 38.7194 200.049 38.3387V36.3772C200.049 36.1938 200.039 36.0233 200.019 35.8651C199.999 35.707 199.974 35.576 199.945 35.4717H203.697L203.834 36.2855C203.772 36.2567 203.679 36.2333 203.557 36.2153C203.435 36.1974 203.279 36.1883 203.089 36.1883H200.898V37.002H202.662C202.914 37.002 203.105 36.9913 203.237 36.9697V37.735C203.105 37.7134 202.914 37.7026 202.662 37.7026H200.898V38.5271H203.127C203.343 38.5271 203.516 38.5146 203.648 38.4894C203.779 38.4641 203.885 38.43 203.965 38.3868L203.806 39.2437H199.945L199.945 39.244Z" fill="#009444"/>
<path d="M210.957 39.3194C210.738 39.3194 210.498 39.3034 210.237 39.271C209.976 39.2387 209.718 39.1938 209.465 39.1364C209.211 39.0789 208.984 39.0123 208.783 38.9369L208.821 38.0801C209.11 38.2598 209.436 38.3936 209.801 38.4817C210.167 38.5696 210.546 38.6136 210.941 38.6136C211.287 38.6136 211.57 38.5803 211.787 38.514C212.004 38.4474 212.113 38.3316 212.113 38.1662C212.113 38.0693 212.067 37.9912 211.976 37.9318C211.885 37.8725 211.761 37.8258 211.606 37.7918C211.451 37.7576 211.277 37.7289 211.083 37.7055C210.89 37.6822 210.69 37.6563 210.486 37.6275C210.282 37.5988 210.083 37.5602 209.889 37.5117C209.696 37.4631 209.521 37.3974 209.366 37.3148C209.211 37.2323 209.088 37.1253 208.996 36.9942C208.905 36.8633 208.859 36.7006 208.859 36.5065C208.859 36.2623 208.95 36.0583 209.131 35.8949C209.311 35.7314 209.555 35.6077 209.862 35.5231C210.168 35.4387 210.506 35.3966 210.875 35.3966C211.083 35.3966 211.294 35.4091 211.507 35.4342C211.721 35.4594 211.924 35.4943 212.115 35.5393C212.307 35.5842 212.474 35.6372 212.617 35.6984V36.4959C212.416 36.3809 212.162 36.2877 211.855 36.2156C211.548 36.1437 211.233 36.1079 210.908 36.1079C210.703 36.1079 210.511 36.1195 210.333 36.1429C210.154 36.1663 210.01 36.2076 209.903 36.2669C209.795 36.3261 209.741 36.4097 209.741 36.5175C209.741 36.6181 209.787 36.6989 209.878 36.7599C209.969 36.821 210.093 36.8687 210.248 36.9029C210.403 36.9369 210.577 36.9667 210.771 36.9916C210.964 37.0169 211.164 37.0428 211.37 37.0698C211.577 37.0967 211.777 37.1336 211.97 37.1802C212.164 37.227 212.338 37.29 212.493 37.369C212.649 37.448 212.772 37.5514 212.863 37.6789C212.954 37.8064 213 37.9672 213 38.1613C213 38.4019 212.916 38.6084 212.748 38.7808C212.58 38.9533 212.344 39.0862 212.039 39.1796C211.734 39.273 211.373 39.3197 210.957 39.3197L210.957 39.3194Z" fill="#009444"/>
<path d="M32.7031 0.539764C32.7031 0.539764 28.7074 1.62289 29.6713 5.38891C33.5185 4.54656 32.7031 0.539764 32.7031 0.539764Z" fill="#009444"/>
<path d="M37.538 1.80694C37.538 1.80694 33.4063 1.49126 33.0193 5.3568C36.9291 5.8486 37.538 1.80694 37.538 1.80694Z" fill="#009444"/>
<path d="M41.2948 3.78635C41.2948 3.78635 39.2264 4.21217 39.5954 6.15935C41.5806 5.85103 41.2948 3.78635 41.2948 3.78635Z" fill="#009444"/>
<path d="M51.9592 34.6578C51.8279 34.4097 51.612 34.0674 51.2792 33.7115C51.1109 33.5356 50.9161 33.3555 50.6919 33.1862C50.4663 33.0193 50.2154 32.8561 49.9385 32.7201C49.6751 32.5832 49.3391 32.4524 49.0505 32.3681C48.9013 32.3251 48.7512 32.2815 48.6002 32.2379C48.4598 32.1945 48.3168 32.1639 48.1784 32.1097C47.0565 31.7354 46.0293 31.1035 45.3067 30.5858C45.1656 30.4846 45.039 30.3896 44.9211 30.2992C45.5947 29.9227 46.3723 29.7314 47.1423 29.6088C48.5957 29.377 50.0825 29.3486 51.5441 29.5246C51.7591 29.5504 52.0709 29.4969 52.051 29.2841C51.9627 29.2606 51.8741 29.2385 51.7855 29.217C49.7963 28.7374 47.6989 28.6972 45.6927 29.1024C44.7947 29.2841 43.8859 29.5689 43.1967 30.1647C42.4847 30.7801 42.0689 31.6726 41.3657 32.2974C40.3796 33.1729 38.9394 33.4046 37.6269 33.2127C36.3144 33.0209 35.0924 32.4561 33.8928 31.898C34.4317 30.1375 34.1224 28.0564 35.2868 26.6202C35.8275 25.9527 36.6141 25.5333 37.3784 25.1312C38.1154 24.7436 38.8667 24.3511 39.6872 24.1946C41.0405 23.9361 42.4193 24.3437 43.7775 24.5772C45.4617 24.8664 47.2898 24.8632 48.7679 24.0165C48.6374 23.7375 48.2204 23.8278 47.9256 23.9277C45.2787 24.825 42.5122 22.7142 39.7164 22.8448C38.5398 22.8993 37.4246 23.3512 36.3386 23.8008C34.9971 24.3564 33.5392 25.031 32.9563 26.3452C32.7345 25.1546 33.4328 23.9628 34.3412 23.1477C35.2492 22.3327 36.3661 21.7811 37.3463 21.0512C38.3264 20.3213 39.2112 19.3185 39.3249 18.1129C39.3962 17.3616 39.1602 16.6206 39.0162 15.8801C38.7533 14.5278 38.7962 13.1189 39.141 11.7847C39.2082 11.5242 39.1697 11.1168 38.8987 11.1484C38.3393 12.906 38.202 14.7929 38.5022 16.6116C38.5801 17.0854 38.6882 17.5651 38.6227 18.0409C38.5105 18.8592 37.9064 19.5289 37.2493 20.0406C35.5139 21.3917 33.1408 22.1239 32.1013 24.0486C31.6524 24.8797 31.5177 25.8715 31.7287 26.79C31.8125 27.1558 31.9492 27.5093 32.01 27.8796C32.1852 28.9486 31.7387 30.3357 31.2518 31.2881C31.177 31.434 31.1278 31.5959 31.0399 31.7237C30.9557 31.8519 30.8728 31.9789 30.7906 32.1038C30.4313 32.5675 30.0577 32.9431 29.6207 33.1649C29.3595 33.3118 29.0966 33.4236 28.8357 33.5078C28.7833 32.8005 28.7057 31.8187 28.5951 30.6448C28.4792 29.427 28.3313 28.0068 28.1163 26.4765C28.0127 25.7128 27.8794 24.9167 27.721 24.1025C27.5631 23.2214 27.2538 22.3877 27.1691 21.8446C27.0731 21.2177 27.144 20.5149 27.2967 19.7808C27.4457 19.0469 27.6731 18.2802 27.8013 17.4703C27.9294 16.6561 27.9445 15.8077 27.6302 14.9906C27.5602 14.7653 27.4707 14.6487 27.3904 14.4937L27.3293 14.3836L27.2815 14.2943L27.2525 14.2459L27.1371 14.0535C27.0547 13.9287 26.9898 13.7979 26.9323 13.6659C26.8674 13.5369 26.811 13.4067 26.7701 13.2733C26.3916 12.2176 26.4711 11.209 26.6108 10.5464C26.6798 10.211 26.7609 9.95118 26.8233 9.77736C26.887 9.60317 26.928 9.51559 26.928 9.51559L26.7764 9.43381C26.7764 9.43381 26.5346 9.77603 26.2808 10.454C26.0317 11.1239 25.7621 12.1815 26.0045 13.4711C26.0289 13.633 26.0703 13.7942 26.1216 13.9564C26.1658 14.1217 26.2188 14.2878 26.2912 14.4497L26.3933 14.6988L26.4195 14.7616C26.4363 14.7954 26.4001 14.7247 26.4074 14.7419L26.413 14.7563L26.4236 14.7859L26.4671 14.904C26.5194 15.0564 26.6052 15.238 26.6027 15.3539C26.6192 15.4838 26.6523 15.6005 26.6449 15.7575C26.6518 15.9038 26.6532 16.0517 26.6269 16.2067C26.617 16.3576 26.5851 16.5147 26.5457 16.6737C26.5179 16.8299 26.4597 16.9948 26.411 17.1579C26.2012 17.8162 25.8756 18.5105 25.5829 19.2937C25.2925 20.073 25.032 20.9657 25.0185 21.9455L25.0169 22.3131C25.0253 22.4355 25.0417 22.5583 25.0549 22.6817L25.1297 23.3155C25.1938 23.7352 25.1932 24.0519 25.2183 24.4137C25.2466 25.1682 25.2564 25.9208 25.2422 26.6591C25.221 28.1312 25.1516 29.5193 25.0811 30.7074C25.0268 31.6119 24.9702 32.401 24.9216 33.0324C24.5763 32.8063 24.2664 32.4882 23.9685 32.1039C23.8865 31.979 23.8032 31.852 23.7189 31.7238C23.631 31.5961 23.5818 31.4342 23.5072 31.2882C23.348 31.0005 23.2627 30.6523 23.1556 30.3063C23.0356 29.922 22.9428 29.4838 22.8328 29.0667C22.744 28.7761 22.6618 28.4758 22.567 28.1753C22.7146 27.8807 22.8631 27.4942 22.9842 27.0262C23.0909 26.5925 23.1515 26.0796 23.114 25.5128C23.0519 24.9471 22.875 24.3377 22.5328 23.7837C22.1733 23.2525 21.7146 22.7479 21.1575 22.3877C21.023 22.2953 20.8805 22.1897 20.7495 22.1074C20.6176 22.0268 20.4846 21.9459 20.3508 21.8642C20.0856 21.7006 19.8173 21.5354 19.5466 21.3682C19.0121 21.03 18.468 20.6858 17.9573 20.316C17.4491 19.9456 16.9615 19.5524 16.5936 19.1093C16.2255 18.6659 16.0356 18.1656 16.0655 17.6413C16.0878 17.5096 16.0831 17.3785 16.1234 17.2479C16.1584 17.1081 16.1931 16.9692 16.2273 16.832C16.303 16.5651 16.3569 16.2397 16.3879 15.9549C16.4508 15.3815 16.4379 14.8451 16.4073 14.3551C16.3457 13.3738 16.191 12.5751 16.0793 12.0182C15.9618 11.4622 15.8735 11.1464 15.8735 11.1464L15.5577 11.2233C15.5577 11.2233 15.6265 11.532 15.7119 12.0827C15.7916 12.6335 15.9004 13.4263 15.9072 14.3727C15.9115 14.8446 15.895 15.3572 15.8081 15.88C15.7629 16.1412 15.7164 16.3762 15.6195 16.6639C15.5757 16.8067 15.5316 16.9505 15.4869 17.0955C15.4329 17.2473 15.4215 17.4195 15.3887 17.584C15.2997 18.2657 15.5488 19.022 15.9705 19.5723C16.3878 20.1332 16.8991 20.5837 17.4147 21.0051C17.9334 21.4247 18.4684 21.8037 18.9945 22.1777C19.2584 22.3606 19.5205 22.5423 19.7792 22.7214C19.9084 22.8102 20.0366 22.8981 20.1641 22.9852C20.2901 23.0745 20.3877 23.1599 20.4998 23.2454C20.9532 23.57 21.265 23.9802 21.5091 24.372C21.7281 24.7801 21.8204 25.1994 21.8465 25.5926C21.8469 25.8534 21.8139 26.0955 21.7683 26.3271C21.7604 26.314 21.7551 26.3011 21.7466 26.2879L21.5381 25.9418L21.2821 25.6042C21.1225 25.377 20.8927 25.1733 20.6849 24.9747C20.2329 24.585 19.7046 24.3242 19.2303 24.1421C18.749 23.9571 18.32 23.8405 17.9306 23.6966C17.7291 23.6299 17.5502 23.549 17.3635 23.4729C17.2713 23.4338 17.1873 23.3857 17.0986 23.343L16.7893 23.1857L16.6407 23.1127C16.583 23.0861 16.4978 23.0529 16.4273 23.0253C16.2732 22.9607 16.1433 22.9315 16.0105 22.897C15.7441 22.8334 15.4833 22.8072 15.2316 22.7964C14.227 22.7785 13.3845 23.0065 12.6098 23.209C11.8369 23.4211 11.1328 23.6373 10.479 23.8022C9.82693 23.9646 9.22635 24.0837 8.69234 24.1256C8.15846 24.1709 7.69273 24.1483 7.3165 24.0861C6.93794 24.03 6.65414 23.9275 6.46118 23.8576C6.27251 23.7759 6.17198 23.7323 6.17198 23.7323L6.01188 24.0114C6.01188 24.0114 6.11535 24.0702 6.30904 24.1811C6.50837 24.2797 6.80701 24.4256 7.21426 24.5334C7.61905 24.6468 8.12769 24.7278 8.71 24.7421C9.29304 24.7597 9.94376 24.7031 10.64 24.609C11.3347 24.5124 12.0748 24.3718 12.8394 24.2497C13.5986 24.1322 14.4061 24.0295 15.1218 24.1282C15.2973 24.1564 15.4664 24.1939 15.619 24.2505C15.6942 24.2803 15.7757 24.3089 15.8201 24.3384C15.8496 24.3553 15.868 24.3599 15.9077 24.3829L16.0469 24.4712L16.3337 24.6599C16.458 24.7413 16.6666 24.867 16.7965 24.9394C16.9553 25.0277 17.1152 25.1153 17.2746 25.1889C17.7099 25.4045 18.1429 25.5773 18.4938 25.7618C18.8496 25.948 19.1278 26.1386 19.343 26.3737C19.7668 26.8485 20.0462 27.5632 20.2362 28.3433C20.3464 28.7285 20.3924 29.1197 20.4694 29.5105C20.5332 29.9471 20.5718 30.3609 20.654 30.7998C20.7226 31.1805 20.7828 31.557 20.8917 31.9277C20.5378 32.0895 20.1444 32.2601 19.7081 32.4298C18.7706 32.7865 17.6381 33.1639 16.4588 33.268C15.8735 33.3196 15.2776 33.2914 14.7757 33.113C14.6467 33.0727 14.5343 33.0113 14.4163 32.9552L13.9939 32.6882C13.8495 32.5947 13.7478 32.5084 13.62 32.4181C13.4983 32.3283 13.3821 32.2163 13.2611 32.1162C12.7889 31.6928 12.4477 31.1654 11.9463 30.5672C11.6913 30.2795 11.3908 29.9889 11.0473 29.7905C10.884 29.6741 10.7039 29.6079 10.5347 29.5188C10.3617 29.4451 10.1878 29.3872 10.0171 29.323C9.33509 29.111 8.65851 29.0193 8.06161 28.9409C7.43002 28.8694 6.84562 28.8349 6.30107 28.8286C5.21295 28.8217 4.31202 28.9318 3.6911 29.0515C3.38033 29.1124 3.13858 29.1723 2.97394 29.2183C2.80758 29.2696 2.7187 29.2974 2.7187 29.2974L2.81849 29.6027C2.81849 29.6027 2.90087 29.5846 3.05521 29.5516C3.21409 29.5216 3.45008 29.4847 3.75227 29.4524C4.35701 29.3894 5.23109 29.3591 6.26846 29.4563C6.78592 29.5069 7.34813 29.5908 7.92038 29.7056C8.52157 29.8374 9.1143 29.9759 9.68521 30.2085C9.74344 30.2327 9.79542 30.2624 9.8512 30.2882C9.72984 30.3819 9.59879 30.4801 9.45217 30.5854C8.72973 31.1032 7.70205 31.735 6.58058 32.1093C6.44217 32.1635 6.29911 32.1941 6.15862 32.2376C6.00771 32.2811 5.85729 32.3248 5.7081 32.3677C5.41976 32.452 5.08349 32.5827 4.82017 32.7197C4.54335 32.8557 4.29241 33.0189 4.06696 33.1858C3.8425 33.3552 3.64782 33.5353 3.47963 33.7112C3.14691 34.0671 2.93103 34.4094 2.79937 34.6575C2.73268 34.7816 2.68854 34.8841 2.65912 34.9543C2.6308 35.0295 2.61572 35.0693 2.61572 35.0693L2.92147 35.1784C2.92147 35.1784 2.93642 35.1478 2.96474 35.0907C2.99661 35.0317 3.04443 34.9441 3.11541 34.8377C3.25541 34.6247 3.4822 34.3317 3.81001 34.0411C3.976 33.8976 4.16418 33.7539 4.377 33.6227C4.5908 33.4941 4.82384 33.3711 5.07822 33.275C5.20547 33.2269 5.33419 33.1744 5.46463 33.1431C5.5947 33.1068 5.71962 33.0663 5.87691 33.0407C6.02414 33.0127 6.17247 32.9844 6.3213 32.9555C6.47957 32.9231 6.64347 32.9021 6.79904 32.8578C8.06884 32.5599 9.23089 31.984 10.0595 31.5008C10.3695 31.3198 10.6346 31.1513 10.8462 31.0099C10.9184 31.091 10.9904 31.1719 11.0551 31.2643C11.4032 31.7547 11.7775 32.4509 12.3089 33.0236C12.4465 33.1623 12.5735 33.3057 12.7228 33.4402C12.871 33.5692 13.0321 33.718 13.1737 33.8282L13.614 34.1628C13.7996 34.2808 13.9874 34.3983 14.1847 34.4833C14.9732 34.8425 15.7832 34.9301 16.5192 34.9338C18.0033 34.9281 19.2828 34.6062 20.3564 34.3057C20.8715 34.1555 21.3342 34.0011 21.746 33.854C22.0573 33.7422 23.4009 36.6138 23.5017 36.9046C24.3372 39.3176 23.5446 41.7 22.7058 43.9958C22.7058 43.9958 22.7016 44.0132 22.6928 44.0385C22.5499 44.4233 22.4069 44.7908 22.2637 45.1326C22.2596 45.1453 22.251 45.1582 22.2466 45.1753C21.7567 46.1622 20.8507 47.4701 19.3508 47.8033C19.2469 47.8289 19.1342 47.8503 19.0215 47.8633C18.7571 47.9015 18.4926 47.9401 18.2325 47.9783C17.6821 48.0383 17.1273 48.0979 16.568 48.1579C16.013 48.222 15.4063 48.3375 14.8645 48.4872C14.3139 48.645 13.7808 48.8461 13.2996 49.0897C12.814 49.3202 12.3762 49.5895 11.9601 49.8159C11.5441 50.0469 11.1452 50.2393 10.7551 50.3502C10.3693 50.4784 9.99647 50.5298 9.66278 50.5554C9.32896 50.5938 9.02996 50.5593 8.78711 50.5679C8.30164 50.5211 8.0241 50.4952 8.0241 50.4952L8.00693 50.5979C8.00693 50.5979 8.28448 50.6493 8.77411 50.7347C9.02126 50.7475 9.32038 50.803 9.67148 50.7902C10.0182 50.7945 10.417 50.7689 10.842 50.6661C11.2711 50.5806 11.7132 50.4057 12.1597 50.2046C12.4587 50.0683 12.7579 49.9227 13.07 49.7858C13.0613 49.8759 13.0527 49.9697 13.0353 50.0683C12.9919 50.3246 12.9225 50.6235 12.7925 50.9186C12.6669 51.2092 12.4761 51.4951 12.2117 51.7048C12.0816 51.8158 11.9386 51.8885 11.7739 51.97C11.609 52.0382 11.4401 52.1238 11.2796 52.2134C11.128 52.3033 10.9806 52.4016 10.8506 52.4998C10.7205 52.6068 10.6077 52.709 10.5082 52.8159C10.1093 53.2346 10.0227 53.6321 10.0227 53.6321L10.1312 53.6536C10.1312 53.6536 10.1527 53.5726 10.2307 53.4398C10.3044 53.303 10.4388 53.1238 10.6382 52.9402C10.7379 52.8501 10.855 52.7647 10.9806 52.675C11.1106 52.594 11.2537 52.5126 11.4053 52.4398C11.5528 52.3715 11.7132 52.3075 11.8909 52.2474C12.0598 52.1791 12.2593 52.0977 12.4196 51.9826C12.7577 51.7562 13.0136 51.4316 13.187 51.1065C13.3647 50.7777 13.4688 50.4526 13.5381 50.1706C13.5987 49.9228 13.6334 49.7092 13.6509 49.5467C14.0887 49.3757 14.5525 49.2476 15.0294 49.1493C15.5625 49.0511 16.0697 48.9871 16.6333 48.9702C17.1968 48.9529 17.7603 48.9357 18.3195 48.9189C18.5926 48.9016 19.039 48.8675 19.3164 48.8502C19.5373 48.8246 19.7542 48.8032 19.9709 48.7819C19.9974 48.7786 20.0221 48.7742 20.0485 48.7708C20.7745 48.8649 21.9164 48.9434 22.693 48.6593C22.693 48.6593 22.22 49.4885 20.7079 49.8929C20.5867 49.8628 20.4479 49.8246 20.2961 49.7905C19.7543 49.6624 19.0174 49.5299 18.2761 49.4871C18.0897 49.47 17.9034 49.4739 17.7212 49.4739C17.5349 49.4658 17.3572 49.4913 17.1794 49.5C16.8328 49.534 16.512 49.6023 16.2431 49.6837C16.1088 49.7223 15.9917 49.7819 15.8876 49.8205C15.7792 49.8587 15.6969 49.9187 15.6277 49.9569C15.4888 50.0424 15.4066 50.0938 15.4066 50.0938L15.4717 50.1791C15.4717 50.1791 15.5496 50.141 15.6884 50.0724C15.7578 50.0381 15.84 49.9868 15.944 49.9613C16.0481 49.9314 16.1607 49.8846 16.2908 49.8585C16.5552 49.8031 16.863 49.7644 17.1968 49.7644C17.3614 49.7689 17.5349 49.7604 17.7126 49.7817C17.886 49.7943 18.0637 49.8071 18.2415 49.837C18.7051 49.9058 19.1604 50.008 19.5635 50.1189C17.808 50.4823 16.1131 50.9612 14.8733 51.5036C14.1841 51.8029 13.6465 52.1275 13.2998 52.3925C13.1309 52.5295 13.0007 52.6447 12.9227 52.7301C12.8404 52.8156 12.7971 52.8628 12.7971 52.8628L12.8795 52.931C12.8795 52.931 12.9227 52.8923 13.0051 52.8156C13.0875 52.7386 13.2219 52.6404 13.3952 52.525C13.7507 52.2898 14.2926 52.0206 14.9862 51.7816C15.697 51.5337 16.5597 51.3158 17.4959 51.1362C17.483 51.2217 17.4612 51.3158 17.4396 51.4182C17.3832 51.6491 17.3097 51.9138 17.1969 52.1876C17.0884 52.4568 16.941 52.7346 16.7461 52.9738C16.6549 53.0894 16.538 53.1917 16.4165 53.3071C16.2995 53.4182 16.1824 53.5378 16.0785 53.6534C15.8662 53.8883 15.6884 54.119 15.5496 54.3244C15.2679 54.7347 15.1293 55.038 15.1293 55.038L15.2246 55.0848C15.2246 55.0848 15.3849 54.8028 15.6884 54.4269C15.8445 54.239 16.0307 54.0294 16.2518 53.8202C16.3646 53.7174 16.4773 53.6147 16.6031 53.5164C16.7244 53.4184 16.8675 53.3114 16.9887 53.1792C17.2316 52.927 17.4178 52.632 17.5611 52.3455C17.7039 52.0595 17.8081 51.7817 17.8861 51.5425C17.9512 51.3455 17.9945 51.175 18.029 51.0381C18.7053 50.9139 19.4119 50.8157 20.1228 50.7302C20.0621 50.8756 19.997 51.0421 19.9494 51.2258C19.9189 51.3287 19.8932 51.4396 19.8715 51.5508C19.8541 51.6619 19.8367 51.79 19.8324 51.8842L19.8107 52.0506L19.7671 52.1748C19.7284 52.2602 19.6805 52.3453 19.6155 52.4139C19.4897 52.5503 19.3251 52.6491 19.1777 52.713C19.0303 52.7773 18.8959 52.8112 18.8049 52.8283C18.7096 52.8496 18.6574 52.8541 18.6574 52.8541L18.6662 52.9611C18.6662 52.9611 18.9003 52.965 19.234 52.8583C19.4031 52.8069 19.5938 52.7174 19.767 52.5636C19.8538 52.4868 19.9274 52.3886 19.9881 52.2816C20.0186 52.2216 20.0402 52.1617 20.0661 52.0974L20.1053 51.9351C20.127 51.8115 20.1441 51.7215 20.1746 51.6189C20.2049 51.5162 20.2353 51.4181 20.27 51.3286C20.3393 51.1402 20.426 50.9779 20.504 50.837C20.5387 50.7774 20.5691 50.7261 20.5993 50.6791C21.4534 50.5805 22.303 50.5082 23.1092 50.4522C23.1786 50.4481 23.2521 50.4439 23.3347 50.4306C23.1309 50.8327 22.8709 51.2816 22.5673 51.7087C22.4678 51.8542 22.3592 51.991 22.2466 52.1274C22.1425 52.2683 22.0211 52.3883 21.9085 52.5121C21.6787 52.7513 21.4404 52.9437 21.2192 53.0932C21.1108 53.1701 21.0025 53.2215 20.907 53.2728C20.816 53.3324 20.7251 53.3582 20.6514 53.3837C20.5039 53.4351 20.4215 53.4652 20.4215 53.4652L20.4432 53.5722C20.4432 53.5722 20.5343 53.5461 20.6904 53.5079C20.7728 53.4865 20.8681 53.4652 20.9722 53.4138C21.0719 53.3666 21.1977 53.3243 21.3189 53.2515C21.5615 53.1146 21.8304 52.9309 22.0948 52.7003C22.2205 52.5802 22.3636 52.4693 22.485 52.3325C22.6107 52.2001 22.7364 52.0677 22.8534 51.9223C23.3172 51.3752 23.7118 50.7726 23.9934 50.2984L24.2535 50.2089C24.3749 50.1575 24.4877 50.0935 24.6002 50.0339C24.986 49.8069 25.2938 49.5163 25.5323 49.2176C25.5193 49.2473 25.5106 49.2731 25.502 49.2987C25.3892 49.5763 25.2461 49.8584 25.1117 50.1963C24.9817 50.5164 24.8646 50.8711 24.7994 51.243C24.73 51.6063 24.7259 52.0206 24.7129 52.3198C24.7129 52.559 24.431 52.7559 24.1407 52.9524C23.846 53.1448 23.5425 53.3372 23.2651 53.5549C22.9919 53.7687 22.7405 53.9952 22.5324 54.2389C22.3158 54.4781 22.1511 54.7214 21.9777 54.9224C21.6395 55.32 21.2755 55.5976 20.9894 55.6571C20.6946 55.7259 20.5472 55.5976 20.5603 55.6063L20.4865 55.6873C20.4908 55.6873 20.5298 55.7259 20.6166 55.7641C20.7031 55.7986 20.8462 55.8241 21.0154 55.7941C21.3621 55.7429 21.7651 55.4695 22.1511 55.0678C22.3418 54.867 22.5282 54.6404 22.7405 54.4308C22.9528 54.2176 23.2001 54.0166 23.4732 53.8328C23.7463 53.6445 24.0454 53.4781 24.3618 53.3027C24.4398 53.2558 24.5179 53.2131 24.596 53.1615C24.6002 53.2003 24.6002 53.2344 24.6088 53.2771C24.6349 53.448 24.674 53.649 24.739 53.8542C24.7737 53.961 24.8084 54.0678 24.8516 54.1701C24.8949 54.273 24.9557 54.3926 24.9991 54.4736L25.0685 54.6278L25.1032 54.7559C25.1162 54.8496 25.1162 54.9438 25.0988 55.0333C25.0685 55.2216 24.9818 55.3882 24.895 55.5162C24.8041 55.649 24.7087 55.7473 24.6436 55.8155C24.5742 55.8795 24.5309 55.9137 24.5309 55.9137L24.5962 55.9991C24.5962 55.9991 24.7955 55.8794 25.0208 55.6148C25.1335 55.478 25.2507 55.3028 25.3111 55.0805C25.3416 54.9692 25.3502 54.8495 25.3459 54.7257C25.3372 54.6616 25.3241 54.5976 25.3111 54.5333L25.2593 54.3752C25.2073 54.2556 25.1769 54.1747 25.1422 54.0677C25.1162 53.9692 25.0902 53.8708 25.0685 53.7727C25.0294 53.5802 25.0079 53.3925 24.9991 53.2387C24.9905 53.0806 24.9947 52.9482 24.9991 52.8583C25.0033 52.8368 25.0033 52.8282 25.0033 52.8114C25.0252 52.7855 25.0468 52.7642 25.0685 52.7345C25.1032 52.6918 25.1291 52.6146 25.1552 52.5503C25.1899 52.4735 25.1812 52.4567 25.1942 52.4053C25.242 52.0038 25.2634 51.7045 25.3416 51.3884C25.5366 51.6871 25.8097 52.0378 26.1391 52.3411C26.2084 52.4011 26.321 52.5081 26.3644 52.5722C26.4251 52.6447 26.4729 52.7386 26.5075 52.8283C26.5812 53.0125 26.5984 53.2041 26.5812 53.3711C26.5682 53.5375 26.5292 53.6745 26.4988 53.7727C26.464 53.8667 26.4426 53.9135 26.4426 53.9135L26.5335 53.969C26.5335 53.969 26.6852 53.7684 26.7806 53.4051C26.8282 53.2214 26.8499 52.9904 26.7979 52.7472C26.7718 52.6231 26.7328 52.5035 26.6591 52.3798C26.5856 52.243 26.5292 52.1787 26.4426 52.0632C26.1566 51.7086 25.9485 51.3069 25.8185 50.9949C25.7533 50.8413 25.71 50.7084 25.6799 50.6189C25.6712 50.5802 25.6625 50.5507 25.6538 50.5248C25.6667 50.4993 25.6799 50.4694 25.6929 50.4393C25.8271 50.1574 25.9962 49.8668 26.1349 49.5762C26.1608 49.525 26.1816 49.4761 26.2058 49.4254C26.525 49.0894 26.8561 48.7131 26.8523 48.6002C26.8489 48.502 27.0423 48.6721 27.2555 48.8879C27.2836 48.9521 27.3108 49.0157 27.3399 49.0807C27.3399 49.0976 27.3357 49.1063 27.3357 49.1276C27.327 49.2216 27.3096 49.3585 27.2793 49.525C27.2229 49.8541 27.1016 50.2897 26.8978 50.696C26.8373 50.824 26.7937 50.901 26.7505 51.0507C26.7071 51.1873 26.6941 51.3111 26.6941 51.4353C26.6941 51.6872 26.7636 51.9057 26.8501 52.0761C27.0193 52.4139 27.2101 52.5805 27.2101 52.5805L27.2923 52.5082C27.2923 52.5082 27.2576 52.4608 27.2056 52.3754C27.1538 52.2899 27.0844 52.1618 27.0367 52.004C26.989 51.8456 26.963 51.6491 26.9933 51.4568C27.0107 51.3627 27.0367 51.26 27.08 51.179C27.1061 51.1063 27.1971 50.978 27.249 50.9011C27.4701 50.5977 27.6434 50.2645 27.7693 49.9695C27.8516 50.1276 27.9384 50.2859 28.012 50.4396C28.1506 50.7346 28.2765 51.0381 28.3544 51.354C28.4371 51.6873 28.4588 51.9912 28.5062 52.4056C28.5233 52.4568 28.5149 52.4737 28.5451 52.5506C28.5713 52.6149 28.6017 52.6921 28.6362 52.7348C28.6532 52.7644 28.675 52.7858 28.6966 52.8116C28.7013 52.8285 28.7013 52.8372 28.7013 52.8585C28.7098 52.9484 28.7098 53.081 28.7053 53.239C28.6966 53.3928 28.6749 53.5805 28.636 53.7729C28.6143 53.8711 28.5882 53.9694 28.5582 54.068C28.5278 54.1749 28.4974 54.2559 28.4452 54.3754L28.3934 54.5336C28.3801 54.5979 28.3629 54.6618 28.3584 54.726C28.3502 54.8497 28.3584 54.9694 28.3934 55.0807C28.454 55.3032 28.5711 55.4782 28.6796 55.615C28.9092 55.8797 29.1085 55.9993 29.1085 55.9993L29.1735 55.9139C29.1735 55.9139 29.1302 55.8797 29.0609 55.8157C28.9958 55.7475 28.9003 55.6493 28.8095 55.5165C28.7183 55.3885 28.6315 55.2219 28.6016 55.0336C28.5841 54.9441 28.5882 54.8499 28.6016 54.7561L28.636 54.628L28.7053 54.4739C28.7487 54.3928 28.8096 54.2733 28.8482 54.1704C28.8918 54.0681 28.9309 53.9612 28.9656 53.8544C29.0305 53.6492 29.0698 53.4483 29.0955 53.2774C29.0997 53.2346 29.1042 53.2005 29.1085 53.1618C29.1864 53.2132 29.2648 53.2559 29.3427 53.3029C29.6545 53.4783 29.9539 53.6448 30.227 53.8331C30.5002 54.0168 30.7516 54.2179 30.9638 54.431C31.1763 54.6407 31.3582 54.8672 31.5532 55.0681C31.9391 55.4698 32.3424 55.7431 32.6889 55.7944C32.8581 55.8244 33.0012 55.7989 33.0878 55.7644C33.1745 55.7261 33.2135 55.6875 33.218 55.6875L33.1442 55.6066C33.157 55.5979 33.0099 55.7261 32.7152 55.6573C32.4246 55.5979 32.0606 55.3202 31.7268 54.9226C31.5534 54.7216 31.3845 54.4783 31.1717 54.2391C30.9638 53.9955 30.7124 53.7689 30.4352 53.5552C30.1619 53.3374 29.8585 53.145 29.5637 52.9526C29.2733 52.7561 28.9913 52.5592 28.9913 52.32C28.9784 52.021 28.9743 51.6065 28.905 51.2432C28.8397 50.8713 28.723 50.5166 28.5882 50.1965C28.4587 49.8586 28.3108 49.5766 28.2027 49.2989C28.1938 49.2733 28.1856 49.252 28.1767 49.2262C28.4151 49.5212 28.7228 49.8071 29.1043 50.0341C29.2169 50.0937 29.3297 50.1578 29.4511 50.2092C29.5375 50.2392 29.6288 50.2686 29.7155 50.2987C29.9886 50.773 30.383 51.3715 30.8511 51.9226C30.9638 52.0681 31.0938 52.2004 31.2198 52.3327C31.341 52.4695 31.484 52.5805 31.6095 52.7005C31.8698 52.9311 32.1426 53.1147 32.3859 53.2518C32.5071 53.3245 32.6285 53.3669 32.7322 53.414C32.8322 53.4654 32.932 53.4869 33.0099 53.5081C33.1705 53.5464 33.2613 53.5724 33.2613 53.5724L33.283 53.4654C33.283 53.4654 33.2005 53.4354 33.0531 53.384C32.9793 53.3584 32.8885 53.3327 32.7974 53.273C32.7023 53.2217 32.5893 53.1702 32.4809 53.0934C32.264 52.9438 32.0261 52.7515 31.7917 52.5123C31.6832 52.3887 31.5578 52.2687 31.4537 52.1276C31.3452 51.9912 31.2327 51.8543 31.1372 51.7089C30.8336 51.2818 30.5735 50.8329 30.37 50.4309C30.4522 50.444 30.5217 50.4482 30.5951 50.4525C31.3972 50.5083 32.2509 50.5806 33.1006 50.6794C33.1353 50.7263 33.1658 50.7776 33.2002 50.8373C33.2782 50.9782 33.3608 51.1405 33.4346 51.3288C33.4691 51.4183 33.4996 51.5165 33.5297 51.6192C33.5559 51.7217 33.5775 51.8117 33.5993 51.9354L33.638 52.0976C33.6643 52.1619 33.686 52.2217 33.7118 52.2818C33.777 52.3888 33.8506 52.487 33.9374 52.5638C34.1063 52.7176 34.3014 52.8071 34.466 52.8585C34.8041 52.9653 35.0385 52.9613 35.0385 52.9613L35.0472 52.8543C35.0472 52.8543 34.9906 52.8498 34.8996 52.8285C34.8041 52.8116 34.674 52.7776 34.5269 52.7133C34.3793 52.6492 34.2147 52.5506 34.089 52.4141C34.0241 52.3455 33.976 52.2604 33.9373 52.175L33.894 52.0508L33.8723 51.8844C33.8635 51.7902 33.8505 51.662 33.8289 51.551C33.8114 51.4398 33.7855 51.3288 33.7551 51.2261C33.7031 51.0422 33.6424 50.8758 33.5818 50.7304C34.2924 50.8159 34.9993 50.9187 35.6754 51.0384C35.7099 51.1752 35.7533 51.3457 35.814 51.5427C35.8921 51.7819 35.9962 52.0597 36.1436 52.3457C36.2865 52.6322 36.4728 52.9272 36.7159 53.1794C36.8373 53.3116 36.9802 53.4186 37.1015 53.5167C37.2274 53.6149 37.3399 53.7176 37.4526 53.8204C37.6692 54.0296 37.8598 54.2392 38.0116 54.4272C38.3198 54.8031 38.4798 55.0851 38.4798 55.0851L38.5752 55.0383C38.5752 55.0383 38.4365 54.7349 38.155 54.3246C38.0115 54.1192 37.8386 53.8886 37.6259 53.6536C37.5221 53.538 37.405 53.4185 37.2836 53.3074C37.1623 53.1919 37.0495 53.0897 36.9539 52.9741C36.7634 52.7349 36.6159 52.4571 36.5032 52.1878C36.3947 51.914 36.3169 51.6493 36.2648 51.4185C36.2389 51.3161 36.2214 51.222 36.2085 51.1364C37.145 51.3161 38.0034 51.5339 38.7182 51.7818C39.4074 52.021 39.9536 52.2901 40.3052 52.5252C40.4826 52.6407 40.617 52.7389 40.6949 52.8158C40.7817 52.8925 40.825 52.9313 40.825 52.9313L40.9033 52.863C40.9033 52.863 40.8642 52.8158 40.7817 52.7303C40.7037 52.6449 40.5735 52.5297 40.4002 52.3928C40.058 52.1278 39.5159 51.8032 38.8311 51.5039C37.5869 50.9614 35.8968 50.4825 34.1411 50.1192C34.544 50.0082 34.9993 49.906 35.4632 49.8373C35.6407 49.8072 35.8184 49.7946 35.9918 49.7819C36.1693 49.7605 36.3386 49.7691 36.5076 49.7646C36.8415 49.7646 37.1492 49.8034 37.4093 49.8587C37.5395 49.8848 37.652 49.9316 37.7561 49.9615C37.8645 49.9871 37.9468 50.0384 38.0163 50.0726C38.155 50.1413 38.2329 50.1794 38.2329 50.1794L38.2934 50.0941C38.2934 50.0941 38.2155 50.0427 38.0766 49.9572C38.0074 49.9189 37.9249 49.859 37.8166 49.8207C37.7127 49.7821 37.5955 49.7225 37.4613 49.6839C37.1923 49.6025 36.8719 49.5342 36.5208 49.5002C36.3474 49.4917 36.1651 49.4661 35.983 49.4742C35.8013 49.4742 35.6149 49.4702 35.428 49.4873C34.6826 49.53 33.9501 49.6625 33.4082 49.7907C33.2785 49.8199 33.1605 49.8491 33.0525 49.8786C31.5791 49.4693 31.1123 48.6596 31.1123 48.6596C31.8696 48.9368 32.9766 48.8687 33.7041 48.7781C33.7142 48.7792 33.7232 48.7809 33.7333 48.7821C34.0024 48.8077 34.2753 48.8376 34.5526 48.8677C34.8257 48.8848 35.1075 48.9017 35.3892 48.919C35.9442 48.9358 36.5074 48.9531 37.0711 48.9703C37.6348 48.9872 38.1417 49.0512 38.6748 49.1494C39.1518 49.2476 39.6153 49.3806 40.0536 49.5515C40.0707 49.7137 40.1011 49.9229 40.1616 50.1707C40.2354 50.4527 40.3395 50.7778 40.5131 51.1066C40.6907 51.4317 40.9463 51.7563 41.2803 51.9828C41.4449 52.0978 41.6441 52.1793 41.8135 52.2475C41.9909 52.3075 42.1515 52.3717 42.2989 52.4399C42.4505 52.5127 42.5936 52.5941 42.7235 52.6752C42.8494 52.7647 42.9666 52.8501 43.0663 52.9403C43.2613 53.124 43.3956 53.3032 43.4735 53.44C43.5514 53.5728 43.5732 53.6537 43.5732 53.6537L43.6774 53.6322C43.6774 53.6322 43.5949 53.2348 43.1962 52.8161C43.0966 52.7091 42.9795 52.6069 42.8536 52.4999C42.7235 52.4017 42.5764 52.3034 42.4204 52.2135C42.2599 52.1239 42.0951 52.0384 41.9305 51.9701C41.7659 51.8887 41.6223 51.8159 41.4882 51.705C41.2282 51.4953 41.0375 51.2094 40.9075 50.9187C40.7816 50.6236 40.7081 50.3247 40.669 50.0684C40.6515 49.9655 40.6385 49.8715 40.6343 49.7859C40.9462 49.9228 41.2454 50.0684 41.5444 50.2047C41.9908 50.4058 42.4332 50.5807 42.858 50.6662C43.2829 50.7691 43.686 50.7946 44.0326 50.7904C44.384 50.803 44.6828 50.7477 44.9301 50.7349C45.4199 50.6495 45.6972 50.5981 45.6972 50.5981L45.6797 50.4953C45.6797 50.4953 45.4025 50.5212 44.9127 50.568C44.67 50.5595 44.3753 50.594 44.0413 50.5555C43.7078 50.5299 43.3347 50.4785 42.9449 50.3503C42.5545 50.2393 42.1603 50.0469 41.7443 49.816C41.3277 49.5896 40.8899 49.3204 40.4047 49.0898C39.9189 48.8462 39.3903 48.6451 38.8396 48.4873C38.2981 48.3376 37.691 48.222 37.132 48.158C36.5767 48.098 36.0213 48.0385 35.47 47.9784C35.2175 47.9407 34.8044 47.8791 34.5513 47.8412C34.3348 47.8014 34.1209 47.7632 33.9066 47.7225C33.6595 47.6713 33.4127 47.6156 33.1741 47.5556C32.4546 47.3251 31.8524 46.5557 31.3711 45.6498C31.336 45.573 31.306 45.4961 31.2716 45.4192C30.4031 43.492 29.6668 41.3717 29.8586 39.2321C29.9532 38.1812 30.2734 37.042 30.9047 36.1743C31.5225 35.3247 32.4588 34.7484 33.0392 33.8619C34.5093 34.3519 36.0012 34.8461 37.5505 34.9351C39.0997 35.0238 40.7402 34.6589 41.88 33.6206C42.6989 32.8756 43.2095 31.8385 43.9654 31.0449C44.1685 31.1788 44.4127 31.3339 44.6989 31.5008C45.5276 31.984 46.6896 32.5598 47.9594 32.8578C48.115 32.9021 48.2788 32.9232 48.4368 32.9555C48.5862 32.9844 48.7341 33.0127 48.8812 33.0407C49.0388 33.0663 49.1636 33.1068 49.2936 33.1431C49.4241 33.1744 49.553 33.2269 49.68 33.275C49.9344 33.371 50.1679 33.494 50.3817 33.6227C50.5942 33.7539 50.7823 33.8978 50.9483 34.0411C51.2764 34.3317 51.5028 34.6246 51.6428 34.8377C51.7143 34.9442 51.7616 35.0317 51.7938 35.0907C51.8218 35.1478 51.8371 35.1784 51.8371 35.1784L52.1426 35.0693C52.1426 35.0693 52.1277 35.0295 52.0993 34.9543C52.0697 34.884 52.0255 34.7816 51.9589 34.6575L51.9592 34.6578Z" fill="#009444"/>
<path d="M45.6971 16.994C49.6377 17.0597 49.7938 12.9763 49.7938 12.9763C49.7938 12.9763 45.6523 13.1094 45.6971 16.994Z" fill="#009444"/>
<path d="M35.6847 14.2832C35.6847 14.2832 33.3789 17.6773 36.6052 19.907C38.9581 16.7901 35.6847 14.2832 35.6847 14.2832Z" fill="#009444"/>
<path d="M32.6694 10.8555C32.6694 10.8555 34.0764 14.6978 37.8099 13.4568C36.6571 9.74093 32.6694 10.8555 32.6694 10.8555Z" fill="#009444"/>
<path d="M33.7409 13.5695C33.7409 13.5695 29.7745 12.3879 28.5549 16.0814C32.2668 17.3888 33.7409 13.5695 33.7409 13.5695Z" fill="#009444"/>
<path d="M31.7835 9.66362C31.7835 9.66362 27.6438 9.47653 27.3801 13.3524C31.3034 13.7228 31.7835 9.66362 31.7835 9.66362Z" fill="#009444"/>
<path d="M44.5638 15.1652C44.5638 15.1652 40.5969 13.9837 39.3779 17.6769C43.0891 18.9842 44.5638 15.1652 44.5638 15.1652Z" fill="#009444"/>
<path d="M43.3471 27.4227C43.3471 27.4227 41.6458 23.6974 38.02 25.2167C39.4579 28.8349 43.3471 27.4227 43.3471 27.4227Z" fill="#009444"/>
<path d="M43.8449 20.6552C43.8449 20.6552 42.0736 17.8965 39.3779 19.501C40.9282 22.2042 43.8449 20.6552 43.8449 20.6552Z" fill="#009444"/>
<path d="M34.8867 27.9052C36.4375 30.6085 39.3542 29.0594 39.3542 29.0594C39.3542 29.0594 37.5828 26.3007 34.8867 27.9052Z" fill="#009444"/>
<path d="M32.0859 21.0189C32.0859 21.0189 28.6055 21.3629 28.8673 24.6316C32.1899 24.4667 32.0859 21.0189 32.0859 21.0189Z" fill="#009444"/>
<path d="M34.437 21.2666C34.7965 18.8196 32.1941 18.3941 32.1941 18.3941C32.1941 18.3941 31.946 20.9823 34.437 21.2666Z" fill="#009444"/>
<path d="M30.1963 17.8303C30.1963 17.8303 27.6274 18.4181 28.1425 20.8372C30.611 20.3982 30.1963 17.8303 30.1963 17.8303Z" fill="#009444"/>
<path d="M44.9052 28.4523C47.3737 28.0133 46.959 25.4453 46.959 25.4453C46.959 25.4453 44.39 26.033 44.9052 28.4523Z" fill="#009444"/>
<path d="M40.7973 29.956C40.7973 29.956 38.2287 30.5438 38.7441 32.963C41.2123 32.5241 40.7973 29.956 40.7973 29.956Z" fill="#009444"/>
<path d="M49.4301 18.5934C52.3922 18.0665 51.8945 14.9848 51.8945 14.9848C51.8945 14.9848 48.812 15.6906 49.4301 18.5934Z" fill="#009444"/>
<path d="M42.4788 33.6855C43.7541 36.3735 46.6487 35.1096 46.6487 35.1096C46.6487 35.1096 45.1671 32.3526 42.4788 33.6855Z" fill="#009444"/>
<path d="M47.7242 33.5622C46.12 36.073 48.7636 37.7902 48.7636 37.7902C48.7636 37.7902 50.3148 35.071 47.7242 33.5622Z" fill="#009444"/>
<path d="M46.959 8.9957C46.959 8.9957 44.39 9.58388 44.9052 12.003C47.3737 11.564 46.959 8.9957 46.959 8.9957Z" fill="#009444"/>
<path d="M47.7622 31.7702C49.7151 32.0757 50.0831 30.058 50.0831 30.058C50.0831 30.058 48.0162 29.8378 47.7622 31.7702Z" fill="#009444"/>
<path d="M48.188 28.5381C50.1407 28.8436 50.5088 26.8259 50.5088 26.8259C50.5088 26.8259 48.4419 26.6057 48.188 28.5381Z" fill="#009444"/>
<path d="M29.4004 26.9639C29.4004 26.9639 29.0255 29.5377 31.4994 29.9406C31.9785 27.5135 29.4004 26.9639 29.4004 26.9639Z" fill="#009444"/>
<path d="M9.30904 16.2914C9.35416 12.4076 5.21265 12.2739 5.21265 12.2739C5.21265 12.2739 5.36821 16.3575 9.30904 16.2914Z" fill="#009444"/>
<path d="M17.8634 19.907C21.0897 17.6774 18.7835 14.2832 18.7835 14.2832C18.7835 14.2832 15.5099 16.79 17.8634 19.907Z" fill="#009444"/>
<path d="M21.7992 10.8555C21.7992 10.8555 17.8114 9.74081 16.6587 13.4568C20.3922 14.6979 21.7992 10.8555 21.7992 10.8555Z" fill="#009444"/>
<path d="M20.7275 13.5695C20.7275 13.5695 22.2018 17.3889 25.9135 16.0814C24.6942 12.3878 20.7275 13.5695 20.7275 13.5695Z" fill="#009444"/>
<path d="M22.9065 10.1005C22.9065 10.1005 23.1984 12.5694 25.5848 12.3442C25.4245 9.98665 22.9065 10.1005 22.9065 10.1005Z" fill="#009444"/>
<path d="M15.0909 17.677C13.8715 13.9837 9.90479 15.1654 9.90479 15.1654C9.90479 15.1654 11.3792 18.9845 15.0909 17.677Z" fill="#009444"/>
<path d="M11.1213 27.4227C11.1213 27.4227 15.0109 28.8349 16.4487 25.2167C12.8225 23.6973 11.1213 27.4227 11.1213 27.4227Z" fill="#009444"/>
<path d="M15.5244 19.501C12.8285 17.8964 11.0571 20.6552 11.0571 20.6552C11.0571 20.6552 13.9736 22.2042 15.5244 19.501Z" fill="#009444"/>
<path d="M19.582 27.9052C16.8861 26.3006 15.1147 29.0594 15.1147 29.0594C15.1147 29.0594 18.0312 30.6085 19.582 27.9052Z" fill="#009444"/>
<path d="M21.7045 20.6272C21.7045 20.6272 21.6003 24.0751 24.9232 24.2399C25.1848 20.9712 21.7045 20.6272 21.7045 20.6272Z" fill="#009444"/>
<path d="M22.2745 18.3941C22.2745 18.3941 19.672 18.8197 20.0314 21.2666C22.5225 20.9823 22.2745 18.3941 22.2745 18.3941Z" fill="#009444"/>
<path d="M23.1984 16.8734C23.1984 16.8734 22.7836 19.4414 25.2519 19.8809C25.7673 17.4612 23.1984 16.8734 23.1984 16.8734Z" fill="#009444"/>
<path d="M9.56345 28.4523C10.0786 26.033 7.50991 25.4453 7.50991 25.4453C7.50991 25.4453 7.09494 28.0133 9.56345 28.4523Z" fill="#009444"/>
<path d="M13.671 29.956C13.671 29.956 13.2563 32.5241 15.7248 32.963C16.2399 30.5438 13.671 29.956 13.671 29.956Z" fill="#009444"/>
<path d="M5.03843 18.5934C5.65654 15.6906 2.57397 14.9848 2.57397 14.9848C2.57397 14.9848 2.07625 18.0663 5.03843 18.5934Z" fill="#009444"/>
<path d="M24.5276 3.60444C25.1193 0.825522 22.3208 0.0603753 22.08 6.10352e-05H22.0626C22.0446 0.119604 21.6251 3.08863 24.5276 3.60444Z" fill="#009444"/>
<path d="M11.9898 33.6855C9.30147 32.3526 7.82007 35.1096 7.82007 35.1096C7.82007 35.1096 10.7143 36.3734 11.9898 33.6855Z" fill="#009444"/>
<path d="M5.70498 37.7902C5.70498 37.7902 8.3483 36.073 6.74407 33.5622C4.15346 35.0709 5.70498 37.7902 5.70498 37.7902Z" fill="#009444"/>
<path d="M8.82586 12.003C9.34111 9.58388 6.77208 8.9957 6.77208 8.9957C6.77208 8.9957 6.35736 11.564 8.82586 12.003Z" fill="#009444"/>
<path d="M11.3893 9.82441C11.9045 7.40521 9.33556 6.81738 9.33556 6.81738C9.33556 6.81738 8.92083 9.38569 11.3893 9.82441Z" fill="#009444"/>
<path d="M16.8196 3.20059C16.8196 3.20059 14.6193 5.20628 16.5102 7.30727C18.694 5.50424 16.8196 3.20059 16.8196 3.20059Z" fill="#009444"/>
<path d="M19.9792 0.866058C19.9792 0.866058 17.7786 2.87163 19.6697 4.97298C21.8533 3.17006 19.9792 0.866058 19.9792 0.866058Z" fill="#009444"/>
<path d="M6.70653 31.7702C6.45252 29.8377 4.3855 30.058 4.3855 30.058C4.3855 30.058 4.7534 32.0757 6.70653 31.7702Z" fill="#009444"/>
<path d="M3.95972 26.8259C3.95972 26.8259 4.32761 28.8436 6.28074 28.5381C6.02686 26.6055 3.95972 26.8259 3.95972 26.8259Z" fill="#009444"/>
<path d="M23.1495 29.5011C25.512 28.8332 24.8524 26.3696 24.8524 26.3696C24.8524 26.3696 22.405 27.1912 23.1495 29.5011Z" fill="#009444"/>
<path d="M38.4061 10.8711C39.7149 7.20629 35.8339 5.77069 35.8339 5.77069C35.8339 5.77069 34.6539 9.68654 38.4061 10.8711Z" fill="#009444"/>
<path d="M43.3472 6.72739C43.3472 6.72739 39.2124 6.9906 39.3828 10.8711C43.3239 10.8137 43.3472 6.72739 43.3472 6.72739Z" fill="#009444"/>
<path d="M39.7002 11.749C41.4441 15.2335 45.1982 13.5012 45.1982 13.5012C45.1982 13.5012 43.1824 9.93201 39.7002 11.749Z" fill="#009444"/>
<path d="M47.9465 23.4779C49.2549 19.8126 45.3742 18.3769 45.3742 18.3769C45.3742 18.3769 44.1939 22.2929 47.9465 23.4779Z" fill="#009444"/>
<path d="M48.9234 23.4779C52.8641 23.42 52.8879 19.3338 52.8879 19.3338C52.8879 19.3338 48.7526 19.5973 48.9234 23.4779Z" fill="#009444"/>
<path d="M49.2405 24.3553C50.9847 27.8399 54.7383 26.1078 54.7383 26.1078C54.7383 26.1078 52.7233 22.5384 49.2405 24.3553Z" fill="#009444"/>
<path d="M54.6004 26.5316C54.6004 26.5316 52.3336 26.7278 52.477 28.8563C54.6396 28.7753 54.6004 26.5316 54.6004 26.5316Z" fill="#009444"/>
<path d="M52.6738 29.3479C53.4986 31.3207 55.6209 30.5082 55.6209 30.5082C55.6209 30.5082 54.65 28.479 52.6738 29.3479Z" fill="#009444"/>
<path d="M52.2837 29.6848C50.8305 31.2664 52.4855 32.8068 52.4855 32.8068C52.4855 32.8068 53.9275 31.0716 52.2837 29.6848Z" fill="#009444"/>
<path d="M56.282 32.2198C56.2716 32.2175 52.9513 31.4787 52.166 34.5798C55.2776 35.4384 56.2717 32.2538 56.282 32.2206V32.2198Z" fill="#009444"/>
<path d="M52.2188 35.3714C52.4794 38.5632 55.8889 38.3622 55.8889 38.3622C55.8889 38.3622 55.4467 35.0239 52.2188 35.3714Z" fill="#009444"/>
<path d="M50.3378 40.2273C50.3378 40.2273 53.2065 38.4014 51.5033 35.6758C48.691 37.2772 50.3378 40.2273 50.3378 40.2273Z" fill="#009444"/>
<path d="M16.6949 10.9054C20.6176 10.5415 20.3169 6.46732 20.3169 6.46732C20.3169 6.46732 16.2141 7.04875 16.6949 10.9054Z" fill="#009444"/>
<path d="M15.7408 10.6991C16.7517 6.94455 12.77 5.81305 12.77 5.81305C12.77 5.81305 11.9042 9.80911 15.7408 10.6991Z" fill="#009444"/>
<path d="M9.48877 12.0379C9.48877 12.0379 12.7786 14.5239 15.2399 11.4888C12.2338 8.97808 9.48877 12.0379 9.48877 12.0379Z" fill="#009444"/>
<path d="M33.4382 6.62377C33.4382 6.62377 29.5728 5.14824 28.0745 8.74213C31.6749 10.3204 33.4382 6.62377 33.4382 6.62377Z" fill="#009444"/>
<path d="M27.3457 8.10098C30.0933 5.31724 27.1852 2.40707 27.1852 2.40707C27.1852 2.40707 24.4437 5.47188 27.3457 8.10098Z" fill="#009444"/>
<path d="M26.5161 8.54779C25.1445 4.90674 21.2302 6.24728 21.2302 6.24728C21.2302 6.24728 22.862 10.0039 26.5161 8.54779Z" fill="#009444"/>
<path d="M6.9465 23.7815C10.7671 22.832 9.83954 18.8503 9.83954 18.8503C9.83954 18.8503 5.8748 20.0424 6.9465 23.7815Z" fill="#009444"/>
<path d="M5.97195 23.7207C6.38987 19.8587 2.27986 19.3391 2.27986 19.3391C2.27986 19.3391 2.0424 23.4185 5.97195 23.7207Z" fill="#009444"/>
<path d="M5.59913 24.5773C2.23963 22.5478 0 25.9847 0 25.9847C0 25.9847 3.63619 27.9467 5.59913 24.5773Z" fill="#009444"/>
</svg>
