<svg width="275" height="274" viewBox="0 0 275 274" fill="none" xmlns="http://www.w3.org/2000/svg">
<rect width="275" height="274" rx="12" fill="#E6EFEB"/>
<path d="M136.245 209.828C134.684 209.828 133.417 208.562 133.417 207V180.786C133.417 179.224 134.683 177.958 136.245 177.958C137.807 177.958 139.073 179.224 139.073 180.786V207C139.073 208.562 137.807 209.828 136.245 209.828Z" fill="#0A5B36"/>
<path d="M165.539 210.923C163.977 210.923 162.711 209.657 162.711 208.095V167.155C162.711 165.593 163.977 164.327 165.539 164.327C167.101 164.327 168.366 165.593 168.366 167.155V208.095C168.366 209.657 167.1 210.923 165.539 210.923Z" fill="#0A5B36"/>
<path d="M134.26 185.311C148.242 185.311 159.577 173.976 159.577 159.993C159.577 146.011 148.242 134.676 134.26 134.676C120.277 134.676 108.942 146.011 108.942 159.993C108.942 173.976 120.277 185.311 134.26 185.311Z" fill="#0F7A4F"/>
<path d="M159.578 159.994C159.578 173.975 148.241 185.312 134.26 185.312C128.294 185.312 122.81 183.248 118.483 179.794C120.754 180.464 123.157 180.822 125.646 180.822C139.627 180.822 150.96 169.485 150.96 155.504C150.96 147.489 147.235 140.341 141.424 135.705C151.917 138.793 159.578 148.499 159.578 159.994Z" fill="#0C6842"/>
<path d="M173.312 124.824C187.294 124.824 198.629 113.489 198.629 99.5061C198.629 85.5236 187.294 74.1885 173.312 74.1885C159.329 74.1885 147.994 85.5236 147.994 99.5061C147.994 113.489 159.329 124.824 173.312 124.824Z" fill="#158F5E"/>
<path d="M198.631 99.5058C198.631 113.487 187.294 124.823 173.313 124.823C171.291 124.823 169.325 124.586 167.442 124.138C178.59 121.486 186.884 111.464 186.884 99.5058C186.884 87.5439 178.59 77.5216 167.442 74.8738C169.325 74.4256 171.291 74.1883 173.313 74.1883C187.294 74.1883 198.631 85.5213 198.631 99.5058Z" fill="#0F7A4F"/>
<path d="M206.476 159.307C220.459 159.307 231.794 147.972 231.794 133.989C231.794 120.007 220.459 108.672 206.476 108.672C192.494 108.672 181.159 120.007 181.159 133.989C181.159 147.972 192.494 159.307 206.476 159.307Z" fill="#158F5E"/>
<path d="M231.793 133.991C231.793 147.972 220.456 159.309 206.475 159.309C204.174 159.309 201.944 159 199.824 158.424C212.231 156.789 221.805 146.176 221.805 133.325C221.805 121.645 213.895 111.811 203.139 108.892C204.231 108.749 205.346 108.674 206.476 108.674C220.456 108.674 231.793 120.007 231.793 133.991Z" fill="#0F7A4F"/>
<path d="M177.366 209.828C175.804 209.828 174.539 208.562 174.539 207V169.241C174.539 167.679 175.804 166.413 177.366 166.413C178.928 166.413 180.194 167.679 180.194 169.241V207C180.194 208.562 178.928 209.828 177.366 209.828Z" fill="#0F7A4F"/>
<path d="M190.224 178.967C179.309 178.967 170.461 170.119 170.461 159.204V115.98C170.461 105.065 179.309 96.2172 190.224 96.2172C201.139 96.2172 209.987 105.065 209.987 115.98V159.204C209.987 170.119 201.139 178.967 190.224 178.967Z" fill="#D2F0A2"/>
<path d="M209.989 115.98V159.202C209.989 170.117 201.139 178.968 190.224 178.968C188.548 178.968 186.92 178.761 185.369 178.365C193.937 176.203 200.28 168.441 200.28 159.202V115.98C200.28 110.522 198.069 105.581 194.491 102.006C192.012 99.5279 188.879 97.7049 185.369 96.8198C186.92 96.4243 188.548 96.2172 190.224 96.2172C195.681 96.2172 200.623 98.4281 204.201 102.006C207.778 105.581 209.989 110.522 209.989 115.98Z" fill="#BCEA73"/>
<path d="M198.488 149.874C197.383 148.77 195.593 148.77 194.489 149.874L193.054 151.309V145.132C193.054 145.131 193.054 145.131 193.054 145.13V134.075C193.054 132.513 191.788 131.247 190.226 131.247C188.664 131.247 187.398 132.513 187.398 134.075V138.303L184.546 135.451C183.442 134.347 181.651 134.347 180.547 135.451C179.443 136.555 179.443 138.346 180.547 139.45L187.398 146.302V158.134V158.138V205.466C187.398 207.028 188.664 208.294 190.226 208.294C191.788 208.294 193.054 207.028 193.054 205.466V159.308L198.488 153.873C199.592 152.769 199.592 150.979 198.488 149.874Z" fill="#A3E440"/>
<path d="M89.5605 129.516C78.6456 129.516 69.7974 120.668 69.7974 109.753V82.0872C69.7974 71.1723 78.6456 62.3241 89.5605 62.3241C100.475 62.3241 109.324 71.1723 109.324 82.0872V109.753C109.324 120.668 100.475 129.516 89.5605 129.516Z" fill="#D2F0A2"/>
<path d="M109.321 82.0861V109.754C109.321 120.669 100.474 129.516 89.5594 129.516C87.6912 129.516 85.8795 129.256 84.1658 128.77C92.4592 126.424 98.5345 118.801 98.5345 109.754V82.0864C98.5345 76.6288 96.3236 71.6876 92.7458 68.1132C90.3955 65.7591 87.4539 64.0002 84.1661 63.0702C85.8799 62.5843 87.6916 62.3245 89.5597 62.3245C95.0174 62.3245 99.9586 64.5354 103.533 68.1132C107.11 71.6872 109.321 76.6288 109.321 82.0861Z" fill="#BCEA73"/>
<path d="M97.8228 100.422C96.7185 99.3181 94.9279 99.3181 93.824 100.422L92.3886 101.858V95.6797C92.3886 95.6797 92.3886 95.6786 92.3886 95.6778V84.6232C92.3886 83.0613 91.1226 81.7953 89.5607 81.7953C87.9987 81.7953 86.7328 83.0613 86.7328 84.6232V88.8519L83.8808 85.9995C82.7765 84.8955 80.9859 84.8955 79.882 85.9995C78.7776 87.1042 78.7776 88.8944 79.882 89.9987L86.7332 96.85V108.683V108.685V208.094C86.7332 209.656 87.9991 210.922 89.5611 210.922C91.123 210.922 92.3889 209.656 92.3889 208.094V109.856L97.8232 104.422C98.9272 103.317 98.9272 101.527 97.8228 100.422Z" fill="#A3E440"/>
<path d="M117.264 165.913C133.836 165.913 147.27 152.478 147.27 135.907C147.27 119.335 133.836 105.901 117.264 105.901C100.692 105.901 87.2583 119.335 87.2583 135.907C87.2583 152.478 100.692 165.913 117.264 165.913Z" fill="#1CA56F"/>
<path d="M147.273 135.905C147.273 152.477 133.839 165.911 117.267 165.911C112.51 165.911 108.013 164.804 104.017 162.83C117.971 160.254 128.543 148.024 128.543 133.325C128.543 121.51 121.715 111.291 111.79 106.399C113.564 106.071 115.395 105.902 117.267 105.902C133.839 105.902 147.273 119.336 147.273 135.905Z" fill="#158F5E"/>
<path d="M126.053 122.182C124.948 121.078 123.158 121.077 122.054 122.182L120.093 124.142V120.878C120.093 119.316 118.828 118.05 117.266 118.05C115.704 118.05 114.438 119.316 114.438 120.878V150.805C114.438 152.367 115.704 153.633 117.266 153.633C118.828 153.633 120.093 152.367 120.093 150.805V132.14L126.053 126.18C127.157 125.076 127.157 123.286 126.053 122.182Z" fill="#0F7A4F"/>
<path d="M117.266 210.924C115.704 210.924 114.438 209.658 114.438 208.096V181.244C114.438 179.682 115.704 178.416 117.266 178.416C118.828 178.416 120.093 179.682 120.093 181.244V208.096C120.093 209.658 118.828 210.924 117.266 210.924Z" fill="#0F7A4F"/>
<path d="M173.311 142.321C173.311 177.095 164.389 176.475 153.383 176.475C142.377 176.475 133.455 177.095 133.455 142.321C133.455 107.546 144.701 68.3115 153.383 68.3115C162.066 68.3115 173.311 107.546 173.311 142.321Z" fill="#A3E440"/>
<path d="M173.311 142.321C173.311 177.095 164.389 176.475 153.383 176.475C142.377 176.475 133.455 177.095 133.455 142.321C133.455 107.546 144.701 68.3115 153.383 68.3115C162.066 68.3115 173.311 107.546 173.311 142.321Z" fill="#A3E440"/>
<path d="M173.311 142.321C173.311 177.097 164.391 176.475 153.385 176.475C151.592 176.475 149.851 176.493 148.197 176.367C156.685 175.736 162.935 171.421 162.935 142.321C162.935 114.226 155.592 83.2248 148.197 72.348C149.955 69.7604 151.717 68.3134 153.385 68.3134C162.067 68.3137 173.311 107.548 173.311 142.321Z" fill="#99D53B"/>
<path d="M165.386 145.985C164.281 144.881 162.491 144.881 161.387 145.985L156.212 151.16V140.333C156.212 140.332 156.212 140.331 156.212 140.33V127.593C156.212 126.031 154.946 124.765 153.384 124.765C151.822 124.765 150.556 126.031 150.556 127.593V133.504L146.535 129.482C145.43 128.379 143.64 128.379 142.535 129.482C141.431 130.587 141.431 132.377 142.535 133.482L150.556 141.503V157.985V157.989V207C150.556 208.562 151.822 209.828 153.384 209.828C154.946 209.828 156.212 208.562 156.212 207V159.158L165.386 149.985C166.49 148.88 166.49 147.09 165.386 145.985Z" fill="#88BA31"/>
<path d="M44.6057 167.697C44.6057 194.482 56.6788 194.004 71.5714 194.004C86.4641 194.004 98.5372 194.482 98.5372 167.697C98.5372 140.912 83.3202 110.692 71.5714 110.692C59.8227 110.692 44.6057 140.912 44.6057 167.697Z" fill="#A3E440"/>
<path d="M44.6057 167.697C44.6057 194.482 56.6788 194.004 71.5714 194.004C86.4641 194.004 98.5372 194.482 98.5372 167.697C98.5372 140.912 83.3202 110.692 71.5714 110.692C59.8227 110.692 44.6057 140.912 44.6057 167.697Z" fill="#99D53B"/>
<path d="M98.5349 167.696C98.5349 194.483 86.4637 194.004 71.5714 194.004C69.6354 194.004 67.7522 194.012 65.9333 193.967C78.1175 193.669 87.2584 191.003 87.2584 167.696C87.2584 145.061 76.3925 119.973 65.9333 112.745C67.8505 111.416 69.7526 110.693 71.5714 110.693C83.319 110.693 98.5349 140.91 98.5349 167.696Z" fill="#8DC637"/>
<path d="M124.251 168.703C124.251 188.498 115.329 188.144 104.323 188.144C93.3166 188.144 84.3945 188.498 84.3945 168.703C84.3945 148.909 95.6401 126.577 104.323 126.577C113.005 126.577 124.251 148.909 124.251 168.703Z" fill="#A3E440"/>
<path d="M124.251 168.703C124.251 188.498 115.329 188.144 104.323 188.144C93.3166 188.144 84.3945 188.498 84.3945 168.703C84.3945 148.909 95.6401 126.577 104.323 126.577C113.005 126.577 124.251 148.909 124.251 168.703Z" fill="#A3E440"/>
<path d="M124.248 168.702C124.248 188.497 115.329 188.143 104.32 188.143C102.267 188.143 100.29 188.155 98.426 188.045C106.554 187.575 112.46 184.806 112.46 168.702C112.46 153.218 105.579 136.183 98.426 129.494C100.415 127.633 102.43 126.575 104.32 126.575C113.005 126.575 124.248 148.909 124.248 168.702Z" fill="#99D53B"/>
<path d="M116.323 163.488C115.219 162.384 113.428 162.384 112.324 163.488L107.149 168.662V154.818C107.149 153.256 105.883 151.99 104.322 151.99C102.76 151.99 101.494 153.256 101.494 154.818V175.488V175.49V207C101.494 208.562 102.76 209.828 104.322 209.828C105.883 209.828 107.149 208.562 107.149 207V176.66L116.323 167.487C117.427 166.382 117.427 164.592 116.323 163.488Z" fill="#88BA31"/>
<path d="M230.464 178.346C230.464 192.612 224.034 192.358 216.102 192.358C208.17 192.358 201.74 192.612 201.74 178.346C201.74 164.08 209.844 147.985 216.102 147.985C222.36 147.985 230.464 164.08 230.464 178.346Z" fill="#A3E440"/>
<path d="M230.464 178.346C230.464 192.612 224.034 192.358 216.102 192.358C208.17 192.358 201.74 192.612 201.74 178.346C201.74 164.08 209.844 147.985 216.102 147.985C222.36 147.985 230.464 164.08 230.464 178.346Z" fill="#A3E440"/>
<path d="M230.466 178.347C230.466 192.61 224.033 192.358 216.101 192.358C214.413 192.358 212.794 192.369 211.291 192.249C216.858 191.808 220.838 189.574 220.838 178.347C220.838 167.594 216.236 155.805 211.291 150.645C212.903 148.958 214.556 147.982 216.101 147.982C222.36 147.983 230.466 164.08 230.466 178.347Z" fill="#99D53B"/>
<path d="M223.575 175.762C222.471 174.658 220.68 174.658 219.576 175.763L218.93 176.409V168.338C218.93 166.776 217.664 165.51 216.102 165.51C214.54 165.51 213.274 166.776 213.274 168.338V183.235V183.237V207C213.274 208.562 214.54 209.828 216.102 209.828C217.664 209.828 218.93 208.562 218.93 207V184.408L223.575 179.762C224.679 178.657 224.679 176.867 223.575 175.762Z" fill="#88BA31"/>
<path d="M78.7418 157.303C79.8461 156.198 79.8461 154.408 78.7418 153.303C77.6374 152.2 75.8468 152.2 74.7429 153.303L74.3998 153.647V145.862C74.3998 144.3 73.1339 143.034 71.5719 143.034C70.0099 143.034 68.744 144.3 68.744 145.862V170.052L65.1836 166.491C64.0792 165.387 62.2886 165.387 61.1847 166.491C60.0804 167.596 60.0804 169.386 61.1847 170.49L68.7444 178.05V207C68.7444 208.562 70.0103 209.827 71.5723 209.827C73.1342 209.827 74.4001 208.562 74.4001 207V176.879C74.4001 176.879 74.4001 176.878 74.4001 176.877V161.645L78.7418 157.303Z" fill="#88BA31"/>
<path d="M231.594 211.677H44.406C42.8444 211.677 41.5781 210.411 41.5781 208.849C41.5781 207.287 42.844 206.021 44.406 206.021H231.594C233.156 206.021 234.422 207.287 234.422 208.849C234.422 210.411 233.156 211.677 231.594 211.677Z" fill="#0A5B36"/>
<path d="M181.704 202.56C180.549 206.38 180.205 212.519 185.402 217.716L181.704 202.56ZM181.704 202.56C176.888 200.047 173.588 195.004 173.588 189.196C173.588 183.387 176.889 178.344 181.706 175.831M181.704 202.56L181.706 175.831M181.706 175.831C180.554 172.003 180.224 165.854 185.402 160.677M181.706 175.831L185.402 160.677M227.286 156.98C224.773 152.163 219.73 148.863 213.921 148.863C208.114 148.863 203.072 152.162 200.559 156.978C196.739 155.823 190.598 155.478 185.402 160.676C185.402 160.676 185.402 160.676 185.402 160.677M227.286 156.98L185.402 160.677M227.286 156.98C231.115 155.828 237.265 155.497 242.443 160.677C246.544 164.778 247.778 170.665 246.16 175.843C250.965 178.36 254.255 183.396 254.255 189.196C254.255 194.996 250.965 200.032 246.16 202.549C247.778 207.727 246.544 213.615 242.442 217.716M227.286 156.98L242.442 217.716M242.442 217.716C237.246 222.913 231.106 222.568 227.285 221.414M242.442 217.716L227.285 221.414M227.285 221.414C224.772 226.23 219.73 229.529 213.921 229.529C208.113 229.529 203.07 226.229 200.558 221.412M227.285 221.414L200.558 221.412M200.558 221.412C196.729 222.563 190.58 222.894 185.402 217.716L200.558 221.412Z" fill="#97DB4F" stroke="#E6EFEB" stroke-width="4.7451"/>
<path d="M213.921 151.235C219.56 151.235 224.351 154.931 226 160.028C228.655 158.664 235.353 156.94 240.765 162.354C244.753 166.342 245.527 172.345 243.086 177.116C248.184 178.764 251.882 183.556 251.882 189.196C251.882 194.836 248.184 199.628 243.086 201.276C245.527 206.047 244.753 212.05 240.765 216.038C235.329 221.474 228.648 219.724 226 218.364C224.352 223.461 219.56 227.157 213.921 227.157V151.235Z" fill="#BEF636"/>
<path d="M211.539 198.568C210.97 198.568 210.401 198.35 209.967 197.916L200.437 188.386C199.568 187.518 199.568 186.109 200.437 185.241C201.305 184.372 202.714 184.372 203.582 185.241L211.54 193.198L228.104 176.634C228.973 175.766 230.381 175.766 231.25 176.634C232.118 177.503 232.118 178.911 231.25 179.78L213.112 197.916C212.678 198.35 212.108 198.568 211.539 198.568Z" fill="#0A4519"/>
<path d="M228.104 176.634L213.921 190.816V197.107L231.249 179.78C232.118 178.911 232.118 177.503 231.249 176.634C230.381 175.766 228.972 175.766 228.104 176.634Z" fill="#0A4519"/>
</svg>
