<svg width="92" height="72" viewBox="0 0 92 72" fill="none" xmlns="http://www.w3.org/2000/svg">
<path d="M45.1635 70.7437C44.4186 70.7437 43.8145 70.1398 43.8145 69.3946V56.8887C43.8145 56.1435 44.4184 55.5396 45.1635 55.5396C45.9087 55.5396 46.5126 56.1435 46.5126 56.8887V69.3946C46.5126 70.1398 45.9085 70.7437 45.1635 70.7437Z" fill="#0A5B36"/>
<path d="M59.1382 71.2662C58.393 71.2662 57.7891 70.6623 57.7891 69.9171V50.3858C57.7891 49.6406 58.393 49.0367 59.1382 49.0367C59.8833 49.0367 60.4873 49.6406 60.4873 50.3858V69.9169C60.4871 70.6623 59.8831 71.2662 59.1382 71.2662Z" fill="#0A5B36"/>
<path d="M44.2157 59.0473C50.8863 59.0473 56.2939 53.6397 56.2939 46.969C56.2939 40.2984 50.8863 34.8908 44.2157 34.8908C37.5451 34.8908 32.1375 40.2984 32.1375 46.969C32.1375 53.6397 37.5451 59.0473 44.2157 59.0473Z" fill="#0F7A4F"/>
<path d="M56.2936 46.9696C56.2936 53.6394 50.8852 59.0478 44.2154 59.0478C41.3693 59.0478 38.7531 58.0631 36.6885 56.4154C37.772 56.7352 38.9184 56.9059 40.106 56.9059C46.7758 56.9059 52.1824 51.4975 52.1824 44.8277C52.1824 41.004 50.4053 37.5937 47.6329 35.3819C52.639 36.8553 56.2936 41.4857 56.2936 46.9696Z" fill="#0C6842"/>
<path d="M62.8463 30.1905C69.5169 30.1905 74.9245 24.7829 74.9245 18.1123C74.9245 11.4417 69.5169 6.03406 62.8463 6.03406C56.1757 6.03406 50.7681 11.4417 50.7681 18.1123C50.7681 24.7829 56.1757 30.1905 62.8463 30.1905Z" fill="#158F5E"/>
<path d="M74.9253 18.1127C74.9253 24.7825 69.5169 30.1909 62.847 30.1909C61.8821 30.1909 60.9442 30.0777 60.0459 29.8639C65.3645 28.5989 69.321 23.8176 69.321 18.1127C69.321 12.406 65.3645 7.62466 60.0459 6.36146C60.9443 6.14763 61.8823 6.03442 62.847 6.03442C69.5169 6.03442 74.9253 11.441 74.9253 18.1127Z" fill="#0F7A4F"/>
<path d="M78.6683 46.6418C85.3389 46.6418 90.7466 41.2342 90.7466 34.5636C90.7466 27.893 85.3389 22.4854 78.6683 22.4854C71.9977 22.4854 66.5901 27.893 66.5901 34.5636C66.5901 41.2342 71.9977 46.6418 78.6683 46.6418Z" fill="#158F5E"/>
<path d="M90.7465 34.5643C90.7465 41.2341 85.338 46.6425 78.6682 46.6425C77.5703 46.6425 76.5066 46.4952 75.4951 46.2203C81.4138 45.4404 85.9813 40.377 85.9813 34.2463C85.9813 28.6743 82.2081 23.9829 77.0764 22.5903C77.5975 22.522 78.1293 22.4861 78.6684 22.4861C85.338 22.4861 90.7465 27.8927 90.7465 34.5643Z" fill="#0F7A4F"/>
<path d="M64.7802 70.7436C64.0351 70.7436 63.4312 70.1397 63.4312 69.3945V51.381C63.4312 50.6359 64.0351 50.0319 64.7802 50.0319C65.5254 50.0319 66.1293 50.6359 66.1293 51.381V69.3945C66.1293 70.1397 65.5254 70.7436 64.7802 70.7436Z" fill="#0F7A4F"/>
<path d="M70.915 56.0213C65.7078 56.0213 61.4866 51.8001 61.4866 46.5929V25.9721C61.4866 20.765 65.7078 16.5438 70.915 16.5438C76.1221 16.5438 80.3433 20.765 80.3433 25.9721V46.5927C80.3433 51.8001 76.1221 56.0213 70.915 56.0213Z" fill="#D2F0A2"/>
<path d="M80.3444 25.9718V46.592C80.3444 51.7992 76.122 56.0216 70.9148 56.0216C70.1152 56.0216 69.3389 55.9228 68.5986 55.7341C72.6863 54.7027 75.7123 50.9996 75.7123 46.592V25.9718C75.7123 23.3681 74.6575 21.0108 72.9505 19.3056C71.7681 18.1232 70.2733 17.2535 68.5986 16.8313C69.3389 16.6426 70.1152 16.5438 70.9148 16.5438C73.5185 16.5438 75.8758 17.5985 77.5828 19.3056C79.2897 21.0108 80.3444 23.3683 80.3444 25.9718Z" fill="#BCEA73"/>
<path d="M74.857 42.1417C74.33 41.615 73.4759 41.615 72.9491 42.1417L72.2645 42.8263V39.8792C72.2645 39.8791 72.2645 39.8787 72.2645 39.8784V34.6043C72.2645 33.8592 71.6605 33.2552 70.9154 33.2552C70.1702 33.2552 69.5663 33.8592 69.5663 34.6043V36.6217L68.2059 35.2611C67.679 34.7343 66.8248 34.7341 66.2981 35.2609C65.7711 35.7878 65.7711 36.642 66.2979 37.1687L69.5665 40.4374V46.0822V46.084V68.663C69.5665 69.4082 70.1704 70.0121 70.9156 70.0121C71.6607 70.0121 72.2646 69.4082 72.2646 68.663V46.6421L74.8572 44.0496C75.3837 43.5228 75.3837 42.6687 74.857 42.1417Z" fill="#A3E440"/>
<path d="M22.8908 32.4294C17.6836 32.4294 13.4624 28.2082 13.4624 23.0011V9.80265C13.4624 4.59549 17.6836 0.374268 22.8908 0.374268C28.0979 0.374268 32.3192 4.59549 32.3192 9.80265V23.0011C32.3193 28.2082 28.0979 32.4294 22.8908 32.4294Z" fill="#D2F0A2"/>
<path d="M32.3186 9.8023V23.0018C32.3186 28.2089 28.0979 32.4298 22.8908 32.4298C21.9995 32.4298 21.1352 32.3058 20.3176 32.074C24.2742 30.9546 27.1725 27.3179 27.1725 23.002V9.80248C27.1725 7.19881 26.1178 4.84149 24.4109 3.13625C23.2897 2.0132 21.8863 1.17406 20.3178 0.730415C21.1354 0.498618 21.9997 0.374634 22.8909 0.374634C25.4946 0.374634 27.8519 1.4294 29.5572 3.13625C31.2638 4.84131 32.3186 7.19881 32.3186 9.8023Z" fill="#BCEA73"/>
<path d="M26.8321 18.5498C26.3053 18.0232 25.451 18.0232 24.9244 18.5498L24.2396 19.2346V16.2874C24.2396 16.2874 24.2396 16.2869 24.2396 16.2865V11.0127C24.2396 10.2675 23.6357 9.66357 22.8905 9.66357C22.1453 9.66357 21.5414 10.2675 21.5414 11.0127V13.03L20.1808 11.6692C19.654 11.1426 18.7997 11.1426 18.2731 11.6692C17.7462 12.1963 17.7462 13.0503 18.2731 13.5772L21.5416 16.8457V22.4911V22.492V69.9171C21.5416 70.6623 22.1455 71.2662 22.8907 71.2662C23.6358 71.2662 24.2398 70.6623 24.2398 69.9171V23.0505L26.8323 20.4579C27.359 19.9309 27.359 19.0769 26.8321 18.5498Z" fill="#A3E440"/>
<path d="M36.1082 49.793C44.0141 49.793 50.4232 43.384 50.4232 35.478C50.4232 27.5721 44.0141 21.163 36.1082 21.163C28.2023 21.163 21.7932 27.5721 21.7932 35.478C21.7932 43.384 28.2023 49.793 36.1082 49.793Z" fill="#1CA56F"/>
<path d="M50.4242 35.4771C50.4242 43.3832 44.015 49.7923 36.1091 49.7923C33.8396 49.7923 31.6943 49.264 29.7878 48.3224C36.4451 47.0934 41.4887 41.2591 41.4887 34.2463C41.4887 28.6096 38.2312 23.7349 33.4964 21.4008C34.3427 21.2444 35.216 21.1636 36.1091 21.1636C44.015 21.1636 50.4242 27.5728 50.4242 35.4771Z" fill="#158F5E"/>
<path d="M40.3007 28.9302C39.7739 28.4036 38.9196 28.4034 38.393 28.9304L37.4577 29.8655V28.3081C37.4577 27.563 36.8538 26.959 36.1086 26.959C35.3635 26.959 34.7595 27.563 34.7595 28.3081V42.5858C34.7595 43.3309 35.3635 43.9348 36.1086 43.9348C36.8538 43.9348 37.4577 43.3309 37.4577 42.5858V33.681L40.3007 30.8378C40.8276 30.3111 40.8276 29.4572 40.3007 28.9302Z" fill="#0F7A4F"/>
<path d="M36.1086 71.2662C35.3636 71.2662 34.7595 70.6622 34.7595 69.9171V57.1068C34.7595 56.3616 35.3635 55.7577 36.1086 55.7577C36.8538 55.7577 37.4577 56.3616 37.4577 57.1068V69.9171C37.4577 70.6622 36.8538 71.2662 36.1086 71.2662Z" fill="#0F7A4F"/>
<path d="M62.8464 38.5383C62.8464 55.1283 58.59 54.8324 53.3394 54.8324C48.0887 54.8324 43.8323 55.1283 43.8323 38.5383C43.8323 21.9483 49.1972 3.23077 53.3394 3.23077C57.4815 3.23077 62.8464 21.9483 62.8464 38.5383Z" fill="#A3E440"/>
<path d="M62.8464 38.5383C62.8464 55.1283 58.59 54.8324 53.3394 54.8324C48.0887 54.8324 43.8323 55.1283 43.8323 38.5383C43.8323 21.9483 49.1972 3.23077 53.3394 3.23077C57.4815 3.23077 62.8464 21.9483 62.8464 38.5383Z" fill="#A3E440"/>
<path d="M62.8459 38.5379C62.8459 55.1288 58.5906 54.8322 53.3398 54.8322C52.4846 54.8322 51.6541 54.8404 50.8647 54.7806C54.914 54.4796 57.8959 52.421 57.8959 38.5379C57.8959 25.1349 54.3927 10.3452 50.8647 5.15614C51.7035 3.92168 52.5443 3.23132 53.3398 3.23132C57.4817 3.2315 62.8459 21.9492 62.8459 38.5379Z" fill="#99D53B"/>
<path d="M59.065 40.2863C58.5379 39.7596 57.6839 39.7596 57.157 40.2863L54.6885 42.7549V37.5899C54.6885 37.5894 54.6885 37.5887 54.6885 37.5881V31.5118C54.6885 30.7666 54.0846 30.1627 53.3394 30.1627C52.5942 30.1627 51.9903 30.7666 51.9903 31.5118V34.332L50.0716 32.4133C49.5446 31.8866 48.6905 31.8866 48.1637 32.4133C47.6368 32.9403 47.6368 33.7944 48.1637 34.3212L51.9903 38.1479V46.011V46.0128V69.3946C51.9903 70.1398 52.5942 70.7437 53.3394 70.7437C54.0846 70.7437 54.6885 70.1398 54.6885 69.3946V46.5707L59.065 42.1942C59.5918 41.6674 59.5918 40.8133 59.065 40.2863Z" fill="#88BA31"/>
<path d="M1.44434 50.6442C1.44434 63.4225 7.20404 63.1945 14.3089 63.1945C21.4137 63.1945 27.1734 63.4225 27.1734 50.6442C27.1734 37.8659 19.9139 23.4492 14.3089 23.4492C8.70389 23.4492 1.44434 37.8659 1.44434 50.6442Z" fill="#A3E440"/>
<path d="M1.44434 50.6442C1.44434 63.4225 7.20404 63.1945 14.3089 63.1945C21.4137 63.1945 27.1734 63.4225 27.1734 50.6442C27.1734 37.8659 19.9139 23.4492 14.3089 23.4492C8.70389 23.4492 1.44434 37.8659 1.44434 50.6442Z" fill="#99D53B"/>
<path d="M27.1731 50.644C27.1731 63.423 21.4143 63.1948 14.3096 63.1948C13.386 63.1948 12.4876 63.1984 11.6199 63.1769C17.4326 63.0349 21.7934 61.7627 21.7934 50.644C21.7934 39.8452 16.6096 27.8765 11.6199 24.4285C12.5345 23.7942 13.4419 23.4492 14.3096 23.4492C19.9141 23.4492 27.1731 37.8652 27.1731 50.644Z" fill="#8DC637"/>
<path d="M39.4407 51.1247C39.4407 60.568 35.1842 60.3995 29.9336 60.3995C24.683 60.3995 20.4265 60.568 20.4265 51.1247C20.4265 41.6814 25.7914 31.0274 29.9336 31.0274C34.0758 31.0274 39.4407 41.6814 39.4407 51.1247Z" fill="#A3E440"/>
<path d="M39.4407 51.1247C39.4407 60.568 35.1842 60.3995 29.9336 60.3995C24.683 60.3995 20.4265 60.568 20.4265 51.1247C20.4265 41.6814 25.7914 31.0274 29.9336 31.0274C34.0758 31.0274 39.4407 41.6814 39.4407 51.1247Z" fill="#A3E440"/>
<path d="M39.4399 51.1238C39.4399 60.5678 35.1851 60.3989 29.933 60.3989C28.9537 60.3989 28.0104 60.4043 27.1211 60.3521C30.9986 60.1275 33.8161 58.8068 33.8161 51.1238C33.8161 43.737 30.5334 35.6101 27.1211 32.4188C28.0698 31.5312 29.0312 31.0262 29.933 31.0262C34.0764 31.0264 39.4399 41.6815 39.4399 51.1238Z" fill="#99D53B"/>
<path d="M35.6589 48.6361C35.1322 48.1095 34.278 48.1095 33.7511 48.6361L31.2824 51.1049V44.5003C31.2824 43.7551 30.6785 43.1512 29.9333 43.1512C29.1882 43.1512 28.5842 43.7551 28.5842 44.5003V54.3613V54.3622V69.3947C28.5842 70.1399 29.1882 70.7438 29.9333 70.7438C30.6785 70.7438 31.2824 70.1399 31.2824 69.3947V54.9205L35.6589 50.5441C36.1857 50.0172 36.1857 49.1632 35.6589 48.6361Z" fill="#88BA31"/>
<path d="M90.1114 55.7248C90.1114 62.5307 87.0438 62.4094 83.2596 62.4094C79.4753 62.4094 76.4077 62.5309 76.4077 55.7248C76.4077 48.9188 80.2742 41.2404 83.2596 41.2404C86.2449 41.2404 90.1114 48.919 90.1114 55.7248Z" fill="#A3E440"/>
<path d="M90.1114 55.7248C90.1114 62.5307 87.0438 62.4094 83.2596 62.4094C79.4753 62.4094 76.4077 62.5309 76.4077 55.7248C76.4077 48.9188 80.2742 41.2404 83.2596 41.2404C86.2449 41.2404 90.1114 48.919 90.1114 55.7248Z" fill="#A3E440"/>
<path d="M90.1118 55.7254C90.1118 62.53 87.0429 62.4096 83.2587 62.4096C82.4537 62.4096 81.6811 62.415 80.9641 62.3575C83.6199 62.1472 85.519 61.0817 85.519 55.7254C85.519 50.5955 83.3232 44.9714 80.9641 42.5097C81.7332 41.7047 82.522 41.2393 83.2587 41.2393C86.2451 41.2395 90.1118 48.919 90.1118 55.7254Z" fill="#99D53B"/>
<path d="M86.8247 54.4925C86.2981 53.9659 85.4438 53.9657 84.917 54.4927L84.6088 54.8009V50.9507C84.6088 50.2056 84.0049 49.6016 83.2597 49.6016C82.5146 49.6016 81.9106 50.2056 81.9106 50.9507V58.0577V58.0586V69.3949C81.9106 70.1401 82.5146 70.744 83.2597 70.744C84.0049 70.744 84.6088 70.1401 84.6088 69.3949V58.6169L86.8249 56.4006C87.3516 55.8736 87.3516 55.0194 86.8247 54.4925Z" fill="#88BA31"/>
<path d="M17.7293 45.6859C18.2562 45.1589 18.2562 44.3048 17.7293 43.778C17.2025 43.2513 16.3483 43.2513 15.8216 43.778L15.6579 43.9417V40.2279C15.6579 39.4827 15.054 38.8788 14.3088 38.8788C13.5636 38.8788 12.9597 39.4827 12.9597 40.2279V51.768L11.2611 50.0694C10.7343 49.5427 9.88005 49.5427 9.35338 50.0694C8.82654 50.5964 8.82654 51.4504 9.35338 51.9773L12.9599 55.5836V69.3948C12.9599 70.1399 13.5638 70.7438 14.309 70.7438C15.0542 70.7438 15.6581 70.1399 15.6581 69.3948V55.0251C15.6581 55.0251 15.6581 55.0246 15.6581 55.0242V47.7573L17.7293 45.6859Z" fill="#88BA31"/>
<path d="M90.6509 71.6259H1.34909C0.604109 71.6259 0 71.022 0 70.2768C0 69.5317 0.60393 68.9277 1.34909 68.9277H90.6509C91.3961 68.9277 92 69.5317 92 70.2768C92 71.022 91.3961 71.6259 90.6509 71.6259Z" fill="#0A5B36"/>
</svg>
