<svg width="275" height="274" viewBox="0 0 275 274" fill="none" xmlns="http://www.w3.org/2000/svg">
<rect width="275" height="274" rx="12" fill="#F8F9F8"/>
<path d="M106.651 198.607L90.5742 191.756C89.528 191.303 88.6371 190.556 88.0102 189.608C87.3832 188.659 87.0474 187.549 87.0437 186.414V184.44L86.9854 184.15C90.5063 183.457 93.6451 181.492 95.797 178.634L96.0596 178.082C98.6041 179.81 101.524 180.914 104.579 181.304L104.55 181.537V190.362C104.553 193.241 105.275 196.075 106.651 198.607Z" fill="white"/>
<path d="M130.81 189.404V196.052L122.611 198.781L119.752 197.562C118.706 197.109 117.815 196.362 117.188 195.414C116.561 194.465 116.225 193.356 116.221 192.22V179.562C116.882 179.249 117.524 178.9 118.147 178.517C119.375 181.112 121.137 183.421 123.318 185.297C125.499 187.172 128.052 188.571 130.81 189.404Z" fill="white"/>
<path d="M136.646 190.246C139.324 190.253 141.978 189.73 144.452 188.709C146.926 187.687 149.172 186.187 151.059 184.295L151.234 184.44V195.036C151.23 196.194 150.877 197.324 150.222 198.281C149.567 199.239 148.639 199.979 147.558 200.407L136.646 204.762L122.611 198.781L130.81 196.053V189.404C132.704 189.964 134.67 190.247 136.646 190.246Z" fill="white"/>
<path d="M174.576 170.737V183.743C174.576 184.823 174.272 185.882 173.7 186.8C173.128 187.718 172.31 188.459 171.337 188.94L162.905 193.149V178.634L162.701 177.966C167.31 176.824 171.456 174.301 174.576 170.737Z" fill="white"/>
<path d="M162.905 178.633V194.659C162.907 197.729 162.092 200.745 160.545 203.401C158.997 206.058 156.772 208.26 154.094 209.785L142.481 216.375L136.646 204.762L147.558 200.407C148.639 199.979 149.567 199.239 150.222 198.281C150.877 197.324 151.23 196.194 151.234 195.036V184.44L151.059 184.295C152.742 182.632 154.115 180.686 155.115 178.546C155.757 178.575 156.399 178.633 157.07 178.633C158.967 178.635 160.857 178.411 162.701 177.966L162.905 178.633Z" fill="#025237"/>
<path d="M122.611 198.781L136.646 204.762L142.481 216.375L148.317 230.891H124.975V210.568L115.171 206.388C112.025 205.035 109.344 202.798 107.458 199.952C105.571 197.105 104.561 193.772 104.55 190.362V181.537L104.579 181.304C105.533 181.471 106.5 181.548 107.468 181.537C110.497 181.531 113.486 180.856 116.221 179.562V192.22C116.225 193.356 116.561 194.465 117.188 195.414C117.815 196.362 118.706 197.109 119.752 197.562L122.611 198.781Z" fill="#025237"/>
<path d="M115.871 131.167C113.062 133.829 111.216 137.34 110.619 141.154C109.576 140.993 108.523 140.906 107.468 140.892C103.089 140.889 98.8254 142.285 95.3053 144.876C91.7851 147.467 89.1949 151.115 87.9166 155.282C86.6384 159.449 86.7398 163.914 88.2059 168.019C89.672 172.124 92.4251 175.652 96.0593 178.082L95.7967 178.634C93.6448 181.492 90.5061 183.457 86.9851 184.15C86.0454 184.35 85.0866 184.447 84.1257 184.44C81.1632 184.434 78.2728 183.531 75.8388 181.851C73.4047 180.17 71.5425 177.793 70.4997 175.034C69.2528 175.474 67.9421 175.709 66.6191 175.73C63.5238 175.73 60.5552 174.507 58.3664 172.329C56.1777 170.151 54.9481 167.198 54.9481 164.118C54.9481 163.711 55.0356 163.334 55.0648 162.956C52.4331 161.841 50.1891 159.98 48.6118 157.606C47.0345 155.231 46.1936 152.448 46.1936 149.602C46.1936 146.756 47.0345 143.972 48.6118 141.598C50.1891 139.223 52.4331 137.363 55.0648 136.247C55.0356 135.87 54.9481 135.492 54.9481 135.086C54.9283 132.596 55.5575 130.144 56.7742 127.969C57.991 125.793 59.7537 123.969 61.8905 122.673C64.0272 121.378 66.465 120.655 68.9659 120.577C71.4669 120.498 73.9456 121.066 76.1602 122.225C77.0057 120.034 78.4978 118.149 80.4402 116.817C82.3827 115.485 84.6846 114.77 87.0434 114.764L87.2768 114.735C87.9599 119.578 90.38 124.011 94.0908 127.218C97.8017 130.425 102.553 132.188 107.468 132.183C110.119 132.179 112.744 131.666 115.2 130.673C115.411 130.854 115.635 131.019 115.871 131.167Z" fill="#8DD83D"/>
<path d="M189.165 94.4416C189.168 97.4638 188.49 100.448 187.183 103.176C185.875 105.904 183.97 108.306 181.608 110.206C179.359 109.374 176.977 108.951 174.577 108.957C169.16 108.957 163.965 111.099 160.134 114.91C156.304 118.721 154.152 123.89 154.152 129.28C154.166 130.31 154.254 131.339 154.415 132.357C150.564 132.777 146.882 134.155 143.707 136.363C142.531 133.872 140.778 131.695 138.59 130.01C136.403 128.326 133.845 127.182 131.126 126.675C128.408 126.167 125.607 126.31 122.954 127.091C120.302 127.872 117.874 129.269 115.871 131.167C115.636 131.019 115.412 130.854 115.2 130.673C112.744 131.666 110.119 132.179 107.468 132.183C102.553 132.188 97.8021 130.425 94.0913 127.218C90.3805 124.011 87.9603 119.578 87.2773 114.735C87.1103 113.786 87.0322 112.824 87.0439 111.861C87.0479 110.879 87.126 109.899 87.2773 108.928C87.1898 108.928 87.1314 108.957 87.0439 108.957C83.1747 108.957 79.464 107.428 76.728 104.706C73.9921 101.984 72.4551 98.2914 72.4551 94.4416C72.4551 90.5918 73.9921 86.8996 76.728 84.1773C79.464 81.4551 83.1747 79.9257 87.0439 79.9257C87.1606 79.9257 87.2481 79.9548 87.3357 79.9548C87.149 78.9882 87.0514 78.0068 87.0439 77.0226C87.0439 73.1727 88.5809 69.4806 91.3168 66.7583C94.0528 64.0361 97.7635 62.5067 101.633 62.5067C103.633 62.504 105.611 62.9194 107.439 63.726C110.121 59.2313 114.443 55.9402 119.504 54.5392C124.565 53.1383 129.974 53.7357 134.603 56.2068C137.524 53.5498 141.159 51.7962 145.064 51.16C148.97 50.5237 152.977 51.0324 156.596 52.6239C160.216 54.2154 163.292 56.8208 165.448 60.1224C167.605 63.4239 168.749 67.2786 168.741 71.2162C168.738 72.1885 168.66 73.1591 168.508 74.1194H168.741C174.158 74.1194 179.353 76.2605 183.183 80.0716C187.014 83.8828 189.165 89.0518 189.165 94.4416Z" fill="#2DAD42"/>
<path d="M130.81 189.404C128.051 188.571 125.499 187.172 123.318 185.297C121.137 183.422 119.375 181.112 118.147 178.517C117.524 178.9 116.881 179.249 116.221 179.563C113.486 180.856 110.496 181.531 107.468 181.537C106.5 181.548 105.533 181.471 104.579 181.304C101.523 180.914 98.6038 179.81 96.0592 178.082C92.4251 175.652 89.6719 172.124 88.2058 168.019C86.7397 163.914 86.6383 159.449 87.9166 155.282C89.1948 151.115 91.785 147.467 95.3052 144.876C98.8254 142.285 103.089 140.889 107.468 140.892C108.523 140.906 109.576 140.993 110.619 141.154C111.216 137.34 113.062 133.829 115.871 131.167C117.874 129.269 120.302 127.872 122.954 127.091C125.606 126.31 128.407 126.167 131.126 126.675C133.844 127.183 136.402 128.326 138.59 130.01C140.777 131.695 142.531 133.872 143.706 136.363C146.881 134.155 150.564 132.777 154.414 132.357C154.253 131.339 154.166 130.31 154.152 129.28C154.152 123.89 156.304 118.721 160.134 114.91C163.964 111.099 169.159 108.957 174.576 108.957C176.976 108.951 179.358 109.374 181.608 110.206C182.116 110.379 182.613 110.583 183.096 110.816C185.542 109.523 188.282 108.882 191.051 108.955C193.82 109.029 196.522 109.814 198.895 111.234C201.269 112.655 203.232 114.662 204.595 117.061C205.957 119.46 206.673 122.169 206.672 124.925C206.665 128.23 205.637 131.454 203.725 134.157C206.544 135.473 209.024 137.413 210.975 139.83C212.925 142.246 214.294 145.074 214.977 148.097C215.661 151.121 215.64 154.26 214.917 157.274C214.194 160.288 212.787 163.098 210.805 165.489C208.823 167.879 206.318 169.787 203.481 171.066C200.644 172.345 197.55 172.962 194.437 172.869C191.324 172.775 188.274 171.975 185.519 170.529C182.764 169.083 180.379 167.029 178.544 164.524C177.558 166.79 176.218 168.886 174.576 170.737C171.456 174.301 167.31 176.824 162.701 177.966C160.857 178.411 158.967 178.635 157.07 178.634C156.399 178.634 155.757 178.576 155.115 178.546C153.47 182.04 150.859 184.995 147.589 187.067C144.318 189.139 140.522 190.241 136.645 190.246C134.669 190.248 132.704 189.964 130.81 189.404Z" fill="#2DAD42"/>
<path d="M106.651 198.607C106 197.404 105.495 196.129 105.146 194.807L91.7442 189.085C91.2194 188.859 90.7718 188.486 90.4554 188.012C90.139 187.538 89.9674 186.983 89.9615 186.414V183.192C89.0077 183.618 88.0096 183.939 86.9854 184.15C86.0457 184.35 85.0869 184.447 84.126 184.44V186.414C84.1296 188.117 84.6329 189.782 85.5742 191.204C86.5155 192.627 87.8537 193.745 89.4246 194.421L105.504 201.278C105.819 201.413 106.155 201.492 106.496 201.511L108.769 201.63C107.957 200.7 107.247 199.687 106.651 198.607Z" fill="#013621"/>
<path d="M127.892 188.246V193.962L121.686 196.029C121.297 196.16 120.94 196.371 120.638 196.649C120.336 196.927 120.097 197.265 119.936 197.641L122.608 198.782L126.643 200.5L131.732 198.805C132.313 198.612 132.818 198.243 133.176 197.749C133.534 197.255 133.727 196.662 133.728 196.053V190.037C131.697 189.764 129.725 189.159 127.892 188.246Z" fill="#013621"/>
<path d="M177.415 166.641C176.621 168.104 175.669 169.477 174.576 170.737C173.687 171.739 172.711 172.661 171.659 173.492V183.743C171.66 184.287 171.509 184.82 171.221 185.282C170.933 185.743 170.521 186.116 170.031 186.356L162.905 189.901V194.659C162.905 195.129 162.85 195.588 162.812 196.053H162.905C163.359 196.053 163.807 195.948 164.213 195.745L172.642 191.535C174.102 190.817 175.33 189.707 176.188 188.329C177.045 186.952 177.498 185.363 177.494 183.743V167.021C177.478 166.892 177.452 166.765 177.415 166.641Z" fill="#013621"/>
<path d="M141.431 225.084C140.081 225.085 138.773 224.62 137.729 223.769C136.686 222.918 135.971 221.733 135.706 220.416L133.728 210.568L112.63 200.07C111.956 199.736 111.389 199.221 110.993 198.583C110.596 197.946 110.386 197.211 110.386 196.462V194.284C110.386 193.213 110.813 192.186 111.575 191.429C112.336 190.672 113.368 190.246 114.444 190.246H116.221V179.562C113.486 180.856 110.497 181.531 107.468 181.537C106.5 181.548 105.533 181.471 104.579 181.304L104.55 181.537V190.362C104.561 193.772 105.571 197.105 107.458 199.952C109.344 202.798 112.025 205.035 115.171 206.388L124.975 210.568V230.891H148.317L145.982 225.084H141.431Z" fill="#013621"/>
<path d="M162.701 177.966C160.857 178.411 158.967 178.635 157.07 178.633C156.399 178.633 155.757 178.575 155.115 178.546C154.115 180.686 152.742 182.632 151.059 184.295L151.234 184.44V195.036C151.23 196.194 150.877 197.324 150.222 198.281C149.567 199.239 148.639 199.979 147.558 200.407L136.646 204.762L142.481 216.375L148.824 212.775L148.46 212.235C147.633 211 147.313 209.496 147.565 208.034C147.817 206.571 148.623 205.26 149.816 204.37L153.569 201.569C154.656 200.757 155.538 199.705 156.146 198.496C156.753 197.287 157.07 195.953 157.07 194.601V190.246C157.07 188.706 157.685 187.229 158.779 186.14C159.873 185.052 161.358 184.44 162.905 184.44V178.633L162.701 177.966Z" fill="#013621"/>
<path d="M190.624 108.957C188 108.952 185.414 109.59 183.096 110.815C182.613 110.582 182.116 110.379 181.608 110.206C179.358 109.374 176.977 108.951 174.576 108.957C169.16 108.957 163.965 111.098 160.134 114.91C156.304 118.721 154.152 123.89 154.152 129.28C154.166 130.31 154.254 131.339 154.415 132.357C150.564 132.777 146.882 134.155 143.707 136.363C142.109 132.994 139.465 130.224 136.166 128.462C132.867 126.7 129.087 126.038 125.381 126.574C121.676 127.111 118.241 128.817 115.584 131.442C112.926 134.066 111.186 137.471 110.619 141.154L110.386 141.125V149.834L110.619 149.863C111.216 146.049 113.062 142.538 115.871 139.876C117.874 137.978 120.302 136.581 122.954 135.8C125.607 135.019 128.407 134.877 131.126 135.384C133.844 135.892 136.403 137.035 138.59 138.72C140.777 140.404 142.531 142.582 143.707 145.073C146.882 142.865 150.564 141.487 154.415 141.066C154.254 140.048 154.166 139.02 154.152 137.989C154.152 132.599 156.304 127.43 160.134 123.619C163.965 119.808 169.16 117.667 174.576 117.667C176.977 117.661 179.358 118.083 181.608 118.915C182.116 119.088 182.613 119.292 183.096 119.525C185.207 118.412 187.54 117.781 189.926 117.679C192.313 117.577 194.692 118.006 196.89 118.936C199.088 119.865 201.05 121.271 202.633 123.051C204.216 124.831 205.379 126.94 206.039 129.224C206.732 126.854 206.858 124.354 206.408 121.926C205.958 119.498 204.944 117.208 203.447 115.239C201.949 113.27 200.01 111.677 197.784 110.586C195.557 109.496 193.106 108.938 190.624 108.957Z" fill="#2B9337"/>
<path d="M61.0199 166.551C61.6477 163.922 62.4459 161.337 63.4096 158.811C61.8354 158.43 60.4491 157.504 59.4998 156.198C58.326 154.74 57.5408 153.011 57.217 151.171C56.8931 149.331 57.041 147.439 57.647 145.671C58.3165 143.898 59.4806 142.352 61.0024 141.215C61.7528 140.645 62.5823 140.188 63.465 139.856C64.0486 139.638 65.8517 139.542 66.056 139.028C66.2369 138.573 64.8072 136.543 64.5971 136.056C64.0669 134.915 63.6184 133.738 63.2549 132.534C62.5108 130.153 62.2548 127.647 62.5022 125.166C62.6317 124.107 62.8742 123.064 63.2258 122.057C60.7528 123.232 58.6638 125.079 57.1994 127.384C55.7349 129.689 54.9545 132.359 54.9481 135.086C54.9481 135.492 55.0356 135.87 55.0648 136.247C52.4331 137.363 50.1891 139.223 48.6118 141.598C47.0345 143.972 46.1936 146.756 46.1936 149.602C46.1936 152.448 47.0345 155.231 48.6118 157.606C50.1891 159.98 52.4331 161.841 55.0648 162.956C55.0356 163.334 54.9481 163.711 54.9481 164.118C54.948 166.099 55.4596 168.048 56.4339 169.776C57.4083 171.505 58.8126 172.955 60.5122 173.988C60.3401 171.498 60.5109 168.995 61.0199 166.551Z" fill="#7FBF36"/>
<path d="M78.2906 94.5316C80.973 92.7106 83.9717 91.4004 87.1343 90.6675C87.3478 86.9829 88.9674 83.5185 91.6622 80.9823C94.357 78.4462 97.9234 77.0298 101.633 77.0226C103.633 77.0199 105.611 77.4353 107.439 78.2419C110.121 73.7471 114.443 70.456 119.504 69.0551C124.565 67.6542 129.974 68.2516 134.603 70.7227C136.904 68.625 139.659 67.0816 142.654 66.2116C145.65 65.3416 148.806 65.1683 151.88 65.705C154.954 66.2418 157.862 67.4742 160.381 69.3072C162.9 71.1402 164.962 73.5246 166.407 76.2765C167.831 75.0194 168.741 74.1194 168.741 74.1194H168.508C168.66 73.1591 168.738 72.1885 168.741 71.2162C168.749 67.2786 167.605 63.4239 165.449 60.1224C163.292 56.8208 160.216 54.2154 156.596 52.6239C152.977 51.0324 148.97 50.5237 145.064 51.16C141.159 51.7962 137.524 53.5498 134.603 56.2068C129.974 53.7357 124.565 53.1383 119.504 54.5392C114.443 55.9402 110.121 59.2313 107.439 63.726C105.611 62.9194 103.633 62.504 101.633 62.5067C97.7635 62.5067 94.0528 64.0361 91.3168 66.7583C88.5809 69.4806 87.0439 73.1727 87.0439 77.0226C87.0514 78.0068 87.149 78.9882 87.3357 79.9548C87.2481 79.9548 87.1606 79.9257 87.0439 79.9257C83.1747 79.9257 79.464 81.4551 76.728 84.1773C73.9921 86.8996 72.4551 90.5918 72.4551 94.4416C72.4696 96.6243 72.9929 98.7738 73.984 100.721C73.6807 100.107 73.4204 99.4725 73.2049 98.8225C74.7487 97.2234 76.4528 95.7856 78.2906 94.5316Z" fill="#2B9337"/>
<path d="M177.549 102.424C179.664 106.42 183.865 109.152 188.701 109.152C193.536 109.152 197.737 106.421 199.852 102.426C203.055 103.374 208.149 103.625 212.466 99.308C215.88 95.8941 216.921 91.0019 215.601 86.6857C219.586 84.5666 222.309 80.3711 222.309 75.5434C222.309 70.7158 219.586 66.5202 215.601 64.4012C216.921 60.0851 215.88 55.1931 212.467 51.7793C208.165 47.476 203.063 47.716 199.853 48.6622C197.738 44.6666 193.536 41.935 188.701 41.935C183.866 41.935 179.666 44.6657 177.55 48.6604C174.348 47.7118 169.253 47.4607 164.936 51.7788C164.936 51.7789 164.936 51.779 164.936 51.7791L177.549 102.424ZM177.549 102.424C174.34 103.37 169.238 103.61 164.936 99.3078C160.619 94.9909 160.87 89.8972 161.818 86.6951" fill="#97DB4F" stroke="#F8F9F8" stroke-width="4.1299"/>
<path d="M188.7 44C193.386 44 197.367 47.0709 198.737 51.3059C200.943 50.1731 206.509 48.7406 211.006 53.2393C214.32 56.5531 214.963 61.5415 212.935 65.5053C217.171 66.8747 220.244 70.857 220.244 75.5434C220.244 80.2298 217.171 84.2122 212.935 85.5815C214.963 89.5454 214.32 94.5339 211.006 97.8478C206.489 102.365 200.938 100.91 198.738 99.7807C197.367 104.016 193.386 107.087 188.7 107.087V44Z" fill="#BEF636"/>
<path d="M186.721 83.3306C186.248 83.3306 185.775 83.1502 185.414 82.7892L177.496 74.8705C176.774 74.1489 176.774 72.9785 177.496 72.2567C178.217 71.5351 179.388 71.5351 180.109 72.2567L186.721 78.8685L200.486 65.105C201.208 64.3836 202.378 64.3835 203.1 65.1051C203.821 65.8269 203.821 66.9971 203.1 67.719L188.028 82.7894C187.667 83.1501 187.194 83.3306 186.721 83.3306Z" fill="#0A4519"/>
<path d="M200.485 65.105L188.7 76.8891V82.1166L203.099 67.719C203.821 66.9972 203.821 65.8271 203.099 65.1051C202.377 64.3835 201.207 64.3836 200.485 65.105Z" fill="#0A4519"/>
<path d="M99 232H169" stroke="#013621" stroke-width="5" stroke-linecap="round"/>
</svg>
