<svg width="48" height="47" viewBox="0 0 48 47" fill="none" xmlns="http://www.w3.org/2000/svg">
<path d="M12.0664 42.0428C11.306 42.0428 10.6895 41.4263 10.6895 40.6659V32.6995C10.6895 31.939 11.306 31.3225 12.0664 31.3225C12.8269 31.3225 13.4434 31.939 13.4434 32.6995V40.6659C13.4434 41.4264 12.8269 42.0428 12.0664 42.0428Z" fill="#0A4519"/>
<path d="M35.7715 42.0431C35.011 42.0431 34.3945 41.4266 34.3945 40.6662V32.0437C34.3945 31.2833 35.011 30.6667 35.7715 30.6667C36.5319 30.6667 37.1484 31.2833 37.1484 32.0437V40.6662C37.1484 41.4267 36.5319 42.0431 35.7715 42.0431Z" fill="#0A4519"/>
<path d="M16.5609 34.3862C14.9543 34.3862 13.4075 33.8516 12.1532 32.8881C10.8989 33.8517 9.35206 34.3862 7.74552 34.3862C3.75622 34.3862 0.510742 31.1408 0.510742 27.1515C0.510742 24.1778 2.32777 21.5553 4.99162 20.4595C4.73431 18.6507 5.1709 16.784 6.24639 15.2584C7.6183 13.3124 9.7712 12.1963 12.1531 12.1963C14.535 12.1963 16.6878 13.3124 18.0597 15.2583C19.1353 16.7838 19.5719 18.6507 19.3146 20.4596C21.9785 21.5553 23.7955 24.1779 23.7955 27.1516C23.7956 31.1407 20.5502 34.3862 16.5609 34.3862Z" fill="#70DA40"/>
<path d="M40.2659 34.386C38.6594 34.386 37.1125 33.8514 35.8583 32.8879C34.604 33.8515 33.0572 34.386 31.4506 34.386C27.4613 34.386 24.2158 31.1405 24.2158 27.1512C24.2158 24.1776 26.0328 21.555 28.6967 20.4592C28.4394 18.6505 28.876 16.7838 29.9515 15.2581C31.3234 13.3121 33.4763 12.196 35.8582 12.196C38.2401 12.196 40.3929 13.3121 41.7648 15.2579C42.8404 16.7836 43.277 18.6504 43.0197 20.4592C45.6836 21.555 47.5005 24.1776 47.5005 27.1512C47.5007 31.1404 44.2553 34.386 40.2659 34.386Z" fill="#B2FA09"/>
<path d="M23.9709 31.4045C22.0726 31.4045 20.2353 30.7238 18.7974 29.4877C17.5994 28.4578 16.7388 27.0973 16.32 25.5921C13.0763 24.3552 10.8027 20.7083 10.8027 16.5545C10.8027 14.4007 11.4201 12.2932 12.5411 10.6202C13.4562 9.25468 14.6715 8.22169 16.0363 7.63208C16.1988 3.39593 19.6957 0 23.9709 0C28.2375 0 31.729 3.38244 31.9044 7.60674C35.029 8.92274 37.1978 12.4955 37.1978 16.5545C37.1978 20.7499 34.8971 24.4064 31.6146 25.6176C31.1925 27.1154 30.3323 28.4688 29.138 29.4933C27.7011 30.7258 25.866 31.4045 23.9709 31.4045Z" fill="#B2FA09"/>
<path d="M31.9042 7.60683C31.7292 3.39217 28.2532 0.0163379 24 0.000732422V31.4038C25.8847 31.3968 27.7082 30.7193 29.1376 29.4932C30.332 28.4687 31.1921 27.1154 31.6143 25.6175C34.8967 24.4064 37.1974 20.7498 37.1974 16.5545C37.1975 12.4956 35.0287 8.92283 31.9042 7.60683Z" fill="#70DA40"/>
<path d="M24 40.8496C23.2396 40.8496 22.623 40.2331 22.623 39.4726V12.9434C22.623 12.1829 23.2396 11.5664 24 11.5664C24.7604 11.5664 25.377 12.1829 25.377 12.9434V39.4726C25.377 40.2332 24.7605 40.8496 24 40.8496Z" fill="#70DA40"/>
<path d="M24 11.5664V40.8496C24.7604 40.8496 25.377 40.2331 25.377 39.4726V12.9434C25.377 12.1829 24.7605 11.5664 24 11.5664Z" fill="#56C225"/>
<path d="M46.123 47H1.87699C1.3229 47 0.822795 46.6679 0.607899 46.1572C0.392911 45.6465 0.504995 45.0567 0.892377 44.6605C4.40929 41.0629 13.4795 38.7383 24 38.7383C34.5204 38.7383 43.5907 41.0628 47.1076 44.6605C47.495 45.0567 47.607 45.6465 47.3921 46.1572C47.1772 46.6679 46.6771 47 46.123 47Z" fill="#0A4519"/>
<path d="M47.1077 44.6606C43.5907 41.0629 34.5205 38.7383 24 38.7383V47H46.123C46.6771 47 47.1772 46.6679 47.3921 46.1572C47.6071 45.6465 47.495 45.0567 47.1077 44.6606Z" fill="#0A4519"/>
</svg>
