<svg width="35" height="34" viewBox="0 0 35 34" fill="none" xmlns="http://www.w3.org/2000/svg">
<path d="M19.8554 0.327637C19.8554 0.327637 17.4294 0.985242 18.0147 3.27174C20.3504 2.76032 19.8554 0.327637 19.8554 0.327637Z" fill="white"/>
<path d="M22.7909 1.09704C22.7909 1.09704 20.2823 0.905376 20.0474 3.25229C22.4212 3.55089 22.7909 1.09704 22.7909 1.09704Z" fill="white"/>
<path d="M25.0718 2.29883C25.0718 2.29883 23.8159 2.55736 24.04 3.73957C25.2453 3.55237 25.0718 2.29883 25.0718 2.29883Z" fill="white"/>
<path d="M31.5462 21.0423C31.4665 20.8916 31.3354 20.6838 31.1333 20.4677C31.0311 20.3609 30.9129 20.2516 30.7767 20.1487C30.6398 20.0475 30.4874 19.9484 30.3194 19.8658C30.1594 19.7826 29.9554 19.7032 29.7802 19.652C29.6896 19.626 29.5985 19.5995 29.5068 19.573C29.4216 19.5467 29.3347 19.5281 29.2507 19.4952C28.5696 19.2679 27.9459 18.8843 27.5072 18.57C27.4215 18.5085 27.3447 18.4509 27.2731 18.3959C27.6821 18.1674 28.1542 18.0512 28.6217 17.9768C29.5041 17.836 30.4068 17.8188 31.2942 17.9257C31.4247 17.9413 31.614 17.9088 31.602 17.7796C31.5483 17.7654 31.4945 17.752 31.4407 17.7389C30.233 17.4477 28.9596 17.4233 27.7416 17.6693C27.1964 17.7796 26.6446 17.9526 26.2262 18.3143C25.7939 18.6879 25.5414 19.2298 25.1145 19.6091C24.5158 20.1407 23.6414 20.2814 22.8445 20.1649C22.0477 20.0484 21.3057 19.7055 20.5774 19.3666C20.9046 18.2978 20.7168 17.0343 21.4237 16.1623C21.752 15.757 22.2296 15.5024 22.6936 15.2583C23.1411 15.023 23.5972 14.7846 24.0954 14.6896C24.917 14.5327 25.7541 14.7802 26.5787 14.9219C27.6013 15.0975 28.7112 15.0955 29.6086 14.5815C29.5294 14.4121 29.2762 14.4669 29.0972 14.5276C27.4902 15.0724 25.8105 13.7908 24.1131 13.8701C23.3988 13.9032 22.7217 14.1776 22.0623 14.4505C21.2478 14.7879 20.3627 15.1974 20.0088 15.9953C19.8742 15.2725 20.2981 14.5489 20.8496 14.054C21.4009 13.5592 22.079 13.2243 22.6741 12.7811C23.2692 12.338 23.8064 11.7291 23.8754 10.9972C23.9187 10.5411 23.7754 10.0912 23.688 9.64156C23.5284 8.82056 23.5544 7.96514 23.7638 7.15512C23.8046 6.99693 23.7812 6.7496 23.6167 6.76879C23.277 7.83587 23.1937 8.98146 23.3759 10.0857C23.4232 10.3734 23.4889 10.6646 23.4491 10.9535C23.381 11.4503 23.0142 11.8569 22.6153 12.1675C21.5616 12.9879 20.1208 13.4324 19.4897 14.601C19.2172 15.1056 19.1354 15.7077 19.2635 16.2654C19.3144 16.4875 19.3974 16.7021 19.4343 16.9269C19.5406 17.576 19.2696 18.4181 18.9739 18.9963C18.9285 19.085 18.8987 19.1832 18.8453 19.2608C18.7942 19.3387 18.7439 19.4158 18.6939 19.4916C18.4758 19.7731 18.249 20.0012 17.9836 20.1359C17.825 20.225 17.6654 20.2929 17.5071 20.344C17.4752 19.9146 17.4281 19.3185 17.361 18.6058C17.2906 17.8664 17.2008 17.0041 17.0702 16.075C17.0073 15.6114 16.9264 15.1281 16.8303 14.6337C16.7344 14.0988 16.5466 13.5926 16.4952 13.2628C16.4369 12.8822 16.4799 12.4555 16.5727 12.0099C16.6631 11.5643 16.8012 11.0988 16.879 10.6071C16.9568 10.1127 16.966 9.59762 16.7751 9.1015C16.7326 8.96476 16.6783 8.89394 16.6295 8.79983L16.5925 8.73297L16.5634 8.67877L16.5458 8.6494L16.4758 8.53259C16.4257 8.45678 16.3863 8.37739 16.3514 8.29727C16.312 8.21891 16.2778 8.13988 16.2529 8.05888C16.0231 7.4179 16.0714 6.80556 16.1562 6.40326C16.1981 6.19966 16.2473 6.0419 16.2852 5.93637C16.3239 5.83061 16.3488 5.77744 16.3488 5.77744L16.2568 5.72778C16.2568 5.72778 16.1099 5.93556 15.9559 6.34716C15.8046 6.75392 15.641 7.396 15.7881 8.17899C15.8029 8.27728 15.8281 8.37512 15.8592 8.47363C15.886 8.57397 15.9182 8.67481 15.9622 8.7731L16.0242 8.92434L16.04 8.96249C16.0502 8.983 16.0283 8.94008 16.0328 8.95056L16.0361 8.95927L16.0426 8.97722L16.069 9.04892C16.1007 9.14149 16.1528 9.25171 16.1513 9.32209C16.1613 9.40097 16.1814 9.47179 16.1769 9.56715C16.1811 9.65599 16.182 9.74578 16.166 9.83989C16.16 9.93151 16.1406 10.0269 16.1167 10.1234C16.0998 10.2182 16.0645 10.3184 16.0349 10.4174C15.9076 10.817 15.7099 11.2386 15.5321 11.7141C15.3558 12.1872 15.1976 12.7292 15.1895 13.3241L15.1885 13.5473C15.1936 13.6216 15.2035 13.6962 15.2116 13.7711L15.257 14.1559C15.2959 14.4107 15.2955 14.603 15.3108 14.8226C15.328 15.2808 15.3339 15.7377 15.3253 16.1859C15.3124 17.0797 15.2703 17.9225 15.2275 18.6438C15.1945 19.1929 15.1601 19.672 15.1307 20.0554C14.921 19.9181 14.7328 19.725 14.552 19.4917C14.5022 19.4159 14.4516 19.3387 14.4004 19.2609C14.3471 19.1833 14.3172 19.085 14.2719 18.9964C14.1753 18.8217 14.1235 18.6103 14.0584 18.4003C13.9856 18.1669 13.9292 17.9009 13.8624 17.6477C13.8086 17.4712 13.7586 17.2889 13.7011 17.1064C13.7907 16.9276 13.8808 16.6929 13.9544 16.4088C14.0191 16.1455 14.056 15.8341 14.0332 15.4899C13.9955 15.1465 13.888 14.7765 13.6803 14.4401C13.462 14.1177 13.1836 13.8113 12.8453 13.5926C12.7636 13.5365 12.6771 13.4724 12.5976 13.4224C12.5175 13.3735 12.4367 13.3243 12.3555 13.2748C12.1945 13.1754 12.0316 13.0751 11.8673 12.9736C11.5428 12.7682 11.2124 12.5593 10.9024 12.3347C10.5938 12.1099 10.2978 11.8711 10.0744 11.6021C9.85089 11.3329 9.7356 11.0292 9.75376 10.7108C9.7673 10.6309 9.76448 10.5513 9.78889 10.472C9.81018 10.3871 9.83124 10.3028 9.85201 10.2195C9.89793 10.0575 9.93068 9.85988 9.94951 9.68697C9.98769 9.33887 9.97988 9.01318 9.96127 8.71568C9.92391 8.11989 9.82998 7.63498 9.76217 7.29684C9.69079 6.95928 9.6372 6.76755 9.6372 6.76755L9.44547 6.81427C9.44547 6.81427 9.48722 7.00169 9.5391 7.33602C9.58748 7.67043 9.6535 8.15175 9.65767 8.72637C9.66027 9.01288 9.65023 9.32407 9.59746 9.64149C9.57007 9.80012 9.54178 9.94279 9.48298 10.1175C9.45641 10.2042 9.42962 10.2915 9.40245 10.3795C9.3697 10.4716 9.36278 10.5762 9.34283 10.676C9.28879 11.09 9.44004 11.5491 9.69608 11.8832C9.94944 12.2238 10.2599 12.4973 10.5729 12.7532C10.8878 13.0079 11.2127 13.238 11.532 13.4651C11.6923 13.5761 11.8514 13.6864 12.0085 13.7952C12.0869 13.8491 12.1648 13.9025 12.2422 13.9554C12.3187 14.0096 12.3779 14.0614 12.446 14.1133C12.7213 14.3104 12.9106 14.5594 13.0588 14.7973C13.1918 15.0451 13.2478 15.2996 13.2637 15.5384C13.2639 15.6967 13.2439 15.8437 13.2162 15.9844C13.2113 15.9764 13.2081 15.9685 13.203 15.9605L13.0764 15.7504L12.921 15.5454C12.8241 15.4075 12.6845 15.2838 12.5584 15.1633C12.2839 14.9266 11.9632 14.7683 11.6752 14.6577C11.383 14.5454 11.1225 14.4746 10.8861 14.3872C10.7638 14.3467 10.6552 14.2977 10.5418 14.2515C10.4859 14.2277 10.4349 14.1985 10.381 14.1726L10.1932 14.0771L10.103 14.0328C10.0679 14.0166 10.0162 13.9964 9.9734 13.9797C9.87984 13.9405 9.80102 13.9228 9.72034 13.9018C9.5586 13.8632 9.40029 13.8473 9.24749 13.8407C8.63753 13.8298 8.12605 13.9683 7.65565 14.0912C7.18644 14.22 6.75892 14.3513 6.36198 14.4514C5.96609 14.55 5.60146 14.6223 5.27724 14.6478C4.9531 14.6752 4.67034 14.6615 4.44191 14.6237C4.21207 14.5897 4.03976 14.5274 3.92261 14.485C3.80806 14.4354 3.74703 14.4089 3.74703 14.4089L3.64983 14.5784C3.64983 14.5784 3.71265 14.6141 3.83024 14.6814C3.95127 14.7413 4.13258 14.8299 4.37984 14.8953C4.6256 14.9641 4.93441 15.0134 5.28796 15.022C5.64195 15.0327 6.03702 14.9983 6.45971 14.9412C6.8815 14.8826 7.33084 14.7972 7.79506 14.723C8.256 14.6517 8.74627 14.5894 9.1808 14.6493C9.28738 14.6664 9.39002 14.6892 9.48268 14.7236C9.52831 14.7416 9.57781 14.759 9.60475 14.7769C9.62269 14.7872 9.63385 14.79 9.65797 14.804L9.74244 14.8576L9.91661 14.9721C9.99208 15.0216 10.1187 15.0979 10.1976 15.1418C10.294 15.1954 10.3911 15.2486 10.4879 15.2933C10.7522 15.4242 11.015 15.5291 11.2281 15.6412C11.4441 15.7542 11.613 15.8699 11.7436 16.0126C12.0009 16.3009 12.1706 16.7348 12.2859 17.2085C12.3529 17.4423 12.3808 17.6798 12.4275 17.9171C12.4663 18.1822 12.4897 18.4334 12.5396 18.6999C12.5813 18.931 12.6178 19.1596 12.6839 19.3847C12.469 19.4829 12.2302 19.5865 11.9653 19.6895C11.3961 19.9061 10.7085 20.1352 9.99253 20.1984C9.6372 20.2297 9.2754 20.2126 8.97068 20.1043C8.89238 20.0798 8.82413 20.0426 8.75245 20.0085L8.49604 19.8464C8.40836 19.7897 8.34658 19.7372 8.26903 19.6824C8.19512 19.6279 8.12456 19.5599 8.0511 19.4991C7.76439 19.2421 7.55725 18.9219 7.25283 18.5587C7.09802 18.384 6.91559 18.2076 6.70704 18.0871C6.6079 18.0164 6.49856 17.9762 6.39577 17.9222C6.29075 17.8774 6.18521 17.8423 6.08153 17.8033C5.66748 17.6745 5.2567 17.6189 4.8943 17.5713C4.51083 17.5278 4.15602 17.5069 3.82541 17.5031C3.16477 17.4989 2.61778 17.5658 2.24079 17.6384C2.05211 17.6754 1.90533 17.7117 1.80538 17.7397C1.70437 17.7709 1.65041 17.7877 1.65041 17.7877L1.711 17.9731C1.711 17.9731 1.76101 17.9621 1.85472 17.9421C1.95118 17.9238 2.09446 17.9014 2.27793 17.8818C2.64509 17.8436 3.17578 17.8252 3.80561 17.8842C4.11978 17.9149 4.46111 17.9659 4.80855 18.0355C5.17356 18.1156 5.53343 18.1997 5.88005 18.3409C5.9154 18.3556 5.94696 18.3736 5.98083 18.3893C5.90714 18.4462 5.82757 18.5058 5.73856 18.5697C5.29994 18.8841 4.67599 19.2677 3.99511 19.495C3.91108 19.5278 3.82422 19.5464 3.73892 19.5728C3.6473 19.5992 3.55597 19.6258 3.46539 19.6518C3.29033 19.703 3.08617 19.7823 2.92629 19.8655C2.75823 19.9481 2.60587 20.0472 2.46899 20.1485C2.33271 20.2514 2.21452 20.3607 2.1124 20.4675C1.9104 20.6836 1.77932 20.8914 1.69939 21.042C1.6589 21.1174 1.6321 21.1796 1.61424 21.2223C1.59705 21.2679 1.58789 21.2921 1.58789 21.2921L1.77352 21.3583C1.77352 21.3583 1.7826 21.3397 1.79979 21.305C1.81914 21.2692 1.84817 21.216 1.89127 21.1515C1.97627 21.0221 2.11396 20.8442 2.31299 20.6678C2.41377 20.5807 2.52802 20.4934 2.65723 20.4138C2.78703 20.3357 2.92852 20.261 3.08297 20.2027C3.16023 20.1735 3.23838 20.1416 3.31757 20.1226C3.39654 20.1006 3.47238 20.0759 3.56788 20.0604C3.65727 20.0434 3.74733 20.0262 3.83769 20.0087C3.93378 19.989 4.03329 19.9763 4.12774 19.9494C4.89869 19.7685 5.60421 19.4189 6.10728 19.1255C6.29552 19.0156 6.45643 18.9133 6.5849 18.8275C6.62874 18.8767 6.6725 18.9258 6.71173 18.9819C6.92311 19.2796 7.15034 19.7024 7.473 20.05C7.55651 20.1342 7.63362 20.2213 7.72427 20.303C7.81426 20.3813 7.91206 20.4717 7.99803 20.5385L8.26538 20.7417C8.37807 20.8133 8.49209 20.8846 8.61185 20.9363C9.09059 21.1544 9.58235 21.2076 10.0292 21.2098C10.9303 21.2063 11.7071 21.0109 12.359 20.8285C12.6716 20.7373 12.9526 20.6435 13.2026 20.5542C13.3916 20.4863 14.2074 22.2298 14.2685 22.4063C14.7759 23.8714 14.2946 25.3178 13.7853 26.7117C13.7853 26.7117 13.7828 26.7222 13.7774 26.7376C13.6907 26.9713 13.6039 27.1943 13.5169 27.4019C13.5144 27.4096 13.5092 27.4174 13.5065 27.4278C13.2091 28.027 12.6591 28.821 11.7484 29.0234C11.6853 29.0389 11.6169 29.0519 11.5485 29.0598C11.3879 29.083 11.2273 29.1064 11.0695 29.1296C10.7353 29.1661 10.3984 29.2022 10.0588 29.2386C9.7219 29.2776 9.35355 29.3477 9.02457 29.4386C8.6903 29.5344 8.36661 29.6565 8.07447 29.8044C7.77965 29.9444 7.51386 30.1078 7.26125 30.2453C7.00863 30.3855 6.76643 30.5024 6.5296 30.5697C6.29537 30.6475 6.06903 30.6787 5.86643 30.6942C5.66375 30.7176 5.48222 30.6967 5.33477 30.7019C5.04003 30.6734 4.87152 30.6577 4.87152 30.6577L4.8611 30.7201C4.8611 30.7201 5.02961 30.7513 5.32688 30.8031C5.47693 30.8109 5.65854 30.8446 5.87171 30.8368C6.0822 30.8394 6.32432 30.8239 6.58237 30.7615C6.84287 30.7095 7.11134 30.6034 7.38242 30.4813C7.56395 30.3985 7.74556 30.3101 7.93506 30.227C7.92978 30.2817 7.92457 30.3387 7.914 30.3985C7.88765 30.5541 7.84552 30.7356 7.76663 30.9148C7.69033 31.0912 7.57452 31.2648 7.41398 31.3921C7.33501 31.4595 7.24815 31.5037 7.14819 31.5531C7.04808 31.5946 6.94551 31.6465 6.84808 31.7009C6.75601 31.7555 6.66655 31.8152 6.58758 31.8748C6.50861 31.9397 6.44013 32.0018 6.3797 32.0667C6.1375 32.3209 6.08495 32.5623 6.08495 32.5623L6.15082 32.5753C6.15082 32.5753 6.16385 32.5261 6.21126 32.4455C6.25599 32.3625 6.33757 32.2536 6.45867 32.1422C6.51918 32.0875 6.59026 32.0356 6.66655 31.9812C6.74545 31.932 6.8323 31.8825 6.92438 31.8384C7.01391 31.7969 7.11134 31.758 7.21919 31.7216C7.32176 31.6801 7.44285 31.6307 7.54021 31.5608C7.74549 31.4233 7.90082 31.2262 8.00614 31.0289C8.11399 30.8292 8.17718 30.6318 8.21931 30.4606C8.25608 30.3102 8.27714 30.1805 8.28778 30.0818C8.55357 29.978 8.83514 29.9003 9.12468 29.8406C9.44837 29.781 9.75629 29.7421 10.0985 29.7318C10.4406 29.7213 10.7828 29.7109 11.1222 29.7007C11.2881 29.6901 11.5591 29.6695 11.7275 29.6589C11.8616 29.6434 11.9933 29.6305 12.1249 29.6175C12.141 29.6155 12.156 29.6128 12.172 29.6108C12.6128 29.6679 13.3061 29.7156 13.7776 29.5431C13.7776 29.5431 13.4904 30.0465 12.5723 30.292C12.4987 30.2738 12.4145 30.2506 12.3223 30.2298C11.9934 30.1521 11.546 30.0716 11.0959 30.0456C10.9827 30.0352 10.8696 30.0377 10.759 30.0377C10.6459 30.0328 10.538 30.0482 10.43 30.0535C10.2196 30.0741 10.0248 30.1156 9.86161 30.165C9.78003 30.1885 9.70895 30.2246 9.64576 30.2481C9.57996 30.2713 9.52995 30.3077 9.48797 30.3309C9.40364 30.3828 9.3537 30.414 9.3537 30.414L9.39322 30.4658C9.39322 30.4658 9.44056 30.4427 9.52481 30.401C9.56694 30.3802 9.61688 30.3491 9.68 30.3335C9.74319 30.3154 9.81159 30.287 9.89056 30.2711C10.0511 30.2375 10.2379 30.214 10.4406 30.214C10.5406 30.2167 10.6459 30.2116 10.7538 30.2245C10.859 30.2322 10.967 30.2399 11.0749 30.2581C11.3564 30.2999 11.6328 30.3619 11.8775 30.4293C10.8117 30.6499 9.78264 30.9406 9.02993 31.27C8.61148 31.4517 8.28511 31.6488 8.07462 31.8097C7.97205 31.8928 7.89301 31.9627 7.84567 32.0146C7.79565 32.0665 7.76938 32.0951 7.76938 32.0951L7.8194 32.1366C7.8194 32.1366 7.84567 32.1131 7.89569 32.0665C7.9457 32.0198 8.02728 31.9602 8.13252 31.8901C8.34837 31.7473 8.67735 31.5839 9.09848 31.4387C9.53002 31.2882 10.0538 31.1559 10.6222 31.0469C10.6144 31.0988 10.6011 31.1559 10.588 31.2181C10.5538 31.3583 10.5091 31.519 10.4407 31.6852C10.3748 31.8487 10.2853 32.0174 10.167 32.1626C10.1116 32.2328 10.0406 32.2949 9.96685 32.365C9.89585 32.4324 9.82477 32.505 9.76165 32.5751C9.63274 32.7178 9.52481 32.8578 9.44056 32.9826C9.26952 33.2317 9.18534 33.4158 9.18534 33.4158L9.24324 33.4443C9.24324 33.4443 9.34052 33.273 9.52481 33.0448C9.61956 32.9307 9.73262 32.8034 9.86689 32.6764C9.93537 32.614 10.0038 32.5517 10.0801 32.492C10.1538 32.4325 10.2407 32.3675 10.3143 32.2872C10.4617 32.1342 10.5748 31.955 10.6618 31.7811C10.7485 31.6074 10.8118 31.4388 10.8591 31.2935C10.8986 31.174 10.9249 31.0705 10.9459 30.9873C11.3565 30.9119 11.7855 30.8523 12.2171 30.8004C12.1803 30.8887 12.1407 30.9898 12.1119 31.1013C12.0933 31.1638 12.0777 31.2311 12.0645 31.2986C12.0539 31.3661 12.0434 31.4438 12.0408 31.501L12.0276 31.602L12.0012 31.6775C11.9777 31.7293 11.9486 31.781 11.9091 31.8226C11.8327 31.9055 11.7328 31.9654 11.6433 32.0043C11.5538 32.0433 11.4722 32.0639 11.417 32.0742C11.3591 32.0872 11.3274 32.0899 11.3274 32.0899L11.3327 32.1548C11.3327 32.1548 11.4749 32.1572 11.6775 32.0924C11.7801 32.0612 11.8959 32.0069 12.0011 31.9135C12.0538 31.8669 12.0985 31.8072 12.1353 31.7423C12.1538 31.7059 12.1669 31.6695 12.1827 31.6304L12.2065 31.5319C12.2196 31.4569 12.23 31.4022 12.2486 31.34C12.267 31.2776 12.2854 31.218 12.3065 31.1637C12.3485 31.0493 12.4012 30.9508 12.4486 30.8653C12.4696 30.8291 12.4881 30.7979 12.5064 30.7694C13.025 30.7095 13.5408 30.6656 14.0303 30.6316C14.0724 30.6291 14.117 30.6266 14.1672 30.6185C14.0435 30.8626 13.8856 31.1351 13.7012 31.3945C13.6409 31.4828 13.5749 31.5658 13.5065 31.6487C13.4433 31.7342 13.3696 31.8071 13.3012 31.8822C13.1618 32.0275 13.0171 32.1443 12.8828 32.235C12.8169 32.2818 12.7512 32.313 12.6932 32.3441C12.638 32.3803 12.5828 32.3959 12.538 32.4115C12.4485 32.4427 12.3985 32.4609 12.3985 32.4609L12.4117 32.5259C12.4117 32.5259 12.467 32.51 12.5617 32.4868C12.6117 32.4739 12.6696 32.4609 12.7328 32.4297C12.7933 32.4011 12.8697 32.3754 12.9433 32.3312C13.0906 32.2481 13.2538 32.1365 13.4144 31.9965C13.4907 31.9236 13.5776 31.8562 13.6513 31.7732C13.7276 31.6928 13.8039 31.6124 13.8749 31.5242C14.1565 31.192 14.3961 30.8261 14.5671 30.5382L14.725 30.4839C14.7987 30.4527 14.8672 30.4138 14.9355 30.3776C15.1697 30.2398 15.3566 30.0634 15.5014 29.882C15.4935 29.9 15.4882 29.9157 15.483 29.9312C15.4145 30.0998 15.3277 30.2711 15.246 30.4762C15.1671 30.6706 15.096 30.8859 15.0565 31.1117C15.0143 31.3323 15.0118 31.5839 15.0039 31.7655C15.0039 31.9107 14.8328 32.0303 14.6565 32.1496C14.4776 32.2664 14.2933 32.3832 14.1249 32.5154C13.9591 32.6452 13.8064 32.7827 13.6801 32.9306C13.5486 33.0759 13.4485 33.2236 13.3433 33.3456C13.1379 33.587 12.917 33.7556 12.7432 33.7917C12.5642 33.8335 12.4748 33.7556 12.4827 33.7609L12.4379 33.81C12.4405 33.81 12.4642 33.8335 12.5169 33.8567C12.5694 33.8776 12.6563 33.8931 12.759 33.8749C12.9695 33.8438 13.2142 33.6778 13.4485 33.4339C13.5644 33.312 13.6775 33.1745 13.8064 33.0472C13.9353 32.9178 14.0854 32.7957 14.2513 32.6841C14.4171 32.5698 14.5986 32.4687 14.7907 32.3622C14.8381 32.3338 14.8856 32.3078 14.933 32.2766C14.9355 32.3001 14.9355 32.3208 14.9407 32.3467C14.9566 32.4505 14.9803 32.5725 15.0198 32.6971C15.0408 32.7619 15.0619 32.8268 15.0882 32.8889C15.1144 32.9514 15.1514 33.0239 15.1777 33.0732L15.2198 33.1668L15.2409 33.2445C15.2488 33.3014 15.2488 33.3586 15.2382 33.413C15.2198 33.5273 15.1672 33.6285 15.1145 33.7062C15.0593 33.7868 15.0014 33.8465 14.9619 33.8879C14.9197 33.9268 14.8934 33.9475 14.8934 33.9475L14.933 33.9993C14.933 33.9993 15.0541 33.9267 15.1909 33.766C15.2593 33.6829 15.3304 33.5766 15.3671 33.4416C15.3857 33.374 15.3909 33.3014 15.3883 33.2262C15.383 33.1873 15.375 33.1485 15.3671 33.1094L15.3356 33.0134C15.3041 32.9408 15.2856 32.8917 15.2646 32.8267C15.2488 32.7669 15.233 32.7072 15.2198 32.6476C15.1961 32.5308 15.1831 32.4168 15.1777 32.3234C15.1725 32.2274 15.175 32.147 15.1777 32.0924C15.1802 32.0794 15.1802 32.0742 15.1802 32.0639C15.1936 32.0483 15.2067 32.0353 15.2198 32.0173C15.2409 31.9914 15.2566 31.9445 15.2724 31.9055C15.2935 31.8588 15.2882 31.8486 15.2961 31.8174C15.3251 31.5736 15.3382 31.3919 15.3857 31.2C15.504 31.3814 15.6698 31.5943 15.8698 31.7785C15.9119 31.8149 15.9803 31.8798 16.0066 31.9187C16.0435 31.9627 16.0725 32.0198 16.0935 32.0742C16.1382 32.186 16.1487 32.3024 16.1382 32.4038C16.1303 32.5048 16.1067 32.588 16.0882 32.6476C16.0671 32.7047 16.0541 32.7331 16.0541 32.7331L16.1093 32.7668C16.1093 32.7668 16.2014 32.645 16.2593 32.4244C16.2882 32.3129 16.3014 32.1726 16.2698 32.025C16.254 31.9496 16.2303 31.877 16.1856 31.8019C16.1409 31.7188 16.1067 31.6798 16.0541 31.6097C15.8805 31.3944 15.7541 31.1505 15.6752 30.9611C15.6356 30.8678 15.6093 30.7872 15.591 30.7328C15.5857 30.7093 15.5804 30.6914 15.5752 30.6757C15.583 30.6602 15.591 30.642 15.5989 30.6238C15.6804 30.4526 15.783 30.2762 15.8673 30.0998C15.883 30.0686 15.8956 30.039 15.9103 30.0082C16.1041 29.8042 16.3052 29.5757 16.3029 29.5072C16.3008 29.4476 16.4182 29.5508 16.5477 29.6819C16.5647 29.7208 16.5812 29.7594 16.5989 29.7989C16.5989 29.8092 16.5963 29.8144 16.5963 29.8274C16.5911 29.8844 16.5805 29.9676 16.5621 30.0686C16.5279 30.2685 16.4542 30.533 16.3305 30.7796C16.2937 30.8573 16.2673 30.9041 16.241 30.995C16.2147 31.0779 16.2068 31.1531 16.2068 31.2285C16.2068 31.3814 16.249 31.5141 16.3015 31.6176C16.4042 31.8226 16.52 31.9238 16.52 31.9238L16.57 31.8799C16.57 31.8799 16.5489 31.8511 16.5174 31.7993C16.4859 31.7473 16.4438 31.6696 16.4148 31.5738C16.3858 31.4776 16.3701 31.3583 16.3885 31.2416C16.399 31.1844 16.4148 31.122 16.4411 31.0729C16.4569 31.0287 16.5122 30.9509 16.5437 30.9041C16.6779 30.7199 16.7832 30.5177 16.8596 30.3385C16.9095 30.4345 16.9622 30.5306 17.007 30.6239C17.0911 30.8031 17.1675 30.9873 17.2148 31.1792C17.265 31.3815 17.2782 31.566 17.307 31.8176C17.3173 31.8487 17.3123 31.8589 17.3306 31.9056C17.3465 31.9446 17.365 31.9915 17.3859 32.0174C17.3962 32.0355 17.4095 32.0484 17.4226 32.0641C17.4254 32.0743 17.4254 32.0796 17.4254 32.0926C17.4306 32.1471 17.4306 32.2276 17.4279 32.3236C17.4226 32.417 17.4094 32.5309 17.3858 32.6477C17.3726 32.7073 17.3568 32.767 17.3386 32.8269C17.3201 32.8918 17.3016 32.941 17.2699 33.0135L17.2385 33.1096C17.2304 33.1486 17.22 33.1874 17.2172 33.2264C17.2122 33.3015 17.2172 33.3742 17.2385 33.4418C17.2753 33.5768 17.3464 33.6831 17.4122 33.7661C17.5516 33.9268 17.6727 33.9995 17.6727 33.9995L17.7121 33.9476C17.7121 33.9476 17.6858 33.9268 17.6438 33.888C17.6043 33.8466 17.5463 33.7869 17.4911 33.7063C17.4358 33.6286 17.3831 33.5275 17.3649 33.4131C17.3543 33.3588 17.3568 33.3016 17.3649 33.2447L17.3858 33.1669L17.4279 33.0733C17.4542 33.0241 17.4912 32.9515 17.5147 32.889C17.5411 32.8269 17.5648 32.762 17.5859 32.6972C17.6253 32.5727 17.6491 32.4506 17.6648 32.3469C17.6673 32.3209 17.6701 32.3002 17.6727 32.2767C17.7199 32.3079 17.7676 32.3338 17.8148 32.3624C18.0042 32.4689 18.1859 32.5699 18.3518 32.6843C18.5176 32.7958 18.6703 32.9179 18.7991 33.0473C18.9281 33.1746 19.0385 33.3121 19.157 33.4341C19.3913 33.678 19.6361 33.8439 19.8465 33.875C19.9492 33.8933 20.036 33.8778 20.0887 33.8568C20.1413 33.8336 20.165 33.8102 20.1677 33.8102L20.1229 33.761C20.1306 33.7557 20.0413 33.8336 19.8624 33.7919C19.686 33.7557 19.465 33.5871 19.2623 33.3458C19.157 33.2237 19.0545 33.076 18.9253 32.9308C18.7991 32.7828 18.6464 32.6453 18.4781 32.5155C18.3122 32.3833 18.128 32.2665 17.949 32.1497C17.7727 32.0304 17.6015 31.9109 17.6015 31.7656C17.5937 31.5841 17.5912 31.3324 17.5491 31.1118C17.5094 30.8861 17.4386 30.6707 17.3568 30.4764C17.2781 30.2712 17.1884 30.1 17.1227 29.9314C17.1173 29.9159 17.1124 29.9029 17.1069 29.8872C17.2517 30.0664 17.4385 30.2399 17.6701 30.3778C17.7385 30.414 17.8069 30.4528 17.8807 30.484C17.9331 30.5023 17.9885 30.5202 18.0412 30.5384C18.207 30.8264 18.4464 31.1898 18.7307 31.5243C18.7991 31.6126 18.878 31.693 18.9545 31.7733C19.0281 31.8564 19.1149 31.9238 19.1911 31.9966C19.3491 32.1367 19.5148 32.2481 19.6625 32.3313C19.7361 32.3755 19.8098 32.4012 19.8727 32.4298C19.9335 32.461 19.9941 32.4741 20.0413 32.487C20.1388 32.5102 20.194 32.526 20.194 32.526L20.2072 32.461C20.2072 32.461 20.1571 32.4428 20.0676 32.4116C20.0228 32.3961 19.9676 32.3805 19.9123 32.3442C19.8546 32.3131 19.786 32.2818 19.7202 32.2352C19.5885 32.1444 19.444 32.0276 19.3017 31.8824C19.2358 31.8073 19.1597 31.7344 19.0965 31.6488C19.0306 31.566 18.9623 31.4829 18.9043 31.3946C18.72 31.1353 18.5621 30.8628 18.4386 30.6187C18.4885 30.6266 18.5307 30.6292 18.5752 30.6318C19.0622 30.6657 19.5805 30.7095 20.0964 30.7695C20.1175 30.798 20.136 30.8291 20.1569 30.8654C20.2043 30.9509 20.2544 31.0495 20.2992 31.1638C20.3201 31.2182 20.3387 31.2778 20.3569 31.3401C20.3728 31.4024 20.3859 31.457 20.3992 31.5321L20.4227 31.6306C20.4386 31.6696 20.4518 31.706 20.4675 31.7424C20.5071 31.8074 20.5518 31.867 20.6045 31.9137C20.707 32.007 20.8254 32.0614 20.9254 32.0926C21.1307 32.1574 21.273 32.155 21.273 32.155L21.2783 32.09C21.2783 32.09 21.2439 32.0873 21.1887 32.0743C21.1307 32.0641 21.0517 32.0434 20.9624 32.0044C20.8728 31.9655 20.7728 31.9056 20.6965 31.8228C20.6571 31.7811 20.6279 31.7295 20.6044 31.6776L20.5781 31.6022L20.5649 31.5012C20.5596 31.444 20.5517 31.3661 20.5386 31.2987C20.528 31.2312 20.5122 31.1638 20.4938 31.1014C20.4622 30.9898 20.4254 30.8888 20.3885 30.8005C20.82 30.8524 21.2492 30.9148 21.6597 30.9875C21.6807 31.0705 21.707 31.1741 21.7438 31.2937C21.7913 31.4389 21.8544 31.6076 21.9439 31.7812C22.0307 31.9552 22.1438 32.1343 22.2914 32.2874C22.3651 32.3677 22.4519 32.4326 22.5255 32.4922C22.6019 32.5518 22.6703 32.6142 22.7387 32.6766C22.8702 32.8036 22.9859 32.9309 23.0781 33.045C23.2652 33.2732 23.3623 33.4444 23.3623 33.4444L23.4202 33.416C23.4202 33.416 23.336 33.2318 23.1652 32.9827C23.078 32.858 22.9731 32.718 22.8439 32.5753C22.7809 32.5051 22.7098 32.4325 22.6361 32.3651C22.5624 32.295 22.4939 32.2329 22.4359 32.1627C22.3202 32.0175 22.2307 31.8488 22.1623 31.6854C22.0964 31.5191 22.0492 31.3584 22.0175 31.2183C22.0018 31.1561 21.9912 31.099 21.9834 31.047C22.5519 31.1561 23.0731 31.2884 23.5071 31.4389C23.9255 31.5841 24.2571 31.7475 24.4706 31.8902C24.5783 31.9603 24.6599 32.0199 24.7072 32.0667C24.7599 32.1132 24.7862 32.1367 24.7862 32.1367L24.8337 32.0953C24.8337 32.0953 24.81 32.0667 24.7599 32.0147C24.7126 31.9629 24.6335 31.8929 24.5283 31.8098C24.3205 31.6489 23.9914 31.4518 23.5756 31.2701C22.8202 30.9408 21.7941 30.65 20.7282 30.4294C20.9727 30.362 21.2492 30.3 21.5308 30.2583C21.6386 30.24 21.7465 30.2323 21.8518 30.2246C21.9595 30.2117 22.0623 30.2169 22.165 30.2142C22.3676 30.2142 22.5545 30.2377 22.7124 30.2713C22.7914 30.2871 22.8598 30.3155 22.923 30.3337C22.9888 30.3492 23.0387 30.3803 23.0809 30.4011C23.1652 30.4428 23.2124 30.466 23.2124 30.466L23.2492 30.4142C23.2492 30.4142 23.2019 30.383 23.1175 30.3311C23.0755 30.3078 23.0255 30.2714 22.9597 30.2482C22.8966 30.2248 22.8255 30.1886 22.744 30.1652C22.5807 30.1157 22.3861 30.0743 22.1729 30.0536C22.0677 30.0484 21.957 30.0329 21.8464 30.0378C21.7361 30.0378 21.623 30.0354 21.5095 30.0458C21.0569 30.0717 20.6122 30.1521 20.2832 30.23C20.2044 30.2477 20.1328 30.2654 20.0672 30.2834C19.1727 30.0349 18.8892 29.5432 18.8892 29.5432C19.3491 29.7115 20.0212 29.6702 20.4628 29.6152C20.4689 29.6159 20.4744 29.6169 20.4805 29.6176C20.6439 29.6332 20.8096 29.6513 20.978 29.6696C21.1438 29.68 21.3149 29.6902 21.4859 29.7008C21.8229 29.7109 22.1648 29.7214 22.507 29.7319C22.8493 29.7421 23.157 29.781 23.4807 29.8407C23.7703 29.9003 24.0518 29.981 24.3179 30.0848C24.3282 30.1833 24.3467 30.3103 24.3834 30.4607C24.4282 30.6319 24.4914 30.8293 24.5968 31.0289C24.7047 31.2263 24.8599 31.4234 25.0626 31.5609C25.1626 31.6307 25.2835 31.6802 25.3864 31.7216C25.4941 31.758 25.5916 31.797 25.681 31.8384C25.7731 31.8826 25.86 31.932 25.9389 31.9813C26.0153 32.0356 26.0865 32.0875 26.147 32.1422C26.2654 32.2538 26.3469 32.3625 26.3942 32.4456C26.4415 32.5262 26.4547 32.5754 26.4547 32.5754L26.518 32.5623C26.518 32.5623 26.4679 32.321 26.2259 32.0668C26.1654 32.0018 26.0943 31.9398 26.0178 31.8748C25.9389 31.8152 25.8496 31.7555 25.7548 31.701C25.6574 31.6466 25.5573 31.5946 25.4574 31.5532C25.3574 31.5037 25.2703 31.4596 25.1888 31.3922C25.031 31.2649 24.9152 31.0913 24.8363 30.9148C24.7598 30.7357 24.7152 30.5542 24.6915 30.3986C24.6808 30.3361 24.673 30.2791 24.6704 30.2271C24.8598 30.3102 25.0415 30.3986 25.223 30.4813C25.494 30.6034 25.7626 30.7096 26.0205 30.7615C26.2785 30.824 26.5232 30.8395 26.7336 30.8369C26.947 30.8446 27.1284 30.811 27.2785 30.8032C27.576 30.7514 27.7443 30.7202 27.7443 30.7202L27.7337 30.6578C27.7337 30.6578 27.5654 30.6735 27.268 30.7019C27.1207 30.6967 26.9417 30.7177 26.7389 30.6943C26.5365 30.6788 26.3099 30.6476 26.0733 30.5697C25.8362 30.5024 25.5969 30.3855 25.3443 30.2454C25.0914 30.1079 24.8256 29.9444 24.531 29.8045C24.2361 29.6565 23.9151 29.5344 23.5808 29.4386C23.252 29.3478 22.8834 29.2776 22.544 29.2387C22.2069 29.2023 21.8697 29.1661 21.535 29.1297C21.3817 29.1068 21.1308 29.0694 20.9772 29.0464C20.8458 29.0222 20.7159 28.999 20.5858 28.9743C20.4357 28.9432 20.2859 28.9094 20.1411 28.873C19.7042 28.733 19.3386 28.2659 19.0463 27.7159C19.0251 27.6693 19.0068 27.6226 18.986 27.5759C18.4586 26.4058 18.0116 25.1185 18.1281 23.8194C18.1855 23.1814 18.3799 22.4897 18.7632 21.9629C19.1383 21.4471 19.7068 21.0973 20.0591 20.559C20.9517 20.8565 21.8575 21.1566 22.7981 21.2106C23.7387 21.2645 24.7347 21.0429 25.4267 20.4125C25.9239 19.9602 26.2339 19.3305 26.6928 18.8487C26.8162 18.93 26.9644 19.0242 27.1382 19.1255C27.6413 19.4189 28.3468 19.7684 29.1178 19.9494C29.2122 19.9763 29.3117 19.9891 29.4076 20.0087C29.4983 20.0262 29.5881 20.0434 29.6774 20.0604C29.7731 20.0759 29.8489 20.1006 29.9278 20.1226C30.0071 20.1416 30.0853 20.1735 30.1624 20.2027C30.3168 20.2609 30.4586 20.3357 30.5884 20.4138C30.7174 20.4934 30.8317 20.5808 30.9325 20.6678C31.1316 20.8442 31.2691 21.022 31.3541 21.1515C31.3975 21.2161 31.4262 21.2692 31.4458 21.305C31.4628 21.3397 31.4721 21.3583 31.4721 21.3583L31.6575 21.2921C31.6575 21.2921 31.6485 21.2679 31.6313 21.2223C31.6133 21.1796 31.5865 21.1174 31.546 21.042L31.5462 21.0423Z" fill="white"/>
<path d="M27.7446 10.3177C30.1371 10.3576 30.2318 7.87842 30.2318 7.87842C30.2318 7.87842 27.7174 7.9592 27.7446 10.3177Z" fill="white"/>
<path d="M21.6655 8.67188C21.6655 8.67188 20.2656 10.7326 22.2244 12.0863C23.653 10.1939 21.6655 8.67188 21.6655 8.67188Z" fill="white"/>
<path d="M19.835 6.59075C19.835 6.59075 20.6892 8.92354 22.956 8.17006C22.256 5.91403 19.835 6.59075 19.835 6.59075Z" fill="white"/>
<path d="M20.4853 8.2386C20.4853 8.2386 18.0771 7.52123 17.3367 9.76371C19.5903 10.5575 20.4853 8.2386 20.4853 8.2386Z" fill="white"/>
<path d="M19.297 5.86709C19.297 5.86709 16.7836 5.7535 16.6235 8.10672C19.0055 8.33156 19.297 5.86709 19.297 5.86709Z" fill="white"/>
<path d="M27.0563 9.20736C27.0563 9.20736 24.6478 8.49 23.9077 10.7323C26.1609 11.526 27.0563 9.20736 27.0563 9.20736Z" fill="white"/>
<path d="M26.3178 16.6493C26.3178 16.6493 25.2848 14.3876 23.0835 15.31C23.9565 17.5067 26.3178 16.6493 26.3178 16.6493Z" fill="white"/>
<path d="M26.6198 12.5404C26.6198 12.5404 25.5444 10.8655 23.9077 11.8396C24.849 13.4808 26.6198 12.5404 26.6198 12.5404Z" fill="white"/>
<path d="M21.1812 16.9424C22.1227 18.5837 23.8935 17.6432 23.8935 17.6432C23.8935 17.6432 22.818 15.9683 21.1812 16.9424Z" fill="white"/>
<path d="M19.4805 12.7612C19.4805 12.7612 17.3674 12.9701 17.5264 14.9546C19.5436 14.8545 19.4805 12.7612 19.4805 12.7612Z" fill="white"/>
<path d="M20.9082 12.9117C21.1264 11.426 19.5464 11.1677 19.5464 11.1677C19.5464 11.1677 19.3957 12.7391 20.9082 12.9117Z" fill="white"/>
<path d="M18.3333 10.8257C18.3333 10.8257 16.7736 11.1826 17.0864 12.6513C18.5851 12.3848 18.3333 10.8257 18.3333 10.8257Z" fill="white"/>
<path d="M27.2636 17.2746C28.7624 17.0081 28.5106 15.449 28.5106 15.449C28.5106 15.449 26.9508 15.8058 27.2636 17.2746Z" fill="white"/>
<path d="M24.7695 18.1875C24.7695 18.1875 23.21 18.5444 23.5229 20.0132C25.0214 19.7467 24.7695 18.1875 24.7695 18.1875Z" fill="white"/>
<path d="M30.0109 11.2888C31.8094 10.9689 31.5072 9.0979 31.5072 9.0979C31.5072 9.0979 29.6356 9.52642 30.0109 11.2888Z" fill="white"/>
<path d="M25.7905 20.4517C26.5648 22.0837 28.3223 21.3163 28.3223 21.3163C28.3223 21.3163 27.4227 19.6425 25.7905 20.4517Z" fill="white"/>
<path d="M28.9753 20.377C28.0013 21.9013 29.6064 22.944 29.6064 22.944C29.6064 22.944 30.5482 21.293 28.9753 20.377Z" fill="white"/>
<path d="M28.5106 5.46143C28.5106 5.46143 26.9508 5.81854 27.2636 7.28725C28.7624 7.02074 28.5106 5.46143 28.5106 5.46143Z" fill="white"/>
<path d="M28.9983 19.289C30.184 19.4745 30.4074 18.2495 30.4074 18.2495C30.4074 18.2495 29.1525 18.1157 28.9983 19.289Z" fill="white"/>
<path d="M29.2568 17.3266C30.4424 17.5121 30.6659 16.2871 30.6659 16.2871C30.6659 16.2871 29.411 16.1533 29.2568 17.3266Z" fill="white"/>
<path d="M17.85 16.3708C17.85 16.3708 17.6224 17.9335 19.1243 18.1781C19.4152 16.7045 17.85 16.3708 17.85 16.3708Z" fill="white"/>
<path d="M5.65187 9.8911C5.67926 7.53305 3.16479 7.4519 3.16479 7.4519C3.16479 7.4519 3.25925 9.93124 5.65187 9.8911Z" fill="white"/>
<path d="M10.8454 12.0863C12.8042 10.7327 11.404 8.67188 11.404 8.67188C11.404 8.67188 9.4165 10.1938 10.8454 12.0863Z" fill="white"/>
<path d="M13.235 6.59077C13.235 6.59077 10.8139 5.91398 10.114 8.17008C12.3808 8.92363 13.235 6.59077 13.235 6.59077Z" fill="white"/>
<path d="M12.5845 8.23862C12.5845 8.23862 13.4796 10.5576 15.7331 9.76373C14.9928 7.52118 12.5845 8.23862 12.5845 8.23862Z" fill="white"/>
<path d="M13.9072 6.13237C13.9072 6.13237 14.0844 7.63134 15.5333 7.4946C15.436 6.06324 13.9072 6.13237 13.9072 6.13237Z" fill="white"/>
<path d="M9.16212 10.7323C8.42176 8.48994 6.01343 9.20738 6.01343 9.20738C6.01343 9.20738 6.9086 11.5261 9.16212 10.7323Z" fill="white"/>
<path d="M6.7522 16.6493C6.7522 16.6493 9.11371 17.5067 9.98663 15.31C7.78506 14.3875 6.7522 16.6493 6.7522 16.6493Z" fill="white"/>
<path d="M9.42536 11.8397C7.78857 10.8654 6.71313 12.5404 6.71313 12.5404C6.71313 12.5404 8.48382 13.4809 9.42536 11.8397Z" fill="white"/>
<path d="M11.889 16.9422C10.2522 15.968 9.17676 17.6429 9.17676 17.6429C9.17676 17.6429 10.9474 18.5835 11.889 16.9422Z" fill="white"/>
<path d="M13.1777 12.5234C13.1777 12.5234 13.1144 14.6168 15.1319 14.7168C15.2908 12.7323 13.1777 12.5234 13.1777 12.5234Z" fill="white"/>
<path d="M13.5236 11.1677C13.5236 11.1677 11.9436 11.4261 12.1618 12.9117C13.6742 12.7391 13.5236 11.1677 13.5236 11.1677Z" fill="white"/>
<path d="M14.0845 10.2446C14.0845 10.2446 13.8327 11.8038 15.3313 12.0706C15.6442 10.6015 14.0845 10.2446 14.0845 10.2446Z" fill="white"/>
<path d="M5.80643 17.2746C6.11918 15.8058 4.55965 15.449 4.55965 15.449C4.55965 15.449 4.30771 17.0081 5.80643 17.2746Z" fill="white"/>
<path d="M8.30035 18.1875C8.30035 18.1875 8.04855 19.7467 9.54728 20.0132C9.86003 18.5444 8.30035 18.1875 8.30035 18.1875Z" fill="white"/>
<path d="M3.05884 11.2888C3.43412 9.52642 1.56257 9.0979 1.56257 9.0979C1.56257 9.0979 1.26039 10.9688 3.05884 11.2888Z" fill="white"/>
<path d="M14.8915 2.18836C15.2508 0.501169 13.5517 0.0366191 13.4056 0H13.395C13.384 0.072579 13.1293 1.87519 14.8915 2.18836Z" fill="white"/>
<path d="M7.27939 20.4517C5.64722 19.6425 4.7478 21.3163 4.7478 21.3163C4.7478 21.3163 6.50502 22.0836 7.27939 20.4517Z" fill="white"/>
<path d="M3.46363 22.944C3.46363 22.944 5.06849 21.9013 4.0945 20.377C2.52165 21.2929 3.46363 22.944 3.46363 22.944Z" fill="white"/>
<path d="M5.35856 7.28725C5.67139 5.81854 4.11163 5.46143 4.11163 5.46143C4.11163 5.46143 3.85983 7.02074 5.35856 7.28725Z" fill="white"/>
<path d="M6.91495 5.96484C7.22771 4.49605 5.66803 4.13916 5.66803 4.13916C5.66803 4.13916 5.41623 5.69847 6.91495 5.96484Z" fill="white"/>
<path d="M10.2119 1.94312C10.2119 1.94312 8.87604 3.16085 10.024 4.43644C11.3499 3.34174 10.2119 1.94312 10.2119 1.94312Z" fill="white"/>
<path d="M12.1299 0.525635C12.1299 0.525635 10.7939 1.74329 11.9421 3.0191C13.2678 1.92448 12.1299 0.525635 12.1299 0.525635Z" fill="white"/>
<path d="M4.07178 19.289C3.91756 18.1157 2.6626 18.2495 2.6626 18.2495C2.6626 18.2495 2.88596 19.4745 4.07178 19.289Z" fill="white"/>
<path d="M2.40405 16.2871C2.40405 16.2871 2.62742 17.5121 3.81324 17.3266C3.65909 16.1533 2.40405 16.2871 2.40405 16.2871Z" fill="white"/>
<path d="M14.0551 17.9113C15.4894 17.5058 15.089 16.01 15.089 16.01C15.089 16.01 13.603 16.5088 14.0551 17.9113Z" fill="white"/>
<path d="M23.3179 6.60032C24.1125 4.37527 21.7562 3.50366 21.7562 3.50366C21.7562 3.50366 21.0398 5.88112 23.3179 6.60032Z" fill="white"/>
<path d="M26.3177 4.08447C26.3177 4.08447 23.8074 4.24428 23.9108 6.60028C26.3036 6.56542 26.3177 4.08447 26.3177 4.08447Z" fill="white"/>
<path d="M24.1035 7.13336C25.1623 9.24892 27.4416 8.19714 27.4416 8.19714C27.4416 8.19714 26.2177 6.03017 24.1035 7.13336Z" fill="white"/>
<path d="M29.11 14.2545C29.9043 12.0292 27.5483 11.1575 27.5483 11.1575C27.5483 11.1575 26.8317 13.5351 29.11 14.2545Z" fill="white"/>
<path d="M29.7033 14.2543C32.0959 14.2192 32.1103 11.7383 32.1103 11.7383C32.1103 11.7383 29.5996 11.8982 29.7033 14.2543Z" fill="white"/>
<path d="M29.8958 14.7871C30.9547 16.9027 33.2337 15.8511 33.2337 15.8511C33.2337 15.8511 32.0103 13.684 29.8958 14.7871Z" fill="white"/>
<path d="M33.1501 16.1082C33.1501 16.1082 31.7738 16.2273 31.8609 17.5196C33.1739 17.4704 33.1501 16.1082 33.1501 16.1082Z" fill="white"/>
<path d="M31.9802 17.8183C32.481 19.0161 33.7695 18.5228 33.7695 18.5228C33.7695 18.5228 33.18 17.2908 31.9802 17.8183Z" fill="white"/>
<path d="M31.7436 18.0227C30.8613 18.9829 31.8661 19.9182 31.8661 19.9182C31.8661 19.9182 32.7416 18.8647 31.7436 18.0227Z" fill="white"/>
<path d="M34.1709 19.5618C34.1645 19.5604 32.1487 19.1119 31.6719 20.9947C33.5611 21.516 34.1646 19.5825 34.1709 19.5623V19.5618Z" fill="white"/>
<path d="M31.7039 21.4751C31.8621 23.413 33.9321 23.291 33.9321 23.291C33.9321 23.291 33.6637 21.2642 31.7039 21.4751Z" fill="white"/>
<path d="M30.5619 24.4235C30.5619 24.4235 32.3036 23.315 31.2695 21.6602C29.562 22.6324 30.5619 24.4235 30.5619 24.4235Z" fill="white"/>
<path d="M10.1361 6.62102C12.5177 6.40013 12.3351 3.92651 12.3351 3.92651C12.3351 3.92651 9.84418 4.27952 10.1361 6.62102Z" fill="white"/>
<path d="M9.5569 6.49581C10.1706 4.21627 7.75324 3.5293 7.75324 3.5293C7.75324 3.5293 7.22754 5.95546 9.5569 6.49581Z" fill="white"/>
<path d="M5.76099 7.30859C5.76099 7.30859 7.75839 8.81788 9.25272 6.97521C7.42762 5.45083 5.76099 7.30859 5.76099 7.30859Z" fill="white"/>
<path d="M20.3015 4.02148C20.3015 4.02148 17.9546 3.12563 17.0449 5.30762C19.2309 6.26587 20.3015 4.02148 20.3015 4.02148Z" fill="white"/>
<path d="M16.6026 4.91841C18.2708 3.2283 16.5052 1.46143 16.5052 1.46143C16.5052 1.46143 14.8407 3.32219 16.6026 4.91841Z" fill="white"/>
<path d="M16.0989 5.18958C15.2661 2.97896 12.8896 3.79286 12.8896 3.79286C12.8896 3.79286 13.8804 6.07364 16.0989 5.18958Z" fill="white"/>
<path d="M4.21755 14.4387C6.53716 13.8623 5.97402 11.4448 5.97402 11.4448C5.97402 11.4448 3.56688 12.1686 4.21755 14.4387Z" fill="white"/>
<path d="M3.62585 14.4017C3.87959 12.0569 1.38424 11.7415 1.38424 11.7415C1.38424 11.7415 1.24007 14.2182 3.62585 14.4017Z" fill="white"/>
<path d="M3.39944 14.9218C1.35976 13.6896 0 15.7762 0 15.7762C0 15.7762 2.20767 16.9675 3.39944 14.9218Z" fill="white"/>
</svg>
