<svg width="14" height="16" viewBox="0 0 14 16" fill="none" xmlns="http://www.w3.org/2000/svg">
<path d="M13.7775 14.5398L8.88688 6.85391L13.7127 1.54531C13.8218 1.42228 13.878 1.2612 13.8692 1.09697C13.8604 0.932746 13.7872 0.778621 13.6655 0.668012C13.5437 0.557404 13.3833 0.499225 13.219 0.50609C13.0547 0.512956 12.8997 0.584312 12.7877 0.704687L8.19078 5.76094L5.0275 0.789844C4.97109 0.701058 4.89319 0.627946 4.80101 0.57728C4.70883 0.526613 4.60535 0.500033 4.50016 0.5H0.750157C0.638095 0.499946 0.52808 0.530021 0.431632 0.587078C0.335183 0.644135 0.255849 0.726073 0.201936 0.824314C0.148024 0.922555 0.121516 1.03348 0.125189 1.14548C0.128862 1.25749 0.16258 1.36644 0.222813 1.46094L5.11344 9.14609L0.287657 14.4586C0.231303 14.5191 0.187524 14.5902 0.158858 14.6678C0.130193 14.7454 0.117209 14.8279 0.120662 14.9105C0.124115 14.9932 0.143934 15.0743 0.178971 15.1492C0.214009 15.2241 0.263567 15.2914 0.324775 15.347C0.385982 15.4026 0.457621 15.4455 0.535539 15.4733C0.613457 15.501 0.696105 15.513 0.778692 15.5085C0.86128 15.5041 0.942164 15.4833 1.01666 15.4474C1.09115 15.4114 1.15777 15.3611 1.21266 15.2992L5.80953 10.243L8.97281 15.2141C9.02968 15.3021 9.10779 15.3745 9.19994 15.4244C9.29209 15.4744 9.39533 15.5004 9.50016 15.5H13.2502C13.3621 15.5 13.472 15.4699 13.5683 15.4128C13.6646 15.3558 13.7439 15.274 13.7978 15.1759C13.8517 15.0778 13.8782 14.967 13.8746 14.8551C13.8711 14.7432 13.8375 14.6343 13.7775 14.5398ZM9.84313 14.25L1.88844 1.75H4.15406L12.1119 14.25H9.84313Z" fill="#0A4519"/>
</svg>
