<svg width="14" height="16" viewBox="0 0 14 16" fill="none" xmlns="http://www.w3.org/2000/svg">
<path d="M13.7773 14.5398L8.88669 6.85391L13.7125 1.54531C13.8216 1.42228 13.8779 1.2612 13.869 1.09697C13.8602 0.932746 13.787 0.778621 13.6653 0.668012C13.5436 0.557404 13.3832 0.499225 13.2188 0.50609C13.0545 0.512956 12.8995 0.584312 12.7875 0.704687L8.1906 5.76094L5.02732 0.789844C4.97091 0.701058 4.89301 0.627946 4.80082 0.57728C4.70864 0.526613 4.60516 0.500033 4.49997 0.5H0.749974C0.637912 0.499946 0.527897 0.530021 0.431449 0.587078C0.335 0.644135 0.255666 0.726073 0.201753 0.824314C0.147841 0.922555 0.121333 1.03348 0.125006 1.14548C0.128679 1.25749 0.162397 1.36644 0.22263 1.46094L5.11326 9.14609L0.287474 14.4586C0.23112 14.5191 0.187341 14.5902 0.158675 14.6678C0.130009 14.7454 0.117026 14.8279 0.120479 14.9105C0.123931 14.9932 0.143751 15.0743 0.178788 15.1492C0.213826 15.2241 0.263384 15.2914 0.324591 15.347C0.385799 15.4026 0.457438 15.4455 0.535356 15.4733C0.613274 15.501 0.695922 15.513 0.778509 15.5085C0.861097 15.5041 0.941981 15.4833 1.01647 15.4474C1.09097 15.4114 1.15759 15.3611 1.21247 15.2992L5.80935 10.243L8.97263 15.2141C9.0295 15.3021 9.1076 15.3745 9.19976 15.4244C9.29191 15.4744 9.39515 15.5004 9.49997 15.5H13.25C13.3619 15.5 13.4718 15.4699 13.5681 15.4128C13.6645 15.3558 13.7437 15.274 13.7976 15.1759C13.8515 15.0778 13.878 14.967 13.8745 14.8551C13.8709 14.7432 13.8373 14.6343 13.7773 14.5398ZM9.84294 14.25L1.88826 1.75H4.15388L12.1117 14.25H9.84294Z" fill="white"/>
</svg>
